<svg xmlns="http://www.w3.org/2000/svg" width="283.47" height="108.86" viewBox="0 0 283.47 108.86"><defs><style>.cls-1{fill:none;}.cls-2{fill:#21409a;}.cls-3{fill:#ed1a3b;}</style></defs><title>Asset 1</title><g id="Layer_2" data-name="Layer 2"><g id="Artwork"><polygon class="cls-1" points="37.23 82.78 37.24 82.78 37.24 82.78 37.23 82.78"/><polygon class="cls-2" points="115.46 82.78 115.46 82.78 115.46 82.78 115.46 82.78"/><path class="cls-2" d="M53.77,45.12h9.87c16.23,0,24.5,3.55,24.5,13,0,8.42-6.64,12-17,12H55.3L37.24,82.78H71c20.2,0,33.81-7.28,33.81-24.11,0-14.68-12-20.45-22.79-20.45,7.43,0,16.2-6.65,16.2-17.93S87.88.91,76.12.91H34.22l3,6.7V76.89L53.77,65.32Zm0-31.56H71.1c4.76,0,10.78,1.13,10.78,9.21s-8.61,11.37-15,11.37H53.77Z"/><path class="cls-2" d="M132,13.56h11.26c4.65,0,28.34,1.17,28.34,28.29,0,30.93-28.34,28.28-28.34,28.28h-9.72L115.46,82.78H147.9c20.2,0,40.92-12.43,40.92-40.94C188.82,16.57,170.73.91,147.9.91H112.44l3,6.7V76.89L132,65.32Z"/><path class="cls-2" d="M196.46,41.84c0,32.67,26.4,41.85,43.5,41.85s43.51-9.18,43.51-41.85S257.07,0,240,0,196.46,9.18,196.46,41.84Zm17.22,0c0-23.15,15.95-29.65,26.28-29.65s26.29,6.5,26.29,29.65S250.3,71.5,240,71.5,213.68,65,213.68,41.84Z"/><polygon class="cls-3" points="0 0.91 0 102.97 16.15 91.66 16.15 0.91 0 0.91"/><polygon class="cls-3" points="19.17 95.44 0 108.86 282.57 108.86 282.57 95.44 19.17 95.44"/></g></g></svg>