<svg xmlns="http://www.w3.org/2000/svg" version="1" viewBox="0 0 4250 816">
  <path fill="#da251d" d="M107 814C42 803-5 737 1 672c0-187-1-373 1-560C11 49 71-5 137 1c187-1 376-1 564 1 70 7 120 79 112 148 1 184 2 368-1 552-8 64-69 119-135 113-190 0-380 2-570-1z"/>
  <path fill="#fff" d="M300 702c101-14 206-56 264-143 21-31 29-70 12-107-14-28-77-61-22-77 61-35 134-72 155-145 14-64-47-116-105-121-82-10-162 24-230 68-38 31-54 80-81 120-60 103-124 204-181 309-18 46 32 79 70 88 39 11 79 12 118 8z"/>
  <path fill="#da251d" d="M270 642c-43-6-42-59-17-85 70-118 139-238 211-354 39-49 137-8 122 55-27 68-99 100-157 138-39 13-39 55-3 72 45 26 28 83-4 113-39 38-97 67-152 61z"/>
  <path fill="#233754" d="M2736 107c-3-3-26-48-26-50s1-4 3-5l2-2h104l105 1 3 2v52l-3 2-3 3h-183zm1272 226a4973 4973 0 0 0-70-155l-6 14a3222 3222 0 0 1-61 138l-2 4h70l69-1zm-343 235c-8-4-13-13-11-21 1-4 224-486 228-491l5-4c4-2 6-2 50-2 51 0 50-1 56 5 3 4 241 486 242 492 3 9-3 19-12 21a516 516 0 0 1-107-4c-2-2-14-26-34-72l-32-68h-220l-30 68c-16 38-31 70-32 71l-6 5-49 1-48-1zm-621 0c-6-3-9-8-11-14V306l1-246c3-5 9-9 13-10h89l4 3c8 7 7-1 7 102v93h265l1-93 1-95c3-4 7-8 11-9l45-1c41 0 44 0 47 2 5 2 8 6 9 10l1 250v245l-3 4c-1 2-4 5-7 6l-5 3h-42l-46-2c-6-3-9-7-11-13l-1-110V342h-264l-1 108v107l-3 4-6 6c-3 2-3 2-47 2-41 1-43 0-47-1zm-378-235a4846 4846 0 0 0-70-155l-3 7a1790 1790 0 0 1-64 144l-2 5h70l69-1zm-343 235c-8-4-13-13-11-20 0-3 225-488 227-492l7-4c4-2 5-2 50-2 49 0 49 0 54 5 4 4 243 489 244 494 1 8-5 17-13 19a573 573 0 0 1-107-4l-34-71-32-69h-220l-30 68c-16 38-31 70-32 71l-6 5-49 1-48-1zm-540 1c-4-2-8-5-11-10l-2-4V309c0-238 0-246 2-249l6-7 3-3h90c3 1 10 5 12 9l1 209 1 207 137 1h138l4 3c7 6 7 7 7 45v33l-3 4-8 6-4 3-185-1h-188zm-402-317c37-2 54-4 68-11 16-8 24-20 26-35 2-17-1-31-10-40-11-12-23-17-52-20-10-1-29-2-86-2l-73-1v54l1 55h126zm43 222c20-2 40-9 52-16 7-5 14-13 18-20 4-8 5-16 5-27 0-17-4-29-15-39-11-12-27-18-57-22-17-3-39-3-104-3h-69v63l1 65c1 1 157 0 169-1zm-271 95c-5-2-8-5-11-10l-2-4V309c0-238 0-246 2-249l6-7 3-3h132c121 0 133 0 146 2 50 6 84 19 110 41 36 30 52 67 49 110-2 30-17 58-40 77l-10 8-2 2 8 4c20 10 41 28 52 44 15 23 22 48 21 80-2 40-13 69-39 94-31 31-75 48-144 55-13 2-32 2-147 2h-134zm1750 107l-4-7-2-3h44v15h-36zm1297 68a1156 1156 0 0 0-25-58l-2-7-3 10-23 55 26 1 27-1zm-98 54l30-67 30-65h23l29 61c17 33 31 63 32 67l3 6h-23l-10-21-9-20h-33l-33 1-10 20-8 20h-11c-8 0-11-1-10-2zm-265-65v-67h32l21 53a6627 6627 0 0 1 24 61l3-6 23-57 21-51h28v134h-20v-57c0-53 0-56-2-52l-23 56-21 52-10 1h-9l-23-57-23-57v57l-1 57h-20v-67zm-172-9c8-2 16-6 20-11 5-7 4-20-2-26-7-6-21-8-55-7h-24v22l-1 23h28l34-1zm-82 9v-67h44l49 1c8 1 18 5 23 10l7 10c3 6 4 8 4 15 0 6-1 9-3 13-2 6-9 13-15 16-5 3-16 6-22 7l-4 1 6 3c8 4 19 15 35 37l15 19c0 1-3 2-12 2h-13l-15-20c-17-22-27-33-34-36-6-3-18-5-33-4h-11v30l-1 30h-20zm-154 0v-67h21v134h-21zm-233 0v-67h107v15h-86v42h75v16h-75v61h-21zm-343 0v-67h21v134h-21zm-259 0v-67h22l41 52 42 52V666h20v134h-10l-11-1-42-52-41-53v53l-1 53h-20v-67zm-164-14c11-5 15-16 10-27-3-5-7-8-14-9l-30-2-25-1v42l28-1c23 0 27 0 31-2zm-6 65c16-3 25-10 25-23 0-9-4-15-11-19-7-3-18-4-43-4h-24v47l23-1h30zm-74-51v-67h36c39 0 46 0 57 5 6 3 14 10 17 16 2 6 3 17 1 23-2 5-8 12-15 15-4 3-5 4-3 4 12 4 18 8 22 14 4 7 6 12 5 21-1 17-10 27-30 33-7 2-9 2-48 2l-42 1zm-242 0v-67h115v15h-94v42h88v15h-87v23l-1 24h98v15h-119zm-198 66l-61-133h23l21 51a2781 2781 0 0 1 28 67l5-11 25-59 22-48h10l10 1-31 67-30 66h-11l-11-1zm-217-79l-14-32-3-9-2 8a411 411 0 0 1-24 57l27 1h27zm-88 77l31-66 29-65h11l12-1 32 66 32 67c0 1-2 2-11 2h-12l-9-21-9-20h-67l-9 20-8 20h-11l-12 1 1-3zm-174-57v-59h-53v-15h127v15h-53v119h-21zm-235 61c-31-2-50-16-55-38l-1-6 10-1 10-1 2 7c3 12 14 20 31 23 23 4 46-2 52-14 3-5 2-12-1-17-5-6-12-9-30-13-42-9-50-12-59-20-6-7-8-12-8-22 0-17 11-28 34-33 10-3 31-3 43-1 20 4 34 17 37 32v6l-9 1h-9l-2-5c-3-8-9-14-17-18-6-2-8-2-21-2-12 0-16 0-21 2-16 5-20 20-9 29 5 4 11 6 34 11 31 6 42 10 50 19 5 5 8 10 9 16s0 16-3 21c-4 9-16 17-29 21-6 2-25 5-28 4l-10-1z"/>
</svg>
