<svg xmlns="http://www.w3.org/2000/svg" width="162.8" height="52.9" version="1.2" viewBox="0 0 122.1 39.7"><path fill="#1175c7" d="M14.6 25l2.1-7H9v-2h8.3l2-6.7H9v-2h10.9l2.1-7H.7v24.6zM83 15.7L78.5.2H67V25h7.2V9.5l4.5 15.4h11.7V.2H83v15.6zm-23.2 2.8c2.6 0 4.7-2.2 4.7-5 0-2.7-2-5.2-4.6-5.2-2.7 0-4.8 2.5-4.8 5.2 0 2.8 2 5 4.7 5M55.9.2H33.7v7h7V25H52c-.7-.4-5.5-4.2-5.5-11.4 0-6 3.6-11.7 9.4-13.3M25.7 18.4l-2 6.5h11.6l-1.8-6.5zm4-13.4l2.2 7.9h-4.5zm0 0"/><path fill="#211e1e" d="M19.7 37.6h.6l.7-3.2h1.1c1.2 0 1.8-.6 2-2 .4-1.5-.5-1.6-1-1.6h-2zm2-6.3h1c.6 0 1 .1.8 1.3-.2 1-.7 1.3-1.3 1.3h-1.1zm3.6 6.4c1.1 0 1.8-.7 2-2l.3-1c.2-1.2-.2-2-1.3-2-1 0-1.7.8-2 2l-.2 1c-.3 1.3 0 2 1.2 2m1-4.5c.9 0 .8.8.6 2-.3 1.3-.6 2-1.5 2-1 0-1-.7-.6-2 .2-1.2.5-2 1.4-2m2.5 4.4h.7l1.9-4 .2 4h.7l2.3-4.8h-.6L32 37v-4.2H31L29.2 37l-.2-4.2h-.6zm9-2.3c.3-1.4.6-2.5-1-2.5-1.1 0-1.8.6-2.1 2l-.3 1.1c-.3 1.5.5 1.8 1.3 1.8 1 0 1.6-.4 2-1.5H37c-.2.6-.6 1-1.3 1-.9 0-.9-.8-.8-1.5l.1-.4zm-2.6-.4c.2-1 .5-1.7 1.4-1.7 1 0 1 .6.7 1.7zm4.7-2h-.5l-1 4.7h.5l.7-3c.1-.9.7-1.3 1.5-1.3l.2-.5c-.6 0-1.2.2-1.5.7zm1.7 4.7l1-4.8H42l-1 4.8zm1.4-6l.1-.8h-.7l-.1.7zm1 3c.3-1 .9-1.4 1.4-1.4.7 0 .8.5.6 1l-.7 3.4h.6l.7-3.4c.1-.6.2-1.4-1-1.4-.5 0-.9.2-1.2.6v-.6h-.5l-1 4.8h.6zm5.3-1.4c.5 0 1 .4.8 1.4a5.7 5.7 0 0 1-.6 2c-.2.2-.5.5-1 .5-1 0-.8-1-.6-2 .2-.7.4-1.9 1.4-1.9m1 .2c0-.4-.5-.6-1-.6-1 0-1.4.7-1.5.9-.3.5-.3.5-.5 1.6-.2 1-.4 2.3 1 2.3.4 0 1-.2 1.2-.6-.2 1.4-.3 2-1.4 2-.5 0-.8-.3-.7-.9h-.6c-.1.5 0 1.4 1.1 1.4 1.4 0 1.8-.7 2-1.7l.9-4 .2-1h-.5zm4.3.4l.5-2.5h1.2c.5 0 1.1 0 .9 1.2-.2.7-.6 1.3-1.5 1.3zm.5 3.8c1.1 0 1.9-.7 2.1-1.9.2-.8 0-1.4-.8-1.6 1-.3 1.2-.9 1.4-1.7.2-1.2-.2-1.6-1.3-1.6h-1.9l-1.4 6.8zm-.6-3.3h1.2c1 0 1 .9 1 1.5-.3 1-.9 1.3-1.8 1.3h-1zm6.7-1.5l-.7 3.4c-.1.3-.5 1-1.3 1s-.6-1-.5-1l.7-3.4h-.6l-.7 3.4c-.2.8 0 1.5 1 1.5.4 0 .8-.2 1.2-.6v.5h.4l1-4.8zm3.6 3.6c.3-1.6-1.9-1.3-1.6-2.5 0-.4.4-.7.8-.7.7 0 .8.3.7 1h.5c.2-.8 0-1.4-1-1.4-.7 0-1.4.3-1.6 1.1-.3 1.6 1.9 1.3 1.6 2.5-.1.6-.4.9-1 .9-.7 0-.8-.5-.6-1.1h-.6c-.2 1 0 1.5 1.1 1.5.9 0 1.5-.4 1.7-1.3m1.4 1.2l1-4.8h-.6l-1 4.8zm1.4-6l.1-.8H67l-.1.7zm1 3c.3-1 .9-1.4 1.4-1.4.6 0 .8.5.6 1l-.7 3.4h.6l.7-3.4c.1-.6.2-1.4-1-1.4-.5 0-.9.2-1.3.6l.1-.6h-.5l-1 4.8h.5zm6.6.7c.3-1.4.5-2.5-1-2.5-1.1 0-1.8.6-2.1 2l-.3 1.1c-.3 1.5.5 1.8 1.3 1.8 1 0 1.6-.4 2-1.5h-.7c0 .6-.5 1-1.2 1-1 0-1-.8-.8-1.5l.1-.4zm-2.6-.4c.2-1 .5-1.7 1.4-1.7 1 0 1 .6.7 1.7zm6 1.5c.3-1.6-1.8-1.3-1.6-2.5 0-.4.5-.7.9-.7.6 0 .7.3.6 1h.5c.2-.8 0-1.4-.9-1.4-.8 0-1.5.3-1.7 1.1-.3 1.6 1.9 1.3 1.6 2.5 0 .6-.4.9-1 .9-.7 0-.7-.5-.6-1.1h-.6c-.2 1 .1 1.5 1.1 1.5s1.5-.4 1.7-1.3m3.6 0c.3-1.6-1.9-1.3-1.6-2.5 0-.4.5-.7.9-.7.6 0 .7.3.6 1h.5c.2-.8 0-1.4-.9-1.4-.8 0-1.5.3-1.7 1.1-.3 1.6 1.9 1.3 1.6 2.5 0 .6-.4.9-1 .9-.7 0-.7-.5-.6-1.1h-.6c-.2 1 .1 1.5 1.1 1.5.9 0 1.5-.4 1.7-1.3m4.4.4l-.1-6h-.6l.2 6.8h.7l2.7-6v6h.9l3-6.8h-.5l-2.7 6-.1-6h-.8zm7.4.9c1 0 1.7-.7 2-2l.2-1c.3-1.2 0-2-1.2-2-1 0-1.8.8-2 2l-.2 1c-.3 1.3 0 2 1.2 2m1-4.5c.8 0 .8.8.6 2-.3 1.3-.6 2-1.5 2-1 0-1-.7-.7-2 .3-1.2.6-2 1.5-2m3.3-.4h-.6l-1 4.8h.6l.6-3c.2-.9.8-1.3 1.6-1.3l.1-.5c-.5 0-1.1.2-1.4.7zm1.7 4.8l1.4-6.8h-.5l-1.5 6.8zm2.8-.3c-.7 0-1-.3-.6-2 .2-1.2.4-2.1 1.4-2.1 1 0 .8 1.3.7 1.6l-.2.9c-.2 1.1-.8 1.6-1.3 1.6m1 .3h.5l.2-1 1.2-5.8h-.6l-.5 2.5c-.2-.4-.6-.5-1-.5-1.5 0-1.8 1.5-2 2.4-.2 1.1-.5 2.5 1 2.5.5 0 .9-.2 1.3-.7zm2.4 0h.7l1.9-4 .1 4h.8l2.3-4.8h-.6l-2 4.2-.1-4.2h-.7l-1.9 4.2-.2-4.2h-.6zm6.1 0l1-4.8h-.5l-1 4.8zm1.4-6l.1-.8h-.7l-.1.7zm1.4 5.7c-.6 0-1-.3-.6-2 .2-1.2.4-2.1 1.4-2.1 1 0 .8 1.3.7 1.6l-.1.9c-.3 1.1-.9 1.6-1.4 1.6m1 .3h.5l.2-1 1.2-5.8h-.5l-.6 2.5c-.2-.4-.6-.5-1-.5-1.5 0-1.8 1.5-2 2.4-.2 1.1-.4 2.5 1 2.5.5 0 .9-.2 1.3-.7zm5.2-2.3c.3-1.4.6-2.5-1-2.5-1.1 0-1.8.6-2.1 2l-.3 1.1c-.3 1.5.5 1.8 1.3 1.8 1 0 1.6-.4 2-1.5h-.7c0 .6-.5 1-1.2 1-.9 0-.9-.8-.8-1.5l.1-.4zm-2.6-.4c.2-1 .5-1.7 1.4-1.7 1 0 1 .6.7 1.7zm0 0"/></svg>