<?xml version="1.0" encoding="UTF-8" standalone="no"?>
<!-- Generator: Adobe Illustrator 23.1.0, SVG Export Plug-In . SVG Version: 6.00 Build 0)  -->

<svg
   xmlns:dc="http://purl.org/dc/elements/1.1/"
   xmlns:cc="http://creativecommons.org/ns#"
   xmlns:rdf="http://www.w3.org/1999/02/22-rdf-syntax-ns#"
   xmlns:svg="http://www.w3.org/2000/svg"
   xmlns="http://www.w3.org/2000/svg"
   xmlns:sodipodi="http://sodipodi.sourceforge.net/DTD/sodipodi-0.dtd"
   xmlns:inkscape="http://www.inkscape.org/namespaces/inkscape"
   version="1.1"
   id="Layer_1"
   x="0px"
   y="0px"
   viewBox="0 0 440 64"
   style="enable-background:new 0 0 440 64;"
   xml:space="preserve"
   sodipodi:docname="euroclean.svg"
   inkscape:version="0.92.4 (5da689c313, 2019-01-14)"><metadata
   id="metadata33"><rdf:RDF><cc:Work
       rdf:about=""><dc:format>image/svg+xml</dc:format><dc:type
         rdf:resource="http://purl.org/dc/dcmitype/StillImage" /></cc:Work></rdf:RDF></metadata><defs
   id="defs31" /><sodipodi:namedview
   pagecolor="#ffffff"
   bordercolor="#666666"
   borderopacity="1"
   objecttolerance="10"
   gridtolerance="10"
   guidetolerance="10"
   inkscape:pageopacity="0"
   inkscape:pageshadow="2"
   inkscape:window-width="1920"
   inkscape:window-height="1017"
   id="namedview29"
   showgrid="false"
   inkscape:zoom="0.86136364"
   inkscape:cx="68.496042"
   inkscape:cy="32"
   inkscape:window-x="-8"
   inkscape:window-y="-8"
   inkscape:window-maximized="1"
   inkscape:current-layer="Layer_1" />
<style
   type="text/css"
   id="style2">
	.st0{fill-rule:evenodd;clip-rule:evenodd;fill:#FFFFFF;}
</style>
<path
   class="st0"
   d="M291.94,24.31l-1.43,0.1l0,0c-4.94,0.29-9.6,1.71-13.88,4.47c-4.28,2.66-7.7,6.27-10.17,10.55  c-0.86,1.71-1.52,3.14-1.9,4.28c-2.57,6.94-2,12.26,1.9,15.97c2.95,2.76,7.32,4.18,12.93,4.18c3.99,0,7.7-0.67,11.12-2  c3.61-1.24,7.22-3.42,10.74-6.56l0,0l2.57-6.65l0,0c-3.71,2.85-7.79,4.18-12.26,4.18l0,0l-1.05-0.09l0,0  c-4.18-0.29-6.27-2.38-6.27-6.18l0,0h20.25l1.52-4.56l0,0c0.86-3.52,0.86-6.75,0-9.51C304.21,26.97,299.55,24.31,291.94,24.31  L291.94,24.31L291.94,24.31L291.94,24.31z M290.52,34.29l1.9-0.29l0,0c2.95,0,3.8,1.9,2.57,5.89l0,0h-9.41l0,0  C286.62,37.05,288.24,35.15,290.52,34.29L290.52,34.29L290.52,34.29z"
   id="path4"
   style="fill:#000000" />
<path
   class="st0"
   d="M312.57,45.6c-3.23,2-5.42,4.66-6.56,7.99c-0.95,2.57-0.95,4.75,0,6.56c1.14,2.19,3.33,3.33,6.56,3.33  c3.61,0,7.22-1.05,10.65-3.04c0.1,0,0.19,0,0.29-0.1l0,0l-0.29,0.48l-0.76,2.38h19.87l7.51-20.53l0.19-0.48l0,0  c2.28-6.08,2.19-10.46-0.19-13.31c-2.19-2.76-6.56-4.09-13.21-4.09c-4.66,0-9.13,0.57-13.4,1.81c-2.09,0.67-4.56,1.52-7.22,2.76l0,0  l-4.28,11.41l0,0c4.37-2,8.27-2.95,11.5-3.04l0,0h0.76l0,0c5.23,0,7.13,1.9,5.8,5.7c-1.9-0.67-4.09-0.95-6.56-0.95  C319.32,42.47,315.71,43.51,312.57,45.6L312.57,45.6L312.57,45.6L312.57,45.6z M323.22,48.93l1.33-0.09l0,0  c0.76,0,1.71,0.19,2.95,0.57l0,0l-2,5.42l-2.28,0.86l-1.14,0.09l0,0c-1.24,0-2.09-0.29-2.57-0.95c-0.57-0.67-0.67-1.52-0.29-2.57  C319.89,50.55,321.22,49.41,323.22,48.93L323.22,48.93L323.22,48.93z"
   id="path6"
   style="fill:#000000" />
<polygon
   class="st0"
   points="269.89,14.9 250.12,14.9 232.25,63.19 252.02,63.19 269.89,14.9 "
   id="polygon8"
   style="fill:#000000" />
<path
   class="st0"
   d="M377.31,37.52c1.52-0.95,2.85-1.33,3.99-1.33c2.47,0,3.14,1.62,1.9,4.75l0,0l-8.18,22.24h18.82l8.65-23.76l0,0  c3.61-9.79,0.76-14.64-8.56-14.64c-4.47,0-9.13,1.71-13.78,5.13l0,0l1.71-4.75H362.1l-14.07,38.02h19.77L377.31,37.52L377.31,37.52z  "
   id="path10"
   style="fill:#000000" />
<path
   class="st0"
   d="M147.07,34.01c0.76-2.09,0.95-3.9,0.48-5.42c-0.48-1.52-1.52-2.57-3.04-3.23c-0.95-0.38-2-0.57-3.14-0.57  c-4.75,0-9.41,2.85-13.97,8.46l0,0h-0.1l2.95-8.08h-19.77L96.41,63.19h19.77l5.23-14.16l0,0c1.71-4.56,3.8-7.6,6.37-9.13  c1.33,2.28,3.52,3.42,6.65,3.42c3.99,0,7.32-1.62,10.08-4.85C145.65,37.14,146.5,35.62,147.07,34.01L147.07,34.01L147.07,34.01z"
   id="path12"
   style="fill:#000000" />
<path
   class="st0"
   d="M142.7,44.08c-2.57,6.65-1.9,11.88,1.81,15.59c2.76,2.76,6.75,4.18,12.07,4.18c2.28,0,4.75-0.38,7.32-1.05  c4.85-1.24,9.03-3.52,12.74-6.84c3.8-3.33,6.56-7.22,8.27-11.88c2.19-5.89,2-10.65-0.57-14.35c-2.66-3.61-7.03-5.42-13.31-5.42  c-2.28,0-4.66,0.29-7.13,0.86c-8.56,2.19-15.02,7.13-19.39,14.83l0,0L142.7,44.08L142.7,44.08L142.7,44.08z M159.53,46.84  c-0.48-0.86-0.48-1.9,0-3.14c0.95-2.19,2.38-3.61,4.37-4.09l0,0l1.62-0.19l0,0c1.33,0,2.19,0.38,2.76,1.14  c0.48,0.76,0.57,1.81,0.1,3.14c-0.86,2.19-2.38,3.61-4.47,4.09l0,0l-1.62,0.19l0,0C160.95,47.98,160.1,47.6,159.53,46.84  L159.53,46.84L159.53,46.84z"
   id="path14"
   style="fill:#000000" />
<path
   class="st0"
   d="M90.32,63.19l14.07-38.02H84.52l-8.65,23.67l0,0c-1.24,1.33-2.76,2-4.47,2c-2.28,0-2.85-1.71-1.62-5.13l0,0  l7.6-20.53H58.57l-9.13,24.91l0,0c-1.33,3.52-1.52,6.37-0.57,8.65c0.76,2.09,2.38,3.52,4.85,4.28c1.52,0.29,2.95,0.48,4.28,0.48  c4.94,0,10.17-2.28,15.68-6.94l0,0h0.1l-2.47,6.65H90.32L90.32,63.19z"
   id="path16"
   style="fill:#000000" />
<path
   class="st0"
   d="M219.41,42.37c-4.85,0-6.84-1.24-5.99-3.71c0.86-2.47,3.61-3.71,8.27-3.71c3.33,0,6.08,0.48,8.27,1.33l0,0  l15.4-17.02l0,0c-1.43-1.24-3.61-2.38-6.56-3.42c-3.33-1.14-7.13-1.71-11.31-1.71c-7.89,0-15.21,2.38-22.05,7.13  c-6.84,4.75-11.69,10.74-14.35,18.16c-2.47,6.65-2.28,12.26,0.48,16.83c3.14,5.13,9.03,7.7,17.59,7.7c3.42,0,7.13-0.48,11.12-1.43  c3.99-0.86,7.51-2.09,10.36-3.52l0,0l-2.19-18.25l0,0C225.78,41.8,222.84,42.37,219.41,42.37L219.41,42.37L219.41,42.37z"
   id="path18"
   style="fill:#000000" />
<polygon
   class="st0"
   points="54.68,27.07 59.24,14.9 18.55,14.9 0.78,63.19 41.37,63.19 45.83,51.12 26.92,51.12 29.01,45.13   42.32,45.13 46.69,33.06 33.57,33.06 35.76,27.07 54.68,27.07 "
   id="polygon20"
   style="fill:#000000" />
<g
   id="g26"
   style="fill:#000000">
	<path
   class="st0"
   d="M430.18,1.1h-0.35l0,0c-2.21,0-4.18,0.81-5.81,2.44c-1.63,1.74-2.44,3.72-2.44,6.16c0,2.32,0.81,4.3,2.44,6.04   c1.63,1.74,3.6,2.56,5.81,2.67l0,0h0.35l0,0c2.32,0,4.3-0.81,5.92-2.56c1.74-1.74,2.56-3.83,2.56-6.16c0-2.44-0.81-4.41-2.56-6.16   C434.48,1.91,432.5,1.1,430.18,1.1L430.18,1.1L430.18,1.1L430.18,1.1z M429.83,2.84h0.35l0,0c1.86,0,3.48,0.58,4.88,1.97   c1.28,1.28,1.98,2.9,1.98,4.88c0,1.86-0.7,3.49-1.98,4.88c-1.39,1.28-3.02,1.97-4.88,1.97l0,0h-0.35l0,0   c-1.74,0-3.25-0.7-4.53-2.09c-1.28-1.28-1.97-2.9-1.97-4.76c0-1.86,0.7-3.48,1.97-4.76C426.58,3.54,428.09,2.84,429.83,2.84   L429.83,2.84L429.83,2.84z"
   id="path22"
   style="fill:#000000" />
	<path
   class="st0"
   d="M428.09,10.51c0.23,0,0.46,0.12,0.7,0.12c0.35,0.12,0.7,0.23,1.05,0.35c0.46,0.35,0.93,0.93,1.28,1.86l0,0   l0.81,1.51h2.21l-1.05-1.86l0,0c-0.7-1.28-1.39-1.98-1.97-2.21c1.63-0.23,2.56-1.16,2.56-2.56c0-1.74-1.05-2.56-3.14-2.56l0,0h-4.3   v9.18h1.86V10.51L428.09,10.51L428.09,10.51z M429.83,9.12h-1.74V6.56h1.74l0,0c1.16,0,1.74,0.46,1.74,1.28   C431.58,8.77,430.99,9.12,429.83,9.12L429.83,9.12L429.83,9.12z"
   id="path24"
   style="fill:#000000" />
</g>
</svg>