<svg xmlns="http://www.w3.org/2000/svg" viewBox="0 0 267.1 99.7">
  <defs>
    <linearGradient id="a" x2="1" gradientTransform="matrix(0 74.75278 -74.75278 0 306.6 382.7)" gradientUnits="userSpaceOnUse">
      <stop offset="0" stop-color="#f03e30"/>
      <stop offset=".9" stop-color="#f57629"/>
      <stop offset="1" stop-color="#f57629"/>
    </linearGradient>
    <clipPath id="b">
      <path d="M0 841.9h595.3V0H0z"/>
    </clipPath>
    <linearGradient id="c" x2="1" gradientTransform="rotate(90 -73 318.8) scale(56.66966)" gradientUnits="userSpaceOnUse">
      <stop offset="0" stop-color="#292c2f"/>
      <stop offset=".1" stop-color="#292c2f"/>
      <stop offset="1" stop-color="#0d0d0e"/>
    </linearGradient>
    <clipPath id="d">
      <path d="M0 841.9h595.3V0H0z"/>
    </clipPath>
    <linearGradient id="e" x2="1" gradientTransform="rotate(90 -9.3 382.6) scale(56.66966)" gradientUnits="userSpaceOnUse">
      <stop offset="0" stop-color="#292c2f"/>
      <stop offset=".1" stop-color="#292c2f"/>
      <stop offset="1" stop-color="#0d0d0e"/>
    </linearGradient>
    <clipPath id="f">
      <path d="M0 841.9h595.3V0H0z"/>
    </clipPath>
  </defs>
  <path fill="url(#a)" d="M281.6 457.4c-1 0-2.1-.8-2.4-1.7 0 0-4.7-12.7-4.7-35.7 0-23 4.7-35.7 4.7-35.7.3-1 1.4-1.7 2.4-1.7h51c1 0 2 .8 2.2 1.7 0 0 4 15.6 4 36.6 0 21.1-4 34.8-4 34.8-.2.9-1.2 1.7-2.2 1.7z" transform="matrix(1.32307 0 0 -1.32307 -292.7 605.5)"/>
  <g clip-path="url(#b)" transform="matrix(1.32307 0 0 -1.32307 -292.7 605.5)">
    <path fill="#fff" d="M320 420.2l-6.2-4.1c-5.8-3.9-11.2-6.6-11.2-11v-.2h23c.9 0 1.6-.7 1.6-1.5v-10c0-.9-.7-1.6-1.5-1.6H290c-.8 0-1.5.7-1.5 1.6v8c0 8.4 3.7 14.8 9 18.8l6.6 4.9c8.1 6 8.6 6.3 8.6 8.5 0 2.4-1.2 3.4-7.2 3.4-4.8 0-10.2-.5-14.9-1h-.1c-.8 0-1.4.8-1.4 1.6v7.4c0 .8.7 1.1 1.4 1.4a54.2 54.2 0 0 0 17.2 2.9c14.7 0 20.2-5 20.2-15.1 0-6-2.9-10.6-8-14M268.5 447.8H254c-.9 0-1.3-.5-1.7-1.2l-14.6-24.4v24.1c0 .9-.7 1.5-1.6 1.5h-12.4c-.8 0-1.6-.6-1.6-1.5v-53.7c0-.8.8-1.5 1.6-1.5H236c.9 0 1.6.7 1.6 1.5v24.1l13.4-24.3c.4-.7.7-1.3 1.6-1.3h16c.7 0 1 .4 1 .9 0 .2 0 .5-.2.7L252.7 420l16.6 26.2.3.9c0 .5-.4.8-1 .8"/>
  </g>
  <path fill="url(#c)" d="M253.9 448.5c-.9 0-1.3-.5-1.7-1.2l-14.6-24.4V447c0 .8-.7 1.4-1.6 1.4h-12.4c-.8 0-1.6-.6-1.6-1.4v-53.7c0-.9.8-1.6 1.6-1.6H236c.9 0 1.6.7 1.6 1.6v24l13.4-24.3c.4-.7.7-1.3 1.6-1.3h16c.7 0 1 .4 1 .9 0 .2 0 .5-.2.7l-16.7 27.2 16.6 26.2.3.9c0 .5-.4.8-1 .8z" transform="matrix(1.32307 0 0 -1.32307 -292.7 605.5)"/>
  <g clip-path="url(#d)" transform="matrix(1.32307 0 0 -1.32307 -292.7 605.5)">
    <path fill="#fff" d="M397.6 447.8h-8.4c-2 0-3-.8-4-2.3l-11-19.3c-.3-.5-.6-1-.9-1-.3 0-.5.5-.8 1l-11 19.3c-1 1.5-2 2.3-4 2.3h-8.4a2.9 2.9 0 0 1-2.9-2.8v-53c0-.8.7-.9 1.3-.9H360c.7 0 1.1.7 1.1 1.5v28c0 .6.2.8.3.8 0 0 .2 0 .2-.2h.1c.2 0 .4-.3.6-.6l6.2-10.5c.6-1 1.3-1.4 2.2-1.4h5.3c.9 0 1.6.4 2.2 1.4l6.1 10.2c.2.3.5 1 .7 1l.3.1c.1 0 .2-.2.2-.8v-28c0-.8.6-1.5 1.2-1.5h12.5c.6 0 1.3.1 1.3 1V445c0 1.5-1.3 2.8-2.9 2.8"/>
  </g>
  <path fill="url(#e)" d="M389.2 448.5c-2 0-3-.8-4-2.3l-11-19.3c-.3-.5-.6-.9-.9-.9-.3 0-.5.4-.8 1l-11 19.2c-1 1.5-2 2.3-4 2.3h-8.4a2.9 2.9 0 0 1-2.9-2.8v-53c0-.8.7-.9 1.3-.9H360c.7 0 1.1.7 1.1 1.6v28c0 .5.2.7.3.7l.2-.1h.1c.2 0 .4-.4.6-.7l6.2-10.5c.6-1 1.3-1.4 2.2-1.4h5.3c.9 0 1.6.4 2.2 1.4l6.1 10.2c.2.3.5 1 .7 1l.3.1c.1 0 .2-.2.2-.7v-28c0-.9.6-1.6 1.2-1.6h12.5c.6 0 1.3.1 1.3 1v52.9c0 1.5-1.3 2.8-2.9 2.8z" transform="matrix(1.32307 0 0 -1.32307 -292.7 605.5)"/>
  <g clip-path="url(#f)" transform="matrix(1.32307 0 0 -1.32307 -292.7 605.5)">
    <path fill="#050606" d="M415 391.2a6.8 6.8 0 0 0-6.8 4.4c-.4.9-.5 1.8-.5 2.9 0 1 .1 2 .5 2.9a6.9 6.9 0 0 0 6.8 4.4c1 0 2-.2 3-.5a6.7 6.7 0 0 0 3.8-3.9c.3-.9.5-1.9.5-3a7 7 0 0 0-7.3-7.3m0 1.5a6 6 0 0 1 2.4.5 5.3 5.3 0 0 1 3 3 6.8 6.8 0 0 1-1.2 6.6c-.5.5-1.1.9-1.8 1.2a6 6 0 0 1-2.4.5 6 6 0 0 1-2.4-.5 5.3 5.3 0 0 1-3-3.1 6.7 6.7 0 0 1 0-4.6 5.4 5.4 0 0 1 5.4-3.6m-2.7 9.8a13 13 0 0 0 2.2.2c1.3 0 2.2-.2 2.7-.7.6-.4.8-1 .8-1.7a2.6 2.6 0 0 0-.8-2l-.3-.2 1.7-3.1a7.7 7.7 0 0 0-2.2 0l-1.8 3.4.3.2.8.6c.2.3.3.5.3.8 0 .3-.1.6-.3.8-.2.2-.5.3-.9.3h-.5v-6.1a4.7 4.7 0 0 0-1.4 0h-.6z"/>
  </g>
</svg>
