<svg xmlns="http://www.w3.org/2000/svg" width="160" height="40" viewBox="0 0 160 40">
    <g fill="none" fill-rule="evenodd">
        <path fill="#DD0333" d="M104.234 39.63c9.233-.057 18.956-.449 26.81-1.143 14.383-1.279 25.468-4.252 27.902-6.67 5.848-6.02-14.975-9.675-28.882-10.551.003.371-1.163.946-1.268 1.3 26.151 2.522 30.233 7.28 17.736 11.152-7.376 1.732-15.487 3.184-26.665 3.642-31.177 1.278-68.196-.827-73.517-5.754-1.378-2.509 5.073-4.118 20.804-6.125 5.132-.42 8.72-.68 13.5-.889 18.412-.815 38.663-.005 47.344 2.666 8.629 2.975 2.413 5.705-20.473 7.194-10.258.084-20.483.244-30.679-1.262-4.12-.607-6.323-1.336-7.468-2.181-.95-2.461 7.052-3.537 19.992-4.248 16.656-.255 30.4 1.795 23.068 4.016-6.23 1.61-38.358.954-25.943-1.655-20.726-1.054-8.822 5.055 19.682 4.246 11.846-.735 17.772-3.118 15.188-4.943-5.365-3.924-42.176-4.335-55.123-.936-8.398 2.096-5.343 5.959 7.774 7.544 14.63 1.585 34.41 1.53 48.202.222 6.865-.73 12.562-1.947 15.021-3.193 4.134-2.229 2.233-4.884-5.922-6.7-12.29-2.406-30.175-3.128-49.597-2.57-14.997.593-28.314 1.88-35.963 3.956-5.587 1.307-7.663 3.644-6.477 5.368 1.716 2.074 8.553 4.142 18.99 5.554 14.479 1.381 29.913 2.284 45.964 1.96"/>
        <path fill="#212529" d="M5.052 20.31V2.23H0V0h13.42l10.575 18.626L34.673 0H48.12v2.23h-5.08v18.08h5.08v2.328H33.127V20.31h5.165V2.23h-.472L25.898 22.638h-4.222L9.915 2.23h-.472v18.08h5.052v2.328H0V20.31h5.052zM55.256 2.09h-4.307V0h9v20.478h4.279v2.16h-13.28v-2.16h4.308V2.09zM88.11 17.685h4.278c-.584 1.771-1.941 3.107-4.043 4.018-2.111.906-4.9 1.359-8.378 1.359-4.034 0-7.21-.75-9.528-2.247-2.319-1.498-3.478-3.536-3.478-6.12 0-2.508 1.197-4.528 3.6-6.056 2.403-1.532 5.58-2.299 9.51-2.299 4.184 0 7.398.784 9.67 2.357 2.261 1.574 3.392 3.815 3.392 6.73H71.824c.075 1.713.848 3.054 2.318 4.023 1.47.97 3.469 1.452 5.994 1.452 2.187 0 3.978-.279 5.363-.842 1.395-.563 2.262-1.353 2.61-2.375zm-16.173-4.383h16.286c-.311-1.603-1.17-2.828-2.564-3.676-1.404-.853-3.26-1.277-5.58-1.277-2.337 0-4.23.441-5.673 1.318-1.442.883-2.27 2.09-2.47 3.635zM100.512 3.13V0h4.967v3.13h-4.967zm.273 5.713h-4.58v-2.09h9.274v17.586c0 1.603-.585 2.735-1.763 3.414-1.178.674-3.157 1.01-5.937 1.01a49.23 49.23 0 0 1-3.26-.104l-.029-2.328c.057 0 .123.005.198.017.839.035 1.46.052 1.847.052 1.527 0 2.62-.162 3.27-.476.65-.32.98-.847.98-1.585V8.843zm10.631 13.795v-2.16h4.307V8.843h-4.307v-2.09h8.718v2.752c1.197-1.086 2.516-1.887 3.949-2.398 1.442-.511 3.1-.767 4.976-.767 3.091 0 5.372.459 6.851 1.376 1.47.923 2.206 2.363 2.206 4.326v8.436h4.363v2.16h-13.693v-2.16h4.75v-8.436c0-1.202-.472-2.108-1.405-2.717-.942-.61-2.346-.912-4.203-.912-2.3 0-4.147.459-5.542 1.37-1.385.912-2.082 2.131-2.082 3.652v7.043h4.806v2.16h-13.694z"/>
    </g>
</svg>
