<svg xmlns="http://www.w3.org/2000/svg" height="80" width="478" version="1"><path d="M84 17h8v32l12-16h9l-13 16 14 19h-9L92 51v17h-8V17M116 56V33h8v22c0 5 2 7 7 7 4 0 8-2 8-8V33h8v35h-8v-5c-2 3-6 6-11 6-7 0-12-4-12-13M178 51v-1c0-7-3-11-9-11s-10 4-10 12 4 11 9 11c6 0 10-3 10-11zm-27 0c0-11 7-18 16-18 5 0 9 2 11 6V17h8v51h-8v-6c-2 4-6 7-12 7-8 0-15-6-15-18M203 65l-14-32h9l9 23 9-23h8l-19 47h-8l6-15M223 67l19-27h-17v-7h29v1l-19 28h18v6h-30v-1M257 33h8v6c2-4 6-6 12-6 7 0 12 4 12 13v22h-8V47c0-5-3-8-7-8-5 0-9 3-9 9v20h-8V33M294 56V33h8v22c0 5 2 7 7 7 4 0 8-2 8-8V33h8v35h-8v-5c-1 3-5 6-11 6-7 0-12-4-12-13M357 51v-1c0-7-4-11-9-11-6 0-10 4-10 12s4 11 9 11c6 0 10-3 10-11zm-27 0c0-11 7-18 16-18 5 0 9 2 11 6V17h8v51h-8v-6c-2 4-7 7-12 7-8 0-15-6-15-18M382 65l-14-32h9l9 23 9-23h8l-19 47h-8l6-15M400 63c0-2 3-5 6-5s5 3 5 5c0 3-2 6-5 6s-6-3-6-6M414 51c0-11 7-18 17-18 8 0 15 3 16 13h-8c0-5-3-7-8-7s-9 4-9 12 4 12 9 12 8-3 9-8h7c0 8-6 14-16 14s-17-7-17-18M448 67l18-27h-17v-7h29v1l-18 28h17v6h-29v-1" fill="#243d76"/><path d="M41 10a10 10 0 1 1-20 0 10 10 0 0 1 20 0" fill="#f9a60d"/><path d="M22 22H7a7 7 0 1 0 0 14h17c-3 9-9 16-16 21a7 7 0 1 0 8 12c6-5 11-10 15-16-5-9-9-19-9-31" fill="#6cc531"/><path d="M36 22H22c0 12 4 22 9 31 4-5 6-11 8-17 0 0-2-3-2-7l-1-7" fill="#1e613a"/><path d="M55 57c-7-5-13-12-16-21-2 6-4 12-8 17l16 16 4 1a7 7 0 0 0 4-13" fill="#e71d25"/><path d="M56 22H36l1 7c0 4 2 7 2 7h17a7 7 0 1 0 0-14" fill="#449cd8"/></svg>