<svg xmlns="http://www.w3.org/2000/svg" viewBox="0 0 136.85 38.52">
  <path fill="#2B175F" d="M26.79 7.34A7.36 7.36 0 0 0 19.52 0a7.21 7.21 0 0 0-6.14 3.48A7.22 7.22 0 0 0 7.26 0 7.37 7.37 0 0 0 0 7.34v30.93h26.79V7.34zM1.34 34.9l.9-1.28V7.43A5.1 5.1 0 0 1 7.26 2.3a5.09 5.09 0 0 1 5.01 5.02v19.3L2.24 34.25v-.01l-.9.67zm23.2 1.06H4.95l-1.91.54.73-.54 9.87-7.52h10.92v7.52zm0-9.8H14.52V7.44v-.12a5.09 5.09 0 0 1 5.02-5.02c2.76 0 5 2.3 5.02 5.14v18.73z"/>
  <g fill="#939598">
    <path d="M35.83 24.87a2 2 0 0 1-1.2 1.16c-.27.1-.56.15-.87.15a3.77 3.77 0 0 1-1.26-.2v-1.12h.06l.05.11c.04.06.1.1.19.17.08.05.2.1.33.14s.3.07.51.07c.5 0 .88-.13 1.15-.4.26-.26.4-.6.4-1 0-.28-.07-.54-.2-.78-.13-.25-.3-.48-.5-.71s-.4-.47-.63-.7a8.97 8.97 0 0 1-.65-.72c-.2-.24-.36-.5-.49-.79-.13-.27-.2-.58-.2-.92 0-.55.17-1 .5-1.36s.77-.52 1.36-.52a4.15 4.15 0 0 1 1.19.17v1.08h-.06c0-.08-.08-.18-.25-.29-.16-.11-.43-.17-.82-.17-.33 0-.59.1-.79.3-.2.2-.3.45-.3.77 0 .23.07.46.2.68.13.23.3.45.5.67.19.23.4.46.64.7.23.23.44.48.64.74.2.27.36.54.49.84.13.3.2.62.2.97 0 .36-.07.68-.19.96zM40.57 17.62v1.02h-.06a.14.14 0 0 0-.05-.1.26.26 0 0 0-.1-.06 1.02 1.02 0 0 0-.22-.03H38.9v7.1a1.24 1.24 0 0 0 .02.24c.01.04.03.08.06.11s.05.05.09.05v.07h-1.14v-.07c.07 0 .12-.05.14-.15l.03-.26v-7.1h-1.24c-.06 0-.13.02-.23.04s-.14.08-.14.16h-.06v-1.02h4.14zM45.14 25.8a.4.4 0 0 0-.05-.14l-1.23-2.29a4.6 4.6 0 0 0-.45-.7.72.72 0 0 0-.6-.27h-.3v3.14a1.75 1.75 0 0 0 .02.25c0 .04.03.08.05.11.03.04.06.05.1.05v.07h-1.15v-.07c.07 0 .12-.05.14-.15l.03-.26V18.1a1.28 1.28 0 0 0-.02-.25.29.29 0 0 0-.06-.11.11.11 0 0 0-.09-.05v-.07h1.53c.4 0 .76.07 1.06.2a2.22 2.22 0 0 1 1.2 1.29 2.53 2.53 0 0 1-.24 2.2c-.14.2-.3.37-.5.52s-.41.27-.67.34v.05c.13.08.27.21.4.37s.26.4.43.7l1.24 2.25c.01.04.03.07.07.12l.1.13.1.11c.03.03.05.05.07.05v.07h-1.17l-.01-.22zm-.87-10.07l.32.5-1.33 1.05h-.01l-1.33-1 .34-.5.99.79 1.02-.84zm-.5 5.78a1.5 1.5 0 0 0 .82-.89 1.82 1.82 0 0 0 0-1.18 1.43 1.43 0 0 0-1.43-1h-.66v3.2h.54c.28 0 .52-.04.73-.13zM50.03 25.2a1.05 1.05 0 0 0 .22-.04.25.25 0 0 0 .1-.06.14.14 0 0 0 .05-.1h.06v1.02H47.2v-.07c.07 0 .12-.05.14-.15l.03-.26V18.1a1.28 1.28 0 0 0-.03-.25.29.29 0 0 0-.05-.11.11.11 0 0 0-.1-.05v-.07h3.28v1.02h-.06a.14.14 0 0 0-.04-.1.25.25 0 0 0-.1-.06l-.13-.03h-1.99v2.64h1.99l.12-.03c.04 0 .08-.03.1-.06a.14.14 0 0 0 .05-.1h.06v1.2h-.06a.14.14 0 0 0-.04-.1.24.24 0 0 0-.1-.05l-.13-.03h-1.99v3.28h1.89zM52.03 25.95c.07 0 .12-.05.14-.15l.03-.26V18.1a1.28 1.28 0 0 0-.03-.25c0-.04-.02-.08-.05-.11s-.06-.05-.1-.05v-.07h1.61c.67 0 1.24.11 1.73.33s.9.53 1.22.92c.32.38.56.83.71 1.34a5.45 5.45 0 0 1-.07 3.39A3.7 3.7 0 0 1 55 25.74c-.52.19-1.1.28-1.72.28h-1.25v-.07zm2.69-.97a3.18 3.18 0 0 0 1.77-1.76 4.38 4.38 0 0 0 .06-2.74c-.13-.42-.33-.78-.58-1.09s-.58-.54-.96-.72a3.12 3.12 0 0 0-1.3-.25h-.73v6.8h.42c.47 0 .91-.07 1.32-.24zM63.72 17.79c.48.23.9.54 1.25.94a4.6 4.6 0 0 1 1.15 3.1 4.72 4.72 0 0 1-1.14 3.1c-.36.4-.78.71-1.26.94a3.56 3.56 0 0 1-3.08 0c-.48-.23-.9-.54-1.25-.94a4.6 4.6 0 0 1-1.15-3.1 4.65 4.65 0 0 1 1.27-3.23c.35-.36.76-.64 1.21-.85.46-.2.94-.3 1.46-.3.55 0 1.06.11 1.54.34zm-2.77.76a3.2 3.2 0 0 0-1 .76 3.73 3.73 0 0 0-.93 2.51 3.85 3.85 0 0 0 .92 2.52c.29.33.62.58 1 .77.4.18.8.27 1.24.27s.85-.09 1.23-.27c.39-.19.72-.44 1-.77a3.85 3.85 0 0 0 .68-3.9c-.16-.43-.38-.8-.67-1.13s-.62-.57-1-.76-.8-.28-1.24-.28-.85.1-1.23.28zM69.27 25.83a3.84 3.84 0 0 1-2.17-2.27 4.85 4.85 0 0 1 .85-4.8 3.94 3.94 0 0 1 3.42-1.22c.2.01.38.04.55.07v1.1h-.07c-.02-.1-.1-.19-.28-.27s-.41-.12-.74-.12a3.1 3.1 0 0 0-2.32 1 3.67 3.67 0 0 0-.93 2.49c0 .5.09.96.25 1.38s.4.8.7 1.11.65.57 1.06.75a3.23 3.23 0 0 0 2.01.19c.15-.06.23-.13.25-.23h.07v1.03a2.3 2.3 0 0 1-.45.09l-.54.02c-.6 0-1.16-.1-1.67-.32zm2.17-10.1l.32.5-1.33 1.05h-.01l-1.33-1 .35-.5.98.79 1.02-.84zM75.94 25.2a1.05 1.05 0 0 0 .22-.04.26.26 0 0 0 .1-.06.14.14 0 0 0 .05-.1h.06v1.02h-3.28v-.07c.08 0 .12-.05.15-.15s.03-.2.03-.26V18.1a1.28 1.28 0 0 0-.03-.25l-.05-.11a.11.11 0 0 0-.1-.05v-.07h3.28v1.02h-.06a.14.14 0 0 0-.05-.1.26.26 0 0 0-.1-.06l-.12-.03h-1.99v2.64h1.89a1.05 1.05 0 0 0 .22-.03.26.26 0 0 0 .1-.06.14.14 0 0 0 .05-.1h.06v1.2h-.06a.14.14 0 0 0-.05-.1.25.25 0 0 0-.1-.05l-.12-.03h-1.99v3.28h1.89zM80.9 24.87c-.13.28-.29.52-.5.72-.2.2-.43.34-.7.44s-.57.15-.88.15a3.77 3.77 0 0 1-1.26-.2v-1.12h.06l.05.11c.03.05.1.1.19.17.08.05.2.1.33.14s.3.07.51.07c.5 0 .88-.13 1.15-.4.26-.26.4-.6.4-1 0-.28-.07-.54-.2-.78s-.3-.48-.5-.71c-.19-.24-.4-.47-.63-.7a9.16 9.16 0 0 1-.65-.72c-.2-.24-.36-.5-.49-.79-.13-.27-.2-.58-.2-.92 0-.55.17-1 .5-1.36s.77-.52 1.36-.52a4.09 4.09 0 0 1 1.19.17v1.08h-.06c0-.08-.08-.18-.25-.29-.16-.11-.43-.17-.82-.17-.33 0-.59.1-.79.3-.2.2-.3.45-.3.77 0 .23.07.46.2.68.13.23.3.45.5.67.19.23.4.46.64.7.23.23.44.48.64.74.2.27.36.54.49.84s.2.62.2.97c0 .36-.07.68-.19.96zM82.2 26.02v-.07c.08 0 .12-.05.15-.15l.03-.26V18.1a1.28 1.28 0 0 0-.03-.25c0-.04-.03-.08-.05-.11s-.06-.05-.1-.05v-.07h1.15v.07c-.04 0-.07.02-.1.05s-.04.07-.05.11l-.02.13V25.54a1.24 1.24 0 0 0 .02.25l.05.11c.02.03.06.05.1.05v.07H82.2zm3.24-7.92c.07-.1.1-.2.1-.28s-.05-.12-.13-.12v-.08h1.33v.08c-.08 0-.16.05-.24.15l-.16.25-1.86 3.14-.05.08a.77.77 0 0 1-.07.08 1.7 1.7 0 0 1 .11.15l2.17 4 .17.25c.07.1.15.15.23.15v.07h-1.33v-.07c.05 0 .07-.01.08-.05v-.11c-.02-.04-.03-.09-.06-.13l-.05-.12-2.07-3.82a.42.42 0 0 0-.12-.14l-.1-.07 2.05-3.4zM90.69 25.2a1.09 1.09 0 0 0 .22-.04.25.25 0 0 0 .1-.06.14.14 0 0 0 .05-.1h.06v1.02h-3.27v-.07c.07 0 .12-.05.14-.15l.03-.26V18.1a1.28 1.28 0 0 0-.03-.25.29.29 0 0 0-.05-.11.11.11 0 0 0-.1-.05v-.07h3.28v1.02h-.06a.14.14 0 0 0-.05-.1.25.25 0 0 0-.1-.06 1.05 1.05 0 0 0-.22-.03H88.8v2.64h1.89a1.09 1.09 0 0 0 .22-.03.25.25 0 0 0 .1-.06.14.14 0 0 0 .05-.1h.06v1.2h-.06A.14.14 0 0 0 91 22a.24.24 0 0 0-.1-.05 1.05 1.05 0 0 0-.22-.03H88.8v3.28h1.89zm.01-9.45l.25.7-2 .8-.23-.54 1.98-.96zM99.16 24.84c.02-.16.06-.32.1-.48l1.65-6.26a1.41 1.41 0 0 0 .03-.24c0-.05 0-.09-.02-.12a.08.08 0 0 0-.07-.05v-.07h1.57v.07a.09.09 0 0 0-.08.05c-.01.03-.03.07-.03.11v.25l1.05 7.44.06.26c.03.1.08.15.16.15v.07h-1.14v-.07c.07 0 .11-.05.12-.16v-.25l-.88-6.36a5.07 5.07 0 0 1-.09-.84h-.04a6.03 6.03 0 0 1-.2.98l-1.69 6.4a5.75 5.75 0 0 1-.05.31H98.5c0-.05 0-.1-.02-.16a1.03 1.03 0 0 0-.03-.16l-1.54-6.39a5.62 5.62 0 0 1-.2-.98h-.04a53.82 53.82 0 0 1-.09.84l-.94 6.36-.02.12.01.13c0 .04.02.08.04.11s.05.05.08.05v.07h-1.14v-.07c.08 0 .14-.05.17-.15l.06-.26 1.13-7.44.02-.12v-.13a.36.36 0 0 0-.05-.11.09.09 0 0 0-.08-.05v-.07h1.6v.07c-.04 0-.06.02-.08.05s-.02.07-.02.12l.01.12.02.12 1.48 6.2.1.5.07.57h.05l.07-.53zM110.03 24.55c-.14.38-.34.7-.58.94-.25.25-.54.43-.88.55a3.22 3.22 0 0 1-2.13 0 2.3 2.3 0 0 1-.87-.57 2.68 2.68 0 0 1-.59-.95 3.87 3.87 0 0 1-.21-1.36V18.1a1.28 1.28 0 0 0-.03-.25l-.05-.11a.11.11 0 0 0-.1-.05v-.07h1.15v.07a.11.11 0 0 0-.1.05l-.05.11a1.3 1.3 0 0 0-.03.25v5.17c0 .34.05.64.15.9s.24.5.42.7a1.88 1.88 0 0 0 1.38.57 1.8 1.8 0 0 0 1.38-.57c.17-.18.31-.41.41-.68s.15-.57.15-.92v-5.16a1.28 1.28 0 0 0-.02-.24c-.02-.05-.03-.09-.06-.12s-.05-.04-.09-.04v-.08h1.14v.08a.11.11 0 0 0-.09.04l-.05.12-.03.13v5.17c0 .53-.07 1-.22 1.38zM114.72 25.2a1.09 1.09 0 0 0 .23-.04.25.25 0 0 0 .1-.06.14.14 0 0 0 .04-.1h.07v1.02h-3.77v-.75l2.75-6.83h-2.01c-.06 0-.14.02-.23.04s-.14.08-.14.16h-.07v-1.02h3.35v.79l-2.73 6.78h2.41zM119.08 25.2a1.09 1.09 0 0 0 .22-.04.25.25 0 0 0 .1-.06.14.14 0 0 0 .05-.1h.07v1.02h-3.28v-.07c.07 0 .12-.05.14-.15l.03-.26V18.1a1.28 1.28 0 0 0-.02-.25.29.29 0 0 0-.06-.11.11.11 0 0 0-.09-.05v-.07h3.28v1.02h-.07a.14.14 0 0 0-.04-.1.25.25 0 0 0-.1-.06 1.05 1.05 0 0 0-.22-.03h-1.9v2.64h1.9a1.09 1.09 0 0 0 .21-.03.25.25 0 0 0 .1-.06.14.14 0 0 0 .05-.1h.07v1.2h-.07a.14.14 0 0 0-.04-.1.24.24 0 0 0-.1-.05 1.05 1.05 0 0 0-.22-.03h-1.9v3.28h1.9zM126.4 24.55a2.3 2.3 0 0 1-1.46 1.5 3.22 3.22 0 0 1-2.13-.02 2.3 2.3 0 0 1-.87-.56 2.67 2.67 0 0 1-.58-.95 3.85 3.85 0 0 1-.22-1.36V18.1a1.75 1.75 0 0 0-.03-.25c0-.04-.03-.08-.05-.11s-.06-.05-.1-.05v-.07h1.15v.07a.12.12 0 0 0-.1.05.3.3 0 0 0-.05.11 1.3 1.3 0 0 0-.03.25v5.17c0 .34.06.64.16.9s.24.5.42.7a1.87 1.87 0 0 0 1.37.57 1.9 1.9 0 0 0 1.8-1.25c.1-.27.15-.57.15-.92v-5.16a1.75 1.75 0 0 0-.03-.24c-.01-.05-.03-.09-.05-.12s-.06-.04-.1-.04v-.08h1.14v.08c-.03 0-.06.01-.09.04s-.04.07-.05.12a1.28 1.28 0 0 0-.03.25v5.05c0 .53-.07 1-.22 1.38zM132.28 24.84l.1-.48 1.66-6.26a1.41 1.41 0 0 0 .03-.24l-.02-.12a.08.08 0 0 0-.08-.05v-.07h1.58v.07a.09.09 0 0 0-.08.05l-.04.11a.67.67 0 0 0 .01.25l1.04 7.44.06.26c.03.1.09.15.16.15v.07h-1.14v-.07c.07 0 .11-.05.12-.16v-.25l-.88-6.36a5.07 5.07 0 0 1-.09-.84h-.04a6.03 6.03 0 0 1-.2.98l-1.68 6.4a5.75 5.75 0 0 1-.05.31h-1.12l-.01-.16a1.03 1.03 0 0 0-.04-.16l-1.54-6.39a5.62 5.62 0 0 1-.2-.98h-.04a53.82 53.82 0 0 1-.08.84l-.95 6.36-.01.12v.13c0 .04.02.08.04.11s.05.05.09.05v.07h-1.14v-.07c.08 0 .13-.05.16-.15l.06-.26 1.13-7.44.02-.12v-.13a.36.36 0 0 0-.04-.11.09.09 0 0 0-.08-.05v-.07h1.59v.07c-.04 0-.06.02-.08.05s-.02.07-.02.12l.01.12.03.12 1.47 6.2.1.5.08.57h.04l.07-.53zM35.08 37.3l.05-.2 1.88-6.54a.48.48 0 0 0 .02-.25c-.02-.08-.06-.12-.12-.12v-.07h1.2v.07c-.04 0-.08.04-.13.1-.05.08-.1.17-.13.28l-2.2 7.44c-.03.08-.04.17-.04.27s.02.16.08.17v.07h-1.46v-.07c.06-.01.09-.07.09-.17s-.02-.2-.04-.27l-2.1-7.43c-.02-.08-.06-.16-.1-.25s-.1-.13-.16-.13v-.08h1.25v.08c-.06 0-.1.04-.12.12s-.02.16.01.25l1.81 6.53.05.2.05.4h.06a3 3 0 0 1 .05-.4zM44.84 38.3a.4.4 0 0 0-.05-.14l-1.23-2.29c-.16-.28-.3-.51-.45-.7a.72.72 0 0 0-.6-.27h-.31v3.14a1.28 1.28 0 0 0 .02.25c.01.04.03.08.06.11.02.04.05.05.1.05v.07h-1.15v-.07c.07 0 .12-.05.14-.15l.03-.26V30.6a1.28 1.28 0 0 0-.02-.25c-.01-.04-.03-.08-.06-.11s-.05-.05-.09-.05v-.07h1.53c.4 0 .76.07 1.06.2a2.22 2.22 0 0 1 1.2 1.29 2.55 2.55 0 0 1-.25 2.2c-.13.2-.3.37-.48.52-.2.15-.42.27-.68.34v.05c.13.08.26.21.4.37.12.17.26.4.43.7l1.24 2.25c.01.04.03.07.07.12l.1.13.09.11c.03.04.06.05.08.05v.07h-1.17c0-.1 0-.17-.02-.22zm-1.38-4.29a1.5 1.5 0 0 0 .83-.89 1.82 1.82 0 0 0 0-1.18 1.43 1.43 0 0 0-1.44-1h-.65v3.2h.54c.28 0 .52-.04.73-.13zM51.64 30.29c.48.23.9.54 1.25.94a4.82 4.82 0 0 1 0 6.2c-.36.4-.77.71-1.25.94a3.56 3.56 0 0 1-3.08 0c-.48-.23-.9-.54-1.26-.94a4.82 4.82 0 0 1 .12-6.33c.36-.36.76-.64 1.22-.85.45-.2.94-.3 1.46-.3.54 0 1.06.11 1.54.34zm-2.78.76a3.2 3.2 0 0 0-1 .76c-.29.33-.52.7-.68 1.13a3.95 3.95 0 0 0 .68 3.9c.28.33.62.58 1 .77.39.18.8.27 1.24.27s.84-.09 1.23-.27c.38-.19.72-.44 1-.77a3.85 3.85 0 0 0 .68-3.9c-.16-.43-.39-.8-.68-1.13s-.62-.57-1-.76-.8-.28-1.24-.28-.84.1-1.23.28zM57.77 37.7a1.05 1.05 0 0 0 .22-.04.25.25 0 0 0 .1-.05.14.14 0 0 0 .04-.1h.07v1.01h-3.77v-.75l2.75-6.83h-2.01c-.06 0-.14.02-.23.04s-.14.08-.14.16h-.07v-1.02h3.35v.79l-2.73 6.78h2.42zM62.69 30.12v1.02h-.07a.14.14 0 0 0-.04-.1.26.26 0 0 0-.1-.06 1.02 1.02 0 0 0-.22-.03H61v7.1a1.24 1.24 0 0 0 .03.24c.01.04.03.08.06.11s.05.05.09.05v.07h-1.14v-.07c.07 0 .11-.05.14-.16l.03-.25v-7.1h-1.24c-.06 0-.14.02-.23.04s-.14.08-.14.16h-.06v-1.02h4.14zM68.28 30.29c.48.23.9.54 1.25.94a4.48 4.48 0 0 1 1.15 3.1 4.72 4.72 0 0 1-1.15 3.1c-.35.4-.77.71-1.25.94a3.57 3.57 0 0 1-3.08 0c-.48-.23-.9-.54-1.26-.94a4.72 4.72 0 0 1-1.15-3.1 4.65 4.65 0 0 1 1.28-3.23c.35-.36.75-.64 1.2-.85.46-.2.95-.3 1.47-.3.55 0 1.06.11 1.54.34zm-2.77.76c-.39.19-.72.44-1.01.76a3.73 3.73 0 0 0-.92 2.51 3.85 3.85 0 0 0 .92 2.52c.29.33.62.58 1 .77.39.18.8.27 1.24.27.44 0 .85-.09 1.23-.27.38-.19.72-.44 1-.77a3.65 3.65 0 0 0 .93-2.51 3.86 3.86 0 0 0-.92-2.52 3.2 3.2 0 0 0-1.01-.76c-.38-.18-.8-.28-1.23-.28-.44 0-.85.1-1.23.28zM71.64 38.52v-.07c.08 0 .12-.05.14-.16l.04-.25V30.6a1.28 1.28 0 0 0-.03-.25.29.29 0 0 0-.05-.11.11.11 0 0 0-.1-.05v-.07h1.15v.07c-.04 0-.07.02-.1.05s-.04.07-.05.11l-.02.13V38.04a1.75 1.75 0 0 0 .02.25c0 .04.03.08.05.11s.06.05.1.05v.07h-1.15zm3.24-7.92c.06-.1.1-.2.1-.28s-.05-.12-.13-.12v-.08h1.32v.08c-.07 0-.15.05-.23.15l-.16.25-1.86 3.14a2.27 2.27 0 0 1-.12.16 1.7 1.7 0 0 1 .1.15l2.18 4 .17.25c.07.1.15.15.23.15v.07h-1.33v-.07c.04 0 .07-.01.08-.05v-.11c0-.04-.04-.09-.06-.13l-.05-.12-2.08-3.82a.42.42 0 0 0-.1-.14 1.02 1.02 0 0 0-.11-.07l2.05-3.4z"/>
    <path d="M77.36 38.08c-.03.09-.03.17-.02.25s.06.12.13.12v.07h-1.19v-.07c.04 0 .08-.04.13-.1.05-.08.1-.17.13-.28l2.22-7.44c.02-.08.04-.17.04-.27s-.02-.16-.08-.17v-.07h1.75v.07c-.06.01-.09.07-.08.17 0 .1.01.2.04.27l2.1 7.44c.01.08.05.16.1.25.04.09.1.13.15.13v.07h-1.23v-.07c.06 0 .1-.04.12-.12s.01-.16-.02-.25l-.56-2.04h-3.12l-.6 2.04zm2.35-7.04a1.74 1.74 0 0 1-.1-.47h-.05l-.06.28-.05.19-1.26 4.23h2.68l-1.16-4.23zm.78-2.79l.24.7-2 .8-.23-.54 1.98-.96zM85.06 38.33a3.85 3.85 0 0 1-2.16-2.27 4.84 4.84 0 0 1 .85-4.8 3.95 3.95 0 0 1 3.42-1.22c.2.01.38.03.55.07v1.1h-.07c-.02-.1-.1-.2-.28-.27a1.79 1.79 0 0 0-.74-.12 3.1 3.1 0 0 0-2.32 1 3.78 3.78 0 0 0-.93 2.49 3.73 3.73 0 0 0 .95 2.5 3.22 3.22 0 0 0 3.07.93c.14-.06.22-.14.25-.23h.07v1.03a5.9 5.9 0 0 1-1 .1c-.6 0-1.15-.1-1.66-.3zM89.85 38.04a1.28 1.28 0 0 0 .03.25c0 .04.02.08.05.11.02.04.06.05.1.05v.07h-1.15v-.07c.07 0 .12-.05.14-.15l.03-.26V30.6a1.75 1.75 0 0 0-.02-.25c-.01-.04-.03-.08-.06-.11s-.05-.05-.09-.05v-.07h1.14v.07a.12.12 0 0 0-.1.05.3.3 0 0 0-.04.11 1.28 1.28 0 0 0-.03.25v2.92h3.95v-2.91a1.75 1.75 0 0 0-.02-.25c-.01-.04-.03-.08-.06-.11s-.05-.05-.09-.05v-.07h1.14v.07c-.03 0-.06.02-.1.05s-.03.07-.04.11a1.75 1.75 0 0 0-.03.25v7.44a1.75 1.75 0 0 0 .03.24c0 .05.02.08.05.12.02.03.06.04.1.04v.08h-1.15v-.08c.07 0 .12-.05.14-.15l.03-.25v-3.73h-3.95v3.72zM104.19 37.05a2.39 2.39 0 0 1-1.46 1.5 3.22 3.22 0 0 1-2.13-.02 2.3 2.3 0 0 1-.87-.56c-.25-.25-.45-.57-.6-.95s-.2-.84-.2-1.36V30.6a1.28 1.28 0 0 0-.03-.25.27.27 0 0 0-.06-.11.11.11 0 0 0-.09-.05v-.07h1.14v.07a.11.11 0 0 0-.1.05l-.04.11a1.26 1.26 0 0 0-.03.25v5.17c0 .34.05.64.15.9.1.28.24.5.42.7s.38.33.62.43a1.97 1.97 0 0 0 1.51 0c.23-.1.44-.24.62-.42.18-.2.32-.42.42-.69.1-.27.15-.57.15-.92v-5.16a1.28 1.28 0 0 0-.03-.24c0-.05-.03-.08-.05-.12s-.06-.04-.1-.04v-.08h1.15v.08c-.04 0-.07.01-.1.04s-.04.07-.05.12l-.02.13v5.17c0 .53-.08 1-.22 1.38zM109.52 35.24v2.8a1.28 1.28 0 0 0 .02.25c.01.04.03.08.06.11.02.04.05.05.09.05v.07h-1.14v-.07c.07 0 .12-.05.14-.15l.03-.26V30.6a1.28 1.28 0 0 0-.03-.25c0-.04-.03-.08-.05-.11s-.06-.05-.1-.05v-.07h1.75c.34 0 .66.07.95.2s.52.33.73.56a2.93 2.93 0 0 1 .43 2.86c-.14.32-.32.6-.55.81a2.57 2.57 0 0 1-1.78.7h-.55zm1.17-.93a1.54 1.54 0 0 0 .93-.85c.1-.21.15-.48.15-.78 0-.27-.04-.5-.12-.72s-.2-.4-.33-.55-.3-.26-.5-.34c-.19-.09-.4-.13-.6-.13h-.71v3.47h.54c.22 0 .44-.03.64-.1zM117.05 38.3c0-.05-.02-.1-.04-.14l-1.24-2.29c-.15-.28-.3-.51-.44-.7a.72.72 0 0 0-.6-.27h-.31v3.14a1.24 1.24 0 0 0 .02.25.3.3 0 0 0 .06.11c.02.04.05.05.1.05v.07h-1.15v-.07c.07 0 .12-.05.14-.15l.03-.26V30.6a1.28 1.28 0 0 0-.03-.25c0-.04-.02-.08-.05-.11s-.06-.05-.1-.05v-.07h1.54c.4 0 .76.07 1.06.2a2.2 2.2 0 0 1 1.2 1.29 2.55 2.55 0 0 1-.25 2.2c-.13.2-.3.37-.49.52s-.42.27-.67.34v.05c.13.08.26.21.39.37.12.17.27.4.43.7l1.24 2.25.07.12.1.13.1.11c.03.03.06.05.08.05v.07h-1.18v-.22zm-1.37-4.29a1.5 1.5 0 0 0 .82-.89 1.82 1.82 0 0 0 .01-1.18 1.43 1.43 0 0 0-1.44-1h-.65v3.2h.54c.28 0 .52-.04.72-.13z"/>
    <path d="M119.03 38.08a.49.49 0 0 0-.02.25c.02.08.06.12.13.12v.07h-1.2v-.07c.04 0 .09-.04.14-.1.05-.08.09-.17.13-.28l2.22-7.44.04-.27c0-.1-.03-.16-.08-.17v-.07h1.75v.07c-.06.01-.09.07-.09.17s.02.2.04.27l2.1 7.44c.02.08.05.16.1.25s.1.13.16.13v.07h-1.24v-.07c.07 0 .1-.04.13-.12a.45.45 0 0 0-.02-.25l-.56-2.04h-3.13l-.6 2.04zm2.34-7.04l-.05-.19a1.84 1.84 0 0 1-.06-.28h-.04c-.01.12-.03.21-.05.28l-.06.19-1.25 4.23h2.68l-1.17-4.23zM125.92 38.04a1.28 1.28 0 0 0 .03.25c0 .04.02.08.05.11.03.04.06.05.1.05v.07h-1.15v-.07c.07 0 .12-.05.14-.15l.03-.26V30.6a1.28 1.28 0 0 0-.02-.25c-.01-.04-.03-.08-.06-.11s-.05-.05-.09-.05v-.07h1.14v.07a.11.11 0 0 0-.09.05l-.05.11-.03.14v3.03h3.95v-2.91a1.28 1.28 0 0 0-.02-.25c-.01-.04-.03-.08-.06-.11s-.05-.05-.09-.05v-.07h1.14v.07a.11.11 0 0 0-.09.05l-.05.11-.03.13V38.05a1.28 1.28 0 0 0 .03.24c0 .05.02.08.05.12.02.03.06.04.1.04v.08h-1.15v-.08c.07 0 .12-.05.14-.15l.03-.25v-3.73h-3.95v3.72zM134.66 38.04a1.28 1.28 0 0 0 .02.25c.01.04.03.08.06.11.02.03.05.05.09.05v.07h-1.14v-.07c.07 0 .12-.05.14-.16l.03-.25v-3.12l-1.82-4.35a1.93 1.93 0 0 0-.14-.25c-.05-.09-.11-.13-.18-.13v-.07h1.27v.07c-.05 0-.07.05-.07.15 0 .1.04.27.13.5l1 2.48c.05.1.1.24.15.4l.1.38h.05c.01-.1.05-.24.1-.4l.16-.4.92-2.27c.13-.3.19-.52.18-.65 0-.13-.02-.2-.07-.2v-.06h1.2v.07c-.06 0-.11.04-.16.14l-.12.24-1.9 4.37v3.1z"/>
  </g>
</svg>
