<svg xmlns="http://www.w3.org/2000/svg" version="1.2" viewBox="0 0 152.68 35.93">
  <g fill="#211e1e">
    <path d="M61.47 12.22a3.97 3.97 0 1 1-7.93 0 3.97 3.97 0 0 1 7.93 0M17.8 31.72c-.2-.07-.41-.1-.58-.1a.9.9 0 0 0-.92.92c0 .44.27.92.96.92.18 0 .4-.05.57-.14l.03.4c-.21.1-.47.1-.66.1-.87 0-1.47-.58-1.47-1.28 0-.75.6-1.3 1.47-1.3.21 0 .49.05.64.1zm0 0M26.95 32.6l-.34-.02c-.29 0-1 .04-1 .48 0 .26.3.4.53.4.53 0 .8-.28.8-.65zm-1.58-1.12c.27-.14.58-.24.95-.24.82 0 1.16.35 1.16 1.02v1.02c0 .29 0 .42.02.49H27v-.32c-.13.15-.42.38-.9.38-.62 0-1.05-.24-1.05-.77 0-.62.79-.81 1.33-.81h.57c0-.42-.18-.64-.71-.64-.3 0-.62.1-.84.25zm0 0M36.66 31.67h-.76v1.35c0 .28.2.44.45.44.16 0 .28-.04.36-.09v.39c-.12.03-.28.07-.45.07-.55 0-.88-.23-.88-.72v-1.44h-.65v-.37h.65v-.57l.52-.14v.71h.76zm0 0M45.95 32.3c0-.38-.25-.69-.71-.69-.52 0-.73.37-.77.69zm.35 1.37c-.2.06-.43.16-.91.16-1.02 0-1.49-.53-1.49-1.34 0-.73.54-1.25 1.35-1.25.96 0 1.27.6 1.27 1.4h-2.05c0 .49.44.82.95.82.34 0 .75-.16.88-.25zm0 0M54 31.3h.49v.38h.01a.9.9 0 0 1 .75-.44c.16 0 .24.02.35.04v.4a.96.96 0 0 0-.3-.04c-.47 0-.78.39-.78 1v1.13H54zm0 0M63.02 31.3h.53v2.47h-.53zm.57-.55h-.6v-.51h.6zm0 0M71.28 31.3h.52v.4c.17-.29.55-.46.95-.46.75 0 1.08.4 1.08 1.06v1.47h-.53v-1.28c0-.57-.15-.85-.61-.88-.6 0-.87.42-.87 1.02v1.14h-.54zm0 0M83.5 32.56c0-.5-.27-.95-.83-.95-.54 0-.8.5-.8.92 0 .46.3.87.8.87s.84-.38.84-.84m.52 1.1c0 .75-.44 1.18-1.48 1.18-.3 0-.56-.03-1.03-.17l.06-.42c.4.16.65.22 1.03.22.56 0 .9-.32.9-.84v-.24h-.02c-.22.25-.6.38-.96.38-.82 0-1.23-.58-1.23-1.22 0-.63.42-1.3 1.28-1.3.52 0 .8.16.96.42v-.37h.5zm0 0M26.89 12.27a11.14 11.14 0 0 0-22.26 0v18.28H8.6V12.27a7.17 7.17 0 1 1 7.16 7.16v3.97c6.14 0 11.13-5 11.13-11.13M84 23.4v-3.97A7.17 7.17 0 0 1 84 5.1a7.17 7.17 0 0 1 7.16 7.16v18.28h3.97V12.27a11.14 11.14 0 0 0-22.26 0c0 6.13 5 11.13 11.13 11.13"/>
    <path d="M57.5 23.34v-3.97a7.17 7.17 0 1 1 7.16-7.15v11.12h3.97V12.22c0-6.14-4.99-11.13-11.13-11.13a11.14 11.14 0 0 0 0 22.25M136.92 1.14a11.14 11.14 0 0 0-11.13 11.13c0 6.13 5 11.13 11.13 11.13v-3.97a7.17 7.17 0 0 1 0-14.32c3.25 0 5.98 2.2 6.84 5.17h-6.84v3.97h11.13v-1.98c0-6.14-5-11.13-11.13-11.13M117.56 1.17V12.3a7.17 7.17 0 0 1-14.31 0V1.17h-3.98V12.3A11.14 11.14 0 0 0 121.4 14c.09-.56.13-1.13.13-1.7V1.17zm0 0M42.14 1.14h.18v3.98l-.18-.01A7.17 7.17 0 0 0 35 12.27v11.1H31v-11.1c0-6.14 5-11.13 11.13-11.13"/>
  </g>
</svg>
