<svg xmlns="http://www.w3.org/2000/svg" viewBox="0 0 148.2 156.1">
  <path fill="#1c241c" d="M53.8 156l-.2-.2h-.2c0-.2-.1-.2-.2-.3l-.1-.1-.2-.5v-.3-.3c0-.5 0-.5.2-.6H53l.1-.2v-.1l.1-.3v-.2l.2-.8v-.2l.1-.4.3-1.2.3-.8.2-1 .2-.3.6-2 .2-.3v-.4l.8-1.9v-.2l.2-.3.3-1 .2-.1v-.4l.2-.3h.1l.2-.5c0-.3.1-.5.3-.8v-.3l.4-.6v-.1h.2v-.2l.2-.3v-.3c0-.2.2-.3.4-.5v-.3c0-.1 0-.3.5-1.1l.1-.2.2-.5.7-1.5.3-.2.2-.5c0-.2.1-.3.3-.5v-.1c0-.2.2-.4.4-.6v-.2l.4-.6v-.1l.3-.6.6-1 .6-1.2c0-.2.2-.3.4-.5v-.1l.1-.2.3-.5.7-1.2v-.1h.2l.5-.8.6-1.1.3-.7.8-1.1v-.2h.1l.6-1.2.5-.8.3-.5.8-1.2v-.1l.1-.1.8-1.4.4-.8.2-.2v-.2l.8-1v-.2h.1c0-.3.2-.5.4-.7l.2-.2v-.2l.8-1v-.2h.1l.7-1.4h.1l-.2-.3h-.3l-.6.2-.6.4h-.1l-1.6 1-1.9 1.8-.4.3h-1l-.3-.1-.2-.3h-.2l-.1-.4v-.3l-.2-.3v-.9l.2-.5v-.4l.2-.3.3-.2.1-.2.5-.4h.1c.2 0 .3-.1.5-.3h.4l.6-.2.4-.2h.4l1-.2h.4v-.2H73l1.8-.3.7-.1h.8l.3-.2h1l.3.2.2.3v.5l-.4.7-.5 1.2-.7 1.1-1 2v.1l-.2.1-.1.5-.3.3v.1l-.2.4v.2h-.2v.2l-.9 1.5v.2l-.2.2-.2.6-.6 1-.3.7-.3.9-.7 1.1-.2.7-.8 1.4-.4.6-.3 1-.8 1.6-.6 1c-.2.5-.3.9-.6 1.3L67 131v.3l-1.2 2.4-.1.6-.5.7v.2l-.3.6v.1l-.4.7v.1l-.2.3-.3.9-.1.1-.2.7-.1.1-.1.5-.4.8c0 .3-.2.6-.4 1v.4l-.4.7-.1.5-.2.4v.2l-.4 1-.2.7-.2.4-.3 1.2a2 2 0 0 0-.3.8l-.1.8s0 .3-.2.5v1.2l.1.3.6.5h.2l.4-.1 1-.2.7-.2.4-.1h.5l.8-.4.7-.2.8-.2h.8l.4-.2.3-.1.7-.1.6-.2.5-.2h.5l.2-.1 1.5-.3h.3l.8-.3 5.2-.4h3.2l1 .3h.8l1 .4h.4v.2h.3l.2.2h.1l.1.2.3.1.1.2.3.1v.2l.2.1.3.6v1l-.2.3-.6.6h-.1l-.1.2-.8.3-2.5.2-.6-.2H81l-1.3-.3-.8-.1-2.4-.3h-.1l-2-.3-.5-.1h-4.5l-2 .3h-.5v.2h-1.2l-.8.3-.7.1-.6.2-.5.2h-.4c0 .2-.2.2-.3.2h-.2l-1.4.6h-.4l-.3.2h-.2c-.8.3-1 .3-1.1.5l-.8.3h-.2l-.4.2h-.3l-.2.2a1 1 0 0 0-.4.1l-1.3.6h-.1l-.4.2-1 .1m36.2-5.2l-.7-.2a3 3 0 0 1-.7-.4l-.5-.9-.3-.3v-.1c0-.3-.2-.5-.4-.7v-.5l-.4-1v-.4l-.2-.1-.2-.6v-.4c-.2-.3-.2-.3-.4-1.4v-.3l-.2-.2-.2-1v-.8l-.4-1v-.5s0-.3-.2-.5l-.2-.6v-.8l-.1-.5-.2-1-.1-2-.3-.5-.1-1.5-.2-.5-.1-1.7-.2-1.9-.2-.6v-1.5l-.2-1.3-.1-1.7v-2l-.2-.2v-1.8-.1l-.3-1.4v-7.5l-.1-.2h-.3l-.8.8-1.6 1.9-.6.6H78l-.3-.4v-.1l-.2-.1v-1-.5l.5-1 .4-1 .3-.6.4-.4v-.1h.2c.3-.4.4-.4.8-.7l.5-.3v-.2h.2l.4-.3h.4l.5-.4h.4l.6-.4h.2c.2 0 .4-.2.6-.4l.4-.2.5-.2h.3l.6-.4h.1l.7-.4h.1l.7-.3.5-.1.5-.2h.7c.2 0 .3.1.5.3l.3.3v.6l-.2.6-.6.8-.3.3-1.2.2h-.3l-.8 1s-.2 0-.3.2l-.1.5v.8c0 .1 0 .3-.2.4v2.4h-.1v.4c0 .3 0 .5-.2.9v3.9l.1.8c0 .7 0 1.3.2 2l.2.9V122.7l.1.3.4 1.6v.7l.3.8v.8l.3.8.2 1.3.2.7v.3l.3.5.1 1 .5 1.3v.5l.2.2.2.9v.5l.2.5v.2h.2v.3l.3.6.3 1.2v.2h.2l.2 1.5.3.3.1.5.1.6s0 .3.2.5l.1.5s.2.1.2.3l.3.5v.5l.1.2.2.8h.2l.2.7.1.6.1.2.2.6v.1h.1v.5l.2.2V148.3c0 .3-.1.5-.3.8l-.6 1c-.2 0-.3.2-.5.4a1 1 0 0 0-.5 0v.1l-1.2.2M68.1 98.3l-.2-.1-1.6-.2-.7-.2h-.3l-1-.4-.3-.2-.8-.3h-.1l-.3-.3-.6-.1-.1-.2-.4-.1V96h-.2c0-.2-.2-.3-.4-.6l-.3-.3-.1-.1s-.2 0-.3-.2l-.5-.6-.2-.4-.4-.7-.2-.2v-.4l-.2-.3c0-.5 0-.5-.3-1V91l-.2-.2v-.4h-.1v-1l-.1-1-.2-.6v-3.4-.7c.2 0 .2-.7.4-1.2l.1-1.2.2-.3v-.5l.2-.2V80l.2-.2v-.8l.3-.3v-.4l.1-.4v-.6l.3-.8.1-.2.1-.6c0-.5 0-.5.2-.7l.1-.5.2-.6.2-.3v-.4l.4-.6.5-.7.6-.4h1.2l.4.4v.2h.1l.1 1.3-.1.8-.6 1.5-.3.4-.4 1-.1.7c-.3.4-.3.4-.6 1.3l-.4.8v.8l-.4.8-.2 1-.4.7v1c0 .2-.1.2-.2.3l-.3 3.9v2.7c.2 0 .2.2.3.5l.2.5c.3.5.3.7.6 1l.3.5.5.3.1.3h.2v.2l.4.2.2.2h.2v.1l.4.2v.1l.4.2.2.2 1.5.4v.2h1v.2h.3l.3.1h4.6l.3-.1 1.2-.2 2.3-.6h.3v-.2l.7-.1c.1 0 .3 0 .4-.2l.7-.4h.2l.4-.4.6-.2.2-.3h.2l.7-.5.4-.5v-.1l.4-.4h.2l.4-.5.2-.3.7-.9c.1-.2.7-1 .9-1.6l.5-1 .2-1 .8-1.4v-.2l.3-.5v-.5l.2-.3.1-.7h.1V83l.3-.5.1-.5.2-.2.1-.7c0-.5 0-.5.2-.8l.1-.7.2-.6v-6.8l.4-.8.4-.3h.7v.2l.3.1c.2.2.2.2.3.7v4.2l-.2.2v1.8l-.4 1.1v.2l-.4.7v.4l-.2.6v.4l-.1.3-.2 1.4-.4.8-.1.8-.3.6-.1.6-.3.7-.6.8-.4.7v.4l-.7 1.2v.4l-.3.4-.2.3-.6.8-.9 1v.2l-.3.2c-.2.4-.8 1-.8 1.2l-.6.5-.2.2-.8.5h-.1l-.6.5h-.2l-.1.1c-.4 0-.5.2-.7.2h-.3l-1.3.6-.7.2-.7.1-.8.3c-.7 0-1.4.2-2.1.4l-3.8.1m27.7-.2s-.2 0-.2-.2h-.2l-.3-.5-.1-.2-.2-.6v-.1l-.3-.3v-.7l.4-.4.5-.4h.6l.1-.1h.3l.4-.3h.3l.2-.1.6-.1.4-.3.1-.3v-1.7l-.3-.7v-1.3l-.3-.5v-.5l.3-.8v-.2l.3-.5.4-.3h1.1l.5.8V94.2l.3.7v1.3l-.4.4-1.3.5-.7.3-1.3.5-1.2.2M40 76zm31.6-16.3h-.2l-.2-.2v-.2H71v-.8l.4-.5.4-.3h1.3l.4.2V59l-.5.5-1 .1-.4.1m9.3-1.4l-.3-.1-.4-.6v-.4s0-.2.4-.6h1.9l.3.3v.5l-.7.7-.3.2H81M12.6 47.5v-.1l-.5-.1c-.2 0-.3-.1-.5-.3l-.6-.2a3 3 0 0 1-.5-.3h-.2l-.6-.4h-.2c0-.2-.2-.3-.6-.9v-.1l-.2-.1-.3-.8v-.1l-.2-.2v-.4l-.1-.3v-.4l.1-.2v-.4l.3-.4.1-1 .4-.6v-.4l.3-.4.1-.4.7-1.1v-.2l.3-.2v-.1c0-.2.1-.3.3-.5l.3-.2.1-.2.2-.2v-.2h.2l.4-.7 2.5-2.3.4-.3.2-.1.7-.8h.2l.7-.6.1-.2.4-.1.2-.2 1.1-.8.8-.5.3-.3h.1c.2 0 .4-.2.5-.4l1.2-.5.2-.3h.2l.4-.3h.2l.6-.4.6-.2.2-.1.3-.1.8-.4h.3l.6-.2.3-.1h.7V26h1.9l.5.1v.2l.3.2v.9l-.3.6-1 .8-.6.4-.5.4h-.4l-.2.2c-.4 0-.4.2-.6.2l-.1.1-.9.2-.8.5-.5.1-.6.2h-.2a7 7 0 0 0-.6.4H22l-.2.2-.8.2-2 1v.2H19v.1l-1 .5-1.3 1-1.4 1-2 2-.7 1-.8 1.1-.2.6-.2.2v.2l-.2.6V43h.2l.1.4.2.1.1.3.9.7h.3v.2c.7 0 .7 0 1.1.2h1.4c.2-.2.8-.2 1-.3l1-.2c.2 0 .3-.1.5-.3h.3l.5-.3.5-.1 1-.7.1-.1.3-.2.2-.1.5-.5.5-.4v-.1h.2l.1-.2h.2l.7-.7.6-.6.5-.6.6-.5.6-.6.1-.1.8-1.1.5-.6.4-.3V36h.1l.5-.7h.1V35c.2 0 .3-.2.5-.3v-.2h.1l1-1.5V33l.4-.4v-.2c.2 0 .2 0 .4-.3l.7-1 .2-.6.3-.2V30c.3-.3.3-.6.6-1l.3-.5.2-.2V28l.4-.6v-.1l.7-1 .6-1.3.6-1v-.3h.1l.3-.5V23l.2-.1.2-.7 1-1.7.5-1.2 1.6-2.7.7-1.1.1-.3.4-.3.3-.7.3-.3.1-.2 1-1.3.3-.4.4-.4.4-.4c.1-.1 1.3-1.4 1.8-1.7h.1c.4-.4.4-.4 1.2-.8h.1l.6-.4h.2l.5-.3h.3l.7-.2.1-.2.7-.1.8-.3H52.2v.2h.2l.4.2V8h.1l.1.2h.2V9l-.3.4v.2l-.5.7-.2.3-1.8 1.1-.7.2h-2l-.2-.3-.1-.3c0-.2 0-.4.2-.5l.3-.5h.2l.4-.3 1.2-.3.8-.2.4-.3.1-.6-.2-.2h-.9l-.3.1-.4.1-.9.5h-.1l-1.8 1.2-.4.4-.6 1h-.2c0 .2-.2.3-.4.5l-.2.6-.5.8-.5 1-.8 1.5v.2l-.6.8-.6 1.3-.6 1.1-.2.6-.6.9v.1l-.3.6v.2l-.5.6v.1l-.3.7v.1l-.4.6v.2l-.4.6v.2l-.4.6v.1c0 .2-.2.4-.4.6v.2c0 .2-.2.4-.4.6v.2l-.3.6v.1l-.4.7v.1l-.8 1.2L35 31l-.3.3v.1l-.3.4c-.1.4-.1.4-1.2 2.1v.2c-.5.8-.5.8-.8 1v.2l-.6.9h-.2v.2l-1.9 2.6c-.1.2-.1.3-2 2.2l-1.1 1.2-.7.4v.1c-1.2.8-1.3.8-1.3 1H24.4v.2l-.7.4h-.2v.2l-1.8.9-1.4.6h-.1l-.4.2-.4.1-.7.3H18l-.5.2-1.3.3h-3.7m117-21l-.6-.1h-.2l-.2-.2-.7-.4-.3-.1-.2-.2-.2-.6v-2l.4-.6.1-.5c0-.2.2-.4.3-.5v-.5h.2v-.3l.2-.4.4-.7v-.1l.5-.9 1-1.6v-.1l1.2-1.7.2-.3 1-1v-.1l1.5-1.8v-.2l.6-.5c.2-.3.5-.4.6-.7.2 0 .4-.4.6-.5l.6-.6.4-.4.7-.3h1.2l.7.2h.3l.1.2h.2l.1.3c.3.1.3.1.4.4v.7l-.3.4-1.8 1.4h-.2l-1.3 1v.2h-.2l-1.3 1-.3.3-.4.3-1 1.4h-.1v.2l-.4.4c-.1.4-.1.4-.4.7v.4l-.3.4v.4c-.2 0-.2 0-.2.3l-.3 1.2v.5l-.1 1-.2.8-.1 1.9c0 .2 0 .5-.2.6l-.1.5v.1c-.3.4-.3.4-.7.6l-.4.2zm-6.2-1.8l-1-.4h-.2l-.6-.6-.1-.2v-.2l-.2-.2v-.3h-.2l-.1-.7v-.8l-.3-.8v-1l-.2-.5-.2-1.6V17l-.4-3.6v-1l-.2-.3v-.8l-.2-.5h-.4c-.2 0-.3.1-.5.3l-.4.4-.1.1-1.3 1.7h-.1l-.9 1.3h-.1v.2l-.3.4-.6 1.2-.6 1-.1.5-.2.5-.1.1-.1.5-.3.7-.2.5-.2.4-.1.4-.4.8-.3.2c0 .2-.2.2-.4.3h-1.2l-.6-.1-.4-.2-.4-.3-.3-.7v-.8c.2-.1.2-.1.2-.5l1-1.4.6-.9.4-.4V17l.3-.3.5-.7.2-.2.3-.4.6-.7s.2-.3.4-.3l.7-1 .1-.3h.2l.6-.9.8-.8.2-.2.2-.4h.1l.5-.8.4-.3 1-1.2s.3-.4.6-.5v-.3l.8-.7 1.2-1.2.3-.3.4-.2h1.2l.3.2h.1l.4.3.2.4s0 .2.2.3V7h-.1l-.2 1.4v3l.2 1v1.4l.4 1.8.3 1.1.2.2.2-.1.6-.8v-.3l.2-.1v-.3l.5-.8.6-1 .4-.5.2-.4.2-.2 1-1.3s0-.2.2-.3l.3-.3c0-.1 0-.2.2-.3l1-1.2v-.2l1-.8h.1V8l1-.6h1.4l1 .4.2.3.2.5-.2.4-1 .7-1.5 1.1s-.3.2-.3.4l-.9.8-1 1-.4.4v.1l-.3.4-.2.4-.4.4-.7 1-.7 1.1-.3 1-.4.7-.4 1.2-.3.6-.1.4v.3l-.3.8-.1.5-.6 1.5-.2.3v.2l-.1.1-.3.2h-.3zM84.6 22l-.4-.1c-.1 0-.2 0-.3-.2l-.2-.4v-.8-.3l.7-.9s0-.2.2-.3l.3-.4v-.2l.6-.8.2-.2.4-.3V17l.2-.1.2-.3 1.8-2 .6-.7h.2v-.2l.5-.3 1.2-1.3.5-.4 1-.9h.2l.5-.5.1-.3h.2l.6-.5.7-.4.2-.2.8-.6.5-.3.3-.3.7-.5.5-.4.3-.2.8-.6.2-.2h.1l.7-.5.1-.4h-.2l-1.3.1-1.3.6h-.5v.1l-1.4.1-.3-.4-.1-.1v-.6l.4-.4.8-.4H106v.1l.2.2v.4a2 2 0 0 0-.5.3l-1.7 1-.8.3-.9.6-.4.2-.5.3h-.2l-3.2 2.5-.7.6-.7.5v.1h-.2l-.1.3-.5.3-.2.3-.4.3-.1.2c-.2.2-.2.3-.4.3l-.2.3-.7.5-.7 1c-.2 0-.2 0-.3.2l-.2.3c-.2 0-.2.1-.4.3v.1l-.2.2-1 1.3v.5H91l-.1.4-.3.6v.3l.3.4.9.1.5-.2.3-.1h9l.8.3H103.7l1 .5h.2v.1h.2l.6.4.2.5v.6l-.5.5h-2.8l-.5-.2h-.6l-.8-.2h-.4l-1.3-.4-.3-.1h-1.8c-.2-.2-.5-.2-.8-.3H91l-.8.2h-.8c0 .2 0 .2-.5.3l-1 .3-.9.3-1.3.3h-.1l-1 .1M81 18l-1.4-.4-.4-.3v-.1c-.1 0-.2 0-.3-.2-.1-.1-.3-.2-.7-1l-.4-1-.2-1v-1.9l.2-1 .2-.8.2-.8.2-.5v-.3l.4-.8.3-.7v-.4l.4-.8.4-.4v-.2l.4-.4v-.2l.7-.6.5-.5h.1l.3-.3c.6-.1.9-.3 1.4-.5h.4l.5.2.4.3.2.5v.6l-.2.6-.4.4-.6 1.3-.6.8v.2l-.4.6v.1l-.3.6-.2.8-.2.3-.8 2.5-.4 1.5v.8l.3.6.2.3.3.1h.4l1-.6.1-.1h.2l1-1.2.6-.5.6-1 .2-.1.1-.3.8-1 .7-1 .6-1L88 9v-.2c0-.2.2-.4.4-.6V8l.4-.6v-.1l.4-.7v-.1c0-.2.2-.4.4-.6v-.2L90.8 4l.5-.5.5-.1H93l.4.6V4.8l-.4 1-1.2 1.8-.3.3v.2c-.3.4-.6 1-.8 1v.3c-.1 0-.2 0-.3.2l-.1.3c-.4.3-.7.7-1 1.2l-.9 1.1v.2a172.4 172.4 0 0 1-1.1 1.3l-.1.2-2.5 2.5-1.8 1.2h-.4l-.1.1H82l-.7.3zm64.7-9.1l-1.4-.4-3.9-.2c-.4 0-.8-.2-1.2-.4v-.6l.1-.1.7-.3h3.5l2.8.4.5.1.8.3.4.4v.6l-.2.2zm-44.9-5.7l-.3-.1-.5-.6h-.2l-.3-.6-.2-.4V1l.3-.6.5-.2.4-.1h.4l.4.1.5.4.6 1h1.4l.3-.1.8-.3 1.5-.2.3-.1h.6l.8.3V2l-.4.3-1.4.2-1.1.1-1.7.2-.4.2-2.3.2M72.3 4.7h1.3c.2-.2.2-.2.7-.2h2.2l.7.1.1.2h.2l.4.3v.8l-.7.6h-.1l-1 .4-.9.3-1.3.6h-.4l-.3.2H73l-.7.2V7l.5-.1.8-.5.2-.2v-.4l-.2-.1h-1l-.3.1zm0 7c.1 0 .2 0 .3.2l.4.6.1.2h.1l.1.3v.2l.8.6.4.4.2.4.2.2c.3.2.3.2.4.5l.5.5.4.4.4.4.7.7.5.6h.2v.2l.4.3.2.3c.2 0 .2.2.4.3l.2.3.3.3.3.3c.2 0 .2.1.4.3l.1.1v.2h.2l.1.5v.6l-.2.4-.4.3-.6.1h-1.5c-.4 0-.6 0-.8-.2l-.5-.2-.3-.3h-.1l-.1-.1-.3-.2-.3-.3h-.2l-.1-.4H75v-.3h-.2l-.3-.6-.3-.2-.2-.4-.2-.4h-.1l-.2-.4-.1-.3h-.2v-.2l-.3-.6h-.2l-.1-.5-.3-.3zM60.5 26.1L60 26l-.3-.4h-.1s0-.2-.2-.3v-1l.3-.6.1-.7.3-.5.1-.4.3-.4v-.1l.1-.2v-.3l.3-.5.2-.6.3-.6v-.2l.3-.6v-.3l.8-1.4.5-1.1.5-1 .6-1.2.7-1.3v-.2l.4-.5v-.1l.4-.6v-.2h.2l.5-1 .9-1.5.3-.4v-.2l.7-.7.1-.3.3-.3.1-.2.5-.4.3-.4.6-.1.5-.3h1l.6-.2v1l-1 .4-.4.8v.3H71.5l.8-.3v1.3l-.7.3-.4.1-.3.4.3.8a469.3 469.3 0 0 0 .6.9v.2l.5.5v5.1l-.2-.4H72c0-.3-.1-.4-.3-.8h-.1c0-.2 0-.3-.2-.5h-.1l-.2-.6h-.1l-.3-.8h-.1v-.1l-.3-.6H70v-.1c-.2-.1-.2-.2-.3-.4l-.2-.3v-.3l-.2-.1-.1-.4H69h-.2c0 .2-.2.4-.4.6l-.1.6-.2.2v.4c-.2 0-.2.2-.3.4l-.2.5-.3.8-.3.7v.2l-.1.2-.4 1-.2 1.1-.1.3-.3 1v.2l-.1.1v.5l-.3 1-.2.2c-.2.8-.2.8-.4 1v.5l-.2.5-.1.2v.1l-.4.6v.2l-.6.8-.4.4-1 .6-.3.1zm52.7-22.4h.5l1.6.3 1 .5.4.3h.1l.4.4v.2s.2 0 .2.2l.2.6.1.1v1l-.3.4h-1.7-1.2v-.1h-.8v-.1h-.5V6.3h2.2v-.7-.2l-1.2-.5h-.4l-.6.2zm0 5.5l.6.2v.2c.2 0 .2.2.3.2l.1.2v1l-.2.7-.4.8-.4.5zm-10 9l-1.5-.3-1-.6-.2-.2h-.2l-.4-.5h-.1v-.2h-.2l-.4-.8-.3-.8h-.1c0-.2 0-.3-.2-.5v-.7l.3-.5.1-1 .4-.5v-.3h.1l.3-.4.4-.6.3-.3V10l.3-.1.5-.5V9h.2c.3-.4.3-.4.6-.5v-.3h.2l.4-.3.9-.6V7h.2l1-.8h.1l.4-.3 1.3-.6.4-.2h.3l.2-.2.5-.2.3-.1.6-.3 1-.2.5-.2 1-.1v-.1h.4c.1 0 .3 0 .4-.2h1v1.5h-.4l-1.1.5-.6.3v.4h2.1v1.2h-4l-.3.1-.4.1-.5.2-.3.3-.4.1-1.6 1.3-1.8 1.8-.7 1-.5 1.2-.1.4V15.7l.2.3v.2l1 .6h1.5c.1 0 .5 0 1.2-.5h.1l.6-.3.8-.8.7-.8.6-.5v-.3h.1l.2-.4.4-.5v-.1l.4-.6v-.4l.2-.7.2-.6V10l.4-.5c.2 0 .2 0 .6-.4h1.3l.1.2V13l-.3.4-.5.5-.7.8-1.5 1.2-.8.6-1 .6-.1.1-.8.3-.5.3-1.5.4zm-7.7 82.5h.1l.3-.1h1.4l.8.3v.1l1 .6.2.4h.1l.2.6h.1l.4.6.1.1.2.7.2.3v.4h.1l.4 1.9v4.3l-.1.7v1.3l-.3.5-.1 1c0 .1 0 .2-.2.3l-.2 1s0 .3-.2.5l-.2.5-.2.4-.3.8-.6 1-.4.8-.8 1c-.2 0-.2.3-.4.3 0 .2-.2.3-.3.4l-1.2.9V119l.3-.4c.2 0 .2-.1.5-.3v-.1l.9-1.6.1-.4.2-.4.1-.4.2-.1.2-.7.2-.6.1-1.2.2-.3v-.7l.2-.8v-3l-.2-.7c0-1.1-.2-1.2-.2-1.4l-.3-.6v-.1l-.1-.2v-.1l-.4-.2-.3-.2h-.6c-.2 0-.2 0-.3.2h-.2l-.6.7zm-3 22.1l-.8-.4c-1-.6-1-.6-1.1-.8h-.2l-.2-.3-.3-.1-.1-.3h-.2v-.3l-.3-.5h-.1l-.2-.5-.2-.5-.2-.3v-.2l-.1-.1c0-.2 0-.5-.2-.7v-.5l-.3-.8v-3.7l.2-.8h.1v-.7l.1-.1v-.7c.2 0 .2-.3.3-.8h.1v-.4l.4-.7v-.4l.2-.2.2-.6.3-.6v-.2l.4-.6v-.1l.5-.8.6-.8v-.3c.4-.3.4-.3.7-.8.2 0 .2-.1.4-.3l.6-.7h.2v-.2l.3-.4h.2l1-.7.5-.2h.2v4.7l-.5.6-.4.6v.2l-.7 1-.1.3-.2.7-.2.2v.3l-.1.1v.3l-.2.1v.7l-.4.8-.3 1.7-.1.3v2.9l.4 1v.4l.1.2.3.7h.2l.2.5h.1l.2.2.6.2h.6l.3-.1.2-.3v3.3l-1 .4-2 .1m-34.6-13H58.2l.6-.5.6-.1.4-.2h.4l.5-.3 2-.1.8.3h.2l.5.1v.2h.2l.5.5.1.2.2.2.5 1v3.6l-.1 1.3-.2.2v.3l-.5.8-.1.6-.6.9v.2l-.9 1.4-1.3 1.8h-.1v.2h-.1l-.3.5-3 2.8h-.1v.1h-.2l-.3.3v-3.7l.3-.3.2-.2c.2-.2.2-.3.4-.3l.2-.3c.1-.1.1-.2.4-.3l.1-.3.4-.3.3-.3.3-.2.6-1.1.6-.9v-.1s.2-.5.4-.6v-.1l.4-.7v-.1l.3-.7.2-1 .1-.3-.1-1c0-.3-.2-.4-.2-.5l-.3-.4h-.3l-.2-.1h-.4l-.3.1h-.5l-.6.4h-.1l-.3.3-.3.1v.2l-.9.6-.2.2-.4.3v.2zm-6.5 18.6l-.3-.2h-.3c-.2 0-.4-.2-.6-.4h-.1l-.7-.4-.5-.7-.2-.1-.1-.5-.2-.4v-.3h-.1l-.2-.7v-2.5l.1-.3c0-.4 0-.8.2-1.3l.1-.2.1-.3.3-.8.2-.7.3-.2v-.1l.6-1v-.2l.2-.2.1-.2.8-1v-.2c.3-.1.4-.4.6-.5l.6-.7.3-.2v-.1l.2-.2.6-.7.7-.7h.3c.2-.4.4-.5.6-.7l.3-.2.8-.6.4-.2.8-.6h.1c.2 0 .3-.2.5-.3v4.9h-.1l-.4.4-.2.3-.4.3-.2.2-.3.4-.2.2-1.2 1.3v.2l-.4.3v.3h-.1l-1 1.5-.2.5-.2.7v.3l-.2.4v.3l-.1.1v1.4l.3.5.4.3h.3v.1l.8-.1.4-.3.5-.1.1-.2.4-.2h.2l.2-.2h.2v-.1l1.1-.8.2-.3h.1v3.7l-.7.5h-.1l-.1.2-.7.3v.2H56l-.9.5h-.1l-.4.2-.5.1s-.2 0-.3.2h-.5v.1zm-2.1-20.7h1l.4.1h.4l.6.2.1.2h.3v.1l.2.2v.5l-.7.3-1.3.4h-1.2v.1h-1.6v-.7l1.2-1 .3-.1v-.2h.1l.2-.1zm-1-15.3h.7l.1.2.3.2v.1l.1.2v.8l-.4.4-.5.4h-.2v.2l-.6.3h-.1l-.2.2h-.3l-1 .8-.1.2-.6.2-.8.6v.1l-1.3 1v.1h-.2l-1 .6v.2l-.4.1-2.6 1.9H39l-1.4 1h-.2v.1l-1.8 1.1-1.2.9h-.2l-2 1.4-.6.3-1.6 1-.4.3-.5.4-.6.2-.2.1h-.1v.1l-1 .5v.2H27l-.6.5h-.2l-.2.3-.6.2-.1.2H25l-1 .6-.7.4v.1h-.2l-1.6 1.2-1.6 1-1.3.5-.5.3-.7.5-.6.2-.1.2h-.2l-.9.6v.1h-.2l-1.9 1.5-.7.4-.6.3-.1.1-.7.3-.1.1h-.2l-.8.6-.9.8-.7.3-1.2.8-1 .9-1.2.6-.2.2h-.1l-.4-.3-.2-.6-.2-1v-1.2c-.2 0-.2 0-.3-.5v-5.4l.2-.5v-.4l.5-.4.4-.3.4-.1.7-.5.7-.2c.5-.2 1-.6 1.4-.9h.1l.4-.2h.4l.9-.7.2-.1.3-.3h.2l.4-.4h.2l.6-.4h.3l.6-.4h.1c.2 0 .4-.2.6-.4h.2l.7-.4h.1l.6-.3.6-.2 1-.5 1.3-.7.5-.2 1.3-.6.7-.2h.2l.4-.3h.2l.6-.4h.2l.6-.4h.3l.5-.3.6-.3 1.2-.6 1.9-1v-.1h.4l.6-.3.4-.2 1-.6h.2l.8-.5h.3l.5-.4h.1c.2 0 .3-.2.5-.3h.3c.1-.2.1-.2.4-.3l.4-.1.6-.4.5-.1.1-.2.6-.1.6-.4 1-.4h.3l.4-.1.3-.2.5-.1.2-.2.5-.2.8-.3h.4l.6-.4h.1l.4-.3.4-.1.3-.1.6-.2.7-.2.4-.1.2-.2h.4l.3-.3h.4l.3-.2h.3l.2-.2 1-.1.1-.2.8-.2.6-.1.2-.2zm.5-5h.3l.1.1h.2v1.8l-.1.3-.2.2-1 .7-1.6.8-.6.3-.5.2-.7.2c0 .1-.1.2-.3.2l-.6.2-.6.3h-.4c0 .2-.2.2-.4.3h-.1c-.2 0-.3.2-.5.3h-.4l-.5.2-.2.3-.7.1-1.3.7v.1h-.5c0 .2-.8.4-1.3.7h-.3l-.3.3-.7.1-.3.3-.7.2-.8.3h-.2l-.3.3-.6.1-1 .6-.7.2-.9.5-.7.3-1.8.7h-.2l-.1.2h-.1l-.8.4-.8.3-1 .4-.6.4-.8.5-.6.1-1.6.7-1 .5-1.3.6-1.3.6-1.6.7c-.3 0-.5.2-.7.4l-.8.2-.6.4-.6.2-.2.1-.4.1-.3.2-.6.2-1.2.5-.7.4-.8.3-.6.3-.6.2-.2.1-.3.1-.4.2-.6.2-.7.2-.4-.3v-.9l.1-.5.1-1.1.2-.8v-.3l.3-.6.2-.6v-.8l.3-.8v-.3l.2-.5.1-.6.2-.6V99l.3-.6.4-.5.3-.2h.6l.8-.3.6-.3h.5l.6-.3h.6l.7-.3.2-.1.6-.1.2-.2c.1 0 .3 0 .4-.2h.3l.8-.2h.7l.8-.3h.7l.8-.3.5-.2h.3l.7-.2.9-.3h.7l.7-.2.1-.2h.6l.2-.2 1-.3h.4l.1-.2.7-.2.9-.2 1-.1.6-.2h.2l.3-.1.9-.2 1.6-.4.3-.1h.8c0-.2 0-.2.8-.4h.7l.5-.2.3-.1 2-.5h.7l.5-.3h.6l.5-.2h.3l.6-.2 1.4-.3.5-.2h.5l.7-.2.3-.1c.2 0 .5 0 .7-.2h.3l.9-.3h.2l.2-.1h.3l.6-.3h.5l1.1-.2.3-.1h.5l.5-.3h.3l.3-.1zM41 82.9h2.8l2.2.2h2.6l.5.2 1 .2v.2l.3.2.1.6-.4.7-.7.5H49l-.3.1-.4.3-1.3.2s-.2 0-.3.2l-.9.1-.4.2-1.2.2-.5.2h-.6l-.8.3H42l-.6.3-.4.2h-.6a1 1 0 0 0-.4.1l-.8.1-.8.3-.7.2-.3.1-1.3.2-.8.2-.7.1-.5.2h-.6l-.5.2h-.7l-.8.3h-.8l-.5.3h-.3l-.6.2-.2.1-1.5.3-.3.1-1 .2h-.1l-.2.2h-.4l-.8.4-.5.1c-.3 0-.7 0-1 .2l-1.6.4-1 .3-.5.2-1.3.2-.3.1-1.7.3-.9.3-.5.2-1.9.2v.1h-1l-.1.2-1.3.1-1.1.4h-.9l-.1.1h-.6l-.4-.3.1-1 .3-.5.1-.9.2-.2v-.2l.2-.6.3-.7v-.6l.2-.2v-.2l.3-.6.1-1 .2-.7.1-.2.2-.6v-.3l.5-.6.4-.3h2.1l.5-.2 1.8-.2h.8l.6-.2h.5l.6-.1h.6v-.1l3.5-.3.1-.1h2.2c0-.2.2-.2.4-.3h2.3l.1-.2 1.6-.1 2.8-.1h2.5v-.1l3-.4h3l.7-.2zm80-3.2a406.4 406.4 0 0 1 9.9.4l.1.2-.2 2-.2.5v1l-.5 1.5v1.3l-.4.8-.4 1.4-.2.6v.3l-.5 1.3s-.1.2-.3.2l-1 .1-.7-.2a8 8 0 0 1-1.3-.1l-1.9-.4-.3-.1-1.5-.4-.7-.1-1-.3h-.4l-1-.4h-.3l-2.2-.7a6 6 0 0 1-1-.1l-2-.7-1.3-.3-.9-.1-2.5-.7-1.6-.5h-.2l-.8-.4-1.6-.3-.4-.1-.8-.3h-.2l-.6-.3-1.3-.5-1.4-.4H99c-.3 0-.6-.2-1-.4-.5 0-1.5-.4-1.6-.4l-.9-.3-1-.1-.3-.3-.3-.2h-.2V82l-.3-.1-.4-.7V81l.3-.5.4-.1h.5l.6-.1.7-.2h22l1-.2c.8 0 1.6 0 2.4-.2zM16.4 74h.9l.7.2 1 .1H23l1.8.3h.1l1.8.2.7.1.3.2h2.9l2 .3.5.1h1.2l.8.3 2.5.1 1.5.2v.1h.5v.1h1c.8 0 1.6.2 2.4.4h.5l1.5.2v.1h.9l.5.2 2.8.6.4.1h.2l.4.3.4.1.1.2.4.1h.3v.2h.4l.2.3.1.7-.3.7-.4.7-.4.2h-3.2l-.9.2-4 .1c-.6 0-.6 0-.7.2l-3.1.1H36c-.2 0-.5 0-.8.2l-2.3.3h-.8l-5 .3h-.5v.1l-1.4.1-4.3.2v.1h-1.1l-.1.1h-1.2l-4.5.2-.1.1h-1.6l-.4-.1c0-.1 0-.2-.2-.3v-.4l.3-.6v-.1l.2-.4.3-1.2.3-.6v-.2l.2-.1V79l.2-.2.2-.7h.1l.6-.8.1-.7.4-1.2.5-.7.3-.3.5-.4.5-.1zm113.8-3.7h1.5l.2.2.1.3V74l-.2.7-.1 1.1-.2.4v.9l-.2.6-.4.4-2.1.1-3.1.3H121l-2 .2h-5.7-.4l-7.3-.2-11.4-.3h-.5l-.2-.4v-2c.2-.1.2-.1.2-.3l.4-.4h.1l1.3-.2 1-.2h.4l2-.4h.5l2-.4h.4c.6 0 1.3-.2 2-.4h.4c.7 0 1.4-.2 2-.4h.5c.6 0 1.3-.2 2-.4h.4c.6 0 1.3-.2 2-.4h.4l2-.3h.5l2-.4h.4c.6 0 1.3-.2 2-.4h.5l1.7-.3 3.4-.1 1-.2 2.6-.2 2.7-.2zM21.6 63.4l.6.1c.4 0 .7.2 1 .4h.4l1 .4h.4l.8.3h.3l1.2.3.6.1 1 .4.4.1.9.3h.3l1.6.4 1.9.6.2.1 3 1c.2 0 .5 0 .9.2h.3l1.7.5 2.7.7c.3 0 .6.2 1 .4h.2l.5.3 1.5.4.7.4.6.2.4.2c.4 0 1.1.3 1.4.4h.1l.8.4h.1l.7.3.2.1.7.3h.2l.6.4h.4l.3.2.1.1.2.1.1.2v.9c0 .3-.2.6-.4 1v.1l-.2.2v.1h-.2l-.1.2a1 1 0 0 0-.5.2h-2.4l-.5-.2h-3.1l-2.3-.7-2-.1L40 75l-1.9-.1c-.1 0-.4 0-.6-.2-1.5-.1-2.3-.1-3.2-.3l-.4-.1-1.4-.1-1.4-.3-4-.4h-1l-.8-.3a1 1 0 0 1-.4-.2h-1l-.9-.4-2-.4h-1.5l-.7-.3h-1.1l-.8-.3-.4-.2V71l.5-1.1.3-.4v-.1l.4-.7.1-.4c.3-.5.3-.5.3-.9l.4-.5v-.1l.3-.6V66l.8-1.1v-.2l.6-.8.6-.3.7-.2zm110.7-4.7l.5.5v2.2l-.1.8-.1 4.5-.3.8h-.1v.2h-.2l-.1.2h-1.2l-.4.2h-.5l-.2.2h-.5l-1.8.3h-.4l-.1.1h-.4l-1.1.4-1.5.2h-.9a134.5 134.5 0 0 1-1.6.4H120l-.8.3h-1.8v.1h-1l-.1.2-2.5.1-.8.3-3.1.1-.5.2h-.6l-1 .2-4.7.5v.1h-.8c-.2 0-.4 0-.7.2h-.6l-.7.1-2.2.2-.1.1-2.3.3h-.7v.1H94l-.3-.5-.1-1.3.2-.6.4-.3.5-.1.6-.3 1-.4h.3l1-.4.2-.1.8-.2.7-.2.1-.1h.3l.1-.2h.3l.5-.3h.5l.9-.4h.4l1-.5h.5c.2 0 .3-.2.5-.3l.5-.1 1-.4.8-.2.6-.2.6-.3h.3l.8-.3 1.3-.4h.5l.5-.1.5-.3 1-.2.6-.2h.3l.6-.2.4-.2h.4l.1-.1.8-.4h.2l.7-.3h.6l.6-.4 1.2-.3h.5l.5-.3 1.6-.4h.5l.2-.1.6-.1.2-.2h.2l.1-.1h.7l.9-.4 1.3-.1.3-.3h.6l.4-.3.9-.3h.3c.2-.2.2-.2.7-.2l.5-.2h.6l.2-.1 1.2-.2zm-46.7-.9h.3l.4.2v.1h.3l.6.8.6.5.5.6.4.4.1.2.2.3v.1l.4.7v.3l.4.6v.1l.2.3.2.4v.1l.4.8v.3c0 .4.2.8.4 1.2l.1 4 .2.5v.5l.3.7v5l-.3.8V80.6l-.2.5v3.2l-.4 1.8-.1.1v1.4l-.4 1.5-.2.3-.2.3-.3.8v.4l-1 1.6-.2.3v.1c-.3.2-.4.4-.5.6l-.2.1-.6.6-.7.7-.6.9-.5.5-.1.1-.8.6H84l-1.6 1.2-1.1.4H81l-1.3.5-.6.1-1 .3-1.7.2-2.7.1-1.4.2-.5.1h-2.5l-3.6.2c-1.2-.2-2.7-.2-3.8-.3h-1a1 1 0 0 1-.5-.2 4 4 0 0 1-1-.1l-.9-.3h-.4l-.1-.1c-.3 0-.6-.2-.8-.4h-.5l-.5-.3H56c0-.1 0-.2-.2-.3l-.6-.4v-.1H55l-.6-.7-.6-.5-.6-.7-.3-.1-.2-.6-.2-.6v-1.1l-.3-.7v-4.3l.3-.7v-1.2l.3-1.2.1-.8v-1l.7-2v-.4l.4-.8.3-.7.2-1.3.7-1.8v-.2-.1l.4-1.2.3-1 .4-.6v-.1l.4-.7v-.1c0-.2.2-.4.4-.6v-.2l.9-1.3.2-.2.4-1 1.6-2 1-.9.4-.4.1-.2.2-.2.5-.4.6-1c.2 0 .3-.2.6-.4l.5-.6.6-.6.2-.2 1-.7v-.1l.3-.1v-.2h.7l.7.3h.6v.1l1 .3h.6l.8-.3h.3v-.1l.7-.1v-.2l.7-.1 1-.3 1.1-.7V60h.2l.3-.1h.3l.3.1.1.6-.1.7-.3 2.4v1l-.4 1.3-.5 3.7-.3 1.2-.2 1.8-.1.4V75l-.5 2-.3.8v1l-.3.6-.1 1.6-.2.4-.2.6v2.5l.2.5.1.2.5.5h.8c.2 0 .4 0 .7-.2l.4-.3.4-.8v-2.4l-.1-.7v-.8l-.3-.7v-2.9l.4-3.7.1-1.9.2-.7.3-2 .1-.5.3-1.4.1-.4v-1l.3-1 .1-1.5.4-1.5v-.4l.6-.6h.2l.8.3h.4l.8.3h.7l.4-.1 1.3-.3.4-.3.4-.1.6-.6h.2v-.2l.6-.6h.1v-.1c.2 0 .2 0 .3-.3l.7-.4zM75 56.5l.4.1v.4l-.2.5h-.1v.2H75c0 .2-.2.3-.3.5l-.8.5-1.1.8-.6.2h-.1l-2 .3-.6-.2-.3-.2h-.1v-.4-.3c.2 0 .3-.2.4-.3l1.3-.9.7-.3h.7c.1-.2.1-.2.6-.3h.2c.2-.2.4-.2.5-.2h.2l.6-.3.7-.1zm3.8-.7h.2l1.9.1h.9l.4.2.6.2v.1l.3.2.4.4.1.3-.1.4-.4.3-.7.5H82l-.8.4h-1l-.5-.2-.3-.2h-.1v-.2H79l-.5-.6v-.2l-.1-.2-.2-.4v-.6l.4-.4.2-.1zm-51.7-2h.2l.8.5h.1l.7.3 1.2.4h.3l.8.4h.1c.2 0 .4.2.6.4h.3l.7.4h.1l1 .7 1 .4h.2l.6.4h.2l.6.4h.1c.2 0 .4.2.6.4l.8.3h.4l1 .8h.3l.3.3.8.2 1 .5v.1h.5v.2l.8.4.7.3h.3v.1h.1l.4.3h.2l.6.3h.2l.3.4h.2v.2l.4.2.6.2.4.2h.1c.2 0 .4.2.6.4h.2v.1l.5.3 1.9 1.1h.1l.6.3v.1h.2l.3.4h.3v.2a42.9 42.9 0 0 0 .7.3l.1.2.4.2v.3h.3l.4.3.4.2.4.3.3.2c.1.2.1.2.3.2v.3h.1l.1.7-.4.7-.4.6-.1.2v.1h-.3l-.1.2-.4.3h-.4a1 1 0 0 1-.4-.1l-.6-.2-.2-.1h-1.4l-.8-.4-1.4-.4h-.6l-.7-.4h-.5l-.8-.4-.6-.3-.8-.2-2.7-1h-.6l-.5-.4-2.5-.6-.2-.1-1.6-.5h-.3l-1.2-.4-.8-.4c-.3 0-.3 0-1.1-.4h-.3l-1-.4h-.2l-.8-.4-1.5-.3h-.3l-1.7-.5-.5-.2-.3-.1h-.4c-.3 0-.6-.2-.9-.4h-.2l-2.1-.8-1-.2-.3-.1v-.3c.1-.4.4-.8.7-1.3v-.2l.4-.7v-.2l.4-.4v-.2l.2-.2.1-.4.4-.5v-.1l.7-.7.2-.5.2-.2c0-.2 0-.2.4-.6l.8-1.3.6-.3zM132 48.5h.2l.1.5.1 1.3.2.4v1.9l.4 1.3.2 1.7-.7.7h-.4l-.2.2-1.1.3-.5.2-1 .4h-.3l-.7.3-1.4.7-.7.2c-.1 0-.3 0-.4.2l-1.2.3-.5.2-.5.1-.1.2-1 .2-.4.3-.6.3-.7.1s-.3 0-1.1.4h-.2l-.3.1h-.3l-.7.3h-.5l-.5.2-.3.2h-.3l-1.3.5-1 .2c-.2.2-.3.2-.7.3l-.4.1-.1.2h-.2l-.6.2h-.2l-1.1.4h-.6l-.6.3-.8.4-.8.1-.3.2-1 .1-.8.5-.6.2-.3.1-.5.1-.2.2-1.1.3-1.1.3-.8.1-.8.2h-.2l-.7.5-.8.3h-.6l-1.3.4-.7.2-.7.1-.4.2-.4.1-.3.2h-.2l-.2.1-.2.1h-.6L93 68v-1l.3-.5.4-.3v-.1h.2l.3-.2 1.8-1.2 1.5-.7.2-.2h.2c.2 0 .3-.2.5-.4h.1c.2 0 .3-.1.5-.3l.4-.1.9-.5.7-.3 1.1-.7h.3l.3-.3h.4l.6-.4.3-.1h.4l.6-.4h.2l.3-.2h.2V60l.5-.1.3-.2h.2l.6-.5h.2l1-.6.9-.5h.3l.1-.1.7-.3 1-.7c.3 0 .3 0 .8-.4l.6-.2.4-.2h.3l.6-.4h.2l.6-.4h.2l.6-.4h.1l.6-.3 1-.4.6-.2.4-.2 1.3-.6.8-.3.5-.3h.1c.3 0 .5-.2.7-.4h.2l.5-.3.8-.3h.2l.6-.2h.2l.5-.3h.2l.7-.4h.1l.5-.3 1-.3.2-.2.6-.1.1-.2h.4l.8-.5h.3l.5-.3 1-.3.1-.1.6-.1zm-97-4.2h.5l.3.1.6.7h.3v.2l1 .7.1.2.4.1v.2l.3.1.3.3.4.2.1.2.3.1c0 .2 0 .2.4.4h.1l.1.2c.2 0 .3.1.5.3l.5.5.4.2c0 .2 0 .2.3.3h.2v.2l.8.8.4.4.8.7.6.6h.2l.4.4.2.1v.2l.8.4v.2c.5.4.5.4.8.4l.1.3h.2v.1l.4.3v.1l.8.6v.2l.5.6.3.1.1.3h.2v.1l.4.3v.1l.6.5v.1h.2v.2l.4.4.4.2v.2l.4.3.4.3v.1c.3.2.3.2.3.4h.1l.3.3v.1l1 .7.2.2.4.2v.3h.2v.2h.2l.3.3.1.3h.2v.2c.2 0 .4.1.5.3v.2h.2l.1.2.2.2.3.4h.1v.2l.7.5v.1l.3.2.3.7-.5.8-.3.3-.3.3h-.5l-.6-.2-.1-.1-.8-.3-.2-.1-.8-.2-.3-.3h-.5l-.5-.4h-.2l-.2-.2-.4-.2-.4-.3-.6-.2-.2-.1-.6-.3-.1-.2H50l-.1-.2-.8-.4-.8-.3h-.1l-.3-.3-.5-.1-.2-.2-.6-.2-.3-.2h-.1l-.2-.2H46v-.1l-.6-.3h-.2l-.1-.2-1.1-.2-.2-.2h-.2l-.2-.1h-.1L43 60h-.2l-.1-.1h-.2l-.2-.3H42l-.2-.1h-.1l-.3-.3h-.2l-.2-.1H41l-.3-.2h-.2l-.1-.2h-.2l-.2-.2h-.2l-.2-.2h-.2l-.2-.2H39l-.6-.3H38l-.5-.2-.2-.3H37l-.1-.2-.6-.2-.2-.3-.6-.2-.2-.1-.6-.2-.1-.2-.2-.1c-.1 0-.2 0-.3-.2v-.1l-.3-.1-.4-.3-.4-.2H33l-.2-.3h-.2l-.3-.3h-.3v-.1l-.2-.1-.2-.2h-.2l-.3-.3h-.4l-.5-.3-.2-.2h-.1l-.2-.3h-.2l-.7-.6v-.1l-.1-.2v-.3l.7-1 .1-.2s.2 0 .2-.2l.1-.3.6-.7 1-.8v-.3h.1l.5-.8 2-2c0-.2 0-.2.2-.3l.3-.4c.2 0 .2 0 .6-.4zm7.5-5.4h.5l.3.3.2.1.6.6.6.6.4.7.4.3.3.4.3.3.2.2.4.3.2.3.4.3.2.3.3.3.3.3.3.2v.2l.2.1v.2c.2 0 .2.2.3.2l.2.4.3.4h.1v.2l.6.5.6.6h.2v.4c.2 0 .2.1.3.2l.3.4.4.8h.2v.2l.2.1.2.4h.2v.3h.2l.2.2v.1l.2.3.4.4.5.6.4.4.6 1 .3.2.2.4.1.2c.2 0 .4.2.5.3v.3h.2l.1.3.2.1v.2a66.4 66.4 0 0 0 .3.6l.3.3c0 .2 0 .2.3.5h.2v.2c.2 0 .3.2.3.4.2 0 .2 0 .3.2h.1l.5.6.2.4h.2v.2l.7.6v.1c.3.2.3.2.3.4l.4.3v.1l.6.5v1.3l-.3.4v.1l-1.3.8h-.1l-.2-.1h-.3v-.2h-.2l-.3-.3h-.1l-.2-.2c-.1 0-.3 0-.5-.2l-.3-.1h-.2v-.2h-.2l-.4-.4-.2-.1-.2-.3h-.2v-.2H56v-.2l-.8-.4-.7-.7-.1-.1-.8-.5-.4-.4-.3-.3-.4-.4-.4-.5-.8-.7-.2-.2H51l-.3-.3-.3-.2a2 2 0 0 0-.4-.5h-.2v-.1c-.1 0-.2 0-.3-.2l-.4-.5-.1-.1-.3-.2-.5-.6-.4-.4-.1-.2h-.2v-.3l-.4-.3H47l-.1-.2h-.2v-.2c-.3-.2-.3-.2-.3-.4h-.2v-.2H46v-.1l-.9-.5-.4-.4-.2-.3h-.1l-.2-.3-.4-.4h-.2v-.1l-.2-.1-.1-.2H43v-.1l-.2-.1v-.2h-.2c0-.2-.2-.3-.3-.5H42v-.2l-.3-.1c0-.2-.1-.3-.3-.5h-.2l-.2-.3H41l-.3-.3h-.2v-.1l-.2-.1v-.2H40V46h-.2c0-.2 0-.2-.2-.3h-.2l-.2-.4H39v-.2l-.6-.4h-.1v-.2l-.4-.1-.3-.3-.2-.1v-.2h-.2l-.5-.8v-.4l.6-.7.6-.5.3-.1.2-.3.8-.4.3-.3h.2l.4-.4.8-.4.4-.2v-.2h.2l.4-.3.6-.1zm86.4-2l.4.3.3.3v.1l.3.2v.2c0 .3.2.6.4 1v.2l.1.1.3 1.4.3.5v.3l.2.1.3 1.2.3.8v1.2l-.2.4-1.7 1.6-2 1.3c-.3 0-.8.5-1.3.7l-.6.3c-.4 0-.4 0-.4.2l-1.5.7-.5.4-.7.2-.4.3h-.4l-.2.2-.9.2-.4.1-1.1.6-.3.3-.7.1-.4.3-.7.2v.1h-.2l-.9.6-.4.1-.7.6-.6.3-.7.1-.9.5-.9.3-.7.4-.6.1-1 .6-1.3.6-1.1.6-.4.1-.2.2-.6.1-1.8 1.1-.3.2-1.7.8-1 .5-1.4.6h-.2l-.4.3h-.1l-.4.3-.4.1v.2l-.8.1a7 7 0 0 0-.6.4H97c-.2 0-.4.2-.6.4h-.2l-.6.4h-.2a7 7 0 0 0-.6.4h-.4l-.2.1a3 3 0 0 0-.5.3h-.5l-.3-.2-.2-.2-.2-.6.3-.6 1-.7h.1l.3-.4.2-.2.1-.2h.2l.3-.4h.1l.9-.8h.2l.6-.6h.2v-.2l1.7-1.3c0-.2.3-.4.3-.5h.3l1.6-1.5v-.1h.2l.4-.4h.2v-.2l1.2-.9h.3l.7-.7.2-.1.5-.4h.1l.1-.2.7-.4.1-.2h.2l.4-.4.3-.2h.2c.1-.2.4-.2.8-.5l.4-.3v-.1l.4-.2 1-.7.2-.3h.2a8 8 0 0 0 .9-.7h.2l.7-.5.3-.3h.2l1.6-1.2h.2l.3-.4h.2l.7-.6.8-.5h.1c.6-.6.6-.6.8-.6v-.2h.2l.6-.3.5-.5.3-.1v-.1l1.2-.5.5-.4.6-.7h.3l1-.9c.4-.3.7-.3 1-.6l.8-.5.4-.2 1-.7.2-.2.7-.4.4-.2 1-.7s0-.2.2-.2l.2-.1.5-.4.6-.1zm-77-3.1l.6.3v.2h.2l.2.5h.2v.3h.2c0 .3.2.4.5 1l.7 1.3.1.5.2.5.3.2v.3l.3.5.1.3v.2l.3.3.2.5s.2 0 .2.2c.3.6.6 1.1.6 1.4l.3.3v.4l.2.2.2.6.3.1.2.5.3 1c.2 0 .2 0 .3.5h.2v.2c0 .2.1.3.3.5l.1.1v.2l.3.4h.1a29.6 29.6 0 0 1 .4.8l.2.6.3.6v.2h.2c0 .3.1.5.3.8l.2.2.1.5.3.3.1.4.2.3.2.5.2.3c0 .2 0 .3.2.5l.2.3c0 .1 0 .3.2.4l.1.1.5.9.3.5c.1.4.1.4.3.5 0 .2 0 .3.4 1l.3.8.1.4v.7l-.2.3-.8.6h-.6l-.4-.2-.1-.2-.5-.4h-.2s0-.2-.2-.2v-.1l-.3-.2a3 3 0 0 0-.4-.7H61v-.2c-.5-.3-.5-.4-.8-.7l-.2-.3-.1-.1-.1-.2h-.1c0-.1 0-.2-.2-.3l-.1-.1v-.2l-.2-.1-.7-.8-.3-.2a1 1 0 0 0-.2-.3l-.2-.3-.3-.1-.2-.3h-.1l-.3-.4-.4-.6-.3-.2-.3-.4-.3-.2c0-.2-.1-.2-.4-.5l-.5-.5h-.2l-.1-.3-.4-.4-.2-.4-.4-.7-.4-.4-.5-.8h-.1l-.1-.2h-.2v-.3c-.2 0-.2 0-.3-.2h-.2l-.2-.5h-.2l-.1-.3H51c0-.3 0-.3-.2-.5h-.3v-.2l-.1-.1-.3-.6H50v-.1h-.2c0-.3 0-.3-.4-.9h-.1v-.2H49l-.3-.5h-.2l-.2-.4h-.1v-.3H48a2 2 0 0 0-.3-.6h-.2v-.2h-.3c0-.2-.1-.4-.3-.5l-.2-.1v-.2h-.2l-.3-.6-.3-.2v-.2l-.4-.4-.2-.2-.3-.5-.3-.2-.2-.7.2-.5.5-.4c.2 0 .3-.2.5-.4h.1c.2 0 .3-.2.5-.4l1-.4 1.5-.7s.1-.2.3-.2l.5-.2.8-.4h.1l.6-.3h.4c.1-.2.1-.2.3-.2zM64 30v.1h.2l.2.2.1.1v.2l.3.4v.4l.2.1.2.6.1.2.3.6v.3l.2.5v.3l.1.2v.3l.2.1.2 1.6.2.3.2.6v.7l.3.6.1 1 .2.2.2.8v.5l.2.5c0 1.3.2 1.5.2 1.8l.4 2 .2.6.2.7.1 1.4.2.7v.8l.3.5v.9l.1 4v.4l-.1.9v.2l-.3.3-.4.3h-.4c-.3.3-.3.3-1.2.7v-.1a1 1 0 0 1-.5-.2l-.3-.4v-.1l-.3-.3v-.2l-.1-.1-.2-.4-.2-.4-.5-.8h-.1v-.2l-.2-.1-.1-.4h-.1c0-.1 0-.3-.2-.4l-.1-.1-.3-.7h-.2l-.1-.5h-.1l-.4-.7H63v-.2l-.2-.1-.2-.4-.2-.4-.2-.2V50l-.2-.2v-.2h-.1l-.3-.7h-.1v-.2c0-.2-.2-.3-.3-.5l-.2-.1v-.2l-.2-.4v-.2h-.2l-.1-.8-.3-.3c0-.1 0-.3-.2-.4l-.3-.7-.1-.2-.1-.4-.2-.3v-.3h-.1v-.2c0-.2-.3-.4-.4-.6v-.3l-.2-.1-.2-.4v-.2l-.2-.2-.1-.3h-.1v-.3l-.2-.2-.2-.3v-.3l-.4-.9-.2-.4-.4-.7-.3-.8H56l-.3-.8h-.1l-.3-.8V36l-.2-.1v-.4l-.2-.1-.2-.8-.2-.6-.2-.2v-.4l.8-.4.4-.3 1-.6.5-.2h.3l.1-.2h.5l.2-.1s.3 0 .3-.2l.5-.1h.3c.1 0 .2 0 .2-.2h.3c.7-.3 1.1-.3 2-.8H62.2l.8-.3H64zm56.2-.6h.4l.6.3h.1l.1.1.8.3.2.2h.2v.1l.3.3h.2l.3.4.6.2.2.2h.3v.2l.4.2.4.3h.2c.1.3.1.3.4.5h.1v.1l.5.3.4.6.2.1v.8l-.6.8-.6.6-.8.6v.2h-.2l-.2.2-.4.3-.2.3c-.2 0-.2.1-.4.3l-1 .7-.5.6h-.2l-1.5 1.2-.3.3-1.1.7v.1h-.2l-.3.3-.2.1-.9.6v.1l-2.9 1.9h-.1l-1.6 1.2h-.1l-.3.4-.6.4-.7.4c-.2.3-.2.3-1.7 1.3l-.8.5-.4.2-2 1.4v.1l-.2.1c-.3.4-.8.7-1.3 1h-.1l-.1.2-1.5.8-.6.4v.2h-.1l-.6.7-1 .5-.4.4-1.7 1v.1h-.2v.1l-.5.3-.7.4v.1L95.6 58l-1.3 1H94v.2l-1.5 1v.2l-.8.2h-.1l-.1-.2h-.2v-.2l-.1-.2c-.2-.2-.2-.2-.2-.6l.3-.5.4-.6.1-.2.4-.5c.5-.4.5-.4 1-1.2l.5-.4v-.2h.2l.3-.4.2-.2.3-.2.9-.9.4-.4v-.2h.2l.5-.6.1-.2h.2l.4-.5.1-.3h.1l.5-.7.6-.6v-.2h.1l.2-.5.4-.4.1-.3.3-.1.6-.9 1-.7.4-.5v-.2l1.2-1.4.3-.2 2.8-2.8c.6-.5.6-.5 1-.6v-.3l1.3-1.3 1-.8.2-.2.7-.7.5-.5.7-.7h.1l.2-.4.8-1 .7-.5.2-.1.6-.7c.2 0 .4-.4.7-.6l.5-.6c.2 0 .3-.2.5-.3h.1c1.4-1.4 1.6-1.4 1.6-1.6l.4-.1.3-.3 1-1 1-.7zm-13-3h2.1c.5 0 .6.2 1.2.3l.5.1v.1h.4l.6.2 2.4.1c.2 0 .5 0 1.2.3l.5.2h.3l.4.1.4.6c0 .2 0 .4-.2.7l-.3.5-1.8 2.2-3.1 3.2-.6.9-.4.2-.2.4c-.2 0-.2.1-.4.3l-.1.2-.4.3-.2.3c-.2 0-.2.1-.4.3l-.2.2-.4.4-.6.6v.1h-.1l-.6.6v.2h-.2l-.6.6v.2h-.2l-.6.6v.1h-.1l-.7.7v.1h-.1l-.1.2-.8.5-.5.6c-.2 0-.3.2-.8.6l-.3.4-.4.4s-.3.2-1 1.2l-.6.6v.1h-.1c-.3.3-.5.6-.7.6v.2h-.1l-.6.6v.2h-.2l-.8 1.1-.7.6-.9 1-1.3 1v.1l-.1.2-.5.4-2.9 2.9L90 57l-.3.2-.3.1-.2-.1-.2-.3v-.5l1-1.7.2-.2v-.2l.4-.6v-.1l.4-.7v-.1l.3-.6V52l.4-.6v-.2l.4-.6v-.1l.4-.6v-.2c0-.2.2-.4.4-.6v-.2l.5-.8.7-1.3.1-.2.5-.8.2-.6 1.6-2.5.7-1.3c0-.2.1-.3.3-.5v-.1l.6-.8.6-1.3v-.2c.3-.6.3-.7.5-.8l.4-.8h.2v-.4l.4-.5v-.2l.4-.7.8-.9.2-.3.2-.5c0-.3.2-.5.3-.7h.1l1.1-1.5 1.1-1.6h.2v-.2l.2-.3v-.2l1.5-1.8.6-.6h.3zm-28.6-.2l.4.1v.1h.2l.3.5v2.8l-.1.3-.2 1.3-.1.3-.2 1-.1 1.3-.2.2-.1 1c0 .1 0 .3-.2.3v1.7l-.2.9v1.4l-.2.4c0 .4 0 .8-.3 2v.4l.1.1-.2 1v.5l-.2.8v1l-.1.3-.3 1.8-.1.3V52l-.4 2v.2l-.5.5-1.1.4s-.2 0-.2.2H74l-.3.2h-.3l-.2.2H73l-.6-.7v-.2h-.1l-.3-1-.2-.8c0-.3-.2-.7-.4-1v-.4l-.3-.4v-.5l-.3-.5-.1-1.1-.4-1v-.2l-.3-.5-.1-1.1c0-.2 0-.3-.2-.4l-.2-.9v-1h-.1l-.1-.2-.2-1.2-.4-1.4-.3-1.9-.1-.7-.3-1.2v-.5l-.4-1.4-.2-1.6-.2-.4v-.3l-.2-.4-.2-.7-.2-.1-.2-.5v-1.8l.2-.4c.2 0 .4-.2.6-.4h.3l.2-.1.6-.3h1l.6-.4 1.8-.1.5-.2h.2l.1-.1 1.7-.4h1.3l.5-.2.6-.1h.4l.6-.4h.2l.6-.2.3-.1zm16.6-.8h5.8l1 .2h1l.4.2h.1l.3.3v.5l-.1.1-.2.7-.1.1-.1.5-.4.8-.2.6v.3l-.2.1-.1.5-.3.3v.2l-.7 1-.6 1.3-.2.2v.1l-.3.4-.2.4-.2.3c-1.2 1.9-1.2 2-1.4 2.1l-.7 1.5-.2.2-.2.4-.3.4-.1.7-1 1.3-.1.4-.6 1-.7 1.1h-.2v.2l-.2.3-1 1.7c0 .4-.7 1.4-.7 1.4L91.3 49v.2l-.1.1-.4.7-.2.2v.2l-.3.4-.2.4-.1.1-1 1.3v.1l-.5.9-.2.1v.2h-.1l-.3.4-.1.1-.7.5-.5.3h-.3l-.7-.2-.7-.4-.2-.4-.1-.4.4-1.6.2-.5v-.5l.3-.6v-1l.3-.7.2-.1v-.4l.2-.8.1-.5.1-.6.2-.5.1-.7.2-.8.2-.5v-.4l.4-.8v-.3l.3-.4v-.3l.2-.7.3-1.4.3-.6v-.2l.2-.1c0-.4.2-.5.2-.7l.1-.6v-.1l.2-.2.1-.4V36c0-.1 0-.4.4-.9V35l.2-.4.1-.1.1-.5c0-.2.2-.4.4-.6l.4-1.5.3-.7V31l.7-1.2v-.1l.1-.2v-.3l.7-1.3.6-1.3.3-.3V26l.4-.4H94.4l.1-.1.6-.2zm-7-.1h2.2l.6.5v.6l-.3 1.1-.1.7-.2.7-.1.2-.1.4a4 4 0 0 0-.2.7v.3l-.2.3-.4 1v.5l-.2.3-.1.5v.5c-.3.6-.5.9-.6 1.4v.1l-.6 1.4-.1.8v.4l-.5.8-.1.7-.3.6-.1.5-.2.8-.5 1-.1.5v.3l-.3.8v.2l-.1.3-.3 1.1-.3.9v.3l-.2.3-.3 1.4-.5.9v.1l-.2.4v.4h-.2v.4l-.4 1-.1.7-.7 1.5-.7.5-.4.2h-1.5l-.4-.2-.2-.2H79l-.2-.4-.2-.1V42.8v-.6h.2v-.4l.2-1.9.1-1.4.1-.1V38l.1-.1v-.8l.1-1 .2-.1v-.7c0-.5 0-.5.2-.8l.2-.8c0-.5 0-.5.2-.7l.3-1.1v-.2c0-.3.1-.5.3-.8v-1l.3-.5v-1l.1-.1v-.4l.4-1.2.4-.6c.2 0 .2 0 .6-.4h.4l1.8-.1c.3 0 .5 0 .6-.2H88l.3-.1zm5.5-3.9l-1 .1-.6.6-.5 1.2-.3.2-.3.2H86l-1.3.3-.5.2h-.8l-.5-.4-.2-.4-.2-.1-.1-.3h-.2l-.2-.4-.5-.2H81l-.5.2-1.1 1.6a3.3 3.3 0 0 0-.4.2l-.6.2-.3.1h-.5l-.3.2h-1l-.5.3h-1.5v.2h-.5l-1 .3h-.5l-.3.1h-.3l-.5.3h-.5l-1 .4H69c-.1.2-.1.2-.4.2l-.5.2h-.2l-.6.3h-.8l-.6-.2c-.1-.3-.1-.3-.3-.3v-.3h-.1l-.1-.2h-.1l-.1-.3-.8-.4H64c-.1.2-.3.2-.4.3l-.4.4-.1 1.5-.4.6-.3.1-.5.2a9 9 0 0 1-1 .3l-.5.3h-.2l-.6.3h-.2l-.6.2h-.2l-.5.3h-.5l-1.8.8h-.5-.1l-.9.3h-.7l-.4-.1-.2-.2v-.2l-.2-.3-.3-.1-.2-.4h-.8l-.4.2-.3.5v.4h.1v.5c0 .3 0 .3.2.3l-.5.6h-.4l-.1.2-.6.2-.2.1H49l-.5.3h-.2c-.3.1-.6.3-1 .3L46 34l-.5.3h-.1l-.7.4h-.1l-.4.2-.8.3-.7.2-1.1-.4h-1l-.2.5v.2l-.3.7-.3.4-.3.2-.7.5h-.1l-1.7 1H37l-.2.3-.4.1-1 .8-.2.2-.6.6H33.6v-.2l-.3-.1V40l-.6-.5H32l-.4.5v1l.3.1.1.3.2.1v.8H32v.2l-.6.6-.2.4c-.2 0-.2.1-.3.2l-.2.4h-.2c0 .2-.2.3-.4.5l-.4.3-.3.5-.1.2-.5.6-.6.5-.7 1c-.2 0-.2.2-.2.2v.1l-1 1.2-.4.7-.6.2h-.6l-.8-.5-.6.1-.4.4V51l.1.2.6.7.2.2.4.7v.5l-.3.9-.6 1.2-.1.2-.8 1v.2l-.4.6v.2l-.4.5-.1.4-.3.2v.5l-.2.1-.1.6-.2.1-.3.5-.7.4-1.3-.1-.4-.2h-.8a2 2 0 0 0-.4.4v.5l.2.3.8.4.8.2v.2h.2l.1.2v.2l-.3.6v.1l-.2.2-.5.7h-.1l-.3.7-.6 1-.3.3v.2l-.3.6-.1.6-.7 1-.2.6-.2.4v.3l-.4.5c-.2.3-.2.3-.5.4h-2.3c0 .2-.2.2-.7.3 0 0-.2 0-.3.2l-.4.4v.5l.2.1.2.4.3.2h.3l1 .2h.4l.3.3.3.3-.3.6v.1a7 7 0 0 0-.4.6v.3l-.4.9-.2.6-.5 1-.2.6-.3.5v.1l-.3.7-.6 1.5v.3l-.2.7-.5 1-.4.2-1 .1H8c-.3 0-.5.2-1.1.2a2 2 0 0 0-.6.3l-.2.3v.8h.2l.1.1.8.4H8l.3.1.2.3V88l-.4.6v.5l-.2.3-.2.7-.2.7-.1.6-.3.5-.2.7-.3.5v.3a3 3 0 0 0-.3.5v.2l-.3.7-.2.2v.2l-.5.6H5l-1.5.4v.2h-.3l-.5.1-.3.5v.8l.1.3.5.1 1 .1.7.2.1.3H5v.3c0 .1 0 .2-.2.3v.1l-.2.6v.2l-.1.2-.1 1.4-.2.4v.3l-.3 1.6-.3.3v.4l-.1.3-.2.6-.2 1.4-.2.5v1l-.2.5v.4l-.2.6-.3.2-.2.4h-.1l-.3.2c-.2 0-.4.2-.5.3l-.4.3H.4v.1l-.7.5-.1.8v.3l.5.3.3.1h.9l.5-.2.3.4.3.4-.2 1.4-.1.3v5.5l.2.6v.7l.2.4v.9l-.1.1v.2l-.4.3v.2l-.3.1-.5.6v.7l.4.3.4.2h1l.7.4.3.4.2.2v.2h.2v.2l.3.4v.1l.2.2v.1l.2.2v.2l.1.2.1.3.2.2v.1l.2.2.1.3.8.7.6.8.6.5.4.6.2.1c0 .2.1.2.2.3h.2c.3.2.3.2.4.5h.3l.4.5h.2v.1h.3c0 .2 0 .2.2.3v.2l.3.2.4.6.2.1-.3.8-.3.3v.2l-.7 1-.5.8v.3l-.2.3v1.7l.3.7.2.1v.3l1 .3h.8l1-.3.5-.1.6-.5 1.3-1.2.6-.8v-.2l.3-.2.1-.2 3.4-4 .1-.2.2-.3c.2 0 .2-.1.5-.4 0-.2.2-.3.2-.3.5-.7.6-.7 6.7-6.8l1.3-1.3.7-.6.6-.8c1-.6 1-.7 1.2-.9l.2-.2.3-.3.3-.3c.1 0 .1-.2.4-.3l.1-.3 1.2-.8 2.5-2.5.6-.3.3-.4.4-.3.4-.5 1.2-.8.4-.7 1.1-.9c.2-.3.2-.3 1.6-1.3l.7-.6.3-.2h.3l-.1 2-.3 2v.8h-.1v16.3l.1 2.2v.5l.1.1.1 2.7c0 1 0 1 .4 3v1.1l.3 2v1.2l.3 1.1s0 .3.2.4v.6l.3 1.2.3 1.2.1.2.1.6c.2.1.2.3.3.4v.3h.2v.2l.2.4v.4l.4.4.4.4.4.2v.2h.2l.4.2.1.2h.3v.1h1.4l1-.6.6-.8v-1.6l-.2-.6v-.5l-.3-1v-.6l-.3-.5-.3-1.2-.2-.1v-.5l-.3-1.2-.4-.9-.1-.2-.1-.5-.2-.8-.1-.9-.2-.6-.3-1.5-.3-.5v-.6l-.2-.8v-.5l-.1-.2-.3-1.1v-1H47v-.6l-.3-.6-.5-4.7v-.8l-.2-2V121v-1.8l.2-2 .1-.8.3-2.5.2-.3v-.5l.2-.7.4-.4h.9l.7-.1 1.4-.1.6-.2 1.7-.3h.1l.5-.3h.2l.4-.2.4-.1c.1-.2.3-.2.4-.3l.4-.2.3-.3h.2l.3-.5v-1.3c0-.2-.2-.2-.2-.3l-.4-.5h-.2v-.1l-.8-.5-.6-.2-.2-.2a1 1 0 0 0-.5-.1H53v-.1h-.3c-.2-.2-.2-.2-.5-.2v-.1l-.8-.2-.5-.2h-.3v-.1l-1-.3h-.4l-.3-.2h-1l-.3.2-1 .8h-.1l-1 .7L44 108l-.3.2-1.8 1.5-.2.1-.2.2-.2.1-.6.5-1.5 1.4H39l-1 1-.8.6-.6.6-.9.5-.6.7-.3.1-1.8 1.6h-.2v.1l-.7.4-.8.8-.3.2-1.8 1.5H29l-.3.4-.6.6-.8.6-.3.2-.4.5h-.2l-.3.3-.2.1-1.5 1.5-.3.1-.3.3h-.2l-.4.5-.4.5-.6.6H22v.1l-.7.4-.1.2H21l-.3.4h-.2l-.4.5-.2.3-.2.2-.3.2-3.3 3.2-.8.6h-.1l-.5.7-1 .9-.2.1h-.3l-.1-.1-.4-.2-.5-.5-.5-.4-.5-.2-.2-.3H11l-.4-.2-.4-.6c-.2 0-.3-.2-.3-.2l-.3-.4-.1-.1-.6-.8-.4-.4c-.2-.1-.3-.3-.3-.4l-.5-.5v-.3l-.5-.8-.7-1.3h-.2v-.2L6 126l-.2-.3v-.6l1.2-1h.2l1.3-1 1-.6.4-.4.2-.2c.2-.2.2-.3.4-.3l.2-.3h.2v-.1l.8-.6 1.2-.7.1-.2h.2c.7-.6 1-1 1.5-1.2h.2l.5-.4L17 117v-.1h.2c0-.2 0-.2.7-.7l.9-.6.4-.4.9-.5v-.1h.1l.2-.2.6-.2.2-.2.7-.4 1.1-.7.2-.2.4-.3 2.7-1.6h.1l.2-.3h.2l.5-.4.1-.1h.2v-.2l.9-.5c.2 0 .2 0 2-1.2L32 107h.2v-.2l.8-.4h.2l1-.7.7-.4v-.1h.2l2-1.4.2-.1h.1l.4-.4 1.2-.5.8-.6 1.2-.7.1-.2h.2l1-.7h.1l.6-.4h.2l.8-.5.2-.2.5-.2 1.4-.8.8-.6h.2l1.3-.8.6-.1.1-.1.9-.5h.2l.4.3h.2l.1.4.5.5.3.3.3.4.2.1.3.4h.2l.1.2H53.1l.2.3h.2l.3.2.2.2.2.1.3.3h.1l.2.1h.2c0 .2.1.2.2.2l.2.1.4.2 1.2.3.4.2h.6l.8.2.8.3h.3l.6.3h12l1.7-.2h2.3l2.6-.3h.4c.1 0 .3 0 .4-.2l1-.1h.2l.2-.2c.6 0 .6 0 1-.2h.6l1.1-.5.7-.5h.2l.7-.4 1.5-1.1.7-.6.7-.8v-.2l.5-.8.4-.8.5-.6v-.2c.4-.7.8-1.4 1-2.1l.4-.8.3-.8c0-.2.1-.6.3-.8l.2-1.2.4-.7v-1.3-.4l.5-.6.3-.4.4-.1h.7l.1-.2h.6l2 .3 1.3.3.3.1.5.1.2.2h.6l.2.2h.2l.8.2h.3l.6.3 1 .1.3.2.6.2h.6l.4.2.8.3.2.1.6.2h.8l.3.1 2 .3.1.2.8.2 1.4.3 1 .4h.3l.8.4h.5l.3.2.6.2h.3c.4 0 .4 0 .6.2h.2l.3.2h.5l1.3.4.7.2.8.3 1.2.2.4.2h.2l.3.2h.5l.8.4h.5l.7.4h.3l.5.2h1l.7.2.5.6c0 .2 0 .4-.2.5l-.2.8-.3 1-.7 1v.1c0 .2-.2.3-.2.3v.2h-.2v.2l-.4.7v.2a2 2 0 0 0-.3.4l-.2.4-.2.1c0 .3 0 .3-.2.4l-.7 1.1-.5.8c-.2 0-.3.2-.5.3l-.5.6-1 .7h-.1l-.5.3h-.5l-.5-.2h-1l-.3.1c-.4 0-.4.2-.7.2l-.9.9v.1l-.1.1-.1.3v1.5l.2.1v.2l.2.4.3.2c.1.2.3.2.3.4h.3l.1.2.7.2.1.2.6.2.2.2.6.2.2.2.6.3.2.2h.1l.7.5.1.2c.4.2.4.3.7.6h.2l.2.3h.2l.1.3.8.4v.2h.2l.2.2.4.4.2.2.4.6h.1v.2l.2.1.2.4.3.3.7 1v.3l.2.2v.5h.2l.4 1.6.1.2-.1 1.6-.3.4v.3l-.3.5v.2c-.3.3-.4.6-.6 1h-.1l-.6.6-.9.6h-.1l-1.3.3h-.4v.1h-1.7l-1-.4h-.3v-.1l-.3-.1h-.4l-.1-.2-.8-.2-.6-.2a1 1 0 0 1-.3-.2h-.2v-.2a1 1 0 0 0-.4-.2l-.6-.4h-.1v-.2h-.3c-.2-.1-.2-.2-.3-.4h-.3l-.3-.2v-.1l-.4-.2-.1-.1-.2-.1-.8-.6v-.2h-.2l-.7-.5-.3-.3c-.1-.1-.1-.2-.4-.3l-.1-.3-.4-.3-.2-.3c-.2 0-.2-.2-.4-.3l-.2-.2c-.2-.2-.2-.3-.4-.3l-.2-.3-.4-.3-.4-.6v-.2h-.1c0-.2-.2-.2-.2-.3l-.3-.2v-.2h-.1a6 6 0 0 1-.7-1h-.1v-.2l-.2-.1a71.2 71.2 0 0 1-.6-1v-.1l-.2-.2-.1-.3v-.3h-.2l-.2-.3-.4-.6v-.1l-.2-.3v-.1l-.1-.1v-.2a2 2 0 0 1-.4-.4v-.2l-.7-1.3-.2-.7-.3-.8v-.3l-.2-.3-.2-.2v-.5a5 5 0 0 1-.3-1l-.1-.3-.4-1.3v-.3l-.3-.7v-1.3l-.2-.7v-.8l.2-.6v-1.1l.3-.8.2-.4.6-.6h.3l.1.1h.2l.2.5v.6c0 .2 0 .4-.2.6V99h.1v.5l.2.2.2.3.4.3.5.2h1l.8-.5.3-.3.5-1 .2-.4v-1.7l-.2-.5-.2-.4-.4-.8-.1-.1s-.2-.2-.2-.5l-.4-.4h-.2v-.1l-1-.4v-.2h-.4l-.8-.3h-1l-.5.2h-.5c-.2.3-.2.3-.5.4l-.4.5-.3.3v.3c-.2.2-.4.3-.4.5l-.2.6-.2.1v.7l-.2.1-.1.6-.3.9v4.8l.2.8v.7l.2.7v.6c.2.2.2.6.3 1.3l.3.6v.4l.1.6h.2v.7h.2c0 .2 0 .3.2.5l.2.8.2.4v.4l.4.7v.2l.1.1v.2l.3.3v.2l.2.1v.2l.2.3v.2h.1v.2c.3.3.3.3.3.6h.2v.2l.2.2v.2c.2.1.2.1.5.7v.2h.2l.1.3h.2l.1.5.3.3.2.4.2.2.2.4c.2.1.2.2.2.3h.1l.5.7.2.1v.2l.4.3v.1l.2.1.4.4.2.4h.2l.3.4h.1l.2.3.5.7.4.4.4.3.6.5h.2l.2.5h.2l.1.2h.3v.1l.2.1c0 .2 0 .2.4.4h.2l.1.2.7.4v.1l.4.2h.1l.2.2h.4l.1.2.6.2.1.2h.2l.1.2.7.1v.1c.5.1.7.1 1.7.5h1.1l.5.3 1.2-.1.5-.2h1l.6-.2c.4-.2.4-.2 1-.2l.3-.2.6-.1.8-.4.2-.2h.2v-.1c.3-.3.7-.4 1-.6h.1v-.2c.6-.3.6-.5.8-.6l.2-.3.3-.2v-.1l.6-.8 1-2 .1-.6.3-.8v-3.3l-.3-.7v-.8l-.3-.5-.1-.6-.6-1.2-.7-1.7-.2-.1c-.2-.4-.2-.4-.5-.6v-.2h-.1l-.4-.7c-.2 0-.2-.1-.2-.2l-.3-.4h-.1v-.2h-.2c0-.2 0-.2-.2-.3l-.3-.4-.3-.2v-.2l-.2-.2-.6-.5h-.1c-.1-.2-.1-.2-.4-.3l-.5-.6h-.2l-.3-.4h-.3l-.1-.3h-.2v-.3l.2-.2 1.1-.9.5-.5v-.1l.5-.6.6-.6 2-2.5.2-.6.8-1.1v-.2l.4-.4.1-.5.2-1h.1v-.5c.2 0 .3-.1.3-.2l.2-.3.3-.1h.2l.8.2h.9l.2-.1.6-.6v-1c0-.2-.2-.2-.2-.2v-.1l-.3-.4h-.3a4 4 0 0 0-1-.3v-.2l-.2-.4.1-.2v-.2l.2-.3v-.4l.2-.2.2-.4v-2.1l.2-.3.2-1.5.1-.3.1-1 .2-.7.2-.4v-.4l.1-2.3.3-.3.1-.2h.2l.1-.2h.4l.3.2h3.4l.6-.6.4-.5v-.5c0-.2-.3-.3-.3-.4l-.7-.3-3.4-.1h-.2v-.2h-.1l-.3-.2v-2.1l.2-.3v-2l.3-1.3.3-1 .3-.6.6-.4h.8l.2-.1 1.3-.2.6-.6v-.2h.2v-1l-.5-.6c-.2-.2-.4-.2-.6-.2h-1.5l-.3-.2-.4-.3-.2-1.4-.1-.1V64l.1-.1.2-.6V61l-.3-.7v-1h.1V58l.2-.2h.8c.1-.2.1-.2.6-.2l.1-.2h.4l.6-.5.5-.6v-.4-.7l-.3-.4h-.2l-.1-.2h-1.3l-.4.3-.7.1h-.3l-.3-.3-.1-.2c0-2-.2-2.3-.2-2.6v-.1l-.2-2.8a1 1 0 0 1-.1-.5V48h-.1v-.6c.2-.3.4-.4.4-.6l1-.6.3-.4.3-.8v-.5l-.3-.6h-1.4l-.5-.2-.2-.4V43h-.1v-1l-.4-.7v-.5l-.4-1.1v-.3c-.2-.2-.3-.3-.3-.5l-.1-.4-.2-.3V38l-.2-.4-.2-.6h-.1l-.2-.5-.2-.1v-.2h-.2c-.1-.5-.1-.5-.3-.6l.1-1 .2-.3.1-1v-.7l-.1-.3-.4-.2h-.6l-.8.4-.2.1h-.3l-.4-.1v-.2h-.2l-.6-.6v-.1h-.2l-.3-.5c-.2 0-.4-.3-.5-.3v-.3l-.6-.4h-.2V30h-.3l-.6-.4-.4-.4h-.1l-.4-.2v-.1a4 4 0 0 1-.6-.2v-.1l-.4-.2c-.3-.1-.4-.4-.5-.4l-.2-.3V27l.3-.5c0-.5-.2-.6-.2-.8l-.3-.4h-.1l-.3-.1h-1.3l-.4.5-.9.5-2-.2-1-.3-.6-.2-1.2-.2-1.6-.2-.8-.2h-1l-.5-.3a4 4 0 0 0-1 0l-.6-.3-.1-.2-.2-.2-.2-1.7-.2-.2h-.2l-.3-.2h-.4l-1 .4-1.4 1.5h-3.9l-.7-.4H97l-.5.3-1.4.1-.3-.1-.3-.6v-.5l-.2-.7-.2-.1v-.1l-.5-.3zM54.8 9.6l.1-.2.1-.2.5-.8h.1v-.2L57 6.6c.2 0 .3-.2.6-.4l.5.1.5.2.3.1v.1l.6.2c.1.1.1.2.5.3l.4.3.5.5.6.5.1.4h.2v.3h.2v.1l.1.1.6 1.2.2.4v3c-.2 0-.3.6-.3.7l-.3.5-.2.7-1 1.6v.3h-.2c0 .2 0 .3-.2.5l-.7.9-.4.2v.2l-.7 1-.6.5-.2.2-1.5 1.2v.1h-.2l-.6.7v.1h-.2v.2l-.7.5v-3.2l1.7-1.7V19h.1l.6-.7V18c.3-.2.3-.2 1.4-1.8l.2-.5.4-.6V15l.2-.3.1-.4.3-.3v-.3l.1-.3v-.2l.4-1.2v-1.1L60 10l-.1-.4h-.1c-.3-.2-.3-.2-.3-.4h-.3l-.6.4-.5.7H58v.3c-.4.3-.4.3-1 1.3h-.1l-.1.2-1 1.3h-.1c0 .2-.4.6-.9 1.5zM42.1 32.5v-.2h-.3v-.6c.3-.3.5-.9.7-1.3V30l.5-.6v-.2h.1l.7-1.5c.3-.3.3-.6.6-1l.5-1.1.2-.2.2-.4c0-.2.2-.4.4-.6v-.1c0-.2.2-.4.4-.6v-.2l.7-1.2.3-.4.5-1.2c.2-.1.2-.1.2-.4h.1v-.2c.2 0 .2-.1.3-.2v-.2l.5-.7v-.2h.2l.6-1.2.6-.8.2-.5.8-1.2V15l.5-.7.2-.3.8-1v-.3c.5-.4.5-.4.6-.7h.1c0-.1 0-.3.2-.4h.1l.6-1.2.6-.7v5.3h-.1l-.2.4-.4.4-.1.4-.8 1.2-.8 1.5h-.1v.2l-.5.7-.3 1-.8 1.3-.2.6-.1.1-.1.4-.2.4-.8 1.9.2.2h.1l.7-.7.8-.6 1.3-1.3.8-.4 1.6-1.7V24s-.2 0-.3.2l-.1.1-4 3-1.4 1h-.3L46.4 30h-.1v.1c-.4.2-.7.3-1 .6h-.2c-.2.3-.2.3-1 .7v.1H44l-1 .7-1 .3"/>
</svg>
