<svg xmlns="http://www.w3.org/2000/svg" width="1340" height="567" version="1" viewBox="0 0 1005 425"><path fill="#cf4f4c" d="M968 168h-23l-8 14h16zm-60 76h17v-58h-18v26l-20-26h-17v58h18v-27zm-81 70c0-8 3-14 10-14 4 0 7 4 8 7h20c-1-12-12-23-28-23-18 0-30 13-30 30 0 16 12 29 30 29 16 0 27-10 28-23h-20c-1 4-4 7-8 7-7 0-10-6-10-13m10-42l-4-6h-14l9 15h18l8-15h-13zm-25-28h46v-16h-27v-6h23v-14h-23v-7h27v-15h-46zm-60 0h49v-16h-23l23-28v-14h-49v16h24l-24 27zm34-62l8-15h-13l-4 6-5-6h-13l9 15zm-17 102c-17 0-30 13-30 30 0 16 13 29 30 29 18 0 31-13 31-29 0-17-13-30-31-30m0 16c7 0 11 6 11 14 0 7-4 13-11 13-6 0-10-6-10-13 0-8 4-14 10-14m-27-81v-33h-19v32c0 7-3 10-9 10-5 0-9-3-9-10v-32h-19v33c0 15 12 25 28 25 17 0 28-10 28-25m-8 66h-51v16h16v41h19v-41h16zm-55-41l-11-20c6-4 9-10 9-17 0-12-8-21-22-21h-30v58h19v-17h4l9 17zm-22-37c0 2-1 4-5 4h-8v-9h8c4 0 5 2 5 5m-36 107c0-17-13-30-31-30s-31 13-31 30c0 16 13 29 31 29s31-13 31-29m-20 0c0 7-5 13-11 13s-11-6-11-13c0-8 5-14 11-14s11 6 11 14m14-99c0-16-12-29-29-29h-27v58h27c17 0 29-13 29-29m-20 0c0 7-3 13-11 13h-6v-26h6c8 0 11 6 11 13m-41 127l-11-19c6-4 9-10 9-18 0-11-8-20-22-20h-30v57h19v-16h4l9 16zm-22-37c0 3-1 5-5 5h-8v-9h8c4 0 5 2 5 4m-15-102c0-2 3-4 6-4 5 0 7 2 7 5h18c0-11-8-19-24-19-15 0-25 8-25 19 0 25 32 14 32 23 0 2-3 3-7 3s-7-2-7-5h-19c1 11 9 19 26 19 15 0 25-7 25-18 0-25-32-15-32-23m-56 95c0-3 1-7-1-11l-3-1c-13-4-26-7-38-13l-13-5c-12-4-23-11-34-17-12-6-8-5-20-13l1-16a121 121 0 0 0-4-22c1-2 2-3 4-3 7-5 12-11 19-15l15-12c3-1 5-4 6-7l7-3 8-5c-3-3 5-8 9-10v-2h1l1-1h2c5-7 13-9 19-14 2 0 10-2 11-4 1-1 4-2 2-4-5-2 0 0-5-7l-3-1c-1-4-6-2-7-4 1-6-2-6-2-10l-4-5c-2-1-4 2-5 1 7-4 3-7 4-12l-1-1c-2 0-4 2-6 0l-7 4c-1 3-11 7-12 8l-11 9-12 8-11 7-12 10a274 274 0 0 1-22 19c1 4-4 9-7 9l-7 7-1 1h-6c-5-5-14-7-20-9l-11-3h-9l9-62c3-18 4-36 8-53l1-10c-7-3-14-3-20-4l-10-2-17-1-3 11c0 3 4 4 2 7-1 1-2 4-1 6-3 4-3 8-5 12-1 3-2 7-1 11 1 9 0 14-3 22 3 7-5 17-4 21l-1 14c-1 4-2 33-4 33l-9 1-23 3-5-11c-8-17-18-33-30-47l-12-14-20-21c-2-3-4-3-6-2-9 3-17 6-25 11-4 4-8 2-10 4-2 4-3 6 0 10 21 27 48 51 65 79l3 41h-27l-42-1H59c-11 1-22 1-33-1l-6 2c1 17 5 32 11 48h3c19 1 36-2 54-1l51-1h24l2 13-17 11-19 11c-16 9-32 20-47 31-10 7-22 15-35 18-1 3 0 5 1 7l3 7c3 10 9 17 13 25 3 6 6 8 14 4l4-2 25-16c21-15 42-27 62-40 2 2 1 6 2 8-1 4 0 7 1 10s1 8 4 10c1 2 0 5 2 7 2 5 2 11 2 16l3 10 29-4c4-2 9 1 12-2v-1c3-1 6 0 8 1l1-1 1 1v2h0l-2-2 3 4c3-1 3 3 5 4l1-1v-1c-1-4-6-7-6-11 1-4-1-8-2-11l-2-10-5-22-3-10-3-11a187 187 0 0 0 53-5l8 12 16 22c6 9 11 17 18 25 3 4 6 8 12 9l19-10c8-3 14-6 20-12l-4-6-8-9c-5-9-13-17-19-24-3-5-5-11-9-15l-6-8 9-9 2 1 28 18 17 9 21 8 13 7 33 10c4 1 7 0 9-4 1-3 3-6 3-10l6-22m-52-151v-1m-6 7h0m-8-36l1-1-1 1m-10 7v1zm-9 7h1-1m-13 10l2-2-2 2m-71 74l3 13c0 5-2 13-5 17-1 2-3 5-6 6-8 6-17 9-27 10-13 3-26 2-39 1l-3-7c-1-13-2-20-5-32l-2-10v-6c18-3 36-6 51-7h8c14-2 22 8 25 15m-31-6zm416 76h-49v16h24l-24 27v14h49v-16h-23l23-27zm280-99h-19v58h19z"/></svg>