<?xml version="1.0" encoding="UTF-8" standalone="no"?><!--Created with Inkscape (http://www.inkscape.org/)--><svg xmlns="http://www.w3.org/2000/svg" xmlns:cc="http://creativecommons.org/ns#" xmlns:dc="http://purl.org/dc/elements/1.1/" xmlns:inkscape="http://www.inkscape.org/namespaces/inkscape" xmlns:rdf="http://www.w3.org/1999/02/22-rdf-syntax-ns#" xmlns:sodipodi="http://sodipodi.sourceforge.net/DTD/sodipodi-0.dtd" id="svg2" width="543.1" height="230.7" version="1.1" viewBox="0 0 543.1 230.7" inkscape:version="0.92.3 (2405546, 2018-03-11)" sodipodi:docname="unetice.svg" xml:space="preserve"><metadata id="metadata8"><rdf:RDF><cc:Work><dc:format>image/svg+xml</dc:format><dc:type rdf:resource="http://purl.org/dc/dcmitype/StillImage"/><dc:title/></cc:Work></rdf:RDF></metadata><defs id="defs6"><clipPath id="clipPath18" clipPathUnits="userSpaceOnUse"><path id="path16" d="M0 224.4h464.4V0H0z" inkscape:connector-curvature="0"/></clipPath></defs><sodipodi:namedview id="namedview4" bordercolor="#666666" borderopacity="1" fit-margin-bottom="1" fit-margin-left="1" fit-margin-right="1" fit-margin-top="0" gridtolerance="10" guidetolerance="10" objecttolerance="10" pagecolor="#ffffff" showgrid="false" inkscape:current-layer="g10" inkscape:cx="55.4" inkscape:cy="109.1" inkscape:pageopacity="0" inkscape:pageshadow="2" inkscape:window-height="705" inkscape:window-maximized="1" inkscape:window-width="1366" inkscape:window-x="-8" inkscape:window-y="-8" inkscape:zoom=".6"/><g id="g10" transform="matrix(1.33333 0 0 -1.33333 -37.4 271.3)" inkscape:groupmode="layer" inkscape:label="unetice_logo_stg_OK"><path id="path432" style="fill:#4c721d;fill-opacity:1;fill-rule:nonzero;stroke:none;stroke-width:0.99258584" d="M32.6 54.3v20.5h8.1V55.7c0-5 .9-6.8 4.7-6.8 3.3 0 4.2 1.9 4.2 6.8v19.1h7.2V54.3c0-7.7-4.3-11.7-12.3-11.7-7.9 0-11.9 4-11.9 11.7m13 29.5h6.5L44.8 77h-4.6zm17.9-9H74L80 57.5l.8-3.9h.3l-.3 4.4v16.8h7.1V43.1h-9.7l-6.7 19-.9 4.1h-.3l.4-4.6V43.1h-7.1zm31.4 0h20.3l-1.2-6h-11.1v-6H113v-6h-10.1V49H114l1.5-6H94.9zm3 9h5l2.5-3 2.4 3h5l-6.1-6.8h-3zm27.6-15h-6.4l-1.2 6h23.3l-1.3-6h-6.3V43.1h-8zm20 6h8V43.1h-8zm14-15.8c0 10 4.4 16.4 13 16.4 6.1 0 8.7-2 10.1-7l-5-3.8c-.4 3-2.3 4.4-5 4.4-3.7 0-4.7-3.3-4.7-10s1-10.1 4.8-10.1c2.6 0 4.5 1.5 5 4.5l4.9-3.8c-1.4-5.1-4-7-10.1-7-8.6 0-13 6.5-13 16.4M188 74.8h8v-9.1l-.2-3.1h.2l1 2.6 5.4 9.6h9.2l-8.4-12 9.6-19.7h-9.6l-5.4 13.4L196 54V43.1h-8zm32.8-18.1L212 74.8h9l3.7-8.7.7-2.6h.1l.7 2.6 3.6 8.7h7.9l-8.9-18.1V43h-8zm6 27h6.5L226 77h-4.7zm26.2-8.9h11.9c8 0 11.2-3.8 11.2-10s-4.9-9.6-11.2-9.6h-4V43.1h-8zm11.4-13.7c2.1 0 3.6 1.5 3.6 4 0 2.6-1.4 3.9-3.6 3.9h-3.5v-7.9zm16.2 13.7h8V43.1h-8zm11.8 0h9.1l4.5-21.1.3-3.2h.3l.3 3.2 4.5 21.1h7.8l-8.4-31.7h-9.4zM321.6 59c0 10 4.4 16.4 13 16.4s13-6.5 13-16.4c0-10-4.4-16.4-13-16.4s-13 6.5-13 16.4m17.6 0c0 6.7-1 10-4.6 10-3.6 0-4.6-3.3-4.6-10s1-10.1 4.6-10.1c3.6 0 4.6 3.4 4.6 10M350 75h9l4.5-21.2.3-3.2h.4l.3 3.2 4.5 21.1h7.7l-8.4-31.7H359zm43.7 0l9-31.8h-9.1l-1.3 6H385l-1.3-6H376l8.3 31.7zm-2.6-20.6l-2 10.4-.4 3.4h-.2l-.4-3.4-2-10.4zm15.4 20.5h11.9c8 0 11.3-3.7 11.3-8.7 0-4.5-2.8-7-6-7.7v-.2c2.3-.5 3.7-3.7 4.8-7 1.1-3.6 1.8-7.4 3-7.7v-.4h-9.6c-1 7.2-2 12.4-5.4 12.4h-2V43.1h-8zm11.4-13.4c2.1 0 3.7 1.3 3.7 4 0 2.5-1.5 3.6-3.7 3.6h-3.5v-7.6zm14.4-31H28v3.4h404.3zM274 125c.9.5 1.6 1 1.6 1.9 0 .5-.4.8-1 .8-.5 0-1.2-.5-1.5-1.4l-1.2 1.1c.7 1.5 1.7 2.1 3.3 2.1 2 0 2.8-.8 2.8-2.2 0-1-.5-2.5-2.6-3.8-1.3-.8-1.8-1.3-1.8-1.6h2.7l.1-1.8h-5.9a7.1 7.1 0 0 0 3.5 4.9m4.6-2.2c0 2.7 1.4 6.7 4.5 6.7 1.6 0 2.4-1 2.4-2.8 0-2.4-1.3-6.7-4.5-6.7-1.6 0-2.4 1-2.4 2.8m4.6 4c0 .6-.1.8-.5.8-1.1 0-1.8-4-1.8-5 0-.5.2-.8.5-.8 1 0 1.8 3.8 1.8 5m4.2-4.9h1.1l1 4.7-1.5-.8-.3 1.5 4.6 2.2-1.7-7.6h1l.2-1.8h-5.2zm7.2 0h1.1l1 4.7-1.5-.8-.3 1.5 4.5 2.2-1.6-7.6h1l.2-1.8h-5.2zm5.5 70.1c-1.5-1-3.6-.8-3.6-.8s.4 2 2 3.2c1.6 1 3.6.8 3.6.8s-.4-2-2-3.2m-1.5-3.6c-1.8 0-3 .2-3 .2-.2.2.5 2 2.4 2 1.8 0 3-.3 3-.3.1-.1-.6-2-2.4-1.9m-8.4 1.9a16 16 0 0 1 .1-3.7s2.4.7 2.4 2.9c.1 2.1-.2 3.6-.2 3.6s-2.3-.6-2.3-2.8m3.3 2.1c0-1.8.2-3.1.2-3.1s2 .5 2 2.5c.1 1.8-.1 3.1-.1 3.1s-2-.5-2-2.5m1.5-7.4a16 16 0 0 0-3.7.3s.7 2.3 3 2.3c2 0 3.6-.3 3.6-.3s-.7-2.3-3-2.3m-8.2 2c0-2 .3-3.6.3-3.6s2.4.8 2.2 3c0 2.1-.3 3.6-.3 3.6s-2.3-.7-2.2-3m4.8-5.2a16 16 0 0 0-3.6.2s.7 2.4 2.9 2.3a16 16 0 0 0 3.7-.2s-.7-2.4-3-2.3m-8 2.2c.1-2.1.6-3.6.6-3.6s2.3.9 2 3.1a16 16 0 0 1-.6 3.6s-2.3-.9-2-3m4.7-5.9a16 16 0 0 0-3.7.3s.7 2.3 3 2.3c2 0 3.6-.3 3.6-.3s-.7-2.3-3-2.3m-3-3.4c-2.2 0-3.7.3-3.7.3-.1.1.7 2.3 3 2.3 2 0 3.6-.3 3.6-.3.1-.1-.7-2.3-3-2.3m-4.6 5.8c.2-2.1.8-3.6.8-3.6s2.2 1 1.9 3.2c-.2 2.1-.8 3.6-.8 3.6s-2.2-1-1.9-3.2m2-9.6c-2.3-.1-4 .2-4 .2s.7 2.7 3.2 2.7 4.2-.3 4.2-.3-.8-2.6-3.3-2.6m-2.9-4c-2.4-.3-4.2 0-4.2 0s.7 2.8 3.3 2.8c2.4.2 4.2-.1 4.2-.1s-.7-2.8-3.3-2.8m-2.5-5c-3-.5-5.2-.3-5.2-.3s.6 3.5 3.8 3.7c3 .5 5.2.2 5.2.2s-.6-3.4-3.8-3.7m-2.7-5l.8 1.8 1.3 1.6.4.4c-.9 0-2 0-3.2-.2-3.2-.3-3.9-3.8-3.9-3.8s2-.2 4.6.1m.2-3.2c-.2 1-.3 1.7-.2 2.4l-3-.4c-3.5-.5-4-4.3-4-4.3v.1l.6.7.2-.6.2.1 1 1c.5.4 1.1 1 1.4 1.1l1 .3a60 60 0 0 0-.3-1h.5c.3.2 1 .6 1.3.6.4.1.8.2 1 .1h.3m10 5.8l1.5-.1 1 1.3c-.6.2-1 .2-1.3.2h-.5l-1-1.4h.2m2.6-.3l-.2-.1.2-.1.3-.2-.1-.3s0-.3-.3-.6h.7l1.2 1c-.4.2-1.1.4-1.8.3m-.7-.8a4.2 4.2 0 0 1-2.1.3c-.2-.3-.5-1-1-1.5.8 0 1.4-.2 1.9-.3.6.5 1 1.1 1.2 1.5m-.3-4.2l-1.2.2-1.3-1-.2-.6 1-.7c.9.7 1.4 1.5 1.7 2m-3.4-.8l-1.5.2h-.2c-.2-.3-.5-.5-.9-.7.4-.4.7-1 .9-1.4a3 3 0 0 1 1.7 2m2.4 2.6c-.5.2-1.3.4-2.1.3-.1 0 0-.1 0-.1l-.2-.4c0-.1-.3-.8-1-1.5l1.3-.2c1.2.6 1.7 1.5 2 2m4.3 3.5l.3.5c-.4.1-1 .3-1.8.3l-.5-.6c.8 0 1.4-.2 1.8-.4zm-7.5-3.8c-.4.1-1.1.3-1.8.3 0-1.6-.6-2.1-1-2.4.2 0 .3-.2.4-.3 1.3.7 2 1.8 2.4 2.4m6.3 1.2a6.8 6.8 0 0 1-1.7 0c-.2-.1-.5-.8-.5-.8s-.1-.5-.5-1l1.3-.4a6 6 0 0 1 1.4 2.2m-3.5-5.4l.4-.3c1.5.6 2.3 1.8 2.6 2.4l-1 .3c-.3-.5-.9-1.6-2-2.4m-1.7.5c-.4-.6-1-1-1.6-1.4l.9-.6 2.3.6-1.6 1.4m4.5 2.5l.6-.2c.9.8 1.3 1.8 1.5 2.3h-.8a7 7 0 0 0-1.3-2.1m2.7 5c-.3-.5-.7-1.2-1.5-1.9l1-.2 1 2-.5.1m-8.2-1.4l-.7-1.4.6-.2 1.6 2.2a4.3 4.3 0 0 1-2.2.2l-.1-.3.8-.5m-2-1.3h.3l1 1-1.5.2.3-1.2m1.3-7.1c-.4.2-.9.6-1.1 1.2-.6 1.5-2.2 2.6-2.2 2.6s1.1 1.2 1.2 2.5l-.1 1.2-1-1-.4 3.6c-.4-.4-1-1-1.2-1.5-1.2-2-1.4-3-.8-5.2.8-2.9 5.5-4.3 7.3-4.7l-1.7 1.3m2 10l.8 1c-.4.1-1.1.3-1.8.2-.3 0-.6 0-.9-.2v-.9h.1c.7 0 1.3 0 1.8-.2m-3-.8l.3 2c-1.3-.2-2.2-1-2.2-1l.2-1.5 1.7.5m-.3 17.7c0 1.6-.4 3-.6 3.6l-1.3-1.5-.3-.4-.7-1v-.2c.1-2.4.7-4 .7-4s2.6 1 2.2 3.5m-4-.8L274 172c.2-2 .6-3.5.6-3.5s2.6 1 2.3 3.6c-.1 1.5-.4 2.7-.5 3.5m-3.2-4.8c-1-1.3-1.8-3-2.6-4.7l.6-2.3s2.9 1.2 2.4 4a22 22 0 0 1-.4 3m-3.2-6.3c-.7-1.9-1.4-3.8-1.9-5.9l.3-.6s2.8 1.6 2 4.5a23 23 0 0 1-.4 2m15.7-23.9l-.6 1-.3.3c-.2.4-.4.8-.8 1.2l-1.1.8c-.5.3-.7.4-.7.6v.1l1 .2h-.1c-.1 0-.6.5-1 .6h-.3l-.9.3-.2.4v.1l1 .3-.6.4a9 9 0 0 1-2.2.2c-.3 0-.5.2-.5.3v.3l.8.4-.3.2H277c-.6 0-2.4-1-2.6-1-.2-.2-.7-.3-1.2-.3h-.5c-.2.2-.7.4-.5.9 0 .2.3.2.5.2l1-.1c.6 0 1.6.4 2 .7l.5.3.7.4h.1a36.4 36.4 0 0 1-1.5 1.1c-.3.3-1.6.6-1.6.6h-.2l.4.6a2.6 2.6 0 0 1-1.4 0 7 7 0 0 1-1.3-.6h-.2c-.1-.1-.3-.1-.4 0v.3l.4.7-1-.3-1.3-1.2-1.1-1h-.2l-.2.5-.6-.6-.6-1.2V146c.8.2 2 .3 2.8.3h.6l.8.1c1.1 0 1.8-.2 2.4-.5l2.4-1.5 2-1.2.4-.1c.8-.4 1.4-.7 2.4-1l3.1-1s-4.5.3-8.5 3c-1 .7-1.7 1.1-2.3 1.3l-1.8.2h-1.3l-3-.4.2-5.3.5-3 2.6-1.6v.6h.3l.8-.5c.3-.1 1.3-.2 1.7 0 .2 0 .3.2.4.3l-.3.1a2 2 0 0 0-.9 1 3 3 0 0 0-.2 1.3l.3.1.4-.1c2.6-2.4 3.7-3 4.5-3.3l.8-.2-.6 2.8-.1.2h.2s1-.5 1.7-.6h1.9l-1 1-.3.4.4-.1s.9-.2 1.4-.1c.5 0 .7.2 1.2.4h.2l1.3.9 1.2.7 1 .2-.3.3m-56 37v9H225v2.4h4.6v4.9h2.4v-5h4.7v-2.3H232v-9c3.1.3 6.2.7 9.2 1.2.2 1.8.4 3.6.4 5.5 0 11.7-10.8 17.9-10.8 17.9S219 196 219 184.3c0-1.8.2-3.6.4-5.3 3.3-.6 6.8-1 10.2-1.3m34-38.2h-65.7c-.3-2.5-.8-5-1.6-7.1-4.9-14 30-33.2 34.5-35.7 4.5 2.5 39.3 21.8 34.4 35.7-.8 2.2-1.3 4.6-1.6 7.1m-102.3-17.6h1.2l1 4.7-1.6-.7-.3 1.4 4.7 2.4-1.7-7.8h1l.2-1.9h-5.4zm9.6 3.6c.7 1 1.2 1.6 1.4 2.2h-3.4v1.8h6.4c-.5-2.3-1.6-3.6-2.7-5.2-.8-1.1-1.6-2.4-2-4.3h-2.5c.6 2.6 1.9 4.3 2.8 5.5m5.4-3.6h1.1l1 4.7-1.5-.7-.3 1.4 4.6 2.4-1.6-7.8h1l.1-1.9h-5.3zm6.3.9c0 2.7 1.5 6.8 4.6 6.8 1.6 0 2.4-1 2.4-2.9 0-2.4-1.2-6.8-4.5-6.8-1.6 0-2.5 1-2.5 2.9m4.7 4c0 .6-.1 1-.5 1-1.2 0-1.9-4.2-1.9-5.2 0-.5.2-.8.6-.8 1 0 1.8 3.9 1.8 5m86.5 50.5L271 173c-3.4-4.9-6-12.6-7.1-20.6h-66a49.8 49.8 0 0 1-10.2 25l-2 3 5.5 8a70.2 70.2 0 0 1 39.7-13.8c15.3.8 29.4 5.7 39.7 13.8l5.6-8a248 248 0 0 1-2.3-3.1m-112.4 14.6c1.6-1 3.7-.8 3.7-.8s-.5 2-2 3.2c-1.6 1-3.7.8-3.7.8s.5-2 2-3.2m1.6-3.6c1.7 0 3 .2 3 .2.1.2-.6 2-2.4 2-1.8 0-3-.3-3-.3-.2-.1.5-2 2.4-1.9m8.4 1.9a16 16 0 0 0-.2-3.7s-2.4.7-2.4 2.9c-.1 2.1.2 3.6.2 3.6s2.4-.6 2.4-2.8m-3.4 2.1c.1-1.8-.1-3.1-.1-3.1s-2 .5-2 2.5c-.2 1.8 0 3.1 0 3.1s2.1-.5 2.1-2.5m-1.5-7.4c2.1 0 3.6.3 3.6.3s-.7 2.3-2.9 2.3c-2.1 0-3.6-.3-3.6-.3s.7-2.3 2.9-2.3m8.3 2c0-2-.4-3.6-.4-3.6s-2.3.8-2.2 3c0 2.1.4 3.6.4 3.6s2.3-.7 2.2-3m-4.9-5.2c2.2-.1 3.7.2 3.7.2s-.7 2.4-3 2.3a16 16 0 0 1-3.6-.2s.7-2.4 3-2.3m8 2.2c-.1-2.1-.6-3.6-.6-3.6s-2.3.9-2 3.1c0 2.1.6 3.6.6 3.6s2.2-.9 2-3m-4.7-5.9c2.1 0 3.6.3 3.6.3s-.7 2.3-2.9 2.3c-2.1 0-3.6-.3-3.6-.3s.7-2.3 2.9-2.3m3-3.4c2.2 0 3.8.3 3.8.3 0 .1-.8 2.3-3 2.3-2.1 0-3.7-.3-3.6-.3-.1-.1.7-2.3 2.9-2.3m4.6 5.8c-.2-2.1-.7-3.6-.7-3.6s-2.3 1-2 3.2c.3 2.1.8 3.6.8 3.6s2.3-1 2-3.2M179 171c2.4-.1 4.1.2 4.1.2s-.8 2.7-3.3 2.7c-2.4 0-4.1-.3-4.1-.3s.7-2.6 3.3-2.6m2.8-4c2.5-.3 4.2 0 4.2 0s-.7 2.8-3.2 2.8c-2.5.2-4.2-.1-4.2-.1s.7-2.8 3.2-2.8m2.6-5c3-.5 5.2-.3 5.2-.3s-.7 3.5-3.8 3.7c-3 .5-5.3.2-5.3.2s.7-3.4 3.9-3.7m2.7-5l-.9 1.8-1.2 1.6-.5.4c1 0 2 0 3.2-.2 3.3-.3 4-3.8 4-3.8s-2-.2-4.6.1m-.3-3.2c.3 1 .4 1.7.3 2.4l3-.4c3.5-.5 4-4.3 4-4.3v.1l-.7.7-.2-.6-.1.1-1.1 1c-.4.4-1 1-1.4 1.1l-1 .3a60 60 0 0 1 .4-1s-.2-.1-.4 0h-.1c-.3.2-1 .6-1.3.6-.5.1-.9.2-1.1.1h-.3m-9.9 5.8l-1.5-.1c-.5.5-.9 1-1 1.3.6.2 1 .2 1.3.2h.5c0-.3.5-.8 1-1.4a4 4 0 0 1-.3 0m-2.5-.3l.1-.1-.2-.1-.3-.2.1-.3.3-.6h-.6c-.5.3-.9.6-1.2 1 .4.2 1 .4 1.8.3m.7-.8a4.2 4.2 0 0 0 2 .3c.2-.3.5-1 1-1.5-.7 0-1.4-.2-1.8-.3-.6.5-1 1.1-1.2 1.5m.2-4.2l1.2.2 1.4-1c0-.2 0-.4.2-.6l-1-.7c-1 .7-1.5 1.5-1.8 2m3.4-.8l1.5.2h.2l1-.7-1-1.4a3 3 0 0 0-1.7 2m-2.3 2.6c.5.2 1.3.4 2 .3.2 0 .1-.1.1-.1l.2-.4c0-.1.3-.8.9-1.5l-1.3-.2a4.4 4.4 0 0 0-2 2m-4.3 3.5l-.2.5c.3.1 1 .3 1.7.3h.1l.4-.6c-.7 0-1.4-.2-1.8-.4zm7.6-3.8c.4.1 1 .3 1.8.3 0-1.6.6-2.1 1-2.4-.2 0-.4-.2-.5-.3-1.3.7-2 1.8-2.3 2.4m-6.3 1.2a6.8 6.8 0 0 0 1.7 0l.5-.8s0-.5.4-1l-1.2-.4a6 6 0 0 0-1.4 2.2m3.4-5.4l-.4-.3a5.9 5.9 0 0 0-2.6 2.4l1 .3c.3-.5 1-1.6 2-2.4m1.7.5c.4-.6 1-1 1.7-1.4-.2 0-.4-.3-1-.6l-2.2.6c.3.4.9 1 1.5 1.4m-4.5 2.5l-.5-.2c-.9.8-1.3 1.8-1.5 2.3h.7a7 7 0 0 1 1.3-2.1m-2.6 5c.2-.5.7-1.2 1.5-1.9l-1-.2-1 2 .5.1m8.2-1.4l.7-1.4-.7-.2c-.3.5-1.3 1.7-1.5 2.2a4.3 4.3 0 0 0 2.2.2v-.3l-.7-.5m1.9-1.3h-.3l-.9 1 1.4.2-.2-1.2m-1.3-7.1c.4.2.8.6 1 1.2.7 1.5 2.2 2.6 2.2 2.6s-1.1 1.2-1.1 2.5v1.2l1-1 .4 3.6c.5-.4 1-1 1.3-1.5 1.1-2 1.4-3 .8-5.2-.9-2.9-5.5-4.3-7.4-4.7l1.8 1.3m-2 10l-.9 1c.5.1 1.2.3 1.9.2.3 0 .6 0 .8-.2l.1-.9h-.2c-.6 0-1.3 0-1.7-.2m3-.8c-.3.7-.3 1.5-.3 2 1.2-.2 2.1-1 2.1-1l-.2-1.5-1.6.5m.2 17.7c.1 1.6.4 3 .6 3.6l1.3-1.5.4-.4.7-1v-.2c-.2-2.4-.7-4-.7-4s-2.6 1-2.3 3.5m4-.8l2.4-3.6a18 18 0 0 0-.7-3.5s-2.6 1-2.3 3.6c.1 1.5.4 2.7.6 3.5m3.2-4.8c.9-1.3 1.7-3 2.5-4.7l-.6-2.3s-2.8 1.2-2.4 4l.5 3m3.2-6.3c.7-1.9 1.3-3.8 1.8-5.9l-.2-.6s-2.8 1.6-2 4.5c0 .7.2 1.4.4 2m-15.8-23.9l.7 1 .2.3.9 1.2c.2.3.7.6 1 .8.6.3.7.4.8.6l-.1.1-.9.2c.2 0 .7.5 1 .6h.3c.3 0 .7.1 1 .3l.2.4-.1.1-.9.3.6.4a9 9 0 0 0 2.1.2c.4 0 .5.2.5.3v.3l-.8.4.4.2c.3 0 1 .1 1.6 0 .6 0 2.5-1 2.7-1 .2-.2.7-.3 1.1-.3h.6c.2.2.7.4.5.9-.1.2-.4.2-.6.2l-1-.1c-.5 0-1.5.4-2 .7l-.5.3-.6.4h-.2a36.4 36.4 0 0 0 1.5 1.1c.4.3 1.6.6 1.6.6h.2l-.3.6H188.8c.3 0 1-.4 1.3-.6h.1c.2-.1.3-.1.4 0v.3l-.3.7 1-.3 1.3-1.2 1-1h.2l.2.5.6-.6.6-1.2.1-2.4c-.8.2-2 .3-2.9.3h-.6l-.7.1c-1.2 0-1.8-.2-2.5-.5l-2.4-1.5-2-1.2-.3-.1c-.9-.4-1.4-.7-2.5-1l-3-1s4.5.3 8.4 3c1 .7 1.8 1.1 2.4 1.3l1.8.2h1.3l3-.4-.3-5.3-.5-3c-.9-.7-2.1-1.3-2.6-1.6v.6h-.2l-.8-.5c-.4-.1-1.3-.2-1.7 0a1 1 0 0 0-.5.3l.3.1c.2.2.6.3 1 1 .2.4.2 1.2.2 1.3h-.1l-.3.1-.4-.1c-2.5-2.4-3.7-3-4.4-3.3l-.8-.2.6 2.8v.2h-.2s-1-.5-1.6-.6h-1.9l1 1 .3.4-.5-.1s-.8-.2-1.4-.1c-.5 0-.7.2-1.2.4h-.1l-1.3.9-1.3.7-1 .2.3.3"/></g></svg>