<svg xmlns="http://www.w3.org/2000/svg" viewBox="0 0 62.38 11.13">
  <path fill="none" stroke="#231f20" stroke-width=".16966" d="M53.96 7.32L61 .3H1.27v7.02z"/>
  <path fill="#231f20" stroke="#231f20" stroke-width=".16966" d="M57.47 10.83l-3.5-3.5H1.26v3.5z"/>
  <path fill="#231f20" d="M9.69 6.11c-.46 0-.92-.12-1.32-.35l.26-.51c.36.2.68.33 1.08.33.5 0 .79-.24.79-.64 0-.3-.19-.48-.6-.6l-.43-.12c-.36-.1-.62-.26-.77-.48a1 1 0 0 1-.17-.59c0-.7.56-1.19 1.36-1.19.46 0 .92.14 1.27.39l-.3.47c-.37-.22-.63-.31-.94-.31-.4 0-.66.21-.66.54 0 .25.14.38.53.5l.48.14c.58.17.98.54.98 1.14 0 .67-.54 1.28-1.56 1.28zM12.93 3.1h.7l-.17.45h-.54v1.64c0 .37.08.47.36.47.09 0 .16-.01.27-.06l.08.39c-.19.08-.37.12-.57.12-.57 0-.76-.33-.76-.75V3.55h-.33V3.1h.33c0-.25 0-.5.02-.73l.66-.15c-.03.23-.05.59-.05.88zM15.63 2.34l-.52.42-.56-.42-.38-.3.2-.3.73.42.7-.43.19.32-.36.3m.12 1.31a.47.47 0 0 0-.18-.04c-.26 0-.5.2-.55.44v1.98h-.64V3.97c0-.37-.04-.6-.1-.79l.59-.15c.06.13.1.3.1.46.24-.31.47-.46.75-.46.1 0 .15 0 .23.04zM18.3 3.34c.25.23.38.59.38 1.27v.14h-1.75v.04c0 .4.15.84.73.84.27 0 .5-.1.72-.3l.25.4c-.3.26-.66.38-1.05.38-.83 0-1.35-.6-1.35-1.53 0-.52.1-.86.36-1.15.24-.27.53-.4.9-.4.3 0 .56.08.8.3m-.8.19c-.36 0-.55.28-.55.76h1.08c0-.48-.2-.76-.53-.76zM21.4 6.04c-.02-.06-.03-.1-.04-.23-.2.2-.43.3-.72.3-.75 0-1.2-.6-1.2-1.5 0-.93.5-1.56 1.22-1.56.24 0 .45.09.63.27 0 0-.02-.22-.02-.48V1.77l.63.1v3.15c0 .58.04.87.1 1.02h-.6m-.13-2.24a.7.7 0 0 0-.53-.24c-.4 0-.6.33-.6 1.04 0 .65.13.97.61.97.24 0 .43-.13.52-.28zM24.08 3.04c.84 0 1.31.62 1.31 1.54 0 .95-.5 1.53-1.3 1.53s-1.29-.6-1.29-1.53c0-.94.5-1.54 1.28-1.54m-.57 1.5c0 .85.21 1.1.6 1.1.37 0 .58-.3.58-1.04 0-.83-.23-1.08-.6-1.08-.4 0-.58.3-.58 1.02zM27.33 6.11c-.8 0-1.24-.56-1.24-1.5 0-1.07.63-1.58 1.29-1.58.32 0 .55.08.81.32l-.32.42c-.17-.15-.32-.22-.5-.22a.5.5 0 0 0-.46.3c-.08.17-.12.45-.12.81 0 .4.07.65.2.8.1.1.23.17.39.17.2 0 .4-.1.59-.3l.3.4c-.27.26-.54.38-.94.38m.54-3.77l-.53.42-.55-.42-.39-.3.21-.3.73.42.7-.43.18.32zM30.7 3.34c.25.23.38.59.38 1.27v.14h-1.75v.04c0 .4.15.84.72.84.27 0 .51-.1.73-.3l.25.4c-.3.26-.66.38-1.06.38-.83 0-1.35-.6-1.35-1.53 0-.52.12-.86.37-1.15.24-.27.53-.4.9-.4.29 0 .55.08.8.3m-.8.19c-.36 0-.56.28-.56.76h1.08c0-.48-.2-.76-.52-.76zM32.78 6.12c-.36 0-.75-.12-1.13-.32l.23-.46c.26.15.62.3.95.3.28 0 .47-.16.47-.4 0-.23-.14-.35-.47-.42l-.36-.07c-.43-.1-.7-.4-.7-.8 0-.56.44-.94 1.1-.94.4 0 .71.12.96.25l-.2.44a1.48 1.48 0 0 0-.73-.21c-.27 0-.44.15-.44.38 0 .18.1.27.4.34l.36.1c.59.15.74.47.74.81 0 .6-.48 1-1.18 1zM34.73 6.04V2.63c0-.29-.02-.48-.06-.71l.63-.16c.04.19.06.47.06.78v3.5h-.63m1.79 0L35.4 4.38l.87-1.27h.77l-1 1.24 1.24 1.69zM38.91 6.1c-.24.71-.45 1.06-1.14 1.2l-.2-.42c.4-.11.62-.28.79-.84h-.2c-.09-.33-.2-.65-.28-.91l-.67-1.98.65-.1.54 1.78.16.66.22-.8.49-1.58h.68l-1.04 3m.56-3.9l-1.27.58-.2-.36 1.18-.77zM41.74 6.04V2.63c0-.29-.02-.48-.07-.71l.64-.16c.04.19.06.47.06.78v3.5h-.63m1.78 0l-1.1-1.66.87-1.27h.77l-1 1.24 1.23 1.69zM46.1 3.66a.48.48 0 0 0-.18-.04c-.27 0-.5.2-.55.44v1.98h-.64V3.97c0-.37-.04-.6-.1-.79l.58-.15c.07.13.11.3.11.46.23-.31.46-.46.75-.46.09 0 .15 0 .22.04zM48.58 6.16a.7.7 0 0 1-.4-.4 1 1 0 0 1-.8.37c-.68 0-.98-.37-.98-.88 0-.68.51-1.02 1.45-1.02h.2v-.16c0-.34-.06-.52-.4-.52-.43 0-.88.34-.88.34l-.29-.46c.44-.28.8-.4 1.25-.4.45 0 .76.17.9.49.04.13.04.28.04.72l-.02.84c0 .14 0 .25.02.34.03.15.1.24.24.34l-.33.4m-.66-1.5c-.64 0-.83.18-.83.55 0 .28.15.45.4.45.2 0 .4-.12.53-.3l.02-.7h-.12zM50.14 6.85c-.14.17-.32.31-.55.42l-.28-.37c.31-.22.4-.45.4-.92V3.15l.64-.11v2.93c0 .52-.1.75-.21.88m-.5-4.76c.04-.12.14-.21.26-.25a.3.3 0 0 1 .13-.02.42.42 0 0 1 .24.77.42.42 0 0 1-.63-.5z"/>
</svg>
