<svg xmlns="http://www.w3.org/2000/svg" viewBox="0 0 419.9 455">
  <defs>
    <clipPath id="a">
      <path d="M0 1332.3h1275.6V0H0z"/>
    </clipPath>
  </defs>
  <g clip-path="url(#a)" transform="matrix(.3489 0 0 -.3489 -12.6 460)">
    <path fill="#fff" fill-rule="evenodd" d="M49.8 1304h1176V587C1212.2 229 908.2 25.8 641.4 28.3 271.6 27.8 57 320.7 55.6 585.2z"/>
    <path fill="#e5143c" fill-rule="evenodd" d="M637.8 1304l3.6-1275.7C990 35.8 1215 314.3 1225.8 587v717z"/>
    <path fill="#231f20" d="M637.9 1303.8l3.6-1275.3C993.7 36 1215 318.5 1225.7 587v716.8zm3.3-1275.6v.1L637.7 1304h588.2V587c-1.4-33.9-6-68.2-14-102-7.8-33.7-18.9-67-32.9-99.3a599.7 599.7 0 0 0-202.3-249.3 584.1 584.1 0 0 0-98.4-56 609.2 609.2 0 0 0-237-52.2z"/>
    <path fill="#fff200" fill-rule="evenodd" d="M288 523.8c-24.2-5-37.4-24.3-61.3-23.5-40 7.3-25.2 48.7-65.3 50.6-17.4-1.3-27.5-7.8-32-15.6 5.6 2 11.4.8 17 .5-4.2-7-3.5-14.9-.5-23.1-19.5-.9-33.2-9-35.5-31 4.3 3.8 9.4 6.5 15.5 7.5-4.6-15.4 11-23.2 28-19.6-14.3-14.7-21-28.2-9-39a35 35 0 0 0 15.6 17.7c-6-23.5 31.8-25 33.1 6 11.4-1.2 21 9.7 33 8.7 12.8-4.3 21.2-12.7 35.2-16.5-8.8-28.9 14.2-39.2 32.8-27.5 1-4.2.9-9.8-.4-16.4 14.2 7.6 17 21.7 18.5 34.6-.8 29.1-44.7 25.8-67.8 39a71.8 71.8 0 0 1 30.2 12c3-16 27.9-14.6 34.6-2.2L288 523.8"/>
    <path fill="#231f20" d="M295.9 422.1l.6-2.6c1-3.5 1-7.8.3-13 10.4 7.6 12.7 19.8 13.9 30.8-.6 17.7-19 22.4-38.4 27.4-10 2.6-20.4 5.3-28.4 9.9l-5 2.8 5.7.8A70.1 70.1 0 0 1 274 490l2.5 1.7.5-3c1.5-7.4 8.4-10.1 14.4-10.1 6.7 0 13 3 16 7.6L287 521.5c-9.8-2.2-17.8-6.9-25.5-11.4-10.8-6.3-21-12.3-34.9-11.8h-.3c-20.4 3.8-27.4 16.4-33.5 27.6-6.5 11.9-12 22-31.4 23-12.3-1-21.7-4.7-27.3-10.6h2.6c2 0 4.2 0 6.2-.3l3.5-.2 3.3-.2-1.7-2.8c-3.4-5.8-3.5-12.6-.3-21.4l1-2.6-2.7-.1c-19-.8-29.6-8.6-33-24.5 4 2.6 8 4.2 12.6 5l3.1.4-.9-3c-1.3-4.5-.8-8.3 1.4-11.4 3-4 9.3-6.5 16.6-6.5 2.5 0 5 .3 7.7.9l6.4 1.3-4.6-4.7c-10-10.3-14.8-18.6-14.6-25.4.1-3.2 1.3-6.1 3.7-8.9a35.5 35.5 0 0 0 15.2 16.2l4 2-1.1-4.3c-1.2-4.4-.7-8.2 1.5-11 2-2.5 5.4-4 9.3-4 8.4 0 17.7 6.7 18.3 21.6l.1 2.1 2.1-.2 1.6-.1c4.5 0 9 2 13.5 4.1 5 2.3 10.3 4.7 16.2 4.7h2l.2-.2c6-2 11.2-5 16.1-7.8a79.4 79.4 0 0 1 18.9-8.6l2-.5-.6-2c-3-9.7-2.4-17.7 1.7-23.2 3-4.1 8-6.4 13.8-6.4 4.8 0 9.8 1.5 14.4 4.4zm-4.5-23.2l.8 4c1 5.2 1.3 9.5 1 13a30.3 30.3 0 0 0-14-3.6c-7.1 0-13.2 2.9-17 8-3.2 4.4-6.2 12.1-2.9 24.9a88 88 0 0 0-17.8 8.4 86 86 0 0 1-15.2 7.4H225c-5 0-9.6-2-14.5-4.3-4.8-2.2-9.8-4.5-15.1-4.5-1.5-15.4-12-23.4-22.2-23.4-5.2 0-9.7 2-12.5 5.6-1.5 2-3.1 5.3-2.9 10a35.6 35.6 0 0 1-11.1-14.7l-1.1-2.4-2 1.8c-4.5 4-6.8 8.5-7 13.5-.2 7 3.6 14.9 11.9 24.3l-2.8-.1c-8.7 0-16 3-19.7 8a15.4 15.4 0 0 0-2.8 11.8c-4.2-1.1-8-3.3-11.6-6.5l-3.9-3.4.6 5.1c2.2 20.3 13.6 31 34.8 32.7-2.4 7.6-2.4 14 0 19.5h-.7c-1.9.2-3.9.4-5.8.4-2.6 0-4.7-.3-6.6-1l-5-1.7 2.6 4.6c5.4 9.5 17.3 15.3 33.6 16.5h.2c21.6-1 28.3-13.1 34.8-25 6.2-11.3 12.1-22.1 30.6-25.6h1.1c12.1 0 21.5 5.5 31.5 11.3 8.4 4.9 17 10 28 12.2l1.5.3 23-40-.5-.9c-3.5-6.3-11.6-10.6-20.1-10.6-8.6 0-15 4-17.5 10.6a74.1 74.1 0 0 0-22.9-9.7c6.7-2.8 14.6-4.9 22.3-6.8 20-5.2 40.8-10.5 41.3-31.4v-.2c-1.5-14.2-5-28.4-19.5-36.2z"/>
    <path fill="#fff200" fill-rule="evenodd" d="M415.5 523.3c24.2-5 37.4-24.3 61.3-23.5 39.9 7.3 25.1 48.8 65.2 50.6 17.4-1.3 27.6-7.8 32-15.5-5.6 1.9-11.4.7-16.9.4 4.2-7 3.4-14.9.5-23 19.5-1 33.1-9 35.5-31.2-4.4 4-9.4 6.6-15.6 7.6 4.6-15.3-11-23.2-28-19.6 14.4-14.6 21-28.2 9-39-3.5 7.6-8.3 14-15.6 17.7 6-23.5-31.8-25-33 6-11.4-1.2-21 9.7-33.1 8.7-12.7-4.3-21.2-12.6-35.1-16.4 8.7-29-14.3-39.2-32.9-27.6a39 39 0 0 1 .5-16.4c-14.3 7.6-17.1 21.7-18.5 34.6.7 29.2 44.7 25.8 67.8 39.1a71.8 71.8 0 0 0-30.2 12c-3.1-16-28-14.6-34.7-2.2l21.8 37.7"/>
    <path fill="#231f20" d="M392.8 436.8c1.2-11 3.4-23.1 13.8-30.7-.7 5.2-.6 9.4.3 13l.7 2.6 2.3-1.5c4.6-2.9 9.5-4.4 14.3-4.4 5.9 0 10.8 2.3 13.9 6.5 4 5.4 4.6 13.4 1.7 23.2l-.6 2 2 .5c7.2 2 13.1 5.3 18.8 8.6 5 2.8 10.1 5.8 16.1 7.8h.5l1.8.1c5.9 0 11-2.4 16.1-4.7 4.6-2 9-4 13.5-4h1.6l2.1.2.1-2c.6-15 10-21.7 18.4-21.7 3.9 0 7.3 1.5 9.3 4.1 2.1 2.7 2.6 6.5 1.5 11l-1.1 4.2 4-2a35.5 35.5 0 0 0 15.1-16.1c2.4 2.7 3.6 5.6 3.7 8.8.3 6.8-4.5 15.1-14.5 25.5l-4.6 4.7 6.4-1.4c2.6-.6 5.2-.8 7.7-.8 7.3 0 13.5 2.4 16.5 6.5 2.3 3 2.8 6.9 1.4 11.3l-.9 3 3.1-.5c4.6-.7 8.7-2.3 12.6-4.8-3.3 15.8-13.9 23.6-33 24.4l-2.6.2.9 2.5c3.2 8.8 3.1 15.7-.3 21.4l-1.6 2.8 3.2.2 3.6.3c2 .1 4 .3 6.2.3h2.6c-5.6 5.9-15.1 9.6-27.4 10.5-19.3-1-24.9-11.1-31.4-23-6-11.1-13-23.8-33.5-27.6h-.3c-13.9-.4-24 5.5-34.8 11.8a90.9 90.9 0 0 1-25.5 11.5L396 485.6c3-4.6 9.4-7.6 16-7.6 6 0 13 2.7 14.4 10.2l.6 3 2.5-1.8c9-6.1 18.9-10 29.3-11.6l5.7-.9-5-2.8c-8-4.6-18.3-7.3-28.3-9.9-19.5-5-37.9-9.7-38.4-27.4m19.2-38.4l-3.7 2c-14.5 7.7-18 22-19.5 36.1V436.8c.5 20.8 21.3 26.1 41.4 31.3 7.7 2 15.5 4 22.2 6.9-8 1.8-15.7 5-22.9 9.6-2.5-6.6-8.9-10.6-17.4-10.6-8.6 0-16.7 4.3-20.1 10.6l-.5 1 23 40 1.4-.3c11-2.3 19.7-7.4 28-12.3 10.3-6 20-11.6 32.6-11.2 18.5 3.4 24.4 14.2 30.7 25.6 6.4 11.8 13.1 24 34.7 25h.2c16.3-1.2 28.2-7.1 33.6-16.6l2.6-4.5-5 1.7c-1.9.6-4 1-6.5 1-2 0-4-.2-5.9-.4h-.7c2.4-5.6 2.4-12 0-19.6 21.3-1.7 32.7-12.4 34.9-32.7l.5-5.1-3.8 3.5A27.8 27.8 0 0 1 580 486c.7-4.4-.3-8.4-2.7-11.7-3.8-5.2-11-8.1-19.7-8.1h-2.8c8.3-9.3 12-17 11.8-24.1-.2-5-2.5-9.6-7-13.6l-2-1.8-1 2.5c-3 6.5-6.6 11.3-11.2 14.6.3-4.7-1.3-8-2.9-10a15.5 15.5 0 0 0-12.4-5.6c-10.2 0-20.8 8-22.2 23.4-5.4 0-10.4 2.3-15.2 4.5a35.3 35.3 0 0 1-15.6 4.3c-5.6-1.9-10.3-4.5-15.2-7.4-5.4-3-11-6.2-17.9-8.4 3.4-12.7.4-20.5-2.8-24.8-3.9-5.2-10-8-17-8-4.7 0-9.5 1.2-14 3.5-.4-3.5 0-7.8 1-13z"/>
    <path fill="#e5143c" fill-rule="evenodd" d="M224.9 343.3c-43.3 8.2 1.1 75.9-53.3 72.1 24.5-18.6-9.6-44.2.5-78.5 19.2-9.4 40-8.4 52.8 6.4"/>
    <path fill="#231f20" d="M173.7 338.3a54.2 54.2 0 0 1 22.9-5.5c9.6 0 18 3.2 24.5 9.4-18.6 5.3-19.6 22.8-20.5 38.4-1 17.5-1.9 32.6-24 33 9.8-10.4 5.7-22.7 1.4-35.7-3.9-11.7-8.3-24.9-4.3-39.6m22.9-9.5c-8.2 0-17 2.2-25.4 6.3l-.8.4-.2.8c-4.8 16.3-.1 30.4 4 42.9 4.7 14.2 8.4 25.4-3.8 34.7l-4.2 3.2 5.3.3 4.3.2c26.7 0 27.8-19.6 28.8-36.8 1-16.5 1.8-32 20.7-35.6l3.4-.6-2.3-2.6a38.2 38.2 0 0 0-29.8-13.2"/>
    <path fill="#e5143c" fill-rule="evenodd" d="M479 345c43.3 8.1-1.2 75.8 53.3 72-24.5-18.6 9.6-44.1-.5-78.5-19.3-9.4-40-8.4-52.8 6.4"/>
    <path fill="#231f20" d="M482.8 343.8a34.6 34.6 0 0 1 24.5-9.4c7.3 0 15.2 1.9 22.8 5.5 4 14.7-.3 28-4.2 39.7-4.3 13-8.4 25.3 1.3 35.6-22-.3-23-15.5-24-33-.8-15.5-1.8-33-20.4-38.4m24.5-13.4c-12 0-22.4 4.6-29.8 13.2l-2.3 2.6 3.4.7c18.9 3.5 19.8 19 20.7 35.5 1 17.3 2.1 36.8 28.8 36.8l4.3-.1 5.2-.4-4.1-3.2c-12.2-9.3-8.5-20.5-3.8-34.7 4.1-12.5 8.8-26.6 4-42.9l-.2-.8-.8-.4a58.6 58.6 0 0 0-25.4-6.3"/>
    <path fill="#e5143c" fill-rule="evenodd" d="M313.6 278.1c-41.6 30.6-49.7-4.2-74.8-3.3-9.7.2-17.4 3.9-23 11 8.2-35.4 34.9-45.5 76.8-34.4l21 26.7"/>
    <path fill="#231f20" d="M219.8 279c6.9-20 21.3-30 43.7-30 8.2 0 17.6 1.4 27.9 4.1l19.3 24.6a49.2 49.2 0 0 1-27.3 11c-8.4 0-14.7-3.8-21.3-7.8-6.6-4-13.5-8-22.3-8h-1c-7.5 0-13.8 2.1-19 6.2m43.7-34c-26.7 0-43.4 13.6-49.6 40.3l-2.1 8.9 5.6-7.2a26 26 0 0 1 22.4-10.3c7.7 0 13.8 3.6 20.2 7.5 6.9 4.1 14 8.4 23.4 8.4 9.2 0 19.5-4.2 31.3-13l1.7-1.2-22.7-28.9-.6-.1a117.4 117.4 0 0 0-29.6-4.4"/>
    <path fill="#e5143c" fill-rule="evenodd" d="M390.5 279c41.5 30.6 49.7-4.2 74.8-3.2 9.7.1 17.4 3.8 23 11-8.3-35.5-35-45.6-76.8-34.5l-21 26.8"/>
    <path fill="#231f20" d="M412.7 254c10.3-2.6 19.7-4 27.9-4 22.4 0 36.8 9.8 43.7 30a31 31 0 0 0-20-6.2c-8.9 0-15.7 4-22.3 8-6.7 4-13 7.9-21.3 7.9-8 0-17-3.6-27.4-11zm27.9-8c-8.8 0-18.7 1.5-29.6 4.4l-.6.2-22.7 28.9 1.6 1.2c11.9 8.7 22.1 13 31.4 13a44 44 0 0 0 23.3-8.4c6.7-4 13-7.9 21.2-7.6a26 26 0 0 1 21.5 10.3l5.6 7.2-2.1-8.8c-6.2-26.8-23-40.4-49.6-40.4"/>
    <path fill="#e5143c" fill-rule="evenodd" d="M189.7 623.5C172 585 95.4 627 104.3 578.4c31.6 23.5 39.8-20.7 64.4-19 17.1 3.8 29.2 11 29.6 21.6l-8.6 42.5"/>
    <path fill="#231f20" d="M121.6 587.3c9.8 0 17-6.9 24-13.5 6.8-6.4 13.2-12.5 21.7-12.5h1c10.3 2.4 27.4 8 28 19.6l-7.5 37c-10-14.5-30.1-14.8-48-15.1-13.7-.2-26.7-.4-32.2-7.1-2.6-3.2-3.5-7.7-2.8-13.9a28.9 28.9 0 0 0 15.8 5.5m45.7-30c-10 0-17.4 7-24.4 13.6-6.8 6.4-13.1 12.4-21.3 12.4-5 0-10.2-2.1-16.1-6.5l-2.6-2-.6 3.2c-1.6 9-.6 15.6 3.2 20.2 6.7 8.1 20.6 8.4 35.3 8.6 19.3.3 39.3.6 47 17.5l2.6 5.6 9.9-48.7v-.3c-.4-10.7-11.5-19-31.2-23.5h-.3l-1.5-.1"/>
    <path fill="#e5143c" fill-rule="evenodd" d="M510.1 627c17.6-38.5 94.3 3.6 85.4-45-31.6 23.5-39.8-20.7-64.4-19-17.2 3.8-29.3 11-29.6 21.6L510 627"/>
    <path fill="#231f20" d="M531.4 564.9c9-.5 15.7 5.8 22.8 12.5 7 6.6 14.2 13.4 24 13.4 5 0 10.2-1.7 15.8-5.4.7 6.2-.2 10.7-2.8 13.9-5.5 6.7-18.5 6.9-32.2 7-17.9.4-38 .7-48 15.2l-7.5-37c.6-11.6 17.6-17.3 28-19.6m1-4h-1.8c-19.8 4.6-30.8 13-31.2 23.6v.3l9.9 48.7 2.5-5.6c7.7-17 27.8-17.3 47.1-17.5 14.7-.3 28.6-.5 35.3-8.6 3.8-4.6 4.8-11.2 3.2-20.2l-.6-3.2-2.6 2a27.5 27.5 0 0 1-16 6.5c-8.3 0-14.6-6-21.4-12.4-7-6.7-14.4-13.6-24.5-13.6"/>
    <path fill="#e5143c" fill-rule="evenodd" d="M105 629.7c-5.7 27.3-48.8 26.7-27 74.5 10.4-30.5 31.8-5.5 49.7-35.1L105 629.7"/>
    <path fill="#231f20" d="M77.9 699c-10.1-25.7.7-35.2 12.1-45.4a51 51 0 0 0 15.5-19l20 34.4c-8.2 12.9-16.9 14-25.3 15.3-8.2 1.1-16.6 2.3-22.3 14.7m26.2-74.8l-1.1 5c-2 9.4-8.6 15.3-15.6 21.5-12.6 11.1-25.7 22.7-11.3 54.4l2.1 4.5 1.6-4.7c5-14.4 12-15.4 21-16.7 9-1.3 19.3-2.7 28.6-18.1l.6-1z"/>
    <path fill="#e5143c" fill-rule="evenodd" d="M594 633.6c5.8 27.3 48.8 26.7 27 74.5-10.3-30.5-31.8-5.5-49.7-35.2l22.8-39.3"/>
    <path fill="#231f20" d="M573.6 673l19.9-34.4a51 51 0 0 0 15.5 19c11.4 10 22.3 19.6 12.1 45.3-5.7-12.4-14.1-13.6-22.3-14.7-8.4-1.2-17-2.5-25.2-15.3m21.4-44.8L569 673l.6 1c9.3 15.3 19.6 16.8 28.7 18.1 9 1.3 16 2.3 20.9 16.7l1.6 4.7 2-4.6c14.5-31.7 1.4-43.2-11.2-54.3-7-6.2-13.6-12.1-15.6-21.4z"/>
    <path fill="#e5143c" fill-rule="evenodd" d="M88.6 749.4c-3.4 41-42.4 56.9-10.2 92.7 3.5-38 24.8-25 30.5-46l-20.3-46.7"/>
    <path fill="#231f20" d="M77 837.3c-15.6-19.4-8.6-32.6.1-49.1 4.8-9 10.2-19.1 12.5-31.5l17.2 39.5c-2.2 7.4-6.6 10-11.6 12.8-7.2 4.2-15.4 9-18.2 28.3m10.2-96l-.6 7.9a94 94 0 0 1-13 37.1c-9.5 18.1-17.8 33.7 3.3 57l3 3.5.5-4.6c2-21.2 9.5-25.5 16.8-29.8 5.4-3 11-6.3 13.6-15.8l.2-.7z"/>
    <path fill="#e5143c" fill-rule="evenodd" d="M610.9 751.6c3.4 41.1 42.4 57 10.1 92.7-3.5-37.9-24.7-24.9-30.5-46l20.4-46.7"/>
    <path fill="#231f20" d="M592.6 798.5l17.3-39.6c2.3 12.4 7.6 22.5 12.4 31.6 8.7 16.4 15.7 29.7.2 49-2.9-19.3-11-24-18.3-28.2-5-3-9.4-5.4-11.6-12.8m19.6-54.9l-23.8 54.6.2.6c2.6 9.5 8.2 12.8 13.6 16 7.3 4.1 14.9 8.5 16.9 29.7l.4 4.5 3-3.3c21.1-23.4 12.9-39 3.3-57-5.5-10.5-11.7-22.3-13-37.2z"/>
    <path fill="#e5143c" fill-rule="evenodd" d="M139.9 1112c-7.6 20.5-24.7 31.2-28.1 47.5-2.1 10.4 17.8 33.4-22.1 42.7 13.6-34.9-14.1-41.6-13.5-67.4 4-27.6 34.2-40.5 38-80z"/>
    <path fill="#231f20" d="M78.2 1135c1.7-11.8 8.6-21 15.9-30.7 8.3-11.2 17.7-23.8 21.1-42.3l22.6 50c-3.6 9.3-9.2 16.5-14.6 23.5-6 7.6-11.5 14.8-13.3 23.6-.7 3 .3 6.8 1.2 10.7 1.6 6 3.3 12.9-.3 18.7-2.8 4.6-8.8 8.3-18 10.9 6.4-19.4 0-30.1-6.3-40.5-4.4-7.3-8.5-14.2-8.3-24m34.8-87.6l-.7 7.4c-2.1 21.3-12 34.5-21.4 47.2-7.6 10.2-14.8 19.8-16.7 32.6v.2c-.2 11 4.4 18.8 8.9 26.2 6.4 10.7 12.5 20.8 4.7 40.6l-1.3 3.5 3.6-.8c12.4-3 20.3-7.4 24.1-13.7 4.4-7.2 2.4-15.2.8-21.7-.9-3.5-1.7-6.7-1.3-8.9 1.7-7.9 6.7-14.4 12.6-22 5.5-7 11.7-15 15.5-25.2l.2-.8z"/>
    <path fill="#e5143c" fill-rule="evenodd" d="M557 1113.5c7.6 20.5 24.7 31.2 28 47.5 2.2 10.3-17.7 33.3 22.2 42.7-13.7-34.9 14-41.7 13.5-67.5-4-27.5-34.2-40.4-38-79.8l-25.7 57"/>
    <path fill="#231f20" d="M559.1 1113.5l22.5-50c3.5 18.5 12.8 31 21.2 42.2 7.3 9.8 14.1 19 15.9 30.7.2 9.8-4 16.7-8.3 24-6.3 10.4-12.7 21.1-6.4 40.5-9.1-2.6-15.2-6.3-18-11-3.5-5.7-1.8-12.6-.3-18.6 1-4 2-7.7 1.3-10.7a60 60 0 0 0-13.3-23.6c-5.4-7-11-14.2-14.6-23.5m24.8-64.8l-29 64.7.2.7a95 95 0 0 0 15.5 25.3c5.8 7.6 10.9 14.1 12.5 22 .5 2.2-.4 5.4-1.2 8.9-1.6 6.5-3.7 14.5.7 21.7 3.8 6.3 11.7 10.7 24.1 13.6l3.7 1-1.4-3.6c-7.7-19.8-1.7-30 4.8-40.6 4.5-7.4 9.1-15.2 8.9-26.2v-.3c-2-12.7-9.1-22.3-16.7-32.5-9.5-12.7-19.3-25.9-21.4-47.2z"/>
    <path fill="#e5143c" fill-rule="evenodd" d="M214.5 1141c-37.8 35.1 30.2 97.3-34.3 109.5 25-45-51.4-46.5-2.3-112.5z"/>
    <path fill="#231f20" d="M183.8 1247.6c8.5-18.4 0-30-8.3-41.3-11.1-15.1-22.7-30.8 3.3-66.3l31.3 2.6c-14.3 16.2-9.9 37.1-6 55.7 3 14.5 5.9 28.3-.4 37.7-3.6 5.4-10.2 9.3-19.9 11.6M177 1136l-.7.9c-28.6 38.4-15.5 56.2-4 71.9 8.8 12 16.4 22.3 6.1 40.8l-2 3.7 4.1-.8c13.1-2.5 21.8-7.1 26.5-14.2 7.2-10.8 4.2-25.3 1-40.7-4.1-19.7-8.4-40 7.8-55.1l3.3-3z"/>
    <path fill="#e5143c" fill-rule="evenodd" d="M482.4 1142.4c37.8 35.2-30.2 97.4 34.3 109.5-25-45 51.4-46.4 2.3-112.4z"/>
    <path fill="#231f20" d="M486.8 1144l31.2-2.5c26 35.5 14.5 51.2 3.4 66.3-8.3 11.3-16.8 22.9-8.3 41.3-9.8-2.3-16.3-6.2-20-11.6-6.2-9.4-3.4-23.2-.3-37.7 3.9-18.6 8.2-39.5-6-55.7m33.1-6.7l-42.1 3.4 3.3 3c16.2 15.2 11.9 35.5 7.8 55.2-3.2 15.4-6.3 29.9 1 40.7 4.7 7 13.4 11.7 26.4 14.2l4.2.8-2-3.7c-10.3-18.5-2.7-28.8 6-40.8 11.6-15.7 24.7-33.5-4-72z"/>
    <path fill="#e5143c" fill-rule="evenodd" d="M284.6 998a159 159 0 0 1 14 47.6c3.6 16.7-24.3 33.3 1 49.3-64.6 22.9-19-47.8-49.7-64.1l34.7-32.8"/>
    <path fill="#231f20" d="M253.1 1030.4l30.8-29a157 157 0 0 1 12.7 44.5v.1c1.2 5.6-1.6 11.3-4.5 17.4-4.8 9.7-10.1 20.6 3.2 30.9-6.6 2-12.1 3.2-16.5 3.2-4.6 0-7.9-1.2-10.2-3.5-4.9-5-4.7-15.1-4.6-26 .2-14 .4-29.7-10.9-37.6m32.1-35.7l-38.7 36.5 2.4 1.3c11.6 6.1 11.4 21 11.2 35.5-.2 11.7-.4 22.7 5.7 28.8 3 3.1 7.3 4.6 13 4.6s12.7-1.5 21.5-4.6l3.8-1.4-3.4-2.1c-14.4-9.1-10-18-5-28.2 3-6.4 6.3-13 4.8-19.9a161.6 161.6 0 0 0-14.1-48z"/>
    <path fill="#e5143c" fill-rule="evenodd" d="M458.5 1028.6c-1.7 31-28 39.6-14.4 73-33.4-10.6-11.7-53.2-22-78.8z"/>
    <path fill="#231f20" d="M440.7 1098.1c-15.6-7.3-14.8-24.5-13.9-42.6.5-10.4 1-21-1.7-30.2l31.3 5a67.7 67.7 0 0 1-9.6 27.2c-6.2 11.6-12 22.5-6 40.6m-21.7-77.8l1.2 3.2c3.6 9 3 20.6 2.5 31.8-1 20.2-2 41 20.7 48.2l4 1.2-1.6-3.9c-7.7-19-2-29.3 4.4-41.4 4.4-8.3 9.4-17.7 10.2-30.7v-1.8z"/>
    <path fill="#231f20" fill-rule="evenodd" d="M258.9 405.5c-17.7-10.5-26.4-25.8-15.2-51.6-28.7 2.8-24.8-16.3-43.6-16.9-13.7-.1-22.4 2.3-30.3 24.5-7.8-33 15.6-65 55.7-69.1 19 1.2 23.4 12.3 39.6 13.5 17 2.8 27.6-18.2 49.8.9-9.9-34.4-32.6-36.9-58.5-31.7 5-18.1 39.1-45 67-24a104.9 104.9 0 0 1 28-55 76.6 76.6 0 0 1 27.6 55.5c31.3-16 64-1.8 65.7 23.5-26.1-5.3-46.2 0-52.8 29 17.6-13.8 28.9 3.1 44.4 2.1 17.7-.5 25.7-10.1 50.6-10.4 34.3 1.8 50.3 39.5 46.6 56.2-8.8-8.6-18-15.5-28.9-14.7-16.8-.3-19.3 21.7-49.3 16.9 14.1 21 14 38.9-11.5 51-.5-13.3-8.6-22.7-28-26.6-50.5 2.2-51 56.1-45.7 115.9 9-3.9 16.5-11.4 21.3-27.1 9 41.7 45.5 57.5 44 77.3-1.6 20.6-29.6 15.8-33.8 40 16.7-13.1 30.9-10.8 44-1.4-11 30.6-16 63-15.1 97.2 21.9-87.8 19.3-121 100.8-99.4-11.1 19.7-11.4 46-20 65.2 27-46.7 78.4-30.3 85.7-10.6-13.2 13.9-22.7 45.3-31.1 81.7 21.2-15.7 41.7-10.6 61.7 11.5-17.7 33.8-32 77.6-42.6 131.4 9.8-13.4 25.8-14.7 48-4-11.3 18.3-16.7 48.4-21 80.8 9-1.1 14.6 1.2 16.5 7.2-49.1 25.6-4.6 195-120.8 210-83.1-2.5-47.3-89.5-51-120.4-20.7 7.1-36.5 2.7-45.3-18.6-9 36.6 41.1 70 8.4 167.8 6.2 1 10 3.6 11.6 8-47 23.8-48.5 74.5-112 72-19-.8-42.7-11.8-39.9-33 36.2-22.3 59.9-60.6 65.3-122-3.2-34.6-17.2-68.8-58.2-102.1-4.4 28.5-19.9 40.8-51.5 29.3 23.9 66.2 19.6 110.7-35 116.7-112 4.8-84.6-173.4-130.1-212.2 1.6-2.7 8.2-6.2 18.6-7-3.3-25.5-8.7-51-22.6-76.5 20.2-11.6 36.6-11.2 49.2 1.4a374.9 374.9 0 0 0-44-129.7c19.6-23.1 41.3-26.6 65-12a259.4 259.4 0 0 0-36-87c39-28.8 66.9-18 88.3 15.1-3-21.8-9.4-42.9-18.2-63.5 117.7-30 73.8 67.7 99.5 98.6 2.1-34-3.5-67.2-15.6-100 21-6.4 36.6-5.7 46.2 5.4.4-24.1-58.7-33-19.5-62.6 11.6-10 21.6-29 29.7-57.3a46.9 46.9 0 0 0 22.2 30.7c16-102-44.2-154-74-89.9"/>
    <path fill="#231f20" d="M325 254.8l.4-3.4c2.5-17.9 11.1-35 26.2-52.4a74.4 74.4 0 0 1 25.4 52.7v3.1l2.9-1.4a57.8 57.8 0 0 1 26-6.6c19.2 0 34 10.8 36.5 25.9-5-1-9.8-1.4-14-1.4-21 0-33.5 10.6-38.5 32.3l-1.2 5.4 4.4-3.4c4.3-3.4 8.5-5 12.8-5 4.6 0 9 1.8 13.6 3.7a38.3 38.3 0 0 0 16.9 4c8.2-.3 14.5-2.5 21-4.8 8-2.7 16.2-5.6 29.4-5.7 17 .9 27.9 10.7 34 18.8a52.2 52.2 0 0 1 11.2 31.2c-7.2-6.6-15.7-12.5-25.7-12.5h-2.1c-7.4 0-12.1 3.9-17.2 8-6 4.7-12 9.6-23.6 9.6-2.4 0-5-.2-7.7-.7l-4.5-.7 2.5 3.8c7.8 11.7 10.5 21.3 8.3 29.4-1.9 6.7-7.4 12.6-16.5 17.4-1.7-13.3-11.5-21.9-29.3-25.4l-.2-.1h-.3c-14.5.7-26 5.6-34 14.8-19 21.7-17 64.7-13.6 103.3l.3 2.7 2.5-1.1c9.2-4 15.7-11 20.2-22 5.9 19.7 17.8 33.3 27.5 44.5 8.6 9.8 15.4 17.6 14.8 25.7-.7 9-7 12.6-14.3 16.8-8 4.5-17.1 9.7-19.4 23l-1 5 4.1-3.1a34.9 34.9 0 0 1 21.6-8.7c6.2 0 12.3 2.2 18.8 6.5a270.1 270.1 0 0 0-14.7 96.6l.4 14.6 3.5-14.2c2.4-9.4 4.4-18 6.3-26.4 12.6-53.5 18.4-77.9 53.4-77.9 9.5 0 21.4 1.9 36.2 5.6a143.4 143.4 0 0 0-10.7 34.8c-2.2 10.2-4.3 20-8.1 28.4l-15.7 35 19.2-33.2c14.7-25.4 35.4-29.2 46.3-29.2 17.2 0 31.3 8.7 35.4 17.2-14 15.7-23.4 50-30.7 81.6l-1.2 5.3 4.3-3.2a39.5 39.5 0 0 1 23.4-8.7c11.4 0 23 6.4 34.7 19-17.5 33.5-31.6 77.5-42.2 130.7l-1.7 8.8 5.3-7.3c5-7 11.8-10.4 20.4-10.4a57 57 0 0 1 23.1 6.1c-11 19.3-16.1 49.6-20 79.7l-.3 2.5 2.5-.3 4-.3c6 0 8.5 2.3 9.7 4.6-18.5 11.2-23.5 42-29.1 77.4-4.4 27.6-9.4 59-22 83.8a82.8 82.8 0 0 1-67.3 47.7c-19.5-.6-33.3-5.9-42-16.1-15.6-18.1-11.8-48.8-8.7-73.4 1.4-11.6 2.6-21.7 1.7-29.1l-.2-2.4-2.4.8c-5.8 2-11.1 3-15.9 3-12.3 0-21.1-6.8-26.9-20.6l-2.3-5.6-1.4 6c-3.4 13.8 1.3 27.3 6.8 43 10 28 22.2 63 1.6 124.6l-.7 2.2 2.3.4c4.7.7 7.7 2.3 9.3 5.1-17.7 9.4-28.8 22.4-39.5 35-16.5 19.3-30.8 36-65.3 36l-4.4-.1c-13.6-.6-26.6-6-33.2-13.9-4-4.6-5.6-10-5-15.8 38.8-24.4 60.2-64.7 65.4-123.1v-.4c-3.8-40.9-22.5-73.8-59-103.5l-2.6-2.2-.5 3.5c-3.4 21.5-12.7 31.9-28.7 31.9-5.8 0-12.6-1.4-20.2-4.2l-4-1.4 1.5 4c15.8 44 18 74.5 6.3 93-7.4 11.9-20.7 19-39.7 21l-4.2.2c-65.7 0-80-68.2-92.8-128.3-7.2-34.4-14.1-67-30.1-82.2 2.3-2 7.9-4.3 16-5l2-.2-.2-2c-3-22.5-7.8-48.9-22-75.4a51 51 0 0 1 24-7.2c8 0 15 3 21.2 9.2l4.3 4.3-.9-6c-7.7-49-22-91.2-43.5-129.1 11-12.6 22.8-19 35.2-19 8.3 0 17 2.8 26.2 8.4l4 2.5-1-4.6c-7-31.7-18.5-60-35.3-86 14.1-10.2 27.2-15.3 39-15.3 16.9 0 31.6 10.1 45 30.9l4.8 7.4-1.1-8.8A241.8 241.8 0 0 0 173 582c13.6-3.4 25.6-5 35.6-5 43.2 0 46 31 48.6 61.2 1.5 16.7 2.8 32.4 11 42.3l3.2 3.8.3-5c2-32.3-3-65.5-14.9-98.7 8-2.3 14.7-3.5 20.7-3.5 9.3 0 16.3 2.9 21.4 8.8l3.4 4v-5.3c.2-10.3-9-17.7-17.8-24.8-7.8-6.3-15.2-12.2-15-19.2 0-5 4.1-10.7 12.5-17h.1c11-9.5 20.7-27 28.6-52.2a45.9 45.9 0 0 0 21.1 25.7l2.5 1.4.5-2.8c8.3-53.1-4.2-90-18.6-107-7.5-8.7-16.1-13.3-25-13.3-12.8 0-24.5 9.6-33.2 27.3-17.8-11.4-21.7-26.7-12.4-48l1.3-3-3.4.2-5.1.3c-11.6 0-16-4.3-20.8-8.8-4.2-4-8.6-8.1-17.4-8.4h-1c-13 0-21.5 3.2-28.6 19.2a50.6 50.6 0 0 1 9.1-34.8c10-14 26.2-23 45.8-25 9.4.6 15.1 3.8 20.7 6.9a42.4 42.4 0 0 0 22 6.8c5.5 0 10.2-2 14.8-3.8 4.6-1.9 8.8-3.6 13.6-3.6 5.6 0 11 2.4 17 7.6l5 4.3-1.8-6.4c-6.9-24-20.3-35.1-42-35.1a88 88 0 0 0-15.3 1.4 50.4 50.4 0 0 1 41.6-27c7.6 0 14.7 2.4 21.2 7.3zm26.3-61.5l-1.3 1.5a108.3 108.3 0 0 0-28 53 38 38 0 0 0-21-6.3 53 53 0 0 0-46.5 33.1l-.8 3.1 3.1-.6c6.9-1.4 12.7-2 18-2 17.8 0 29.5 8.3 36.2 26.3a26.3 26.3 0 0 0-14.4-4.7c-5.5 0-10.4 2-15 3.9-4.5 1.8-8.7 3.6-13.3 3.6-1 0-2-.1-2.9-.3h-.2c-7.2-.5-12-3.2-17.1-6-6-3.4-12.1-6.8-22.5-7.5H225.3a66.7 66.7 0 0 0-48.8 26.7A54.7 54.7 0 0 0 168 362l1.6 6.6 2.2-6.4c7.6-21.6 15.8-23.2 27.5-23.2h1c7.2.2 10.7 3.5 14.6 7.3a29.7 29.7 0 0 0 25.9 9.8c-8.7 22.4-3 39.1 17.1 51.1l2 1.1.9-2c8-17.4 18.9-27 30.5-27 7.7 0 15.3 4.2 22 12 13.6 16 25.3 50.6 18 100.8a45.4 45.4 0 0 1-18.7-27.9l-1.9-6.8-2 6.8c-7.9 27.7-17.7 46.6-29 56.3-9.4 7-14 13.7-14.2 20-.1 9 8.4 15.8 16.6 22.4 6.2 5 12.6 10.1 15.2 16a32.2 32.2 0 0 0-19.7-5.7c-6.9 0-14.7 1.3-23.9 4.2l-2 .6.8 2a243.5 243.5 0 0 1 15.7 93c-4.7-9-5.8-21.8-7-35.2-2.7-30.4-5.7-64.8-52.5-64.8-10.9 0-24 2-38.8 5.7l-2.2.6.9 2.1c8 19 13.6 36.8 16.7 54.5-13-17.2-27.2-25.6-43.4-25.6-13 0-27.5 5.8-42.8 17.1l-1.5 1.1 1 1.6c16.2 25 27.6 51.8 34.7 82a51.5 51.5 0 0 0-24.3-6.8c-14 0-27.1 7.2-39.1 21.4l-1 1.1.8 1.2c20.9 36.4 34.9 76.9 42.8 123.6a32.4 32.4 0 0 0-19.8-6.7c-8.3 0-17.6 3-27.6 8.7l-1.7 1 1 1.7a206 206 0 0 1 22 73.7c-10 1.2-16.2 4.7-18 7.8l-.9 1.4 1.3 1.1c16 13.7 23 46.6 30.3 81.4 6.6 31 13.4 63.1 27.2 88.3 16.7 30.4 40.8 44.4 74 43 20.4-2.2 34.7-9.9 42.8-22.8 12-19.2 10.4-49.5-4.6-92.7 6.5 2 12.4 3 17.6 3 17.1 0 27.8-10.7 32-31.8 33.8 28.3 51.2 59.7 54.8 98.4-5 57.4-26.1 96.8-64.3 120.4l-.8.5-.1 1c-1 7.3.9 14 5.7 19.8 8.9 10.5 25 14.8 36.1 15.2l4.6.1c36.3 0 51.9-18.1 68.3-37.4 10.8-12.6 22-25.7 40-34.8l1.5-.8-.6-1.6c-1.5-4.6-5.1-7.6-10.8-9 20-61.5 7.1-98.1-2.3-125-4.7-13.1-8.5-24-7.7-34.6 8.7 15.6 23 20.6 42.5 14.7.4 6.7-.7 15.6-2 25.8-3.1 25.3-7 57 9.7 76.4 9.4 11 24.6 16.8 45 17.4h.4a86.6 86.6 0 0 0 70.4-49.8c12.9-25.4 18-57 22.4-85 5.6-35.4 10.5-66 28.6-75.4l1.5-.8-.5-1.6c-1.3-4-4.8-8.7-14.1-8.7h-2c4-29.8 9.2-59.5 20.3-77.5l1.2-1.9-2-1a63.2 63.2 0 0 0-26.8-7.3c-7.3 0-13.5 2.2-18.7 6.6 10.5-50.3 24.3-92 41-124l.7-1.2-1-1c-12.7-14.1-25.7-21.3-38.5-21.3A41 41 0 0 0 569 713c6.8-28.9 16.3-62 29.4-75.9l.9-.9-.5-1.1c-4.3-11.7-21.7-21-39.5-21-9.9 0-27 3-41.5 19.7 1.4-5 2.5-10.3 3.7-15.8 2.7-12.4 5.5-25.2 11.5-35.9l1.3-2.2-2.5-.7a161 161 0 0 0-39.7-6.4c-18.2 0-30 6.5-38.4 20.9-7.8 13.5-12.4 33-18.8 60.1l-2.4 10c1-27.8 6-54.5 15-79.8l.4-1.4-1.2-.8a38 38 0 0 0-22.3-8.2c-6.5 0-12.8 2-19.4 6.2 3.2-7.7 9.7-11.4 16-15 7.7-4.3 15.5-8.8 16.3-19.9.8-9.8-6.5-18-15.7-28.6-10.5-12-23.5-26.9-28.3-49.2l-1.6-7.5-2.2 7.3c-3.7 12.2-9.4 20.2-17.7 24.6-3.1-37-4.6-77.4 13-97.4a41.4 41.4 0 0 1 30.9-13.4c17 3.5 25.6 11.6 26.1 24.7l.1 3 2.8-1.3c11.7-5.6 18.8-12.7 21.1-21.3 2.3-8.4.2-17.9-6.5-29l4 .1c13 0 20-5.6 26.2-10.5 4.7-3.8 8.7-7 14.7-7h.5c10.6-.8 19.8 6.7 27.4 14l2.6 2.6.7-3.5c2.4-10.5-2.4-26.2-11.5-38.2a49.2 49.2 0 0 0-37-20.4c-14 .2-22.9 3.3-30.8 6-6.2 2.2-12.2 4.2-20 4.4H435c-4.8 0-9.2-1.7-14-3.6-4.7-2-9.6-4-15-4-3.7 0-7.2 1-10.8 2.9 5.2-16.5 16-24.2 33.2-24.2 4.8 0 10.2.6 16 1.8l2.5.5-.1-2.6c-1.3-18.6-18.4-32.1-40.8-32.1-8.3 0-17 2-25 5.6a79.4 79.4 0 0 0-28.1-53.9z"/>
    <path fill="#fff200" fill-rule="evenodd" d="M162.7 1082.3c-33.9 12.6-37.7-43.2 1.8-29.3-29-131.4 37.3-210.8 116-240.2v40.9c-75.6 25.9-134.6 120.2-108 197.6 29.6-33.3 49.7 18.7 20.4 23 20.7 30.6-31.6 44-30.2 8M535.6 1082.3c34 12.6 37.8-43.2-1.7-29.3 28.9-131.4-37.3-210.8-116-240.2v40.9c75.6 25.9 134.6 120.2 108 197.6-29.6-33.3-49.7 18.7-20.5 23-20.6 30.6 31.7 44 30.2 8"/>
    <path fill="#231f20" d="M196.7 492.1c-8.2 2.1-15.5 5.5-22.6 8.7-8.7 4-17.7 8.2-28.5 10l.6 3.8c11.4-1.7 20.6-6 29.6-10.2 7.2-3.3 14-6.4 21.9-8.4zM506.7 491.7l-1 3.8c8 2 14.8 5.1 22 8.5 8.9 4.1 18.1 8.4 29.6 10.2l.6-4a104 104 0 0 1-28.6-9.8c-7-3.3-14.3-6.7-22.6-8.7M155 468l-2.2 3.3c9.2 5.8 18.6 7 27.7 8.3 6.5 1 12.6 1.8 18.6 4.1l1.5-3.6c-6.5-2.6-13.1-3.5-19.5-4.4-9.1-1.2-17.7-2.4-26.2-7.8M548.5 467.5c-8.5 5.3-17 6.5-26.1 7.7-6.4 1-13 1.8-19.5 4.4l1.4 3.7c6-2.4 12.2-3.2 18.6-4.1 9.1-1.3 18.5-2.6 27.7-8.4zM296.6 418.6l-4 .8c1 4.9.6 8.8-1 12l3.6 1.8c2-4 2.4-8.8 1.4-14.6M406.9 418.2a23 23 0 0 0 1.3 14.5l3.6-1.7c-1.6-3.2-2-7.2-1-12.1zM263.7 446.2l-3.9.6c.5 3.4 2.2 5.9 5 7.6l2-3.4a6.4 6.4 0 0 1-3-4.8M439.7 445.7a6.4 6.4 0 0 1-3 4.8l2 3.4c2.7-1.7 4.4-4.2 5-7.5zM191.4 451.4c-.4 6.2-1.3 6.5-3.4 7.2l1.2 3.7c4-1.3 5.6-3 6.2-10.6zM512 451l-4 .2c.6 7.6 2.3 9.4 6.3 10.7l1.2-3.8c-2.2-.7-3-1-3.5-7.2"/>
    <path fill="#231f20" d="M150.4 467.7l-1.1 3.8c7.4 2.3 11.4 11 10.6 13.8l3.8 1.1c1.5-5.2-4-15.9-13.3-18.7M553 467.2c-9.3 2.9-14.8 13.5-13.3 18.8l3.8-1.1c-.7-2.8 3.2-11.6 10.7-13.9zM162.3 506.9H160l.3 4c6.3-.4 10.5 1.3 11 4.7l3.9-.6c-.8-5.2-5.6-8.1-13-8.1M541.2 506.4c-7.5 0-12.3 3-13 8.1l3.9.6c.5-3.4 4.6-5.1 11-4.6l.3-4h-2.2"/>
    <path fill="#fff200" fill-rule="evenodd" d="M331.3 1149.6c-38.7 35.9-55.8 7.4-82.3 14.8-11.6 2-17.6 11.6-15.5 32.5-28.6-16.2-26.6-52.4 17.2-54.6 25.3 2.4 60.5 15.8 84.8-10.5z"/>
    <path fill="#231f20" d="M295.6 1149.8c14.8 0 26.8-4 36.4-12l-2.5 10.7c-17.3 15.9-29.4 17.7-37 17.7-6 0-11.6-1.3-17-2.5-5.5-1.3-11.1-2.6-17-2.6a37 37 0 0 0-10 1.4c-12.4 2.2-18.2 12.5-17.3 30.7-11-7.6-16.6-18.8-14.2-29 2.8-11.5 15.4-19 33.7-20 4.8.5 10 1.4 15.5 2.3 9.5 1.7 19.4 3.3 29.4 3.3m43.6-25l-5.2 5.6a48.7 48.7 0 0 1-38.4 15.5 174 174 0 0 1-28.8-3.3c-5.6-1-10.9-1.8-15.9-2.3H250.6c-20.2 1-34.2 9.6-37.4 23-3 12.9 4.7 27 19.3 35.3l3.3 2-.3-3.9c-1.9-18.5 2.7-28.4 13.8-30.3h.2c3-1 5.9-1.3 9-1.3 5.4 0 10.6 1.2 16 2.4a78.8 78.8 0 0 0 18 2.7c13.3 0 26-6.1 40.1-19.2l.5-.4z"/>
    <path fill="#fff200" fill-rule="evenodd" d="M279.5 1230.2c-22 0-43-31.3-22.8-57.8 19.7 35.6 64.4 15.8 76.1-38.8-21.9 17.1-47.5-.3-37.4-23.4 13.3 14.4 27 18.7 49.4-2.1 2.3 46.7-21 101.7-65.3 122"/>
    <path fill="#231f20" d="M317.4 1124.3c7.7 0 16.1-3.9 25.5-12 .7 43.2-20.5 95.6-63.8 115.9-9.8-.2-19.8-7.3-25-17.8a33.8 33.8 0 0 1 2.5-34.4c6.7 10.5 16.1 16.3 26.9 16.3 10.5 0 21.4-5.5 30.6-15.5a91 91 0 0 0 20.7-42.7l1.1-5.4-4.3 3.4a28.1 28.1 0 0 1-17.2 6.4c-6.9 0-13-3.1-16.4-8.3-3-4.7-3.7-10.4-1.8-16.4 7.3 7.3 13.9 10.5 21.2 10.5m29.2-20.5l-3.2 2.8c-10 9.3-18.5 13.8-26 13.8-6.8 0-13.2-3.6-20.5-11.6l-2-2.2-1.3 2.8a23.5 23.5 0 0 0 1 23 23.3 23.3 0 0 0 19.8 10.1c5.2 0 10.4-1.5 15.3-4.4-8.6 33-29.3 50.2-46.2 50.2-10.1 0-19-6-25-16.9l-1.5-2.7-1.9 2.5a38 38 0 0 0-4.5 41c6 12.1 17.3 20 29 20h.4l.4-.2c46.5-21.5 68.6-78.7 66.4-124z"/>
    <path fill="#a7a5a6" d="M299.6 609l-22.8 151.6c-3-.7-5.9-1-8.6-1-14.7 0-25.4 10.2-32 30.6-23-3.3-38.2 4.6-46.2 24.1-15.2-1.4-31.8 2-42.1 34.3-22.4 5.5-31.9 20.3-29.1 45.4-17.6 3.4-28.1 16-32.2 38.4l4 .7c3.8-21.7 13.6-33 30.7-35.5l1.9-.3-.3-2c-3.2-24.5 5.3-38.2 27-43l1.1-.3.3-1.1c9.7-31.5 24.8-34.2 39.7-32.5l1.5.2.6-1.4c7.4-19.3 21.4-26.5 44-22.8l1.8.3.5-1.7c7.4-24.1 20-33.3 38.5-28l2.1.6 23.5-156z"/>
    <path fill="#a7a5a6" d="M94.3 871.7l-3.6 1.6 12.4 29.3 3.7-1.5zM114.9 747.4l-3.8 1.2L143 852l3.9-1.2zM143.4 736l-3.9.9 22.1 87.8 3.8-1zM162 678l-3.8 1.2L199 801.7l3.7-1.3zM190.4 643.6l-3.8 1L223 792l3.9-1zM224.3 647.9l-3.8 1 29 119.4 3.9-1zM271.7 679l-4 .4 8.8 84 3.9-.5zM281.2 607l-3.8.9 13.8 57.9 3.9-1zM398 611.7l-3.9.6 23.5 156.1 2.2-.6c18.5-5.3 31 3.9 38.5 28l.5 1.7 1.7-.3c22.6-3.7 36.6 3.5 44 22.8l.6 1.4 1.5-.1c15-1.8 30 1 39.7 32.4l.4 1 1 .3c21.7 5 30.3 18.6 27 43.2l-.2 2 1.9.2c17 2.6 26.8 13.8 30.7 35.5l4-.7c-4.1-22.5-14.6-35-32.2-38.4 2.8-25-6.8-40-29.1-45.4-10.3-32.2-26.9-35.7-42.1-34.2-8-19.6-23.2-27.5-46.2-24.2C453.7 769 440 759 421 763.4z"/>
    <path fill="#a7a5a6" d="M603.3 874.6L591 903.9l3.6 1.5 12.5-29.3zM582.8 750.2l-32.1 103.5 3.8 1.1 32-103.4zM554.3 738.7l-22 87.9 3.8 1 22-87.9zM535.7 680.8L495 803.3l3.8 1.2L539.4 682zM507.2 646.4l-36.5 147.4 3.8 1 36.6-147.4zM473.4 650.7l-29.1 119.5 3.8 1 29.1-119.6zM426 681.8l-8.7 84 4 .3 8.6-83.9zM416.4 609.8l-13.8 57.9 3.9.9 13.8-57.9z"/>
    <path fill="#fff200" fill-rule="evenodd" d="M322.2 1212.2c1-.5 2.9-.5 2.8.3-.8 9.2 3.8 10.8 11 10.3 7.8-1.7 3.2-17.3-7.6-17-8.6.1-16.4 5.3-14.3 19.4.2 1.1-.8 1.4-1.8 1.4-10.6-9.6 3.3-27.5 16-26.6 9.5.4 18.2 9.3 17.1 19.3-1.8 13.3-31.5 12.5-23.2-7.1"/>
    <path fill="#fff" fill-rule="evenodd" d="M849.5 701.7c-37.2-24.2-159.4-44.7-129-127.2 29.3-43.4 71.3-74.5 129-90.7 84.1-19.5 74.6 116.8 87.2 165.4-38.4-1.6-70.1 10.4-87.2 52.5"/>
    <path fill="#231f20" d="M850.1 486.1a66.5 66.5 0 0 1 14.8-1.8c21.7 0 37.3 13.3 47.5 40.5 9 24.1 12.5 54.8 15.5 81.8 1.8 15.7 3.3 29.5 5.7 40.1h-3.7c-39.8 0-66.5 16.8-81.5 51.5-8.9-5.3-21.2-10.3-35.4-16-24.7-10.2-52.8-21.6-72.2-38.4-22-19.1-27.9-41.4-18.1-68.2 29.8-44 72.6-74.1 127.4-89.5m14.8-6.6c-5 0-10.3.6-16 2-56 15.7-100 46.5-130.4 91.7l-.1.2-.1.3c-24 65.2 43.5 92.8 93 112.9 15.2 6.2 28.3 11.6 36.9 17.1l2.4 1.6 1.1-2.7c14.2-34.9 39-51.1 78.2-51.1l6.7.1 3.2.2-.8-3.2c-2.7-10.6-4.5-26.1-6.3-42.5-6-53.4-14.2-126.6-67.8-126.6"/>
    <path fill="#fff" fill-rule="evenodd" d="M1017.5 699.6c37.2-24.2 159.4-44.8 129-127.3-29.3-43.3-71.3-74.5-129-90.7-84.1-19.4-74.6 116.8-87.2 165.5 38.4-1.7 70.1 10.3 87.2 52.5"/>
    <path fill="#231f20" d="M933.4 644.6a404 404 0 0 0 5.7-40.1c3-27 6.4-57.8 15.5-81.9 10.2-27.2 25.8-40.5 47.5-40.5 4.6 0 9.6.6 14.8 1.8 54.8 15.4 97.6 45.5 127.4 89.6 9.8 26.7 3.8 49-18.1 68.1-19.4 16.8-47.5 28.3-72.3 38.4-14 5.7-26.4 10.7-35.3 16-15-34.6-41.7-51.5-81.6-51.5h-3.6m68.7-167.2c-53.6 0-61.8 73.2-67.8 126.6-1.8 16.4-3.6 31.9-6.3 42.6l-.8 3.1 3.2-.1 6.6-.2c39.3 0 64.1 16.3 78.3 51.2l1 2.7 2.5-1.6c8.6-5.6 21.7-11 37-17.2 49.3-20.1 117-47.7 93-112.9l-.2-.3-.1-.2c-30.5-45.2-74.3-76-130.4-91.7-5.7-1.3-11-2-16-2"/>
    <path fill="#fff" fill-rule="evenodd" d="M985.8 802.3c35.6 27.2 102 134.4 168.8 76 30.6-43.5 45.2-94.9 40.4-156-11-87.5-135.4-30.1-185.4-24.9 14.9 36.3 9.8 73.6-23.8 105"/>
    <path fill="#231f20" d="M1013 699.4c10.8-1.4 24.2-4.8 39.6-8.7 26.2-6.7 55.8-14.2 81.4-14.2 35.5 0 54.7 15.1 58.6 46.1 4.6 58-8.8 109.9-39.8 154a59.3 59.3 0 0 1-39.7 16.5c-36 0-70.2-36.1-97.6-65.1a318.4 318.4 0 0 0-26-25.8c15.3-15 25-31.8 28.7-50a94 94 0 0 0-5.2-52.8m121-27.7c-26.2 0-56.1 7.6-82.6 14.3-16 4-31.1 7.9-42 9l-3.3.4 1.2 3c15.7 38 7.7 73.4-23.2 102.2l-2 2 2.2 1.7c7.8 5.9 17 15.7 27.7 27 28 29.7 63 66.6 101.1 66.6 15.1 0 29.6-6 43.1-17.8l.2-.2.2-.2c31.8-45.2 45.5-98.2 40.8-157.5v-.1c-2.3-18.1-9.5-31.5-21.6-39.8-10.3-7.1-24-10.6-41.8-10.6"/>
    <path fill="#fff" fill-rule="evenodd" d="M873 800.4c-35.6 27.1-97.2 137-164 78.6-30.6-43.5-45.3-94.8-40.4-156 11-87.5 135.4-30.1 185.4-24.9-14.9 36.3-14.6 71 19 102.3"/>
    <path fill="#231f20" d="M671 723.3c3.9-31 23-46 58.5-46 25.7 0 55.3 7.4 81.5 14 15.3 4 28.8 7.4 39.6 8.8a101.4 101.4 0 0 0-7.7 51.3c2.6 18 11.2 34 26.4 48.8a290 290 0 0 0-27.3 28.3c-26 29-58.2 65-92.8 65-13.4 0-26-5.3-38.4-16.1-31-44.2-44.4-96-39.8-154m58.6-51c-17.8 0-31.5 3.5-41.9 10.6-12 8.3-19.2 21.7-21.5 39.8-4.7 59.4 9 112.4 40.8 157.6l.2.2.2.2a63.2 63.2 0 0 0 41.8 17.5c36.7 0 69.8-37 96.3-66.6a248.5 248.5 0 0 1 29-29.4l2.2-1.7-2-2c-29.3-27.2-35.2-58.9-18.5-99.6l1.3-3-3.2-.3c-11-1.1-26.1-5-42.1-9-26.5-6.7-56.4-14.3-82.6-14.3"/>
    <path fill="#fff" fill-rule="evenodd" d="M985.8 802.3c36.3 37.3 112.9 124.4 40.6 172.4-43 25.5-113.2 24.8-178 5-91.6-32.4-16-137 29-176.5 35 23.4 65.2 24 108.4-.9"/>
    <path fill="#231f20" d="M928.4 823.3c17.1 0 35.3-5.7 57-18 48.7 50.3 71.7 92 68.2 124.4-1.8 17.1-11.4 31.6-28.5 43-21.1 12.5-50.1 19.1-83.8 19.1-29.4 0-61.2-5-92.1-14.5-23.3-8.2-37-21.8-40.6-40.5-8.3-43 37.4-102.3 69-130.5 17.9 11.6 34 17 50.8 17m57.8-24l-1.6 1c-21.6 12.4-39.5 18.1-56.2 18.1-16.3 0-32-5.4-49.6-17.2l-1.6-1-1.4 1.2c-32.5 28.5-80.7 90.6-72 136.3 4 20.5 18.7 35.4 43.9 44.2a324.2 324.2 0 0 0 93.6 14.7c34.6 0 64.5-6.8 86.3-19.8h.1c18.4-12.3 28.8-28 30.7-46.6 3.6-34-20.2-77.7-71-129.5z"/>
    <path fill="#fff200" fill-rule="evenodd" d="M930.7 831.1a97.6 97.6 0 1 0 0-195.2 97.6 97.6 0 0 0 0 195.2"/>
    <path fill="#231f20" d="M930.7 828.7a95.3 95.3 0 0 1 0-190.4 95.3 95.3 0 0 1 0 190.4m0-195.2a100.1 100.1 0 0 0 0 200 100.1 100.1 0 0 0 0-200M777.3 558.6c-2.6 0-5.2.2-7.7.6a43 43 0 0 0-34 26.3c-4.8 13.6-.4 29 12.3 43.3l3.6-3.2c-14.7-16.6-14.3-30.1-11.3-38.5a38.1 38.1 0 0 1 30.2-23.2 37 37 0 0 1 36 13.3l3.8-3c-8-10-20-15.6-33-15.6M1089.7 556.4c-13 0-24.9 5.6-33 15.7l3.9 3a37 37 0 0 1 36-13.3 38.1 38.1 0 0 1 30.2 23.1c3 8.4 3.4 22-11.3 38.6l3.6 3.2c12.7-14.4 17-29.8 12.2-43.4a43 43 0 0 0-33.9-26.3c-2.6-.4-5.1-.6-7.7-.6M1123.8 792.2l-1.5 4.6a37.6 37.6 0 0 1 25 30c2.7 14.8-2 29.5-11.7 37.5-6.9 5.6-19.3 10.6-39.7 2.5l-1.7 4.4c17.6 7 33.4 6 44.4-3.2a44.2 44.2 0 0 0 13.4-42 42.8 42.8 0 0 0-28.2-33.8M739.8 793a42.8 42.8 0 0 0-28.2 33.7 44.2 44.2 0 0 0 13.4 42c11 9.1 26.8 10.3 44.4 3.3l-1.8-4.5c-20.4 8-32.8 3.1-39.6-2.5-9.8-8-14.4-22.7-11.7-37.4a37.6 37.6 0 0 1 25-30.1zM1029 906.4l-4.8.7c3.1 21.7-6 33.7-14.2 39.9a52.5 52.5 0 0 1-51 4.8c-12.3-5.4-19.5-15-20.5-26.9l-4.8.4a36.7 36.7 0 0 0 23.2 31c18 8 41 5.8 56-5.5 13-9.8 18.8-25.6 16-44.4M856.7 501.9h-2c-20.8.8-41.3 14.1-47.8 31-5.2 13.4-1 27.6 11.7 40.1l3.4-3.4c-11.4-11.2-15.1-23.3-10.6-35 5.7-14.9 24.9-27.1 43.5-27.9 8-.3 22.7 1.4 29.8 16.4l4.4-2.1a34.1 34.1 0 0 0-32.4-19.1M1010.3 499.7a34.1 34.1 0 0 0-32.4 19.1l4.4 2c7.1-14.9 21.7-16.6 29.8-16.2 18.6.7 37.8 13 43.5 27.8 4.5 11.7.8 23.8-10.6 35l3.4 3.4c12.7-12.5 16.9-26.7 11.7-40.1-6.5-16.8-27-30.1-47.8-31h-2M1146.4 697.6l-.5 4.8c16.5 1.6 23.2 15 25.7 22.8 5.9 18.5.9 41.4-11.5 52.2-9.3 8-21.8 8.7-36 1.9l-2.1 4.3c20.4 9.8 33.7 4 41.3-2.6 14-12 19.4-36.7 12.8-57.3-4.8-15.2-15.7-24.7-29.7-26M717.2 698.3c-14 1.4-24.9 10.9-29.8 26.1-6.6 20.6-1 45.2 12.9 57.3 7.6 6.6 21 12.4 41.3 2.6l-2.1-4.3c-14.3 6.8-26.7 6.2-36-2C691 767.5 686 744.5 692 726c2.5-7.8 9.2-21.2 25.6-22.8zM836.8 908.5a24.8 24.8 0 0 0 1.3 32.8c15.8 18.6 54.3 27.4 74.9 17.2 12.3-6.2 17.2-18.5 13.6-34.5l-4.7 1.1c3.1 14-.6 23.8-11.1 29-18.6 9.3-54.7 1-69-15.9-5.1-6-9.4-15.4-1.1-26.9z"/>
    <path fill="#fff200" fill-rule="evenodd" d="M931 747.3a12.7 12.7 0 1 0 0-25.3 12.7 12.7 0 0 0 0 25.3"/>
    <path fill="#231f20" d="M931 744.9a10.3 10.3 0 1 1 0-20.5 10.3 10.3 0 0 1 0 20.5m0-25.3a15 15 0 1 0 0 30.1 15 15 0 0 0 0-30.1"/>
    <path fill="#fff200" fill-rule="evenodd" d="M975.1 733.8a12.7 12.7 0 1 0 0-25.3 12.7 12.7 0 0 0 0 25.3"/>
    <path fill="#231f20" d="M975.1 731.4a10.3 10.3 0 1 1 0-20.6 10.3 10.3 0 0 1 0 20.6m0-25.4a15 15 0 1 0 0 30.2 15 15 0 0 0 0-30.2"/>
    <path fill="#fff200" fill-rule="evenodd" d="M942.3 701.8a12.7 12.7 0 1 0 0-25.3 12.7 12.7 0 0 0 0 25.3"/>
    <path fill="#231f20" d="M942.3 699.4a10.3 10.3 0 1 1 0-20.5 10.3 10.3 0 0 1 0 20.5m0-25.3a15 15 0 1 0 0 30.1 15 15 0 0 0 0-30.1"/>
    <path fill="#fff200" fill-rule="evenodd" d="M897.9 712.4a12.7 12.7 0 1 0 0-25.3 12.7 12.7 0 0 0 0 25.3"/>
    <path fill="#231f20" d="M897.9 710a10.3 10.3 0 1 1 0-20.5 10.3 10.3 0 0 1 0 20.5m0-25.3a15 15 0 1 0 0 30.2 15 15 0 0 0 0-30.2"/>
    <path fill="#fff200" fill-rule="evenodd" d="M883.7 760a12.7 12.7 0 1 0 0-25.4 12.7 12.7 0 0 0 0 25.4"/>
    <path fill="#231f20" d="M883.7 757.5a10.3 10.3 0 1 1 0-20.5 10.3 10.3 0 0 1 0 20.5m0-25.3a15 15 0 1 0 0 30.2 15 15 0 0 0 0-30.2"/>
    <path fill="#fff200" fill-rule="evenodd" d="M917 792a12.7 12.7 0 1 0 0-25.4 12.7 12.7 0 0 0 0 25.3"/>
    <path fill="#231f20" d="M917 789.5a10.3 10.3 0 1 1 0-20.5 10.3 10.3 0 0 1 0 20.5m0-25.3a15 15 0 1 0 0 30.2 15 15 0 0 0 0-30.2"/>
    <path fill="#fff200" fill-rule="evenodd" d="M965.4 778.6a12.7 12.7 0 1 0 0-25.3 12.7 12.7 0 0 0 0 25.3"/>
    <path fill="#231f20" d="M965.4 776.2a10.3 10.3 0 1 1 0-20.5 10.3 10.3 0 0 1 0 20.5m0-25.3a15 15 0 1 0 0 30.1 15 15 0 0 0 0-30.1"/>
    <path fill="#fff200" fill-rule="evenodd" d="M1008 745.7a12.7 12.7 0 1 0 0-25.3 12.7 12.7 0 0 0 0 25.3"/>
    <path fill="#231f20" d="M1008 743.3a10.3 10.3 0 1 1 0-20.5 10.3 10.3 0 0 1 0 20.5m0-25.3a15 15 0 1 0 0 30.2 15 15 0 0 0 0-30.2"/>
    <path fill="#fff200" fill-rule="evenodd" d="M996 706.7a12.7 12.7 0 1 0 0-25.3 12.7 12.7 0 0 0 0 25.3"/>
    <path fill="#231f20" d="M996 704.3a10.3 10.3 0 1 1 0-20.5 10.3 10.3 0 0 1 0 20.5m0-25.3a15 15 0 1 0 0 30.1 15 15 0 0 0 0-30.1"/>
    <path fill="#fff200" fill-rule="evenodd" d="M966.3 680a12.7 12.7 0 1 0 0-25.3 12.7 12.7 0 0 0 0 25.3"/>
    <path fill="#231f20" d="M966.3 677.6a10.3 10.3 0 1 1 0-20.5 10.3 10.3 0 0 1 0 20.5m0-25.3a15 15 0 1 0 0 30.2 15 15 0 0 0 0-30.2"/>
    <path fill="#fff200" fill-rule="evenodd" d="M864.1 707.1a12.7 12.7 0 1 0 0-25.3 12.7 12.7 0 0 0 0 25.3"/>
    <path fill="#231f20" d="M864.1 704.7a10.3 10.3 0 1 1 0-20.5 10.3 10.3 0 0 1 0 20.5m0-25.3a15 15 0 1 0 0 30.2 15 15 0 0 0 0-30.2"/>
    <path fill="#fff200" fill-rule="evenodd" d="M931.2 671.2a12.7 12.7 0 1 0 0-25.4 12.7 12.7 0 0 0 0 25.4"/>
    <path fill="#231f20" d="M931.2 668.7a10.3 10.3 0 1 1 0-20.5 10.3 10.3 0 0 1 0 20.5m0-25.3a15 15 0 1 0 0 30.2 15 15 0 0 0 0-30.2"/>
    <path fill="#fff200" fill-rule="evenodd" d="M893 679.1a12.7 12.7 0 1 0 0-25.3 12.7 12.7 0 0 0 0 25.3"/>
    <path fill="#231f20" d="M893 676.7a10.3 10.3 0 1 1 0-20.5 10.3 10.3 0 0 1 0 20.5m0-25.3a15 15 0 1 0 0 30.2 15 15 0 0 0 0-30.2"/>
    <path fill="#fff200" fill-rule="evenodd" d="M853 746.2a12.7 12.7 0 1 0 0-25.3 12.7 12.7 0 0 0 0 25.3"/>
    <path fill="#231f20" d="M853 743.8a10.3 10.3 0 1 1 0-20.5 10.3 10.3 0 0 1 0 20.5m0-25.3a15 15 0 1 0 0 30.1 15 15 0 0 0 0-30.1"/>
    <path fill="#fff200" fill-rule="evenodd" d="M862.8 785.7a12.7 12.7 0 1 0 0-25.3 12.7 12.7 0 0 0 0 25.3"/>
    <path fill="#231f20" d="M862.8 783.3a10.3 10.3 0 1 1 0-20.5 10.3 10.3 0 0 1 0 20.5m0-25.3a15 15 0 1 0 0 30.2 15 15 0 0 0 0-30.2"/>
    <path fill="#fff200" fill-rule="evenodd" d="M890.3 812.8a12.7 12.7 0 1 0 0-25.3 12.7 12.7 0 0 0 0 25.3"/>
    <path fill="#231f20" d="M890.3 810.4a10.3 10.3 0 1 1 0-20.5 10.3 10.3 0 0 1 0 20.5m0-25.3a15 15 0 1 0 0 30.1 15 15 0 0 0 0-30.1"/>
    <path fill="#fff200" fill-rule="evenodd" d="M930.3 823.4a12.7 12.7 0 1 0 0-25.3 12.7 12.7 0 0 0 0 25.3"/>
    <path fill="#231f20" d="M930.3 821a10.3 10.3 0 1 1 0-20.5 10.3 10.3 0 0 1 0 20.5m0-25.3a15 15 0 1 0 0 30.2 15 15 0 0 0 0-30.2"/>
    <path fill="#fff200" fill-rule="evenodd" d="M969.8 812.3a12.7 12.7 0 1 0 0-25.3 12.7 12.7 0 0 0 0 25.3"/>
    <path fill="#231f20" d="M969.8 810a10.3 10.3 0 1 1 0-20.6 10.3 10.3 0 0 1 0 20.5m0-25.3a15 15 0 1 0 0 30.2 15 15 0 0 0 0-30.2"/>
    <path fill="#fff200" fill-rule="evenodd" d="M998.7 783a12.7 12.7 0 1 0 0-25.3 12.7 12.7 0 0 0 0 25.3"/>
    <path fill="#231f20" d="M998.7 780.6a10.3 10.3 0 1 1 0-20.5 10.3 10.3 0 0 1 0 20.5m0-25.3a15 15 0 1 0 0 30.2 15 15 0 0 0 0-30.2"/>
    <path fill="#fff200" fill-rule="evenodd" d="M968.6 704.5a9.2 9.2 0 1 0 0-18.5 9.2 9.2 0 0 0 0 18.5"/>
    <path fill="#231f20" d="M968.6 702a6.8 6.8 0 1 1 0-13.6 6.8 6.8 0 0 1 0 13.6m0-18.4a11.6 11.6 0 1 0 0 23.3 11.6 11.6 0 0 0 0-23.3"/>
    <path fill="#fff200" fill-rule="evenodd" d="M947.2 724.5a9.2 9.2 0 1 0 0-18.4 9.2 9.2 0 0 0 0 18.4"/>
    <path fill="#231f20" d="M947.2 722.1a6.8 6.8 0 1 1 0-13.6 6.8 6.8 0 0 1 0 13.6m0-18.4a11.6 11.6 0 1 0 0 23.3 11.6 11.6 0 0 0 0-23.3"/>
    <path fill="#fff200" fill-rule="evenodd" d="M921.9 717.4a9.2 9.2 0 1 0 0-18.4 9.2 9.2 0 0 0 0 18.4"/>
    <path fill="#231f20" d="M921.9 715a6.8 6.8 0 1 1 0-13.6 6.8 6.8 0 0 1 0 13.6m0-18.4a11.6 11.6 0 1 0 0 23.3 11.6 11.6 0 0 0 0-23.3"/>
    <path fill="#fff200" fill-rule="evenodd" d="M915.6 691.2a9.2 9.2 0 1 0 0-18.4 9.2 9.2 0 0 0 0 18.4"/>
    <path fill="#231f20" d="M915.6 688.8a6.8 6.8 0 1 1 0-13.6 6.8 6.8 0 0 1 0 13.6m0-18.4a11.6 11.6 0 1 0 0 23.3 11.6 11.6 0 0 0 0-23.3"/>
    <path fill="#fff200" fill-rule="evenodd" d="M876.1 729a9.2 9.2 0 1 0 0-18.4 9.2 9.2 0 0 0 0 18.4"/>
    <path fill="#231f20" d="M876.1 726.6a6.8 6.8 0 1 1 0-13.6 6.8 6.8 0 0 1 0 13.6m0-18.4a11.6 11.6 0 1 0 0 23.2 11.6 11.6 0 0 0 0-23.2"/>
    <path fill="#fff200" fill-rule="evenodd" d="M904.1 736.5a9.2 9.2 0 1 0 0-18.4 9.2 9.2 0 0 0 0 18.4"/>
    <path fill="#231f20" d="M904.1 734.1a6.8 6.8 0 1 1 0-13.6 6.8 6.8 0 0 1 0 13.6m0-18.4a11.6 11.6 0 1 0 0 23.3 11.6 11.6 0 0 0 0-23.3"/>
    <path fill="#fff200" fill-rule="evenodd" d="M910.8 761.8a9.2 9.2 0 1 0 0-18.4 9.2 9.2 0 0 0 0 18.4"/>
    <path fill="#231f20" d="M910.8 759.4a6.8 6.8 0 1 1 0-13.6 6.8 6.8 0 0 1 0 13.6m0-18.4a11.6 11.6 0 1 0 0 23.3 11.6 11.6 0 0 0 0-23.3"/>
    <path fill="#fff200" fill-rule="evenodd" d="M936.5 771.6a9.2 9.2 0 1 0 0-18.4 9.2 9.2 0 0 0 0 18.4"/>
    <path fill="#231f20" d="M936.5 769.2a6.8 6.8 0 1 1 0-13.6 6.8 6.8 0 0 1 0 13.6m0-18.4a11.6 11.6 0 1 0 0 23.2 11.6 11.6 0 0 0 0-23.2"/>
    <path fill="#fff200" fill-rule="evenodd" d="M956.5 748.5a9.2 9.2 0 1 0 0-18.4 9.2 9.2 0 0 0 0 18.4"/>
    <path fill="#231f20" d="M956.5 746.1a6.8 6.8 0 1 1 0-13.6 6.8 6.8 0 0 1 0 13.6m0-18.4a11.6 11.6 0 1 0 0 23.3 11.6 11.6 0 0 0 0-23.3"/>
    <path fill="#fff200" fill-rule="evenodd" d="M944.5 794.7a9.2 9.2 0 1 0 0-18.4 9.2 9.2 0 0 0 0 18.4"/>
    <path fill="#231f20" d="M944.5 792.3a6.8 6.8 0 1 1 0-13.6 6.8 6.8 0 0 1 0 13.6m0-18.4a11.6 11.6 0 1 0 0 23.2 11.6 11.6 0 0 0 0-23.2"/>
    <path fill="#fff200" fill-rule="evenodd" d="M890.8 781.8a9.2 9.2 0 1 0 0-18.4 9.2 9.2 0 0 0 0 18.4"/>
    <path fill="#231f20" d="M890.8 779.4a6.8 6.8 0 1 1 0-13.6 6.8 6.8 0 0 1 0 13.6m0-18.4a11.6 11.6 0 1 0 0 23.3 11.6 11.6 0 0 0 0-23.3"/>
    <path fill="#fff200" fill-rule="evenodd" d="M982.2 756a9.2 9.2 0 1 0 0-18.4 9.2 9.2 0 0 0 0 18.5"/>
    <path fill="#231f20" d="M982.2 753.7a6.8 6.8 0 1 1 0-13.7 6.8 6.8 0 0 1 0 13.7m0-18.5a11.6 11.6 0 1 0 0 23.3 11.6 11.6 0 0 0 0-23.3"/>
    <path fill="#fff200" fill-rule="evenodd" d="M1014 716.1a5.6 5.6 0 1 0 0-11.2 5.6 5.6 0 0 0 0 11.2"/>
    <path fill="#231f20" d="M1014 713.7a3.2 3.2 0 1 1 0-6.4 3.2 3.2 0 0 1 0 6.4m0-11.2a8 8 0 1 0 0 16 8 8 0 0 0 0-16"/>
    <path fill="#fff200" fill-rule="evenodd" d="M989.8 676a5.6 5.6 0 1 0 0-11.1 5.6 5.6 0 0 0 0 11.2"/>
    <path fill="#231f20" d="M989.8 673.7a3.2 3.2 0 1 1 0-6.4 3.2 3.2 0 0 1 0 6.4m0-11.2a8 8 0 1 0 0 16 8 8 0 0 0 0-16"/>
    <path fill="#fff200" fill-rule="evenodd" d="M953 654.8a5.6 5.6 0 1 0 0-11.2 5.6 5.6 0 0 0 0 11.2"/>
    <path fill="#231f20" d="M953 652.4a3.2 3.2 0 1 1 0-6.4 3.2 3.2 0 0 1 0 6.4m0-11.2a8 8 0 1 0 0 16 8 8 0 0 0 0-16"/>
    <path fill="#fff200" fill-rule="evenodd" d="M908.7 655a5.6 5.6 0 1 0 0-11.2 5.6 5.6 0 0 0 0 11.2"/>
    <path fill="#231f20" d="M908.7 652.6a3.2 3.2 0 1 1 0-6.4 3.2 3.2 0 0 1 0 6.4m0-11.2a8 8 0 1 0 0 16 8 8 0 0 0 0-16"/>
    <path fill="#fff200" fill-rule="evenodd" d="M868 676a5.6 5.6 0 1 0 0-11.2 5.6 5.6 0 0 0 0 11.2"/>
    <path fill="#231f20" d="M868 673.6a3.2 3.2 0 1 1 0-6.4 3.2 3.2 0 0 1 0 6.4m0-11.2a8 8 0 1 0 0 16 8 8 0 0 0 0-16"/>
    <path fill="#fff200" fill-rule="evenodd" d="M845.6 715a5.6 5.6 0 1 0 0-11.2 5.6 5.6 0 0 0 0 11.1"/>
    <path fill="#231f20" d="M845.6 712.5a3.2 3.2 0 1 1 0-6.3 3.2 3.2 0 0 1 0 6.3m0-11.1a8 8 0 1 0 0 16 8 8 0 0 0 0-16"/>
    <path fill="#fff200" fill-rule="evenodd" d="M845.2 761.6a5.6 5.6 0 1 0 0-11.1 5.6 5.6 0 0 0 0 11.1"/>
    <path fill="#231f20" d="M845.2 759.2a3.2 3.2 0 1 1 0-6.3 3.2 3.2 0 0 1 0 6.3m0-11.2a8 8 0 1 0 0 16 8 8 0 0 0 0-16"/>
    <path fill="#fff200" fill-rule="evenodd" d="M867.7 800.1a5.6 5.6 0 1 0 0-11.2 5.6 5.6 0 0 0 0 11.2"/>
    <path fill="#231f20" d="M867.7 797.7a3.2 3.2 0 1 1 0-6.3 3.2 3.2 0 0 1 0 6.3m0-11.2a8 8 0 1 0 0 16 8 8 0 0 0 0-16"/>
    <path fill="#fff200" fill-rule="evenodd" d="M906.5 823a5.6 5.6 0 1 0 0-11.3 5.6 5.6 0 0 0 0 11.2"/>
    <path fill="#231f20" d="M906.5 820.5a3.2 3.2 0 1 1 0-6.4 3.2 3.2 0 0 1 0 6.4m0-11.2a8 8 0 1 0 0 16 8 8 0 0 0 0-16"/>
    <path fill="#fff200" fill-rule="evenodd" d="M954.2 822.7a5.6 5.6 0 1 0 0-11.2 5.6 5.6 0 0 0 0 11.2"/>
    <path fill="#231f20" d="M954.2 820.3a3.2 3.2 0 1 1 0-6.4 3.2 3.2 0 0 1 0 6.4m0-11.2a8 8 0 1 0 0 16 8 8 0 0 0 0-16"/>
    <path fill="#fff200" fill-rule="evenodd" d="M991.6 798.4a5.6 5.6 0 1 0 0-11.2 5.6 5.6 0 0 0 0 11.2"/>
    <path fill="#231f20" d="M991.6 796a3.2 3.2 0 1 1 0-6.4 3.2 3.2 0 0 1 0 6.3m0-11.1a8 8 0 1 0 0 16 8 8 0 0 0 0-16"/>
    <path fill="#fff200" fill-rule="evenodd" d="M1016.2 760a5.6 5.6 0 1 0 0-11 5.6 5.6 0 0 0 0 11"/>
    <path fill="#231f20" d="M1016.2 757.7a3.2 3.2 0 1 1 0-6.4 3.2 3.2 0 0 1 0 6.4m0-11.2a8 8 0 1 0 0 16 8 8 0 0 0 0-16"/>
    <path fill="#231f20" d="M641.3 35.4h5c271 0 559.2 206.4 572.4 551.7V1297H57l5.7-711.6C64.2 315 280.7 35.4 640.2 35.4zm5-14.2h-6c-89.4 0-173.4 17-249.8 50.5A564.7 564.7 0 0 0 205 202.8 580.3 580.3 0 0 0 89 384.1a552 552 0 0 0-40.6 201l-5.8 726h1190.2V586.6a587.5 587.5 0 0 0-59.7-240.3 566.7 566.7 0 0 0-138-177.5C926.8 75 785 21.2 646.2 21.2"/>
    <path fill="#231f20" d="M635.7 28.3L632 1304h11.4L647 28.5z"/>
  </g>
</svg>
