<svg xmlns="http://www.w3.org/2000/svg" viewBox="0 0 180.97 37.04">
  <defs>
    <clipPath id="a">
      <path d="M0 0h718.11v170.08H0z"/>
    </clipPath>
  </defs>
  <path d="M139.81 14.65q-.73.62-1.32.88-.6.25-1.26.25-1.23 0-1.84-.66-.6-.67-.6-2.02V8.48h-1.04V7.9q.5-.09.74-.25.24-.17.38-.44.13-.28.2-.73.09-.44.13-1.11h1.97v2.06h2.36v1.04h-2.36v3.73q0 .93.09 1.38.09.44.3.66.2.2.5.2.24 0 .42-.04t.38-.14q.2-.11.43-.31zm-12.36-1.24q.2.76.63 1.14.43.37 1.15.37.62 0 .93-.28.32-.28.32-.82 0-.34-.15-.58-.14-.24-.47-.45-.34-.23-1.15-.58-.45-.2-.86-.44-.4-.24-.69-.54-.3-.3-.47-.68-.18-.37-.18-.82 0-.75.43-1.3.43-.54 1.23-.83.8-.29 1.83-.29.6 0 1.18.05t1.5.22V9.5h-1.1q-.19-.53-.42-.82-.22-.29-.5-.4-.27-.1-.65-.1-.54 0-.87.24-.32.25-.32.7 0 .3.12.53.11.22.41.44.3.2 1.15.56.78.32 1.27.68.48.35.74.81.26.45.26 1.07 0 .67-.25 1.15-.25.48-.7.8-.44.31-1.07.47-.62.15-1.37.15-1.37 0-3.04-.39v-1.98zm-5.24 1.15l-.13-.04q-.67.66-1.32.96-.64.3-1.36.3-.7 0-1.24-.26-.52-.26-.79-.73-.26-.46-.26-1.06 0-1.22 1.19-1.91 1.2-.7 3.63-.89v-.78q0-.77-.18-1.18-.17-.43-.44-.6-.28-.17-.66-.17t-.66.14q-.27.13-.5.5-.22.36-.33 1.02h-1.56v-1.5q.76-.35 1.27-.53.5-.18.99-.3.5-.12.88-.17.4-.05.78-.05 1 0 1.6.27.6.26.9.86.3.6.3 1.64v3.23q0 .54.02.84.03.3.07.45.06.14.15.23.08.08.2.14.12.05.45.13v.55h-3.08zm-.28-2.82q-1.28.04-1.9.48-.6.45-.6 1.3 0 .52.27.8.28.26.78.26.38 0 .72-.2.34-.2.54-.54t.2-.72zm1.44-8.29V4l-2.87 2.66-.66-.55 1.8-2.66zm-7.69 10.08l.64.77q-.81.8-1.57 1.14-.75.34-1.65.34-1.79 0-2.73-1.05-.95-1.06-.95-3.07 0-1.36.52-2.34.52-1 1.49-1.5.96-.5 2.21-.5.67 0 1.33.1.67.08 1.22.25v1.99h-1.64q-.12-.78-.37-1.13-.25-.36-.71-.36-.3 0-.59.16-.27.15-.49.53-.2.37-.33 1-.12.63-.12 1.6 0 .97.18 1.64.18.66.59 1.02.4.36 1.06.36.48 0 .9-.2.43-.21 1.01-.75zm-3.42-7l-1.7-2.6.63-.54 1.8 1.8h.09l1.82-1.8.63.55-1.83 2.6zm-10.79 8.03l-.12-.04q-.68.66-1.33.96-.63.3-1.35.3-.71 0-1.24-.26-.52-.26-.8-.73-.26-.46-.26-1.06 0-1.22 1.19-1.91 1.2-.7 3.63-.89v-.78q0-.77-.17-1.18-.18-.43-.45-.6-.27-.17-.65-.17t-.67.14q-.27.13-.5.5-.21.36-.32 1.02h-1.57v-1.5q.77-.35 1.27-.53.5-.18 1-.3.49-.12.88-.17.39-.05.77-.05 1 0 1.6.27.6.26.9.86.3.6.3 1.64v3.23q0 .54.02.84.03.3.08.45.06.14.14.23.08.08.2.14.12.05.45.13v.55h-3.07zm-.27-2.82q-1.28.04-1.9.48-.62.45-.62 1.3 0 .52.29.8.28.26.77.26.38 0 .72-.2.34-.2.54-.54t.2-.72zm1.44-8.29V4l-2.87 2.66-.66-.55 1.8-2.66zM92.4 10.43l2.13 3.16q.47.7.7.96.22.27.38.38.17.11.42.17v.55h-4.05v-.55q.38-.07.38-.39 0-.21-.15-.5-.14-.3-.56-.92l-.64-.96q-.22-.32-.35-.46-.13-.15-.26-.23-.13-.07-.36-.07h-.4v1.69q0 .78.05 1.08.05.3.2.48.16.17.58.28v.55h-4.05v-.55q.25-.06.39-.13.14-.08.21-.18.09-.11.14-.27.06-.16.08-.45.02-.28.02-.81V6.8q0-.71-.02-1.04 0-.34-.05-.57-.04-.23-.12-.36-.09-.14-.24-.22-.16-.09-.5-.15v-.55l2.29-.11h1.03v6.97h.27q.29 0 .45-.06.17-.06.34-.18l.56-.47q.37-.34.56-.6.19-.26.25-.45.07-.2.07-.38 0-.57-.72-.67v-.53h4.14v.53q-.33.05-.72.3-.4.25-1.25 1.04zM79.86 13.4q.2.76.63 1.14.43.37 1.14.37.63 0 .94-.28.32-.28.32-.82 0-.34-.15-.58-.14-.24-.48-.45-.33-.23-1.14-.58-.45-.2-.86-.44-.4-.24-.7-.54-.29-.3-.46-.68-.18-.37-.18-.82 0-.75.43-1.3.43-.54 1.23-.83.8-.29 1.82-.29.6 0 1.19.05.57.05 1.5.22V9.5h-1.1q-.19-.53-.42-.82-.22-.29-.5-.4-.27-.1-.65-.1-.55 0-.87.24-.32.25-.32.7 0 .3.12.53.11.22.4.44.3.2 1.16.56.78.32 1.26.68.5.35.75.81.25.45.25 1.07 0 .67-.24 1.15-.25.48-.7.8-.45.31-1.07.47-.62.15-1.38.15-1.36 0-3.03-.39v-1.98zm-1.6 1.24q-.73.62-1.32.88-.6.25-1.26.25-1.23 0-1.84-.66-.6-.67-.6-2.02V8.48H72.2V7.9q.5-.09.74-.25.24-.17.38-.44.13-.28.2-.73.09-.44.13-1.11h1.97v2.06h2.36v1.04h-2.36v3.73q0 .93.09 1.38.09.44.3.66.2.2.5.2.24 0 .42-.04t.38-.14q.2-.11.43-.31zM65.9 13.41q.2.76.63 1.14.43.37 1.15.37.62 0 .93-.28.32-.28.32-.82 0-.34-.14-.58-.14-.24-.48-.45-.33-.23-1.14-.58-.46-.2-.86-.44-.4-.24-.7-.54-.3-.3-.47-.68-.17-.37-.17-.82 0-.75.43-1.3.43-.54 1.22-.83.8-.29 1.83-.29.6 0 1.18.05t1.5.22V9.5h-1.1q-.19-.53-.42-.82-.22-.29-.5-.4-.27-.1-.65-.1-.54 0-.86.24-.33.25-.33.7 0 .3.12.53.11.22.41.44.3.2 1.15.56.78.32 1.27.68.48.35.74.81.26.45.26 1.07 0 .67-.25 1.15-.25.48-.7.8-.44.31-1.07.47-.62.15-1.37.15-1.37 0-3.04-.39v-1.98zm-2.58.73q-.84.9-1.67 1.27t-1.9.37q-1.93 0-2.9-1.05-.97-1.06-.97-3.14 0-1.34.5-2.3.5-.98 1.42-1.47.92-.5 2.13-.5.75 0 1.32.17.57.17.97.48.4.3.67.75.32.52.47 1.19.17.68.18 1.66h-5.25q.01 1.5.53 2.2.53.71 1.6.71.64 0 1.14-.23.5-.24 1.1-.84zm-2.23-3.46q-.03-1.27-.33-1.89-.3-.62-.96-.62-.64 0-1.02.65-.37.64-.44 1.86zm-2.13-4.15l-1.7-2.6.63-.54 1.8 1.8h.08l1.82-1.8.64.55-1.84 2.6zm-4.63-1.62q-.44.12-.6.27-.15.14-.22.39-.05.24-.05.86v7.15q0 .5.05.8.05.29.2.45.15.15.62.27v.55H50.1v-.55q.37-.1.5-.17.15-.08.22-.2.08-.12.12-.36.04-.25.04-.8V9.5l.02-1.58.05-1.29h-.17q-.1.33-.22.65-.1.32-.41 1.14l-2.22 5.97h-1.45l-2.33-6.7q-.2-.58-.37-1.14h-.14q.08 1.36.08 3.22v3.8q0 .62.06.86.05.24.23.4.17.15.6.26v.55h-3.12v-.55q.3-.08.47-.18.19-.1.28-.27.09-.16.1-.42.03-.25.03-.65V6.43q0-.63-.06-.86-.05-.23-.2-.38-.16-.15-.62-.28v-.55h4.1l2.3 6.79 2.48-6.79h3.87z" font-family="Cambria" font-size="64" font-weight="700" letter-spacing="0" style="line-height:123.18897247%;text-align:start" word-spacing="0"/>
  <path fill="gray" d="M177.2 25.22v.55q-.29.08-.46.18-.18.09-.28.25-.09.17-.12.43t-.03.66v8.23h1.6q.49 0 .78-.15.29-.15.5-.45.2-.32.36-.81.15-.5.25-.94h1.13l-.18 3.34h-7.88v-.55q.3-.08.48-.18.18-.1.26-.27.1-.17.12-.43.02-.26.02-.66V27.3q0-.39-.02-.65t-.11-.43q-.08-.17-.27-.26-.17-.11-.48-.2v-.54zm-11.15 11.42q-2.43 0-3.66-1.42-1.21-1.43-1.21-4.26 0-1.86.58-3.18.6-1.32 1.75-2 1.15-.7 2.73-.7 2.48 0 3.72 1.43 1.24 1.41 1.24 4.2 0 1.57-.38 2.7-.36 1.11-1.04 1.83-.67.72-1.63 1.06-.94.34-2.1.34zm-2.24-5.9q0 2.5.59 3.72.6 1.21 1.84 1.21.63 0 1.08-.34.45-.35.72-.96.28-.62.4-1.46t.12-1.85q0-1.65-.27-2.76-.25-1.11-.78-1.67-.52-.58-1.34-.58-1.2 0-1.79 1.15-.57 1.15-.57 3.53zm-10.36-5.52q1.38 0 2.31.21.93.22 1.65.68.71.47 1.15 1.11.45.64.66 1.49.22.84.22 1.9 0 1.3-.3 2.32-.3 1.03-.9 1.76-.55.65-1.33 1.07-.78.42-1.8.6-.87.15-2.2.15h-3.76v-.55q.31-.08.48-.17.19-.1.27-.27.09-.17.11-.43.03-.26.03-.66V27.3q0-.39-.03-.65-.01-.26-.1-.43-.09-.17-.27-.26-.17-.11-.49-.2v-.54zm-.85 10.29q.15.02.75.02.91 0 1.53-.26.47-.2.79-.55.54-.57.81-1.48.3-1 .3-2.42 0-1.57-.42-2.6-.43-1.05-1.2-1.54-.76-.5-1.82-.5-.52 0-.74.02zm-5.93-1.08q0 .64.04.88.06.23.23.39.16.15.6.26v.55h-4.31v-.55q.48-.12.62-.25.14-.12.2-.35.05-.23.05-.93v-3.32h-3.74v3.32q0 .29.02.54.02.25.07.4.05.16.14.27.1.1.26.19.17.07.4.13v.55h-4.33v-.55q.3-.08.48-.17.18-.1.26-.27.1-.17.12-.43.02-.26.02-.66V27.3q0-.39-.02-.65t-.11-.43q-.08-.17-.27-.26-.17-.11-.48-.2v-.54h4.34v.55q-.44.12-.6.27-.16.15-.23.4-.07.23-.07.87v2.76h3.74v-2.76q0-.63-.06-.87-.05-.24-.21-.4-.16-.15-.6-.27v-.55h4.31v.55q-.36.1-.53.21-.16.1-.24.28-.06.18-.09.39l-.01.66zm-11.27-8.95v2.4h-1.12q-.2-.94-.63-1.38-.43-.45-1.12-.45-1.31 0-1.98 1.26-.67 1.25-.67 3.71 0 2.3.61 3.48.61 1.17 1.8 1.17.6 0 .98-.2t.6-.61q.24-.4.4-1.14h1.13v2.5q-.9.22-1.66.32-.75.1-1.56.1-1.72 0-2.81-.62t-1.6-1.87q-.52-1.26-.52-3.18 0-1.79.6-3.11.62-1.33 1.8-2.05 1.18-.72 2.83-.72.83 0 1.51.09t1.41.3zm-12.37 1.82q0-.63-.05-.86-.05-.25-.21-.4-.16-.15-.61-.27v-.55h3.64v.55q-.3.08-.48.18-.17.09-.26.26-.1.17-.12.43-.02.26-.02.66v5.16q0 1.03-.17 1.72-.16.69-.5 1.16-.36.47-.88.76-.5.29-1.15.41-.65.13-1.45.13-1.18 0-1.99-.24-.8-.25-1.32-.74-.5-.5-.75-1.2-.24-.7-.24-1.8V27.3q0-.39-.03-.65-.01-.26-.1-.43-.09-.17-.27-.26-.17-.11-.49-.2v-.54h4.35v.55q-.34.09-.5.2-.17.1-.25.24-.08.15-.11.39-.04.24-.04.7v5.46q0 .65.09 1.2.08.53.3.92.22.38.6.58.4.21 1 .21.85 0 1.26-.34.42-.34.58-.94.17-.61.17-1.82zm-14.94 6.42q.2.98.68 1.47.49.48 1.42.48.5 0 .88-.16.39-.17.62-.53.24-.38.24-.93 0-.51-.19-.88-.19-.38-.61-.72-.42-.34-1.18-.72-.64-.33-1.16-.67-.52-.35-.9-.76-.36-.43-.57-.92-.2-.5-.2-1.12 0-1.01.51-1.73.5-.7 1.46-1.07.96-.37 2.21-.37.74 0 1.4.08.68.07 1.54.27v2.4h-1.14q-.15-.65-.4-1.03-.24-.4-.6-.57-.37-.19-.92-.19-.47 0-.85.17-.37.17-.58.5-.22.32-.22.78 0 .48.18.84.2.34.63.68.44.33 1.28.76 1.01.53 1.6 1.05.58.5.85 1.1.28.6.28 1.4 0 1.01-.47 1.76t-1.37 1.15q-.9.4-2.08.4-.85 0-1.77-.1-.9-.1-1.7-.27v-2.55zm-4.61-.86h-3.92v-1.74h3.92zm-11.12.15h-3.53l-.27.78q-.12.33-.2.65-.07.3-.07.65 0 .81.86.87v.55h-3.53v-.55q.3-.03.54-.21.23-.19.42-.5.19-.32.4-.9l3.45-9.19h2.21l2.73 9.26q.18.62.3.89.13.25.33.42.2.16.55.23v.55H92v-.55q.43-.05.63-.24.21-.19.21-.54 0-.25-.06-.57-.06-.31-.19-.8zm-3.22-.97h2.98L90.8 27.4zM84 34.44q0 .63.05.87.06.23.22.39.17.15.6.26v.55h-4.3v-.55q.47-.12.61-.25.14-.12.2-.35.06-.23.06-.93v-3.32h-3.74v3.32q0 .29.02.54.01.25.06.4.05.16.14.27.1.1.27.19.16.07.4.13v.55h-4.34v-.55q.3-.08.48-.17.18-.1.27-.27.09-.17.11-.43.03-.26.03-.66V27.3q0-.39-.03-.65-.01-.26-.1-.43-.09-.17-.27-.26-.17-.11-.49-.2v-.54h4.34v.55q-.43.12-.6.27-.16.15-.22.4-.07.23-.07.87v2.76h3.74v-2.76q0-.63-.06-.87-.05-.24-.21-.4-.16-.15-.6-.27v-.55h4.3v.55q-.36.1-.52.21-.17.1-.24.28-.07.18-.1.39v.66zM69.08 33h-3.54l-.27.78q-.11.33-.19.65-.07.3-.07.65 0 .81.86.87v.55h-3.53v-.55q.3-.03.53-.21.24-.19.43-.5.19-.32.4-.9l3.45-9.19h2.2l2.74 9.26q.18.62.3.89.13.25.32.42.2.16.56.23v.55H68.7v-.55q.43-.05.64-.24.2-.19.2-.54 0-.25-.05-.57-.06-.31-.2-.8zm-3.22-.97h2.98L67.5 27.4zm-9.53 4.47h-4.34v-.55q.3-.08.47-.17.19-.1.27-.27.09-.17.11-.43.03-.26.03-.66V27.3q0-.39-.03-.65-.01-.26-.1-.43-.09-.17-.27-.26-.17-.11-.48-.2v-.54h4.82q.97 0 1.65.14.69.13 1.2.41.43.24.73.6.3.34.45.8.17.47.17 1.1 0 .8-.3 1.38-.27.58-.76.97-.48.38-1.3.72v.08q.62.27 1.02.71.4.44.72 1.12l.52 1.12q.35.76.7 1.14.34.37.81.45v.55h-3.18q-.48-.67-1.09-1.97l-.64-1.42q-.3-.62-.5-.89-.2-.26-.43-.36-.21-.1-.67-.1h-.48v2.66q0 .62.06.87t.22.4q.17.14.62.26zm-.9-10.3v4.6h.82q.66 0 1.1-.18.42-.18.67-.5.26-.32.35-.75.1-.43.1-.94 0-1.13-.53-1.7-.53-.55-1.57-.55l-.94.01zm-10.38 8.23q0 .54.04.78.04.22.13.36.1.13.27.22.19.1.56.16v.55H41.6v-.55q.3-.08.48-.17.18-.1.26-.27.1-.17.12-.43.02-.26.02-.66V27.3q0-.39-.02-.65t-.1-.43q-.09-.17-.27-.26-.18-.11-.49-.2v-.54h4.8q2.1 0 3.14.75t1.04 2.3q0 1.1-.49 1.91-.49.81-1.41 1.23-.93.42-2.32.42-.8 0-1.31-.04zm0-3.58h.7q.84 0 1.32-.23.5-.24.72-.76.24-.5.24-1.38 0-.86-.24-1.36-.23-.51-.68-.73-.46-.21-1.17-.21l-.9.01z" font-family="Cambria" font-size="64" font-weight="700" letter-spacing="0" style="line-height:123.18897247%;text-align:start" word-spacing="0"/>
  <path fill="#2b2828" fill-rule="evenodd" d="M151.03 20.4H17.23l.04 1.03.04.68.11 1.85.12 2.91.22 3.78.23 4.54.3 5.21.3 5.79.35 6.16.37 6.54.38 6.68.38 6.77.38 6.69.41 6.5.38 6.24.34 5.86.42 5.29.07 1.28.15 1.29.15 1.32.23 1.28.23 1.29.26 1.28.3 1.29.35 1.32.34 1.25.41 1.28.42 1.29.45 1.25.5 1.28.52 1.25.57 1.25.56 1.2.61 1.25.64 1.25.64 1.17.69 1.21.71 1.17.76 1.17.75 1.18.8 1.13.83 1.13.83 1.14.9 1.1.92 1.09.9 1.06.95 1.06.98 1.02.98.98 1.1 1.1 1.13 1.05 1.14 1.02 1.2.99 1.18.9 1.2.95 1.22.9 1.24.84 1.25.83 1.25.8 1.32.75 1.29.72 1.32.68 1.32.64 1.36.64 1.36.6 1.36.54 1.4.53 1.4.52 1.4.42 1.4.42 1.43.37 1.44.38 1.44.3 1.47.27 1.47.23 1.48.22 1.47.15 1.44.15 1.51.08 1.47.04 1.52.04 1.5-.04 1.48-.04 1.51-.11 1.52-.12 1.47-.19 1.47-.18 1.48-.23 1.47-.3 1.48-.3 1.47-.35 1.44-.41 1.43-.42 1.44-.45 1.43-.53 1.4-.5 1.4-.56 1.4-.6 1.4-.65 1.36-.68 1.36-.71 1.32-.72 1.36-.76 1.29-.83 1.32-.83 1.29-.87 1.24-.9 1.29-.95 1.2-.98 1.26-.99 1.2-1.02 1.18-1.06 1.17-1.1 1.06-1.01 1.02-1.06.98-1.06.94-1.1.95-1.1.94-1.13.87-1.1.87-1.16.83-1.14.84-1.17.75-1.2.76-1.18.75-1.2.65-1.22.68-1.2.64-1.26.6-1.2.53-1.29.57-1.2.5-1.26.44-1.28.46-1.25.41-1.2.38-1.3.3-1.24.3-1.25.27-1.28.27-1.25.15-1.25.19-1.2.1-1.25.08-1.25.04-1.1.04-1.17.11-1.2.04-1.26.08-1.32.07-1.36.08-1.36.07-1.47.04-.08.04-.11v-.38l-.04-.19.27-5.06.3-5.48.3-5.67.34-5.79.3-5.85.34-5.83.3-5.7.3-5.48.31-5.22.3-4.76.23-4.35.19-3.74.19-3.1.11-2.34.11-1.51.04-.57z" clip-path="url(#a)" transform="matrix(.26458 0 0 .26458 -4.51 -5.28)"/>
  <path fill="#2f4078" fill-rule="evenodd" d="M33.75 21.92l-.01.1v.1l-.01.12-.01.1-.15.07-.21.09-.25.1-.31.13-.35.13-.4.13-.4.14-.45.14-.48.14-.5.13-.26.05-.26.06-.26.06-.27.05-.27.05-.28.04-.28.03-.27.03-.28.03h-.28l-.27.03h-.6l-.31-.02-.32-.02-.31-.03-.31-.05-.31-.04-.3-.06-.3-.06-.3-.07-.3-.07-.3-.07-.3-.08-.57-.16-.57-.16-.57-.16-.56-.16-.28-.07-.28-.07-.28-.07-.27-.05-.28-.06-.28-.05-.28-.04-.28-.05-.28-.02-.3-.03-.27-.01H17.1l-.26.03-.26.03-.26.02-.25.04-.25.05-.25.04-.5.1-.48.12-.48.12-.5.13-.26.07-.28.08-.27.07-.28.08-.3.06-.28.07-.3.06-.3.06-.3.05-.31.06-.33.04-.32.03-.34.03-.36.02-.36.02H8.34l-.31-.02-.3-.01-.31-.02-.3-.04-.3-.04-.28-.03-.28-.04-.28-.05-.28-.06-.26-.05-.26-.07-.5-.12-.47-.13-.44-.13-.4-.14-.37-.14-.33-.12-.28-.12-.24-.1-.2-.1-.14-.05v-.12l-.01-.05-.01-.06-.02-.3-.02-.3-.01-.3-.02-.33-.03-.32-.02-.33-.02-.34-.03-.35.2.09.25.1.28.1.32.12.34.12.39.12.4.13.44.1.46.13.49.1.25.05.26.06.26.04.26.04.27.04.28.03.28.03.28.02.28.03H9.23l.36-.02.34-.03.33-.04.34-.04.3-.05.32-.05.3-.06.3-.07.3-.06.28-.07.29-.08.28-.07.28-.07.27-.07.5-.14.49-.12.5-.12.5-.1.25-.05.26-.04.26-.03.26-.04.27-.02.27-.02.29-.01.28-.01h.27l.28.03h.28l.26.04.27.03.26.04.26.04.25.05.5.12.52.12.5.14.52.14.3.08.3.08.3.09.32.08.3.08.32.08.33.06.33.07.34.06.35.06.35.05.37.04.37.03.39.03h.39l.4.02.4-.01.39-.01.38-.02.37-.03.35-.04.35-.04.33-.05.32-.05.3-.06.3-.06.3-.07.27-.06.26-.06.25-.07.23-.07.2-.07.26-.08.23-.07.2-.08.2-.08.18-.07.15-.06.14-.06.1-.06.08-.02.05-.03-.01.33-.02.3-.02.3-.01.3-.02.3-.01.27-.01.27zm-3.6 8.37l-.08.06-.18.1-.12.05-.15.06-.18.06-.2.07-.23.06-.26.06-.3.05-.32.05-.36.04-.4.03-.42.02h-.72l-.25-.01-.26-.02-.25-.03-.25-.03-.24-.05-.25-.04-.24-.06-.25-.06-.24-.06-.25-.07-.24-.07-.5-.14-.5-.15-.55-.17-.56-.17-.3-.1-.28-.06-.3-.07-.3-.07-.3-.06-.3-.06-.31-.05-.32-.05-.33-.03-.33-.02-.33-.02h-1.02l-.32.03-.32.04-.3.04-.3.04-.28.05-.28.05-.27.06-.27.07-.26.07-.25.07-.51.14-.5.15-.44.14-.44.13-.23.06-.22.06-.22.06-.23.05-.23.05-.23.04-.23.04-.25.03-.24.03h-.24l-.26.02h-.74l-.44-.02-.41-.02-.4-.03-.36-.04-.33-.04-.31-.05-.28-.05-.26-.06-.22-.05-.2-.05-.17-.05-.27-.08-.15-.06-.17-.22-.17-.22-.16-.23-.15-.22-.15-.23-.15-.23-.14-.23-.15-.23-.13-.23-.13-.24-.13-.24-.12-.24-.12-.24-.12-.24-.11-.24-.11-.25.22.09.24.09.28.1.3.1.32.1.35.12.37.1.39.1.4.1.43.1.43.09.45.07.22.03.23.02.24.03.23.02h.23l.24.03h.79l.3-.01.32-.02.3-.03.3-.04.3-.04.28-.04.29-.06.29-.06.27-.06.28-.06.27-.06.53-.14.54-.15.5-.13.5-.13.5-.12.52-.11.24-.05.26-.04.26-.04.26-.03.26-.03.27-.01.26-.01h.79l.24.02.26.03.24.03.24.04.24.04.24.04.47.1.47.13.47.13.47.12.29.08.28.08.3.08.3.08.3.08.3.07.33.07.33.07.33.06.35.05.35.05.37.04.38.04.39.02.39.02h.93l.26-.01.24-.02.24-.02.23-.02.23-.03.22-.03.43-.06.4-.08.39-.08.37-.1.34-.1.32-.1.29-.11.28-.11.25-.11.23-.11.2-.1.2-.1-.12.24-.12.24-.12.25-.12.23-.14.24-.14.24-.14.23-.14.24-.16.23-.15.23-.16.24-.16.22-.17.23-.17.22-.18.22zm-19.63 4.4h.25l.25-.01.25-.02.26-.04.25-.04.25-.03.25-.04.26-.06.5-.1.5-.12.5-.12.48-.12.44-.11.42-.1.42-.1.4-.1.39-.06.37-.05.18-.02.17-.02.18-.01h.36l.22.02.24.03.24.03.25.04.26.05.26.06.27.07.55.14.56.15.56.17.55.15.33.1.3.1.32.08.29.09.29.07.27.07.26.06.24.06-.4.17-.38.16-.4.16-.4.14-.4.13-.41.12-.41.1-.41.1-.41.09-.42.07-.42.07-.42.06-.41.03-.42.04h-.43l-.42.02-.46-.01-.46-.02-.46-.03-.45-.05-.45-.06-.46-.08-.44-.1-.44-.1-.44-.1-.44-.13-.43-.14-.43-.15-.42-.17-.42-.18-.42-.2z"/>
  <path fill="#8c3544" fill-rule="evenodd" d="M145.2 91.77l-.44.26-.65.3-.75.38-.99.42-1.1.41L140 94l-1.4.49-1.58.45-.83.23-.84.26-.9.2-.9.22-1 .19-.97.22-1.03.16-1.05.18-1.06.16-1.1.1-1.13.16-1.14.11-1.2.08-1.18.04-1.2.04-1.3.03-1.47-.03-1.43-.04-1.44-.08-1.4-.15-1.32-.15-1.32-.19-1.29-.19-1.24-.23-1.21-.26-1.21-.26-1.17-.27-1.18-.3-1.13-.3-1.13-.3-1.1-.3-1.13-.31-1.97-.57-1.96-.53-.99-.22-1.02-.27-.94-.19-1.02-.22-.99-.2-1.02-.14-1.02-.2-1.02-.1L87 91.2l-1.05-.08-1.1-.03-1.1-.04-1.13.04-1.1.03-1.05.08-1.06.11-1.06.12-.98.11-1.02.15-.95.19-1.02.19-.94.23-.99.22-.94.23-1.93.5-1.89.48-2.04.53-2.08.57-1.1.23-1.05.26-1.1.23-1.13.22-1.17.2-1.18.18-1.2.15-1.21.15-1.25.12-1.32.07-1.37.04H47.96l-1.17-.04-1.17-.07-1.13-.08-1.14-.11-1.1-.12-1.1-.15-1.05-.15-1.1-.19-1.02-.19-1.02-.18-.98-.23-1.93-.46-1.77-.49-1.67-.49-1.58-.49-1.4-.49-1.25-.45-1.1-.42-.94-.38-.72-.3-.56-.26-.3-4.96-.31-5.1-.3-5.29-.34-5.33-.3-5.37-.27-5.29-.3-5.21-.3-5-.23-4.83-.27-4.5-.22-4.15-.2-3.78-.18-3.33-.11-2.76-.15-2.2-.08-1.54h129.86l-.07 1.62-.15 2.27-.2 2.95-.18 3.48-.19 3.93-.26 4.34-.27 4.7-.26 4.94-.3 5.18-.3 5.3-.31 5.36-.26 5.37-.3 5.29-.3 5.14-.27 4.95z" clip-path="url(#a)" transform="matrix(.26458 0 0 .26458 -4.51 -5.28)"/>
  <path fill="#2b2828" fill-rule="evenodd" d="M81.79 79.3v-.57l-.04-.57-.07-.6-.12-.57-.11-.57-.11-.56-.12-.53-.11-.53-.19-.68-.23-.8-.26-.83-.27-.83-.3-.87-.3-.8-.38-.75-.34-.68-.26-.5-.3-.48-.3-.46-.31-.45-.68-.9-.68-.88-.72-.79-.76-.8-.79-.71-.83-.68-.83-.64-.87-.6-.9-.61-.92-.57-.94-.53-.98-.45-.99-.46-.98-.45-.41-.23-.46-.22-.6-.27-.72-.3-.72-.38-.83-.34-.9-.38-.95-.41-1.25-.5-1.25-.52-1.28-.57-1.32-.57-1.33-.6-1.28-.64-1.21-.65-1.17-.71-.5-.3-.45-.3-.45-.35-.46-.34-.37-.38-.42-.34-.38-.38-.34-.34-.6-.71-.57-.65-.45-.56-.3-.46-.23-.34-.2-.34-.14-.3-.12-.3-.1-.3-.12-.3-.12-.3-.03-.31-.12-.57-.03-.49v-.53l.07-.45.08-.5.11-.33.11-.38.15-.34.12-.27.15-.22.15-.2.11-.14.38-.27.38-.3.42-.19.45-.23.41-.15.5-.11.45-.11.5-.08h1.43l.45.08.5.1.4.12.46.15.38.2.38.22.38.23.37.26.34.3.76.65.8.68.26.26.3.3.34.27.3.22.34.23.38.19.34.15.34.15.34.15.38.12.38.07.38.12.75.15.76.11.83.11.8.12.4.07h.39l.41.04h.42l.64-.04.57-.07.6-.08.64-.07.57.53.53.45.26.23.3.18.27.2.3.14.27.16.3.1.34.16.3.11.34.08.34.08.34.07.38.08.57.03.57.04h1.05l.46-.04.38-.03.34-.04.22-.04.3-.11.27-.08.15-.07.15-.08.15-.15.2-.11.4.07.39.04.45.04.45.04h.46l.45-.04.45-.04.38-.04.38-.07.34-.12.3-.15.34-.15.27-.23.22-.19.23-.26.15-.26.08-.16.03-.18.04-.2.04-.18.04-.38-.04-.34-.08-.34-.1-.38-.08-.11-.08-.2-.11-.1-.12-.16-.15-.1-.19-.12-.15-.12-.23-.07-.49-.2-.75-.18-.76-.23-.64-.15-.3-.07-.3-.08-.35-.15-.41-.15-.27-.19-.34-.19-.3-.19-.34-.26-.64-.53-.6-.5-.61-.45-.45-.37-.16-.16-.15-.15-.07-.15V33.9l-.04-.41-.08-.42-.07-.38-.11-.34-.16-.3-.18-.26-.2-.27-.26-.23-.3-.15-.3-.15-.38-.07-.42-.04h-.45l-.45-.45-.46-.38-.53-.34-.6-.34-.8-.38-.75-.38-.83-.34-.83-.3-.84-.27-.83-.19-.45-.07-.45-.08-.42-.07-.45-.04H59.6l-.56.04-.6.07-.61.12-.57.07-.64.15-.6.16-.69.03-.72-.03-.68-.04-.64-.04-.9-.11-.91-.08-.91-.08-.94-.03h-1.81l-.92.03-.87.12-.71.11-.72.2-.64.18-.68.23-.68.26-.65.27-.6.3-.64.34-.5.26-.52.34-.53.34-.57.38-.53.42-.53.45-.5.5-.44.48-.53.65-.42.64-.41.68-.34.6-.3.6-.23.54-.2.49-.14.38-.23.6-.15.6-.15.57-.12.53-.07.46-.04.49-.08.49-.03.53v.95l.03.45.08.45.15.94.23.87.26.87.3.87.34.83.38.83.5.84.49.75.52.8.6.75.43.46.45.49.41.49.5.45.49.46.49.45.49.41.53.46 1.02.8 1.1.79 1.1.75 1.09.72.9.5.95.52.87.5.9.44.91.38.83.42.87.38.8.37.26.08.5.3.71.34.8.42.75.45.64.42.3.19.2.15.03.07.04.04.04.08v.07l-.3.08-.46.15-.56.15-.65.26-.72.3-.75.38-.42.2-.41.26-.42.26-.41.27-.84.26-.98.3-.53.23-.53.23-.56.22-.57.3-.57.31-.6.38-.57.38-.53.41-.56.45-.5.53-.49.57-.45.64-.45.23-.46.19-.45.23-.46.26-.49.34-.56.42-.53.34-.53.3-.34.15-.38.11-.38.04-.38.08-.41.03h-.38l-.38-.03h-.41l-.34-.04-.42-.08-.34-.07-.3-.08-.3-.15-.3-.11-.23-.15-.23-.15-.08.1-.03.2v.45l.03.5.12.56.3 1.02.11.42-.22.07-.53.11h-.95l-.26-.07-.27-.04-.34-.07-.34-.12-.34-.11-.3-.15-.34-.2-.26-.18-.27-.19-.3-.19-.27-.26-.18-.23-.68-.72-.27-.34-.07.2-.2.56-.07.38-.08.41-.03.42v.45l.07.45.08.46.11.49.12.5.26.94.19.71-.27-.07-.3-.15-.26-.2-.27-.18-.45-.45-.5-.53-.03.45-.04.45-.04.53.04.53.04.57.08.57.07.3.11.3.12.3.15.3.19.42.26.5.27.52.34.53.3.5.3.48.34.46.27.37h-.53l-.2-.07-.44-.15-.38-.2-.65-.37-.26-.19v.34l.11.87.08.53.11.53.15.53.15.45.3.6.31.57.3.5.34.41.6.72.5.53.15.11.42.34.64.5.8.56.82.64.95.6.45.27.45.27.42.19.42.22.71.27.68.26.72.23.72.19.68.19.72.15.72.11.68.11 1.47.23 1.51.11 1.6.12 1.73.11 1.4.04 1.43.04h1.4l1.4-.04 1.4-.04 1.36-.15.68-.04.68-.11.64-.08.65-.15.98-.19.9-.19.91-.18.87-.2.87-.22.83-.23.83-.26.84-.2.68-.22.68-.15.68-.19.68-.19.64-.15.64-.15.6-.19.57-.11.76-.2.72-.14.68-.12.64-.1.57-.08.49-.08.41-.11.27-.08.3-.19.27-.11.26-.19.19-.15.38-.3.34-.34.22-.3.23-.3.11-.35.16-.26.3-.83.38-1.03.19-.56.1-.5.08-.22v-.23l.04-.19v-.15l.23-.26.38-.46.3-.37.34-.42.34-.53.41-.6.27-.5.26-.56.23-.6.23-.72.19-.8.15-.83.04-.45.07-.42v-.45z" clip-path="url(#a)" transform="matrix(.26458 0 0 .26458 -4.51 -5.28)"/>
  <path fill="#f3e400" fill-rule="evenodd" d="M73.02 43.12l-.04.04-.11.04h-.15l-.23.04-.41-.04-.42-.04h-.26l-.27-.07-.26-.04-.3-.08-.57-.22-.57-.27-.3-.11-.23-.15-.26-.2-.23-.14-.19-.2-.23-.14-.15-.2-.15-.18v-.3l.04-.08.04-.23.07-.18v-.2L67.8 40v-.19l.04-.08.04-.11h.08l.18.11.2.12.18.19.5.41.52.45.46.34.45.34.53.38.57.34.56.34.53.2.2.1.1.08.08.08zM69.5 37.3l.3-.03.27-.08.23-.04.23-.11.3-.11.15-.04.45.41.57.46.57.45.6.45.64.46.65.45.68.38.68.34.49.19.53.19.49.19.49.11.8.23.52.15.2.11.1.15.16.12.03.1.08.16v.15l-.04.12-.04.15-.07.11-.11.11-.2.12-.14.07-.2.08-.18.07-.23.04h-.83l-.87-.04-.5-.07-.52-.12-.57-.1-.53-.16-.41-.11-.46-.2-.49-.18-.45-.27-.5-.22-.52-.27-.5-.3-.45-.3-.49-.34-.45-.34-.45-.38-.42-.34-.64-.53-.5-.5-.18-.18-.2-.19-.07-.15-.07-.15v-.27l.03-.07.08-.08h.49l.34.04.38.04.38.07z" clip-path="url(#a)" transform="matrix(.26458 0 0 .26458 -4.51 -5.28)"/>
  <path fill="#fff" fill-rule="evenodd" d="M65.69 35.9l-.04.16v.11l-.08.11-.07.12-.11.07-.12.04-.07.08h-.27l-.15-.08-.11-.04-.08-.07-.07-.12-.04-.11-.08-.11v-.27l.08-.11.04-.11.07-.12.08-.07.11-.08h.15l.12-.04.15.04h.07l.12.08.1.07.08.12.08.1v.12z" clip-path="url(#a)" transform="matrix(.26458 0 0 .26458 -4.51 -5.28)"/>
  <path fill="#2b2828" fill-rule="evenodd" d="M139.8 87.38l.27-.38.3-.45.34-.49.3-.53.34-.5.27-.52.26-.5.2-.4.14-.3.12-.31.07-.3.08-.3.11-.57.04-.57V80.2l-.04-.45-.07-.42-.46.5-.45.45-.27.19-.26.19-.26.15-.3.07.14-.72.27-.94.15-.5.08-.48.1-.46.08-.49v-.41l-.07-.42-.04-.42-.07-.37-.2-.53-.1-.23-.23.34-.68.76-.23.19-.23.22-.26.2-.3.22-.3.19-.3.19-.31.15-.34.11-.34.11-.34.08-.27.04-.26.03-.53.04h-.42l-.56-.11-.2-.08.16-.41.26-1.02.08-.57.07-.5.04-.26-.04-.18-.07-.2-.08-.1-.19.18-.26.12-.26.1-.3.12-.35.12-.34.07-.34.08-.41.03-.38.04h-.76l-.41-.04-.42-.03-.34-.08-.41-.11-.34-.15-.5-.27-.52-.41-.53-.38-.53-.34-.46-.27-.45-.22-.45-.23-.42-.19-.5-.64-.48-.57-.53-.49-.53-.45-.57-.46-.56-.37-.57-.38-.57-.3-.57-.3-.52-.23-.57-.23-.53-.23-.98-.3-.83-.26-.46-.27-.38-.26-.41-.27-.42-.19-.8-.38-.7-.3-.65-.26-.57-.15-.41-.15-.34-.12v-.04l.03-.03.08-.08.04-.07.22-.16.23-.18.68-.42.76-.45.79-.42.68-.34.53-.3.26-.08.8-.38.83-.37.87-.42.9-.38.87-.49.91-.45.9-.5.95-.56 1.1-.68 1.1-.76 1.1-.75 1.01-.83.53-.46.5-.41.48-.46.5-.45.45-.45.45-.5.42-.49.45-.49.57-.72.53-.79.53-.8.45-.79.42-.83.34-.87.3-.83.26-.87.2-.87.18-.94.08-.46v-.45l.04-.5-.04-.45v-.52l-.08-.5-.04-.49-.07-.49-.12-.49-.15-.53-.19-.6-.18-.65-.16-.37-.18-.5-.27-.52-.3-.6-.3-.61-.42-.68-.45-.65-.5-.64-.45-.49-.49-.5-.53-.4-.53-.46-.56-.38-.53-.34-.53-.34-.5-.26-.64-.34-.64-.3-.64-.27-.64-.3-.65-.2-.71-.18-.69-.19-.75-.11-.87-.12-.87-.03-.9-.04-.95.04-.9.03-.95.08-.91.07-.87.12-.64.04-.68.03-.76.04-.68-.04-.6-.15-.6-.15-.58-.11-.64-.08-.53-.07h-.6l-.57-.04-.57.04h-.45l-.45.07-.46.08-.41.07-.83.2-.83.26-.84.3-.83.34-.8.38-.75.37-.6.35-.53.34-.45.37-.46.46h-.45l-.46.03-.34.08-.3.15-.3.15-.26.23-.23.23-.15.3-.2.3-.07.34-.11.38-.08.41v.42l-.03.45.03.5v.49l-.03.11-.08.15-.15.15-.15.15-.46.38-.6.5-.57.45-.64.53-.34.22-.3.23-.34.19-.27.19-.41.15-.34.11-.34.11-.3.08-.61.15-.76.23-.75.23-.53.15-.19.07-.19.12-.15.1-.15.12-.11.15-.12.15-.07.12-.08.19-.15.34-.08.34v.75l.04.15.04.2.07.14.08.2.15.26.2.26.26.2.26.22.3.15.34.15.34.11.38.08.38.04.45.04.42.03h.49l.45-.03.42-.04.45-.04.34-.08.23.12.15.15.11.07.2.08.26.11.3.08.23.04.3.03.41.04.5.04h1.02l.56-.04.53-.04.38-.07.38-.08.34-.07.34-.08.3-.11.3-.15.34-.12.3-.15.27-.15.26-.19.3-.19.27-.22.53-.46.57-.53.64.08.6.08.57.07.64.04h.38l.46-.04h.37l.42-.07.8-.12.82-.11.76-.11.76-.16.37-.1.38-.08.34-.12.38-.15.34-.15.34-.15.38-.2.3-.22.34-.22.3-.27.3-.3.3-.3.8-.6.72-.69.38-.3.34-.27.38-.22.37-.23.42-.19.42-.15.45-.11.45-.12.5-.07h.45l.49-.04.49.04.45.07.5.12.45.11.45.15.42.2.45.22.38.26.38.3.11.16.15.18.12.23.18.27.12.34.15.34.07.41.12.46.04.45v.53l-.04.49-.12.57-.07.3-.08.3-.11.3-.11.3-.15.3-.16.31-.18.34-.2.3-.33.5-.42.56-.57.64-.64.72-.34.34-.38.38-.38.34-.41.38-.42.34-.45.34-.45.3-.5.3-1.17.72-1.24.64-1.25.65-1.32.6-1.33.57-1.28.57-1.29.52-1.2.5-.95.41-.9.38-.84.38-.76.34-.68.3-.6.26-.5.23-.4.23-1 .45-.94.46-.98.49-.94.49-.91.56-.9.57-.88.64-.87.65-.79.68-.8.75-.75.76-.72.8-.72.86-.64.9-.3.46-.3.46-.3.49-.3.49-.35.68-.34.75-.3.84-.3.83-.3.83-.23.83-.23.8-.19.71-.11.5-.11.56-.16.53-.07.57-.11.56-.04.6-.08.58v1.02l.04.45.04.42.07.41.15.87.2.8.22.71.27.6.22.57.27.5.41.6.34.53.34.41.27.38.45.46.15.26v.15l.04.2.08.22.03.22.12.5.19.56.37 1.06.3.76.12.3.15.34.19.3.26.34.3.3.42.3.23.16.23.19.26.11.3.15.27.11.37.12.53.07.57.08.64.11.68.12.72.15.72.19.57.15.64.15.64.15.64.15.65.19.72.19.68.15.68.23.79.22.83.23.87.23.87.19.83.22.9.2.95.18.99.19.64.15.64.08.64.11.68.04 1.36.15 1.4.04 1.44.03h1.36l1.47-.03 1.4-.04 1.7-.11 1.63-.12 1.51-.15 1.44-.15.71-.11.72-.15.68-.16.72-.15.72-.22.68-.23.72-.27.75-.26.38-.19.42-.23.45-.26.45-.26.91-.6.87-.65.8-.57.6-.49.41-.34.2-.11.48-.53.6-.72.31-.42.34-.49.3-.56.27-.61.19-.45.11-.53.11-.53.08-.53.11-.87.04-.34-.26.19-.65.38-.41.19-.38.15-.23.07h-.37z" clip-path="url(#a)" transform="matrix(.26458 0 0 .26458 -4.51 -5.28)"/>
  <path fill="#f3e400" fill-rule="evenodd" d="M101.14 41.54l-.15.19-.19.18-.19.16-.19.19-.26.15-.23.19-.26.15-.27.15-.57.22-.56.23-.3.08-.3.07-.27.04h-.27l-.41.04-.42.04-.19-.04h-.15l-.15-.04-.04-.04.04-.04.08-.07.11-.08.19-.11.49-.19.64-.34.53-.34.53-.38.5-.34.37-.34.57-.45.49-.42.23-.19.18-.1.12-.08.11-.04.04.11v.08l.04.11-.04.08v.38l.04.18.07.23.04.07.04.12v.07zM101.4 37.95l-.03.15-.12.15-.19.19-.15.19-.53.49-.64.53-.41.38-.46.34-.49.34-.45.34-.5.3-.49.3-.49.26-.45.23-.53.27-.45.19-.46.18-.41.12-.57.19-.53.07-.53.12-.49.07-.9.04h-.8l-.23-.04-.22-.07-.2-.08-.14-.08-.12-.1-.15-.12-.07-.12-.08-.15v-.26l.04-.15.07-.12.12-.1.15-.16.19-.08.53-.22.83-.2.45-.1.5-.2.52-.15.5-.22.67-.34.65-.42.68-.41.6-.46.64-.45.57-.45.53-.46.5-.41.14.03.3.12.2.11.26.04.26.07.3.04h.38l.34-.07.38-.04.38-.04h.49l.08.08.03.07v.12z" clip-path="url(#a)" transform="matrix(.26458 0 0 .26458 -4.51 -5.28)"/>
  <path fill="#fff" fill-rule="evenodd" d="M32.33 18.68l-.04.08-.05.06-.06.07-.06.05-.12.13-.13.1-.14.1-.15.1-.15.1-.15.08-.15.08-.15.08-.16.07-.15.07-.16.07-.17.06-.16.04-.18.05-.2.04-.2.04-.22.03-.2.04-.43.05-.42.03-.4.04-.39.02h-1.32l-.3-.04-.3-.03-.29-.03-.29-.05-.27-.05-.26-.05-.49-.1-.45-.1-.4-.1-.35-.09-.13-.04-.14-.03-.14-.03-.14-.05-.15-.04-.18-.04-.18-.06-.2-.06-.23-.05-.25-.05-.12-.04-.12-.02-.1-.04-.12-.04-.08-.04-.07-.03-.06-.05-.06-.03-.05-.05-.05-.04-.04-.05-.04-.04-.03-.05-.02-.04-.02-.05v-.05l-.02-.05v-.14l.07.02.12.04.17.07.21.1.12.03.1.03.11.02.1.02.1.01h.1l.07.01h.08l-.15-.06-.13-.07-.12-.07-.12-.07-.22-.12-.2-.13-.1-.05-.1-.07-.09-.06-.1-.07-.09-.08-.09-.08-.09-.1-.09-.09-.09-.1-.09-.12-.1-.13-.09-.14-.07-.2-.08-.2-.05-.2-.05-.2-.02-.2-.03-.22V15.34l.02-.22.03-.2.04-.22.05-.2.05-.2.07-.2.07-.2.1-.2.07-.2.1-.18.1-.19.11-.18.12-.18.12-.17.12-.17.14-.16.13-.16.14-.15.15-.14.15-.14.15-.13.17-.12.15-.12.03-.04.04-.04.05-.05.06-.05.15-.1.2-.1.21-.14.22-.12.25-.13.26-.13.51-.23.5-.2.2-.1.18-.07.14-.06.11-.03.16-.05.15-.06.13-.05.13-.06.12-.05.13-.06.13-.07.13-.06.26-.12.26-.12.27-.13.25-.13.26-.15.25-.15.25-.16.23-.16.23-.18.21-.18.11-.09.1-.1.1-.09.08-.1.1-.1.07-.1.07-.12.07-.1.07-.12.06-.12.05-.1.05-.14.05-.12.03-.1.03-.12.03-.12.02-.13V5.6l-.02-.2v-.07l-.02-.07-.02-.06-.02-.07-.03-.09-.04-.07-.04-.08-.04-.08-.05-.07-.06-.08-.06-.07-.07-.07-.07-.07-.08-.07-.08-.05-.1-.06-.09-.04-.09-.05-.1-.02-.1-.04-.1-.02-.12-.02-.1-.02h-.1l-.23-.03h-.2l-.2.01-.18.02-.12.02-.12.04-.1.04-.12.04-.1.06-.1.06-.09.06-.08.07-.16.12-.12.13-.1.11-.09.08-.08.08-.09.07-.09.07-.1.06-.1.05-.1.05-.13.05-.12.03-.12.04-.12.03-.12.03-.13.03-.25.04-.24.04-.18.01h-.33l-.15-.02-.12-.03-.1-.02-.07-.03-.04-.02-.05-.06-.03-.06-.02-.06-.03-.06v-.14l.03-.06.02-.06.1.01.1.01h.16l.06-.02.07-.02.06-.02.06-.02.06-.03.06-.04.05-.03.05-.05.03-.04.04-.04.03-.05.02-.04.05-.09.02-.1.02-.08.01-.08.08.01h.08l.08-.03h.07l.07-.03.06-.02.06-.03.06-.03.05-.03.04-.03.03-.03.03-.02.02-.03.02-.02V3.9h-.02l-.03-.03h-.09l-.09.02-.09.02h-.14l-.07-.03h-.06l-.06-.04-.05-.02-.05-.03-.03-.04-.05-.02-.05-.04-.05-.03-.07-.03-.1-.02h-.16l-.08-.02-.09.01h-.09l-.08.02-.06.02-.05.02-.05.04-.05.03-.1.07-.08.04-.06.02-.05.02h-.08l-.03-.02h-.03l-.03-.03-.02-.02V3.51l.01-.06.02-.06.03-.06.05-.06.04-.06.05-.06.05-.06.07-.06.06-.05.07-.05.08-.04.07-.05.16-.08.17-.08.18-.06.18-.06.2-.04.16-.04.18-.03.17-.02h.55l.08.02.12.02.14.02.15.02.17.02.18.02.2.01H26.36l.24-.03h.26l.25-.03h.39l.13.01.13.02.12.01.16.02.16.03.16.04.16.04.15.05.14.07.15.06.14.07.14.1.14.07.13.1.13.1.12.1.13.12.12.12.12.13.12.16.11.15.1.17.1.16.06.16.06.16.06.16.05.17.03.16.03.17.02.16v.65l-.04.16-.02.15-.03.16-.04.16-.05.16-.05.16-.06.15-.07.15-.07.14-.09.15-.1.12-.1.14-.1.13-.12.13-.1.12-.13.12-.12.12-.16.15-.15.14-.17.14-.16.13-.16.13-.17.12-.18.12-.18.11-.06.05-.1.05-.14.08-.16.1-.2.1-.23.11-.24.13-.27.14-.23.11-.23.1-.24.1-.24.12-.26.13-.24.14-.24.14-.24.13-.4.21-.37.2-.33.18-.29.16-.23.13-.18.1-.12.07-.03.02h.06l.14-.06.2-.06.25-.05.2-.03.21-.02h.22l.21-.02.2.01h.2l.15.02.12.01.17.04.16.05.13.05.11.05.15.08.05.03-.1.04-.2.1-.14.06-.1.07-.05.03-.04.03-.03.02v.03l.12-.03.17-.02.17-.02h.18l.2-.02h.16l.18.01.16.01.1.02.1.02.1.03.11.04.12.06.13.05.12.06.1.06.14.08.13.1.1.08.1.07.12.12.04.05-.14.01-.32.05-.18.05-.16.05-.07.02-.06.04-.05.03-.03.04.12-.02.11-.02h.5l.1.01.08.02.1.02.08.02.18.07.2.07.1.03.1.05.1.05.1.05.1.06.1.07.11.08.1.07-.05.05-.06.04-.06.05-.08.04-.1.04-.1.04-.14.04-.17.03.03.03.02.01.03.02h.15l.12-.02.21-.03.21-.03h.12l.23-.03.21.01.2.01.15.02.14.01.1.03.06.01.02.01-.02.03-.07.1-.13.14-.2.22-.1.1-.1.1-.13.12-.13.12-.14.13-.15.13-.17.14-.19.15-.12.1-.13.08-.14.1-.15.1-.14.1-.16.1-.17.1-.16.1-.22.15-.22.14-.24.12-.23.12-.24.1-.24.11-.24.1-.25.07-.24.07-.25.06-.24.05-.25.05-.25.03-.25.03-.24.02h-.63l-.19-.02-.18-.02-.19-.02-.18-.04-.19-.04-.17-.05-.18-.06-.17-.06-.17-.08-.16-.09-.17-.09-.16-.1-.16-.12-.14-.12-.1-.1-.09-.08-.08-.09-.07-.08-.07-.09-.06-.08-.05-.08-.05-.09-.05-.08-.03-.07-.04-.08-.02-.07-.05-.15-.03-.13-.02-.13v-.1l-.02-.1.01-.08.01-.12.01-.04v.06l-.06.17v.12l-.02.15v.18l.02.2.02.11.03.12.05.12.05.13.07.14.08.13.1.13.1.13.11.12.11.11.11.11.12.1.12.1.12.1.12.06.1.08.14.07.13.07.13.07.14.05.14.05.15.05.14.03.15.03.15.03.15.02.14.02.16.01.15.01h.77l.3-.05.3-.03.3-.06.31-.07.3-.08.3-.09.3-.1.28-.1.28-.13.3-.14.26-.13.26-.16.27-.15.25-.16.24-.18.18-.13.17-.12.16-.12.14-.1.13-.1.12-.1.11-.1.1-.09.4-.39.23-.22.13-.14.11-.1.25.03.27.04.13.01.12.01H31.7l.08-.02.1-.02.08-.02.07-.02.15-.07.14-.07.01.07v.13l-.03.07-.03.07-.04.07-.03.07-.05.07-.1.15-.1.14-.13.12-.1.11-.09.06-.07.06-.08.04-.06.04-.1.05-.04.02h.04l.13.02.1.01H31.76l.15-.03.17-.04.14-.03.1-.04.08-.02.12-.05.14-.05-.02.07-.07.17-.05.11-.08.13-.07.12-.09.12-.09.11-.09.1-.1.1-.1.1-.1.06-.12.08-.1.06-.14.06-.24.08-.17.05-.1.03-.05.01.01.01.03.02.05.03.07.03.1.04.13.03.08.01.1.01.1.01h.1l.22-.02.18-.02.15-.02.14-.03.17-.05.06-.03-.03.07-.06.16-.08.18zM16.3 17.12l-.1.15-.08.13-.1.1-.08.12-.1.09-.08.1-.1.08-.08.07-.1.08-.1.06-.1.07-.08.06-.21.12-.22.12-.11.07-.12.07-.14.07-.15.05h.26l.09-.01.1-.03.1-.01.1-.03.12-.04.23-.08.17-.08.1-.04.07-.02V18.57l-.01.05-.02.06-.03.04-.03.05-.04.04-.04.04-.04.06-.06.04-.05.03-.07.05-.07.03-.07.04-.1.04-.12.04-.12.03-.13.02-.24.05-.23.06-.21.06-.18.06-.16.04-.16.04-.14.05-.14.03-.14.03-.13.04-.35.07-.4.1-.44.1-.5.12-.26.05-.27.05-.3.04-.28.04-.3.03-.3.03H8.14l-.4-.02-.4-.03-.41-.03-.42-.05-.22-.04-.2-.03-.21-.04-.21-.04-.17-.05-.17-.04-.16-.06-.16-.07-.16-.07-.15-.07-.15-.08-.15-.1-.15-.07-.15-.1-.15-.1-.14-.1-.13-.1-.13-.12-.05-.06-.05-.06-.05-.06-.05-.08-.08-.14-.08-.18-.06-.16-.03-.07.06.03.17.05.13.03.16.02.19.02.2.02h.12l.1-.01.09-.01.07-.01.14-.03.1-.04.08-.03.05-.03.02-.02v-.01l-.03-.01-.11-.03-.17-.04-.24-.1-.12-.05-.13-.07-.11-.07-.1-.07-.1-.1-.1-.1-.1-.1-.1-.1-.07-.12-.08-.12-.06-.13-.06-.11-.07-.17L3 16.5l.14.06.12.05.08.03.1.02.13.04.18.03.15.04h.32l.13-.03.05-.01-.04-.02-.1-.05-.07-.03-.07-.04-.08-.06-.07-.06-.12-.11-.11-.13-.11-.13-.1-.15-.04-.07-.05-.07-.03-.07-.02-.07-.03-.08-.01-.06v-.13l.14.07.15.07.09.02.07.02.09.02.09.02h.24l.12-.01.12-.02.26-.03.26-.04.1.1.14.15.23.22.39.39.1.08.12.1.1.1.15.1.14.1.15.13.17.12.19.14.24.17.25.16.26.15.27.15.27.14.28.14.29.12.29.1.29.1.3.1.3.08.3.07.3.06.3.04.3.03h.93l.15-.01.16-.02.14-.02.15-.03.15-.03.14-.03.15-.05.14-.05.13-.06.14-.06.13-.06.13-.08.1-.07.13-.08.12-.1.12-.1.1-.1.13-.1.1-.11.12-.12.1-.13.1-.13.08-.13.07-.14.05-.13.05-.12.03-.12.02-.12.02-.2v-.17l-.01-.15-.02-.12-.04-.17-.02-.06v.04l.02.12v.28l-.02.12-.03.14-.04.15-.03.07-.04.08-.03.08-.05.07-.05.09-.05.08-.07.08-.06.09-.08.08-.08.08-.08.1-.1.08-.15.13-.16.1-.15.12-.17.09-.16.09-.17.08-.18.06-.16.06-.18.05-.2.04-.17.04-.18.02-.2.02-.2.02h-.62l-.24-.02-.25-.03-.24-.03-.24-.05-.26-.05-.24-.06-.24-.07-.25-.08-.24-.1-.24-.1-.24-.1-.24-.12-.22-.13-.23-.13-.22-.15-.17-.11-.17-.1-.15-.1-.15-.1-.14-.1-.14-.1-.13-.07-.13-.1-.18-.15-.17-.13-.15-.14-.14-.13-.14-.12-.11-.12-.11-.1-.1-.1-.2-.22-.13-.15-.08-.1-.02-.02.02-.01.06-.01.1-.02.15-.02.16-.02.19-.01.2-.01.23.02h.12l.22.04.2.03.13.02h.11l.03-.01.03-.01.03-.01.03-.03-.17-.03-.13-.04-.12-.04-.1-.04-.07-.05-.07-.04-.05-.04-.05-.04.1-.1.1-.06.1-.07.1-.06.1-.05.1-.05.1-.05.1-.03.2-.07.19-.07.09-.02.08-.02.09-.02.09-.01.15-.01h.35l.1.02.13.02-.02-.03-.05-.04-.06-.02-.07-.03-.16-.05-.18-.05-.32-.05-.15-.01.05-.04.13-.13.09-.08.1-.08.13-.1.13-.07.1-.06.13-.07.12-.05.12-.04.12-.05.1-.03.1-.03.1-.01.16-.02h.54l.18.02h.17l.16.04.14.03-.02-.02-.03-.04-.04-.03-.04-.02-.11-.07-.11-.06-.22-.1-.1-.04.05-.03.15-.08.1-.05.14-.05.15-.05.17-.04.13-.02.16-.01.19-.01h.4l.23.02.2.02.2.03.25.05.2.06.15.05h.06l-.04-.01-.11-.07-.17-.1-.25-.13-.28-.16-.33-.18-.37-.2-.4-.21-.24-.13-.25-.14-.24-.15-.25-.12-.24-.12-.24-.1-.24-.11-.23-.1-.26-.14-.25-.13-.22-.11-.2-.11-.16-.1-.14-.07-.11-.05-.05-.05-.18-.11-.18-.12-.17-.12-.17-.13L6.57 9l-.16-.14-.16-.14-.15-.15-.12-.12-.12-.12-.11-.12-.12-.13-.11-.13-.1-.14-.1-.13-.07-.14-.08-.14-.07-.15-.06-.15-.06-.16-.04-.16-.04-.16-.03-.16-.03-.15-.02-.16L4.8 6V5.5l.03-.16.03-.16.03-.17.05-.17.05-.16.07-.16.07-.16.09-.16.1-.17.1-.15.13-.16.1-.13.14-.12.12-.12.13-.11.13-.1.13-.1.14-.08.14-.07.14-.07.14-.07.15-.07.15-.05.15-.04.16-.03.16-.04.17-.02.12-.02.12-.01.13-.01h.39l.26.02h.26l.25.03H10.17l.18-.02.18-.02.15-.02.14-.02.1-.03.1-.01.12-.01H11.57l.17.03.17.03.18.04.19.05.17.05.18.06.17.08.16.08.08.05.07.04.07.05.07.05.06.06.06.06.05.06.05.06.03.07.03.05.02.06.02.06V3.77l-.03.02-.02.02h-.03l-.03.02h-.09l-.04-.01-.06-.02-.1-.04-.08-.08-.06-.02-.04-.04-.06-.02-.05-.02-.08-.02h-.1l-.08-.01h-.1l-.14.02-.1.02-.07.03-.05.03-.05.03-.05.03-.04.04-.04.03-.05.02-.07.03h-.06l-.06.03h-.14l-.1-.01-.07-.02-.04-.01h-.07l-.03.03v.06l.02.03.03.02.04.03.04.03.05.03.06.03.06.03.06.02.07.02.07.02h.07l.08.02.08-.01.02.08v.09l.04.09.04.09.03.04.03.05.03.04.04.04.05.04.05.04.06.04.06.03.06.02.06.02h.06l.07.03h.26l.09-.02.04.07v.07l.02.06-.01.07-.01.06-.04.06-.03.06-.04.06-.05.02-.07.03-.1.02-.11.03h-.15l-.16.02h-.18L12 5.5l-.25-.03-.25-.05-.12-.02-.12-.02-.13-.04-.11-.04-.12-.03-.12-.05-.11-.04-.1-.06-.11-.06-.08-.06-.1-.08-.08-.08-.08-.08-.1-.11-.13-.12-.15-.13-.1-.06-.08-.07-.1-.06-.1-.05-.11-.05-.11-.04-.11-.04-.12-.02L8.74 4l-.2-.01h-.21L8.12 4H8l-.11.03-.1.02-.11.02-.1.04-.1.02-.1.05-.08.04-.1.06-.08.06-.08.06-.07.07-.07.07-.06.07-.06.08-.05.08-.05.07-.04.08-.03.08-.03.07-.03.08-.01.06-.02.07v.06l-.02.2V5.89l.02.13.02.12.03.1.04.12.04.12.05.13.06.1.06.13.06.1.07.12.08.1.08.1.09.1.08.1.1.12.1.09.1.09.2.19.25.17.23.17.25.15.25.15.25.15.26.13.27.13.25.12.26.12.14.06.13.07.13.05.12.06.13.06.13.05.15.06.16.05.1.03.16.06.17.07.2.09.49.2.52.24.25.13.25.13.23.13.22.12.18.1.16.12.05.04.06.05.04.04.02.04.17.1.15.14.16.13.15.14.15.14.14.15.13.16.14.16.12.17.12.17.12.18.1.18.1.19.1.18.1.2.07.2.07.19.08.2.05.2.04.2.05.22.02.2.03.22V15.9l-.03.22-.03.2-.04.2-.06.2-.07.2zm16.59 8.64l-.1.07-.11.08-.17.1-.21.1-.24.14-.28.13-.31.14-.36.14-.2.07-.2.06-.21.07-.21.06-.24.07-.24.06-.25.05-.25.05-.27.05-.28.04-.28.04-.3.02-.3.03-.32.02h-1.44l-.37-.03-.36-.03-.36-.04-.34-.05-.33-.05-.33-.06-.31-.07-.32-.06-.3-.07-.3-.08-.3-.08-.3-.08-.27-.08-.3-.08-.48-.13-.48-.13-.5-.12-.47-.11-.25-.05-.25-.04-.25-.04-.25-.03-.26-.03-.26-.01-.26-.02h-.55l-.3.02-.26.02-.28.02-.27.04-.27.04-.27.04-.26.05-.53.1-.51.13-.51.13-.5.14-.52.13-.52.14-.27.07-.27.06-.27.06-.27.05-.28.06-.3.04-.27.04-.3.04-.28.02-.3.03H8.4l-.27-.02-.27-.02-.27-.03-.26-.03-.27-.04-.26-.04-.25-.05-.25-.05-.25-.05-.24-.05-.47-.12-.44-.12-.42-.13-.38-.12-.35-.12-.31-.12-.27-.11-.22-.1-.18-.06-.13-.06-.13-.38-.12-.4-.12-.37-.1-.38-.1-.4L2 23.5l-.08-.4-.05-.38.2.09.25.1.27.12.3.1.36.14.38.12.39.13.44.12.45.1.48.13.24.05.26.04.25.05.26.04.27.04.27.03.28.03.28.03.28.02h.28l.29.02H9.04l.37-.02.36-.02.35-.03.34-.04.33-.04.32-.05.32-.06.3-.06.3-.06.3-.07.29-.07.29-.07.28-.07.28-.08.28-.07.48-.13.47-.12.47-.12.48-.1.23-.04.25-.04.24-.04.25-.03.25-.02.25-.01.26-.02h.54l.27.02.27.02.28.03.27.03.27.05.27.04.27.06.27.06.27.07.26.07.28.07.55.15.55.15.59.17.59.17.3.07.3.08.3.07.3.06.33.07.3.06.32.04.32.04.33.04.3.02.35.02H27.22l.26-.01.26-.02.26-.01.26-.03.26-.03.26-.04.25-.04.26-.04.24-.05.25-.05.24-.05.48-.12.46-.11.44-.13.4-.13.4-.13.36-.13.33-.12.29-.11.26-.11.2-.1-.05.36-.07.36-.07.35-.1.36-.1.36-.11.35-.12.36zm-4.04 5.93l-.22.22-.23.2-.23.2-.23.2-.23.2-.24.2-.25.18-.25.18-.24.17-.24.17-.26.17-.25.17-.25.14-.26.16-.26.15-.26.14h-.11l-.13-.01-.14-.01-.15-.02-.16-.02-.18-.04-.17-.04-.2-.05-.41-.1-.43-.12-.45-.13-.47-.15-.56-.16-.57-.17-.58-.16-.56-.14-.28-.06-.28-.06-.27-.05-.25-.04-.26-.04-.24-.03-.23-.01-.22-.01h-.36l-.18.03-.18.02-.2.02-.2.04-.2.03-.2.04-.42.08-.42.1-.44.1-.45.12-.6.15-.6.15-.32.07-.3.06-.31.07-.31.05-.31.04-.31.05-.31.04-.3.02h-.88l-.3-.02-.2-.13-.2-.13-.2-.13-.2-.14-.18-.13-.2-.15-.2-.14-.18-.14-.2-.16-.18-.15-.18-.16-.2-.16-.17-.16-.18-.17-.17-.16-.18-.18-.21-.22-.22-.21-.2-.22-.2-.23.3.07.34.07.39.06.44.07.24.03.25.02.26.03h.27l.28.02.3.02h.91l.26-.01.26-.02.26-.02.24-.04.25-.03.24-.04.24-.06.24-.05.22-.05.24-.07.22-.06.46-.13.46-.15.48-.14.49-.14.25-.07.26-.07.26-.06.26-.06.27-.06.28-.05.28-.04.29-.04.3-.03.3-.02.33-.01h.66l.33.02.32.02.3.04.3.03.32.05.29.06.29.07.3.06.29.07.28.07.28.08.55.17.55.17.5.15.5.15.26.07.25.08.26.06.24.06.26.05.26.05.25.05.26.03.27.03.26.02.27.02h.51l.24-.01.23-.01h.22l.4-.04.37-.04.35-.05.3-.06.29-.07.25-.06-.13.13-.13.13-.13.14z"/>
  <path fill="#fff" fill-rule="evenodd" d="M103.14 36.28v-.11l.04-.11.08-.12.07-.11.08-.08.11-.03.11-.04.16-.04.1.04.12.04.12.03.1.08.09.11.07.12v.11l.04.11-.04.15v.16l-.07.07-.08.08-.11.11-.12.04-.11.04h-.27l-.1-.04-.12-.04-.08-.11-.07-.08-.08-.07-.04-.16z" clip-path="url(#a)" transform="matrix(.26458 0 0 .26458 -4.51 -5.28)"/>
  <path fill="none" d="M17.23 20.4h133.84v139.13H17.23z" clip-path="url(#a)" transform="matrix(.26458 0 0 .26458 -4.51 -5.28)"/>
</svg>
