<svg xmlns="http://www.w3.org/2000/svg" viewBox="0 0 600 832">
  <path fill="#231f20" fill-rule="evenodd" d="M299.8 821.9c-128.3.4-254.4-104-263.3-285.5l-18.2-373h563.5l-18.7 373c-9 181.5-135 286-263.3 285.5"/>
  <path fill="none" stroke="#231f20" stroke-miterlimit="22.9" stroke-width="5.7" d="M299.8 821.9c-128.3.4-254.4-104-263.3-285.5l-18.2-373h563.5l-18.7 373c-9 181.5-135 286-263.3 285.5z"/>
  <path fill="#f5cd2a" fill-rule="evenodd" d="M574.1 313.3a125 125 0 0 0-45.2-8c-31.6-.1-75 28.3-117.3 28.3-37.2-1.7-59.8-26.6-110.3-27-39.4.6-79.8 26-120.2 27.3-40-.3-67.8-27.7-115.1-28a99.2 99.2 0 0 0-41 9l-3.4-75a92 92 0 0 1 44.4-11c47.3.2 75.2 27.7 115 28 40.5-1.3 80.9-26.8 120.3-27.3 50.5.3 73.1 25.2 110.3 26.9 42.4 0 85.7-28.4 117.3-28.4 21.3.2 35.5 4 50 9.7l-4.8 75.5"/>
  <path fill="none" stroke="#231f20" stroke-miterlimit="22.9" stroke-width="5.7" d="M299.8 821.9c-128.3.4-254.4-104-263.3-285.5l-18.2-373h563.5l-18.7 373c-9 181.5-135 286-263.3 285.5z"/>
  <path fill="#f5cd2a" fill-rule="evenodd" d="M161.6 497c10-3.6 18.6-9.1 19.1-19 .5-8.9-2.2-18.5-6.8-21.2-11.7-7.1-15.5-15.4-23.9-19.2-18-8-14.7-12-13.7-18.4 1.7-10 13.4-16.8 26.7-19.8 31-7.1 62-7.5 92.2-8.2 28.1-.7 56.6-2 86 0 24.7 1.6 44.6 5.4 61.5 8.2 8.6 1.4 14.5 1.8 20.5 2.7 4.6 3.6 6 6.6 4 8.9a25.2 25.2 0 0 0-5.4 6.8c1.8 6 5.9 9.7 10.3 13 4.4-2.8 7-6.2 7.5-10.2 1.6-4.8 4.6-8.2 8.9-10.3 1.2-1.5 3.6-1.6 7.5-.7 6 1.5 12.7 1.6 18.4 4.1 9.8 4.4 9.3 11.8 5.5 16.4-3.3 4-9.8 3.1-15.7 6.9-17.6 11-18.7 25.8-21.2 38.9-3.8 19.3-5.5 41.2 3.4 62.1 13.3 31.5 33.8 53.4 58.8 75.8 4.2 3.9 7.8 4.9 8.8 9 .6 2.4-1.2 4.7-2 7.4-2 6.5-7 9.4-11 13.7-31.4 35.4-61.8 61.3-92.8 90.8-3.6 3.4-7.3 3.6-11 4.1-58.6 8-111.6 5.5-166 4.8a26.1 26.1 0 0 1-17.7-7.5c-25-20.9-44.7-41-65.6-62.1-10.5-10.7-19.3-22.5-30-31.5-11-9.2-15.5-15.4-17.8-22.5-1.6-5.1-3.1-9.4-6.1-11.6a35.6 35.6 0 0 1-16.4-26.7 74 74 0 0 1 2.7-33.4 49 49 0 0 1 19.2-28c11.4-7 28-14.2 37.3-15.1 9-1 17.6-5.5 24.8-8.1"/>
  <path fill="none" stroke="#231f20" stroke-miterlimit="22.9" stroke-width="2.7" d="M161.6 497c10-3.6 18.6-9.1 19.1-19 .5-8.9-2.2-18.5-6.8-21.2-11.7-7.1-15.5-15.4-23.9-19.2-18-8-14.7-12-13.7-18.4 1.7-10 13.4-16.8 26.7-19.8 31-7.1 62-7.5 92.2-8.2 28.1-.7 56.6-2 86 0 24.7 1.6 44.6 5.4 61.5 8.2 8.6 1.4 14.5 1.8 20.5 2.7 4.6 3.6 6 6.6 4 8.9a25.2 25.2 0 0 0-5.4 6.8c1.8 6 5.9 9.7 10.3 13 4.4-2.8 7-6.2 7.5-10.2 1.6-4.8 4.6-8.2 8.9-10.3 1.2-1.5 3.6-1.6 7.5-.7 6 1.5 12.7 1.6 18.4 4.1 9.8 4.4 9.3 11.8 5.5 16.4-3.3 4-9.8 3.1-15.7 6.9-17.6 11-18.7 25.8-21.2 38.9-3.8 19.3-5.5 41.2 3.4 62.1 13.3 31.5 33.8 53.4 58.8 75.8 4.2 3.9 7.8 4.9 8.8 9 .6 2.4-1.2 4.7-2 7.4-2 6.5-7 9.4-11 13.7-31.4 35.4-61.8 61.3-92.8 90.8-3.6 3.4-7.3 3.6-11 4.1-58.6 8-111.6 5.5-166 4.8a26.1 26.1 0 0 1-17.7-7.5c-25-20.9-44.7-41-65.6-62.1-10.5-10.7-19.3-22.5-30-31.5-11-9.2-15.5-15.4-17.8-22.5-1.6-5.1-3.1-9.4-6.1-11.6a35.6 35.6 0 0 1-16.4-26.7 74 74 0 0 1 2.7-33.4 49 49 0 0 1 19.2-28c11.4-7 28-14.2 37.3-15.1 9-1 17.6-5.5 24.8-8.1z"/>
  <path fill="#231f20" fill-rule="evenodd" d="M112.7 600.3c5.4 3.1 12.4-.2 16.5-4 22.8-21.5 27-35 34.1-47.8 4.8-8.5 7.7-16.1 6.3-24.5-.8-4.5-3.8-6.8-11.4-6.8-21.6 0-28.7 8.3-39.3 14.2a36.4 36.4 0 0 0-20.5 31.3c-.7 13.7.2 29.4 14.3 37.6"/>
  <path fill="none" stroke="#231f20" stroke-miterlimit="22.9" stroke-width="2.7" d="M145.1 435.5c40.5 7.4 82 12.7 126.4 12.2 4.4 7 10 12.7 17 17a29.6 29.6 0 0 1-10.7 18.6l4.9 19.5c8-9 15.6-18.2 26.3-25.8 9-5.9 13.4-7.2 17.1-7.8 5.5-6.5 6.5-13 6.8-19.5 46.4 1.2 91.9-2.1 133-13.9M96 610.6c60 30.4 158 44 260.7 37.8 72.5-4.4 117-15.6 154.4-29.3"/>
  <path fill="none" stroke="#231f20" stroke-miterlimit="22.9" stroke-width="1.3" d="M98.8 616.8c75.5 38.4 179 42.6 261.3 37.6 70.2-4.3 114-15.3 150.9-28 1-.5 2.2-1.6 3.3-2.4M164.4 518c-1.7-.6-7.6-2.5-10.5-2.5-21.6 0-28.7 8.3-39.2 14.2A36.4 36.4 0 0 0 94.2 561c-.7 13.7 1.7 28.5 15.8 36.7M498.2 637.6c-31.5 35.4-61.9 61.3-93 90.8-3.5 3.4-7.2 3.6-10.8 4.1-58.7 8-110.2 4.7-164.5 4M443.2 452c-6.2 8.8-7.2 18.6-9 27.6-3.8 19.3-5.4 41.2 3.4 62.1 13.3 31.5 33.8 53.4 58.8 75.8M288.9 466.2c.6-1.8.8-3.4 1.2-5.4-7-4.4-13-10.4-17.4-17.4-43.6.8-84.6-4.8-126-12.3-7.2-1.3-6.7-8.5-6.5-9.2 3.1-10.4 8.3-14.4 19.8-16.2 31.1-7.2 62.1-7.5 92.2-8.2 28.2-.7 56.7-2 86.1 0 24.7 1.6 44.6 5.3 61.5 8.2 8.6 1.4 14.5 1.8 20.5 2.7 2.3 1.8 3.8 3.4 4.5 5m18.7 2c1.2-1.5 5.7-1.6 9.5-.7 6.2 1.5 12.2 1.7 18.2 3.6 6.8 2.2 10.2 8.1 3.1 10.6-42.5 15.1-102.8 17.4-144.6 16.3a33.2 33.2 0 0 1-6.8 20.9c-3.7.6-8.1 2-17 7.8-10.1 7.2-17.4 15.7-24.9 24.2"/>
  <path fill="#231f20" d="M22.3 35.7h42.4v2.2h-2.1a15 15 0 0 0-6.6 1c-1.2.7-2 1.6-2.5 2.8a30 30 0 0 0-.8 8.7v40.3c0 7.3.6 12.2 1.7 14.6a14 14 0 0 0 5.5 6 18 18 0 0 0 9.6 2.3c4.4 0 8.2-1 11.3-3 3.2-2 5.5-4.8 7-8.3 1.6-3.5 2.4-9.6 2.4-18.4V50.4c0-3.6-.4-6.3-1.2-7.8a7 7 0 0 0-2.8-3.3c-1.9-1-4.4-1.4-7.8-1.4v-2.2h28.4v2.2h-1.6a11 11 0 0 0-5.8 1.4 7.9 7.9 0 0 0-3.3 4.2c-.5 1.3-.8 3.6-.8 7v31.1c0 9.7-.7 16.7-2 21a23.4 23.4 0 0 1-9.2 11.7c-5 3.6-11.7 5.4-20.2 5.4-7 0-12.6-1-16.5-2.8-5.2-2.6-9-5.9-11.2-10-2.1-4-3.2-9.4-3.2-16.2V50.4c0-4.7-.3-7.6-.8-8.8-.5-1.1-1.5-2-2.8-2.7-1.2-.7-3.6-1-7-1zM81 7.7l-20 21h-5.2l7-21zm59 28l40.5 50.9V51.3c0-5-.7-8.3-2.1-10-2-2.3-5.2-3.5-9.8-3.4v-2.2h27.1v2.2c-3.4.5-5.8 1-7 1.7a6.9 6.9 0 0 0-2.7 3.5c-.7 1.6-1 4.3-1 8.2v68.4h-2.1l-55.5-68.4v52.2c0 4.7 1 8 3.2 9.6 2.2 1.6 4.6 2.5 7.4 2.5h2v2.2h-29.2v-2.2c4.6 0 7.7-1 9.5-2.8 1.8-1.8 2.6-5 2.6-9.3v-58l-1.7-2.1a16.2 16.2 0 0 0-4.6-4.3 14 14 0 0 0-5.8-1.2v-2.2zm92.5 4.7v33.4h1.6c5.2 0 9-1.6 11.3-4.9 2.4-3.2 3.8-8 4.5-14.4h2.3v43h-2.3c-.5-4.7-1.5-8.6-3-11.6-1.6-3-3.4-5-5.5-6-2-1-5-1.5-9-1.5v23.1c0 4.5.2 7.3.6 8.3.4 1 1.1 1.8 2.2 2.5 1 .6 2.7 1 5 1h5c7.6 0 13.8-1.8 18.4-5.4 4.6-3.5 8-9 10-16.2h2.2l-3.7 26.1h-71v-2.2h2.8c2.3 0 4.3-.5 5.7-1.3 1-.6 1.9-1.5 2.4-3 .5-.9.7-3.4.7-7.6v-54c0-3.7 0-6-.3-6.8a5.8 5.8 0 0 0-2.2-3.3 10.4 10.4 0 0 0-6.3-1.7H201v-2.2h68.8V60h-2.3c-1.2-6-2.8-10.2-5-12.8a18.1 18.1 0 0 0-9-5.7c-2.2-.7-6.4-1.1-12.7-1.1zm-1.2-10L219 7.3h4.6L238 19.7l14.9-12h5l-13 22.7zm128.3 5.3v22.2h-2.1a35.2 35.2 0 0 0-4.3-11c-1.6-2.3-3.8-4-6.5-5.4-1.6-.7-4.2-1.1-8-1.1h-6.2v63.3c0 4.2.2 6.9.7 8 .5 1 1.4 1.9 2.7 2.7 1.4.8 3.2 1.2 5.6 1.2h2.7v2.2h-43v-2.2h2.7c2.4 0 4.3-.5 5.8-1.3 1-.6 1.9-1.5 2.4-3 .5-.9.7-3.4.7-7.6V40.4h-6c-5.4 0-9.5 1.2-12 3.5-3.5 3.3-5.7 8-6.6 14h-2.3V35.7zm50 79.9v2.2h-43v-2.2h2.7c2.4 0 4.3-.5 5.8-1.3 1-.6 1.8-1.5 2.4-3 .5-.9.7-3.4.7-7.6v-54c0-4.2-.2-6.8-.7-7.9-.4-1-1.3-2-2.7-2.7-1.3-.8-3.2-1.2-5.5-1.2h-2.7v-2.2h43v2.2h-2.8c-2.4 0-4.3.4-5.7 1.3-1 .6-2 1.5-2.5 2.9-.4 1-.7 3.5-.7 7.6v54c0 4.2.3 6.9.7 8 .5 1 1.4 1.9 2.7 2.7 1.4.8 3.2 1.2 5.5 1.2zM495 33.8v28.5h-2.4c-1.7-7.5-5-13.2-10-17.1a25.4 25.4 0 0 0-39.9 10 52.4 52.4 0 0 0-3.8 20.4c0 7.3 1 14 2.8 20 1.9 6.1 4.8 10.7 8.7 13.7 4 3.1 9.1 4.7 15.4 4.7 5.2 0 9.9-1.1 14.2-3.4a49 49 0 0 0 13.6-11.7v7.1a45 45 0 0 1-14.4 10.4c-5 2.2-10.8 3.3-17.5 3.3-8.7 0-16.5-1.8-23.3-5.3-6.8-3.5-12-8.5-15.8-15.1a42.5 42.5 0 0 1 .7-43.3 44.9 44.9 0 0 1 57-18.4c3.8 1.4 6.1 2.1 7.1 2.1 1.3 0 2.4-.4 3.4-1.4 1-1 1.5-2.4 1.8-4.5zm40.6 6.6v33.4h1.6c5.2 0 9-1.6 11.3-4.9 2.4-3.2 3.9-8 4.5-14.4h2.3v43h-2.3c-.5-4.7-1.5-8.6-3-11.6-1.6-3-3.4-5-5.5-6-2-1-5-1.5-9-1.5v23.1c0 4.5.3 7.3.7 8.3.3 1 1 1.8 2.1 2.5 1 .6 2.7 1 5 1h5c7.7 0 13.8-1.8 18.4-5.4 4.7-3.5 8-9 10-16.2h2.2l-3.7 26.1h-71v-2.2h2.8c2.4 0 4.3-.5 5.7-1.3 1-.6 1.9-1.5 2.4-3 .5-.9.7-3.4.7-7.6v-54c0-3.7 0-6-.3-6.8a5.8 5.8 0 0 0-2.2-3.3A10.4 10.4 0 0 0 507 38h-2.7v-2.2H573V60h-2.3c-1.2-6-2.8-10.2-5-12.8a18.1 18.1 0 0 0-9-5.7c-2.2-.7-6.4-1.1-12.6-1.1h-8.5"/>
</svg>
