<svg xmlns="http://www.w3.org/2000/svg" viewBox="0 0 124 174">
    <path style="fill:#000;" d="M123.79 90.37h-4.92v13.37h-3.3V90.37h-4.86v-2.68h13.08zm-18.18 9.16q0-.94-.66-1.43-.66-.5-2.38-1.06-1.72-.56-2.72-1.1-2.74-1.48-2.74-3.98 0-1.3.73-2.32.74-1.02 2.1-1.6 1.39-.57 3.1-.57 1.71 0 3.06.63 1.34.62 2.08 1.75.75 1.14.75 2.58h-3.3q0-1.1-.7-1.7-.7-.62-1.95-.62-1.21 0-1.89.51-.67.51-.67 1.35 0 .78.78 1.31.8.53 2.33 1 2.82.84 4.11 2.1 1.3 1.25 1.3 3.13 0 2.08-1.58 3.27-1.58 1.18-4.25 1.18-1.85 0-3.37-.67-1.52-.68-2.33-1.86-.8-1.18-.8-2.74h3.33q0 2.66 3.17 2.66 1.18 0 1.84-.47.66-.49.66-1.35zM94.05 87.7v10.57q0 2.64-1.65 4.17-1.64 1.53-4.5 1.53-2.8 0-4.46-1.49-1.66-1.48-1.69-4.09V87.7h3.3v10.6q0 1.57.76 2.3.76.72 2.1.72 2.78 0 2.83-2.94V87.7zM70.14 98.1v5.65h-3.31V87.7h6.26q1.81 0 3.18.66 1.38.66 2.11 1.89.74 1.21.74 2.76 0 2.36-1.62 3.73-1.6 1.36-4.46 1.36zm0-2.68h2.95q1.31 0 2-.62.7-.62.7-1.76 0-1.18-.7-1.91t-1.92-.75h-3.03zm-6.26.67q0 2.37-.84 4.16-.83 1.78-2.4 2.75-1.55.97-3.57.97-2 0-3.56-.96-1.57-.96-2.43-2.73-.86-1.79-.87-4.1v-.8q0-2.37.85-4.16.86-1.81 2.41-2.77 1.57-.97 3.58-.97 2 0 3.56.97 1.56.96 2.41 2.77.86 1.8.86 4.15zm-3.35-.73q0-2.52-.9-3.83-.9-1.32-2.58-1.32-1.67 0-2.57 1.3-.9 1.3-.92 3.8v.78q0 2.46.9 3.81.91 1.36 2.6 1.36 1.67 0 2.57-1.3.89-1.31.9-3.81zM44.6 99.53q0-.94-.66-1.43-.66-.5-2.38-1.06-1.72-.56-2.72-1.1-2.73-1.48-2.73-3.98 0-1.3.72-2.32.74-1.02 2.1-1.6 1.39-.57 3.1-.57 1.71 0 3.06.63 1.34.62 2.08 1.75.75 1.14.75 2.58h-3.3q0-1.1-.7-1.7-.7-.62-1.95-.62-1.21 0-1.89.51-.67.51-.67 1.35 0 .78.79 1.31t2.32 1q2.82.84 4.11 2.1 1.3 1.25 1.3 3.13 0 2.08-1.58 3.27-1.58 1.18-4.25 1.18-1.85 0-3.37-.67-1.52-.68-2.33-1.86-.8-1.18-.8-2.74h3.33q0 2.66 3.17 2.66 1.18 0 1.84-.47.66-.49.66-1.35zm-15 .9h-5.8l-1.1 3.31H19.2l5.97-16.05h3.07l6 16.05h-3.51zm-4.9-2.67h4.01l-2.01-6.01zM4.32 87.69l4.12 11.64 4.1-11.64h4.35v16.05h-3.32v-4.39l.33-7.57-4.33 11.96H7.3L2.98 91.8l.33 7.56v4.4H0V87.68zM119.7 68.56h-6.35v4.3h7.45v2.66h-10.76V59.47h10.74v2.68h-7.43v3.82h6.35zm-12.08-6.41h-4.92v13.37h-3.3V62.15h-4.86v-2.68h13.08zm-21.08 7.5h-2.64v5.87h-3.3V59.47h5.96q2.84 0 4.39 1.27 1.54 1.26 1.54 3.58 0 1.64-.72 2.74-.7 1.1-2.15 1.75l3.47 6.56v.15h-3.55zm-2.64-2.68h2.67q1.24 0 1.93-.63.68-.64.68-1.76 0-1.13-.65-1.78-.64-.65-1.97-.65h-2.66zm1.85-10.24l1.61-1.57h2.73v.12l-3.33 3.1h-2.02l-3.33-3.12v-.1h2.72zm-8.1 11.13q0 2.37-.84 4.15-.84 1.79-2.4 2.76-1.56.97-3.58.97-2 0-3.56-.96-1.57-.96-2.43-2.73-.86-1.79-.87-4.1v-.8q0-2.37.85-4.16.86-1.81 2.42-2.77 1.56-.97 3.57-.97 2 0 3.56.97 1.57.96 2.41 2.77.86 1.8.86 4.15zm-3.36-.73q0-2.52-.9-3.84-.9-1.3-2.58-1.3-1.67 0-2.57 1.3-.9 1.28-.91 3.79v.78q0 2.46.9 3.81.9 1.36 2.6 1.36 1.67 0 2.56-1.3.9-1.31.9-3.82zm-21.6 2.73v5.66h-3.3V59.47h6.25q1.81 0 3.18.66 1.38.66 2.12 1.89.74 1.2.74 2.76 0 2.36-1.63 3.73-1.6 1.35-4.46 1.35zm0-2.67h2.95q1.32 0 2-.62.7-.62.7-1.77 0-1.18-.7-1.9-.7-.73-1.92-.75h-3.03zm-18.52 8.33V59.47h4.94q2.12 0 3.78.96 1.68.95 2.62 2.71.93 1.75.93 4v.73q0 2.24-.92 3.98-.92 1.74-2.6 2.7-1.67.96-3.77.97zm3.31-13.37v10.71h1.6q1.94 0 2.97-1.26 1.02-1.27 1.04-3.63v-.85q0-2.45-1.01-3.7-1.02-1.27-2.97-1.27zm-6.25 5.7q0 2.38-.84 4.16-.84 1.79-2.4 2.76-1.56.97-3.58.97-2 0-3.56-.96t-2.42-2.73q-.86-1.79-.87-4.1v-.8q0-2.37.84-4.16.86-1.81 2.42-2.77 1.56-.97 3.57-.97 2 0 3.56.97 1.57.96 2.42 2.77.86 1.8.86 4.15zm-3.36-.72q0-2.52-.9-3.84-.9-1.3-2.58-1.3-1.66 0-2.57 1.3-.9 1.28-.91 3.79v.78q0 2.46.9 3.81.9 1.36 2.6 1.36 1.67 0 2.56-1.3.9-1.31.9-3.82zm-21.6 2.73v5.66h-3.3V59.47h6.26q1.8 0 3.17.66 1.38.66 2.12 1.89.74 1.2.74 2.76 0 2.36-1.62 3.73-1.61 1.35-4.47 1.35zm0-2.67h2.96q1.3 0 2-.62.69-.62.69-1.77 0-1.18-.7-1.9-.7-.73-1.92-.75H6.26zm70.3 75.17c0-.33-.3-.73-.7-.95-.2-.1-.66-.48-1.03-.83a6.16 6.16 0 0 0-4.45-1.67c-1.02-.01-1.52.12-1.91.5-.48.47-.23 1 .47 1 .15 0 .53-.13.86-.28.5-.24.65-.28.96-.25.51.05 2.15.88 3.2 1.63 1.07.76 1.58 1 2.15 1.04l.45.03zm-5.6 2.67c.23-.29.24-.33.04-.53-.3-.3-.77-.17-.92.24-.12.35 0 .53.37.53.24 0 .34-.05.5-.24zm-5.05 7.14c.14-.06.33-.18.4-.25.2-.16.45-.65.45-.84 0-.08.1-.3.24-.48.32-.5.66-1.16.88-1.76.64-1.8.66-4.47.03-6.97-.4-1.6-.94-2.34-1.68-2.34-.2 0-.47.06-.6.13-.9.47-2.36 2.44-2.78 3.79a8.76 8.76 0 0 0 1.42 8.01c.23.3.47.5.73.64.46.22.54.23.9.07zm-1.18-3.96c-.07-.07-.1-.66-.1-2.12 0-1.88.02-2.06.18-2.64.19-.64.6-1.37.73-1.32.14.04.58.73.68 1.04.13.42.18 2.01.08 2.74l-.25 1.55-.17.91-.54-.04a1.6 1.6 0 0 1-.61-.12zm9.94 7.32a7.5 7.5 0 0 0 2.2-.33c1.2-.58 1.41-.76 1.8-1.6.51-1.09.33-1.9-.67-2.89a4.82 4.82 0 0 0-2.87-1.39c-.21-.02-.88 0-1.47.08a51 51 0 0 1-2.16.2c-.6.03-1.2.1-1.38.15-.69.2-1.36 1.17-1.52 2.17-.14.91.2 1.88.93 2.62.45.45.9.7 1.57.9.5.13 2.31.18 3.57.09zm-.7-1.94c-.39-.1-1.02-.18-1.75-.2-1.27-.06-1.42-.12-1.74-.68-.43-.74-.06-1.04 1.33-1.1 1.28-.04 3.67.36 4.1.7.37.3.37.46.02 1.03l-.32.5-.5-.04c-.29-.03-.8-.12-1.14-.21zm-18.33 3.72l2.32-.4c2.32-.36 3-.55 3.72-1.05.46-.32.6-.63.42-.99-.12-.25-.74-.72-.96-.72-.05 0-.14-.12-.2-.25-.22-.53-1.47-1.52-2.6-2.07-.8-.39-1.16-.44-1.85-.27-.39.1-.7.12-1.07.08-1.82-.16-1.91-.15-2.27.06-.7.4-1.38 1.41-1.64 2.42a3.6 3.6 0 0 0 .03 1.92c.19.41.69.85 1.3 1.14.67.3 1.61.35 2.8.13zm-.66-2.2c-.78-.2-.92-.48-.47-.93.18-.18.37-.27.7-.34.82-.17 2.87.04 4.1.43.63.2.75.27.57.38-.06.04-.04.1.04.18.1.12.07.13-.48.14-.33.01-.96.09-1.4.18a8.2 8.2 0 0 1-3.06-.04zm11.02 11c.83-.55 1.36-1.74 1.39-3.1.05-2.11 0-4.7-.12-5.27-.23-1.22-.62-1.95-1.26-2.36-.9-.57-1.72-.01-2.53 1.71a13.08 13.08 0 0 0-1.26 5.59c.04.95.31 1.45 1.36 2.5 1.18 1.2 1.7 1.4 2.42.93zm-1.09-2.95c-.3-.26-.45-.74-.55-1.6-.16-1.36 0-2.95.36-3.56.12-.21.2-.27.43-.29.6-.05.87.64.86 2.23 0 1.82-.4 3.36-.88 3.4a.77.77 0 0 1-.22-.18zm-2.79 10.52c2.66-.37 6.11-1.97 9.07-4.21a85.93 85.93 0 0 0 5.6-4.67c1.07-1.06 1.6-1.85 2.63-3.82.91-1.78 1.1-2.09 2.01-3.4.87-1.26 1.3-2.01 1.61-2.9.3-.79.42-1.52.62-3.7.1-1 .28-2.32.44-3.16.25-1.28.28-1.57.28-2.7 0-1.11-.03-1.41-.2-2.23a24.52 24.52 0 0 0-4.12-8.47c-.64-.8-2.44-2.54-3.28-3.19a21.57 21.57 0 0 0-8.65-3.9c-1.64-.34-2.2-.38-3.98-.28-2.67.15-3.76.4-5.62 1.33a36.1 36.1 0 0 0-3.07 1.7c-.73.5-2.25 1.8-3.36 2.88a18.04 18.04 0 0 0-3.6 4.63 44.01 44.01 0 0 1-2.52 4.01c-2.37 3.5-2.5 3.75-3.22 6.6a17.6 17.6 0 0 1-.88 2.7c-.74 1.73-.76 1.92-.74 4.94.03 2.4.02 2.55-.17 3.48-.34 1.8-.24 2.72.47 3.77.32.48 2.33 2.65 3.9 4.22a19.58 19.58 0 0 0 6.71 4.42c1.35.57 2.56.94 4.25 1.28 2.84.58 4.81.8 5.82.67zm-2.03-4.55a17.52 17.52 0 0 1-5.84-3.45c-3.33-2.76-5.28-5.37-6.3-8.4-.45-1.36-.45-1.5.1-2.3.36-.53.5-.82.87-1.98.73-2.25 1.42-3.52 3.22-5.9 2.88-3.82 6.43-6.8 10.03-8.45 2.77-1.28 5.6-1.61 8.99-1.05 3.36.54 6.36 2.24 7.76 4.39a33.4 33.4 0 0 1 2.02 4.17c.32.93.43 1.66.44 2.85 0 1.06-.02 1.25-.24 2.13a36.1 36.1 0 0 1-1.97 5.35 21.21 21.21 0 0 1-3.2 4.49 26.6 26.6 0 0 1-5.84 4.8 33.4 33.4 0 0 1-4.1 2.46c-1.15.55-1.73.76-2.67.97-.88.19-2.4.16-3.27-.08zm-21.26-22.18c.33 0 .73-.3.95-.7.1-.2.48-.66.83-1.03a6.16 6.16 0 0 0 1.67-4.44c.01-1.03-.12-1.52-.5-1.92-.47-.48-1-.23-1 .47 0 .15.13.53.28.86.24.5.28.65.25.96-.05.51-.88 2.15-1.63 3.2-.76 1.07-1 1.58-1.04 2.15l-.03.45zm-2.67-5.6c.29.24.33.24.53.04.3-.29.17-.77-.24-.92-.35-.12-.53 0-.53.38 0 .23.05.33.24.5zm-7.14-5.05c.06.15.18.33.25.4.16.2.65.45.84.45.08 0 .3.1.48.24.5.32 1.16.66 1.76.88 1.8.65 4.47.66 6.97.03 1.6-.4 2.34-.94 2.34-1.68 0-.2-.06-.47-.13-.6-.47-.9-2.44-2.35-3.79-2.78a8.76 8.76 0 0 0-8.01 1.42c-.3.23-.5.47-.64.74-.22.45-.23.53-.07.9zm3.96-1.18c.07-.07.66-.1 2.12-.1 1.88 0 2.06.02 2.64.18.64.19 1.37.6 1.32.74-.04.13-.73.57-1.04.68-.42.13-2.01.17-2.74.07l-1.55-.25-.91-.17.04-.53c.01-.3.07-.58.12-.62zm-7.32 9.94c.1 1.32.19 1.9.33 2.2.58 1.2.76 1.41 1.6 1.8 1.09.52 1.9.33 2.89-.67a4.82 4.82 0 0 0 1.39-2.87c.02-.21 0-.88-.08-1.46-.07-.6-.15-1.57-.2-2.16-.03-.6-.1-1.22-.15-1.39-.2-.68-1.17-1.36-2.17-1.52-.91-.14-1.88.21-2.62.94-.45.44-.7.9-.9 1.56-.13.5-.18 2.31-.09 3.57zm1.94-.7c.1-.39.18-1.02.2-1.75.06-1.27.12-1.42.68-1.74.74-.43 1.04-.06 1.1 1.33.04 1.28-.36 3.67-.7 4.1-.3.37-.46.37-1.03.02l-.5-.32.04-.5c.03-.29.12-.8.21-1.13zm-3.72-18.33l.4 2.32c.36 2.32.55 3 1.05 3.73.32.45.63.58.99.41.25-.12.72-.74.72-.95 0-.06.12-.15.25-.2.53-.23 1.52-1.48 2.07-2.61.39-.8.44-1.15.27-1.85-.1-.39-.12-.7-.09-1.06.17-1.83.16-1.92-.05-2.27a4.19 4.19 0 0 0-2.42-1.65 3.6 3.6 0 0 0-1.92.03c-.41.19-.85.69-1.14 1.3-.3.67-.35 1.61-.13 2.8zm2.2-.65c.2-.78.48-.93.93-.48.18.18.27.37.34.7.17.82-.04 2.87-.43 4.1-.2.63-.27.75-.38.57-.04-.05-.1-.04-.18.04-.12.1-.13.07-.14-.48-.01-.32-.09-.96-.18-1.4a8.2 8.2 0 0 1 .04-3.05zm-11 11.01c.55.83 1.74 1.36 3.1 1.4 2.1.04 4.7-.02 5.27-.13 1.22-.23 1.95-.62 2.36-1.26.57-.9.01-1.71-1.71-2.53a13.08 13.08 0 0 0-5.59-1.26c-.95.04-1.45.32-2.5 1.37-1.2 1.18-1.4 1.7-.93 2.41zm2.95-1.09c.26-.3.74-.45 1.6-.55 1.36-.16 2.95 0 3.56.36.21.12.27.2.29.43.05.6-.64.87-2.23.87-1.82-.01-3.36-.41-3.4-.9l.18-.2zM7.5 132.52c.37 2.65 1.97 6.1 4.21 9.07a85.93 85.93 0 0 0 4.67 5.6c1.06 1.07 1.85 1.6 3.82 2.62 1.78.92 2.09 1.1 3.4 2.01 1.26.87 2.01 1.3 2.9 1.62.79.29 1.52.41 3.7.61 1 .1 2.32.28 3.16.44 1.28.25 1.57.28 2.7.28 1.1 0 1.41-.03 2.23-.2a24.52 24.52 0 0 0 8.47-4.12c.8-.64 2.54-2.43 3.19-3.28a21.57 21.57 0 0 0 3.9-8.65c.34-1.63.38-2.2.28-3.98-.15-2.67-.4-3.76-1.33-5.61a36.1 36.1 0 0 0-1.7-3.08c-.5-.73-1.8-2.25-2.88-3.36a18.04 18.04 0 0 0-4.63-3.6 44.01 44.01 0 0 1-4.01-2.52c-3.5-2.37-3.75-2.5-6.6-3.21a17.6 17.6 0 0 1-2.7-.9c-1.73-.73-1.92-.75-4.94-.73-2.4.03-2.55.02-3.48-.17-1.8-.34-2.72-.23-3.77.48-.48.31-2.65 2.32-4.22 3.89a19.58 19.58 0 0 0-4.42 6.71 20.66 20.66 0 0 0-1.28 4.25c-.58 2.84-.8 4.81-.67 5.83zm4.55-2.03a17.52 17.52 0 0 1 3.45-5.84c2.76-3.33 5.37-5.29 8.4-6.3 1.36-.46 1.5-.45 2.3.09.53.37.82.5 1.98.88 2.25.72 3.52 1.42 5.9 3.21 3.82 2.88 6.8 6.44 8.45 10.03 1.28 2.77 1.61 5.6 1.05 8.99-.54 3.36-2.24 6.37-4.39 7.76a33.4 33.4 0 0 1-4.17 2.03c-.93.31-1.66.42-2.85.43a6.37 6.37 0 0 1-2.13-.24 36.1 36.1 0 0 1-5.35-1.97 21.21 21.21 0 0 1-4.49-3.2 26.6 26.6 0 0 1-4.8-5.84 33.4 33.4 0 0 1-2.46-4.1 10.64 10.64 0 0 1-.97-2.67 8.3 8.3 0 0 1 .08-3.26zm77.3-16.03c-.34 0-.73.3-.96.7-.1.2-.47.66-.82 1.03a6.16 6.16 0 0 0-1.68 4.44c0 1.03.13 1.52.5 1.92.48.48 1 .23 1-.47 0-.15-.12-.54-.28-.86-.24-.5-.28-.65-.24-.97.05-.5.88-2.14 1.62-3.2.76-1.06 1-1.57 1.05-2.14l.03-.45zm2.66 5.6c-.28-.24-.33-.25-.53-.04-.3.29-.17.77.24.91.36.13.53 0 .53-.37 0-.24-.04-.34-.24-.5zm7.15 5.05a1.79 1.79 0 0 0-.25-.4 1.75 1.75 0 0 0-.84-.45c-.08 0-.3-.1-.49-.24a8.52 8.52 0 0 0-1.76-.88c-1.8-.65-4.46-.66-6.96-.03-1.6.4-2.35.94-2.35 1.68 0 .2.06.47.13.6.47.9 2.45 2.35 3.8 2.78 2.72.87 5.74.34 8-1.42.3-.23.51-.47.65-.74.22-.45.23-.53.07-.9zm-3.97 1.18c-.06.07-.66.1-2.11.1-1.88 0-2.06-.02-2.64-.18-.64-.19-1.37-.6-1.33-.74.04-.13.74-.58 1.04-.68.43-.13 2.02-.17 2.74-.07l1.56.25.9.17-.03.53a1.6 1.6 0 0 1-.13.62zm7.32-9.94a7.5 7.5 0 0 0-.33-2.2c-.57-1.2-.76-1.41-1.59-1.8-1.1-.52-1.9-.33-2.9.67a4.82 4.82 0 0 0-1.38 2.87c-.03.21 0 .88.07 1.46.07.6.16 1.57.2 2.16.04.6.1 1.22.15 1.39.2.68 1.17 1.36 2.18 1.52.9.14 1.87-.21 2.61-.94.45-.45.7-.9.9-1.56.14-.5.19-2.31.1-3.57zm-1.93.7c-.1.39-.18 1.02-.21 1.75-.06 1.27-.11 1.42-.67 1.74-.75.43-1.05.05-1.1-1.33-.05-1.28.35-3.67.7-4.1.29-.37.46-.37 1.03-.02l.5.32-.05.5c-.03.28-.12.8-.2 1.13zm3.72 18.33c-.09-.45-.27-1.5-.4-2.32-.36-2.32-.55-3-1.06-3.73-.31-.45-.62-.58-.98-.41-.26.12-.73.74-.73.95 0 .06-.11.15-.25.2-.52.23-1.52 1.48-2.06 2.61-.4.8-.44 1.15-.27 1.85.09.38.12.7.08 1.06-.16 1.83-.15 1.92.05 2.27.41.7 1.42 1.38 2.43 1.65a3.6 3.6 0 0 0 1.91-.03c.42-.19.86-.7 1.14-1.3.31-.67.36-1.61.14-2.8zm-2.2.65c-.21.78-.48.93-.93.48a1.24 1.24 0 0 1-.35-.7c-.17-.82.05-2.87.43-4.1.2-.63.27-.75.38-.57.04.05.1.04.19-.04.11-.1.12-.07.14.48 0 .32.08.96.17 1.4a8.2 8.2 0 0 1-.03 3.05zm11-11.01c-.55-.83-1.74-1.36-3.1-1.4-2.11-.05-4.7.02-5.28.12-1.22.24-1.94.63-2.35 1.27-.57.9-.02 1.71 1.71 2.52 1.75.83 4.04 1.36 5.58 1.27.96-.05 1.45-.32 2.5-1.37 1.2-1.18 1.4-1.7.94-2.41zm-2.95 1.09c-.27.29-.74.45-1.6.55-1.37.16-2.96 0-3.57-.36-.2-.12-.27-.2-.28-.43-.06-.6.63-.88 2.22-.87 1.82.01 3.37.41 3.4.89 0 .02-.08.12-.17.22zm10.51 2.78c-.37-2.65-1.97-6.1-4.2-9.07a85.93 85.93 0 0 0-4.68-5.6c-1.05-1.07-1.84-1.6-3.82-2.62a21.92 21.92 0 0 1-3.4-2.01 11.98 11.98 0 0 0-2.89-1.62c-.8-.29-1.53-.41-3.7-.61-1-.1-2.33-.28-3.16-.44a10.74 10.74 0 0 0-2.71-.28c-1.1 0-1.4.03-2.22.2a24.52 24.52 0 0 0-8.47 4.12c-.8.64-2.55 2.43-3.19 3.28a21.57 21.57 0 0 0-3.9 8.65c-.35 1.63-.38 2.2-.28 3.98.14 2.67.4 3.76 1.32 5.61a36.1 36.1 0 0 0 1.7 3.07c.5.74 1.8 2.26 2.88 3.37a18.04 18.04 0 0 0 4.63 3.6c1.68.95 2.22 1.29 4.02 2.51 3.49 2.38 3.75 2.51 6.6 3.22 1.1.29 1.82.52 2.7.9 1.73.72 1.91.75 4.93.72 2.41-.02 2.56-.01 3.48.17 1.8.35 2.72.24 3.78-.47.48-.31 2.65-2.32 4.21-3.89a19.58 19.58 0 0 0 4.43-6.71c.57-1.35.94-2.57 1.28-4.25.58-2.84.8-4.82.66-5.83zm-4.55 2.03c-.2.76-.52 1.48-1.15 2.6a17.52 17.52 0 0 1-2.3 3.25c-2.76 3.32-5.36 5.28-8.4 6.3-1.35.45-1.5.44-2.29-.1-.54-.37-.82-.5-1.99-.88-2.25-.72-3.51-1.42-5.9-3.22-3.81-2.88-6.8-6.43-8.45-10.02a14.78 14.78 0 0 1-1.05-8.99c.55-3.36 2.25-6.37 4.4-7.76a33.4 33.4 0 0 1 4.16-2.03 8.11 8.11 0 0 1 2.86-.43c1.06 0 1.24.02 2.13.24a36.1 36.1 0 0 1 5.35 1.97c1.35.67 3.02 1.87 4.48 3.2a26.6 26.6 0 0 1 4.8 5.84 33.4 33.4 0 0 1 2.47 4.1c.54 1.15.75 1.73.96 2.67.2.88.16 2.4-.08 3.26zM49.36 31.36c0 .33.3.72.7.95.2.1.66.48 1.03.82a6.16 6.16 0 0 0 4.44 1.68c1.03 0 1.52-.13 1.92-.5.48-.47.23-1-.47-1-.15 0-.54.12-.86.28-.5.24-.65.28-.97.25-.5-.06-2.14-.88-3.2-1.63-1.06-.76-1.57-1-2.14-1.05l-.45-.03zm5.6-2.67c-.24.28-.25.33-.04.53.29.3.77.17.91-.24.13-.36 0-.53-.37-.53-.24 0-.34.04-.5.24zm5.05-7.14c-.15.06-.33.17-.4.24-.2.17-.45.66-.45.84 0 .08-.1.3-.24.5a8.52 8.52 0 0 0-.88 1.75c-.65 1.8-.66 4.46-.03 6.96.4 1.6.94 2.35 1.68 2.35.2 0 .47-.06.6-.13.9-.47 2.35-2.45 2.78-3.8a8.76 8.76 0 0 0-1.42-8c-.23-.3-.47-.51-.74-.64-.45-.23-.53-.24-.9-.07zm1.18 3.96c.07.07.1.66.1 2.11 0 1.88-.02 2.06-.18 2.64-.19.64-.6 1.38-.74 1.33a2.96 2.96 0 0 1-.68-1.04c-.13-.43-.17-2.02-.07-2.74l.25-1.55.17-.92.53.04c.29.02.58.08.62.13zm-9.94-7.32a7.5 7.5 0 0 0-2.2.33c-1.2.57-1.41.76-1.8 1.59-.52 1.1-.33 1.9.67 2.9.8.78 1.75 1.25 2.87 1.38.21.03.88 0 1.46-.07.6-.07 1.57-.16 2.16-.2.6-.03 1.22-.1 1.39-.15.68-.2 1.36-1.17 1.52-2.18.14-.9-.21-1.87-.94-2.61-.45-.45-.9-.7-1.56-.9-.5-.14-2.31-.18-3.57-.1zm.7 1.94c.39.1 1.02.17 1.75.2 1.27.06 1.42.11 1.74.68.43.74.05 1.04-1.33 1.1-1.28.04-3.67-.36-4.1-.7-.37-.3-.37-.47-.02-1.04l.32-.5.5.05c.28.03.8.12 1.13.2zm18.33-3.72l-2.32.39c-2.32.36-3 .55-3.73 1.06-.45.31-.58.62-.41.98.12.26.74.73.95.73.06 0 .15.12.2.25.23.52 1.48 1.52 2.61 2.07.8.38 1.15.44 1.85.27.38-.1.7-.13 1.06-.09 1.83.16 1.92.16 2.27-.05.7-.41 1.38-1.42 1.65-2.43a3.6 3.6 0 0 0-.03-1.91 2.66 2.66 0 0 0-1.3-1.14c-.67-.31-1.61-.36-2.8-.13zm.65 2.2c.78.2.93.47.48.92-.18.19-.37.28-.7.35a11.1 11.1 0 0 1-4.1-.43c-.63-.2-.75-.27-.57-.38.05-.04.04-.1-.04-.19-.1-.11-.07-.12.48-.14.32 0 .96-.08 1.4-.17a8.2 8.2 0 0 1 3.05.04zm-11.01-11c-.83.54-1.36 1.73-1.4 3.1-.05 2.1.02 4.7.12 5.27.24 1.22.63 1.95 1.27 2.35.9.58 1.71.02 2.52-1.7a13.08 13.08 0 0 0 |1.27-5.59c-.05-.96-.32-1.45-1.37-2.5-1.18-1.2-1.7-1.4-2.41-.94zM61 10.54c.29.27.45.74.55 1.6.16 1.37 0 2.96-.36 3.57-.12.2-.2.27-.43.28-.6.06-.88-.63-.87-2.22.01-1.82.41-3.37.89-3.4.02 0 .12.08.22.17zM63.79.04c-2.65.37-6.1 1.97-9.07 4.2a85.93 85.93 0 0 0-5.6 4.68c-1.07 1.05-1.6 1.84-2.62 3.82a21.92 21.92 0 0 1-2.01 3.4 11.98 11.98 0 0 0-1.62 2.89c-.29.8-.41 1.53-.61 3.7-.1 1-.28 2.33-.44 3.16a10.74 10.74 0 0 0-.28 2.71c0 1.1.03 1.4.2 2.22a24.51 24.51 0 0 0 4.12 8.47c.64.8 2.43 2.55 3.28 3.2a21.57 21.57 0 0 0 8.65 3.9c1.63.34 2.2.38 3.98.28 2.67-.15 3.76-.4 5.61-1.33a36.1 36.1 0 0 0 3.07-1.7c.74-.5 2.26-1.8 3.37-2.88a18.04 18.04 0 0 0 3.6-4.63 44.01 44.01 0 0 1 2.51-4.02c2.38-3.49 2.51-3.75 3.22-6.6.29-1.1.52-1.82.9-2.7.72-1.73.75-1.91.72-4.93-.02-2.4-.01-2.56.17-3.48.35-1.8.24-2.72-.47-3.78a57.93 57.93 0 0 0-3.89-4.21 19.58 19.58 0 0 0-6.71-4.42A20.66 20.66 0 0 0 69.62.7C66.78.12 64.8-.1 63.8.04zm2.03 4.55c.76.2 1.48.52 2.6 1.15 1.2.66 1.75 1.05 3.25 2.3 3.32 2.76 5.28 5.36 6.3 8.4.45 1.35.44 1.5-.1 2.29-.37.54-.5.82-.88 1.99-.72 2.25-1.42 3.51-3.22 5.9-2.88 3.81-6.43 6.8-10.02 8.45a14.78 14.78 0 0 1-8.99 1.05c-3.36-.55-6.37-2.25-7.76-4.4a33.4 33.4 0 0 1-2.03-4.16 8.11 8.11 0 0 1-.43-2.86c0-1.05.02-1.24.24-2.13a36.1 36.1 0 0 1 1.97-5.35 21.21 21.21 0 0 1 3.2-4.48 26.6 26.6 0 0 1 5.84-4.8 33.4 33.4 0 0 1 4.1-2.47c1.15-.54 1.73-.75 2.67-.96a8.3 8.3 0 0 1 3.26.08z" aria-label="Podpořte Masopust"/>
</svg>
