<?xml version="1.0" standalone="no"?>
<!DOCTYPE svg PUBLIC "-//W3C//DTD SVG 20010904//EN"
 "http://www.w3.org/TR/2001/REC-SVG-20010904/DTD/svg10.dtd">
<svg version="1.0" xmlns="http://www.w3.org/2000/svg"
 width="700.000000pt" height="700.000000pt" viewBox="0 0 700.000000 700.000000"
 preserveAspectRatio="xMidYMid meet">
<metadata>
Created by potrace 1.11, written by Peter Selinger 2001-2013
</metadata>
<g transform="translate(0.000000,700.000000) scale(0.100000,-0.100000)"
fill="#000000" stroke="none">
<path d="M3519 6969 c-138 -20 -304 -72 -504 -156 -393 -167 -624 -317 -1162
-753 -579 -471 -637 -538 -888 -1025 -120 -233 -143 -272 -270 -455 -230 -328
-287 -473 -320 -815 -35 -367 -47 -462 -71 -588 -48 -254 -54 -302 -54 -452 0
-246 38 -434 142 -699 60 -153 211 -458 304 -613 388 -650 1078 -1135 1889
-1328 281 -67 464 -80 805 -55 240 17 366 43 534 111 123 49 507 249 620 323
180 117 560 459 731 658 121 140 224 294 356 528 57 102 204 334 326 516 390
583 393 588 484 959 62 250 67 265 150 462 109 259 104 224 104 703 1 409 1
417 28 555 54 278 31 421 -91 584 -50 66 -380 420 -557 596 -313 312 -630 514
-1105 703 -186 74 -278 98 -625 166 -414 81 -645 102 -826 75z m234 -644 c164
-25 315 -84 542 -213 135 -77 246 -157 442 -319 411 -340 699 -686 863 -1035
61 -131 132 -354 134 -420 1 -54 -2 -61 -59 -145 -71 -103 -79 -121 -140 -316
-84 -269 -149 -403 -308 -632 -347 -499 -693 -867 -1083 -1151 -290 -211 -625
-384 -894 -461 -179 -51 -283 -65 -513 -70 -229 -6 -355 3 -554 37 -373 65
-744 243 -968 465 -134 132 -199 238 -365 595 -101 220 -128 309 -151 500 -29
250 11 454 176 895 182 490 392 807 791 1195 227 221 365 327 752 579 416 272
554 350 739 417 240 87 403 108 596 79z"/>
<path d="M3012 5863 c-18 -8 -55 -40 -82 -70 -90 -98 -143 -247 -140 -392 1
-42 -3 -100 -9 -128 -15 -75 2 -571 24 -683 61 -313 232 -452 399 -325 102 77
214 314 291 610 47 181 58 260 59 410 0 111 -3 138 -22 185 -43 109 -249 332
-356 385 -58 29 -116 32 -164 8z m157 -468 c39 -45 58 -110 72 -249 21 -208
-10 -448 -66 -523 -31 -39 -77 -45 -117 -13 -77 60 -97 301 -48 585 37 216 88
281 159 200z"/>
<path d="M4655 4553 c-16 -2 -102 -17 -190 -33 -88 -16 -178 -31 -200 -34
-126 -17 -321 -50 -390 -68 -102 -25 -165 -52 -236 -99 -62 -42 -85 -81 -74
-128 8 -37 70 -93 130 -118 31 -13 46 -26 54 -49 35 -97 364 -322 516 -354 46
-9 66 -8 140 9 103 25 143 26 255 6 125 -22 177 -20 238 11 186 93 325 443
252 636 -57 154 -273 250 -495 221z m-39 -338 c85 -18 118 -41 122 -84 5 -45
-48 -94 -119 -111 -65 -16 -303 -8 -439 15 -94 15 -267 62 -284 76 -4 4 -3 15
2 26 8 14 6 23 -11 42 -12 13 -16 21 -9 17 32 -19 179 -5 412 38 44 8 254 -4
326 -19z"/>
<path d="M1710 4269 c-215 -16 -303 -29 -345 -51 -22 -11 -65 -33 -96 -48
-147 -74 -246 -298 -194 -438 60 -159 251 -314 454 -368 72 -19 214 -19 366 0
66 8 181 17 255 21 212 9 285 33 349 113 50 64 99 176 106 246 14 127 -36 264
-135 370 -140 150 -321 186 -760 155z m96 -285 c76 -18 139 -25 248 -29 124
-3 154 -7 191 -25 54 -26 105 -98 105 -147 0 -67 -55 -91 -225 -100 -122 -5
-312 18 -487 60 -109 27 -141 44 -163 88 -16 30 -15 32 31 110 l47 80 76 -6
c42 -4 122 -18 177 -31z"/>
<path d="M2995 3764 c-16 -8 -41 -25 -54 -37 -24 -23 -61 -97 -61 -124 0 -8
-25 -55 -55 -102 -142 -224 -192 -440 -182 -781 6 -195 27 -349 72 -517 93
-351 252 -414 467 -184 127 136 248 341 292 493 50 177 59 427 21 608 -46 223
-151 442 -274 573 -77 82 -157 107 -226 71z m162 -576 c28 -8 33 -15 39 -56 4
-26 8 -150 8 -277 0 -196 -3 -244 -21 -327 -23 -105 -58 -193 -97 -239 l-24
-29 -31 35 c-67 77 -91 154 -98 315 -4 104 -1 152 22 290 46 291 47 293 75
301 28 7 79 2 127 -13z"/>
<path d="M2261 2714 c-42 -35 -43 -77 -1 -99 39 -20 62 -19 93 5 30 24 43 70
27 99 -16 31 -80 29 -119 -5z"/>
<path d="M1433 2334 c-20 -9 -15 -55 10 -99 15 -27 37 -47 69 -63 25 -13 84
-59 130 -103 174 -168 320 -237 573 -270 102 -13 261 -7 320 13 54 18 125 87
125 122 0 37 -38 72 -89 81 -38 6 -53 2 -138 -39 -136 -66 -151 -64 -338 28
-93 45 -199 108 -280 165 -71 51 -161 108 -200 127 -66 33 -154 51 -182 38z"/>
</g>
</svg>
