<?xml version="1.0" standalone="no"?>
<!DOCTYPE svg PUBLIC "-//W3C//DTD SVG 20010904//EN"
 "http://www.w3.org/TR/2001/REC-SVG-20010904/DTD/svg10.dtd">
<svg version="1.0" xmlns="http://www.w3.org/2000/svg"
 width="700.000000pt" height="700.000000pt" viewBox="0 0 700.000000 700.000000"
 preserveAspectRatio="xMidYMid meet">
<metadata>
Created by potrace 1.11, written by Peter Selinger 2001-2013
</metadata>
<g transform="translate(0.000000,700.000000) scale(0.100000,-0.100000)"
fill="#000000" stroke="none">
<path d="M3560 6520 c-344 -48 -791 -255 -1175 -545 -215 -162 -622 -501 -726
-605 -138 -137 -207 -239 -339 -495 -119 -230 -142 -270 -261 -440 -113 -163
-168 -261 -209 -375 -38 -103 -54 -198 -80 -479 -12 -130 -36 -302 -57 -410
-32 -166 -36 -204 -36 -351 0 -143 4 -182 27 -288 34 -155 79 -284 161 -465
115 -250 239 -461 373 -632 82 -104 314 -330 424 -413 336 -252 715 -423 1120
-506 212 -44 286 -49 516 -36 346 19 487 52 727 172 163 82 328 173 398 220
95 65 292 233 436 373 215 209 321 346 466 600 123 217 167 287 326 520 308
452 325 486 417 855 37 144 67 236 115 350 95 224 98 248 95 639 -3 312 -2
331 22 451 45 233 31 352 -61 489 -41 62 -301 343 -504 546 -255 254 -499 415
-870 573 -175 74 -332 122 -550 166 -368 75 -624 104 -755 86z m263 -589 c98
-27 191 -68 337 -149 155 -86 226 -137 420 -298 431 -358 684 -695 816 -1088
59 -176 58 -194 -12 -297 -48 -70 -65 -107 -114 -258 -94 -291 -184 -455 -417
-764 -373 -494 -833 -881 -1299 -1095 -359 -165 -725 -208 -1164 -136 -436 71
-825 291 -1006 569 -61 94 -228 438 -262 540 -41 121 -55 215 -56 370 0 137 2
161 31 276 46 181 176 535 255 693 87 175 242 392 415 581 220 241 394 384
756 622 295 193 391 251 532 319 148 71 223 98 345 125 114 25 310 21 423 -10z"/>
<path d="M3058 5540 c-107 -71 -176 -225 -180 -402 -7 -273 1 -609 15 -683 30
-158 81 -252 164 -305 116 -74 222 -2 327 222 107 227 175 523 164 723 -6 124
-41 188 -177 324 -153 155 -221 182 -313 121z m141 -382 c38 -34 59 -96 72
-208 20 -176 -1 -382 -47 -461 -16 -27 -27 -35 -56 -37 -78 -7 -113 82 -112
288 1 236 53 436 115 440 3 0 16 -10 28 -22z"/>
<path d="M4400 4400 c-58 -11 -193 -34 -300 -51 -301 -47 -388 -72 -483 -137
-59 -41 -76 -81 -54 -128 16 -33 96 -94 124 -94 7 0 19 -15 26 -32 29 -68 191
-197 338 -268 104 -50 149 -57 239 -35 50 12 90 16 138 11 236 -21 248 -20
294 7 91 53 179 183 213 314 21 80 19 198 -4 248 -24 54 -89 111 -169 148 -86
40 -208 46 -362 17z m85 -285 c101 -27 120 -62 62 -120 -24 -24 -48 -36 -92
-45 -105 -22 -371 6 -530 56 -82 25 -97 35 -74 49 7 5 5 13 -5 24 -14 15 -9
16 62 18 42 1 124 11 182 23 122 23 295 21 395 -5z"/>
<path d="M1935 4169 c-171 -13 -245 -24 -285 -43 -155 -74 -183 -98 -234 -206
-66 -142 -42 -247 88 -375 103 -102 227 -162 371 -180 28 -3 114 1 190 10 77
9 203 20 280 25 77 5 157 14 179 20 89 26 177 152 197 282 18 118 -27 243
-121 339 -58 58 -116 91 -203 116 -65 18 -299 24 -462 12z m90 -251 c51 -13
133 -23 227 -27 165 -7 184 -14 226 -87 55 -96 7 -135 -173 -142 -165 -6 -475
46 -530 90 -49 38 -49 60 -3 134 l41 65 66 -6 c36 -4 102 -16 146 -27z"/>
<path d="M3070 3734 c-19 -8 -43 -23 -53 -32 -24 -21 -57 -85 -57 -109 0 -10
-14 -38 -31 -63 -42 -63 -86 -149 -114 -228 -84 -233 -86 -578 -4 -902 52
-208 121 -304 217 -304 26 0 61 8 78 17 116 61 305 317 360 491 113 354 44
745 -184 1038 -30 38 -61 66 -95 83 -59 29 -69 30 -117 9z m153 -513 c9 -9 12
-86 12 -274 0 -244 -2 -267 -23 -342 -24 -83 -77 -178 -95 -172 -17 5 -75 95
-88 135 -17 55 -23 261 -10 355 7 45 22 135 33 201 l22 118 69 -5 c37 -2 74
-10 80 -16z"/>
<path d="M2416 2809 c-31 -37 -32 -43 -6 -69 38 -38 100 -22 119 31 16 46 0
69 -48 69 -31 0 -44 -6 -65 -31z"/>
<path d="M1690 2463 c0 -43 38 -94 91 -123 26 -14 85 -62 133 -107 154 -146
335 -214 576 -217 133 -1 197 16 248 65 62 61 30 129 -61 129 -19 0 -69 -16
-111 -36 -64 -31 -84 -36 -125 -32 -66 7 -278 114 -415 211 -138 98 -204 130
-278 135 l-58 4 0 -29z"/>
</g>
</svg>
